  0
SECTION
  2
HEADER
  9
$ACADVER
  1
AC1004
  9
$INSBASE
 10
0.0
 20
0.0
  9
$EXTMIN
 10
-2357.2229
 20
-488.577
  9
$EXTMAX
 10
-1685.1466
 20
99.4992
  9
$LIMMIN
 10
0.0
 20
0.0
  9
$LIMMAX
 10
12.0
 20
9.0
  9
$ORTHOMODE
 70
     0
  9
$REGENMODE
 70
     1
  9
$FILLMODE
 70
     1
  9
$QTEXTMODE
 70
     0
  9
$DRAGMODE
 70
     2
  9
$LTSCALE
 40
1.0
  9
$OSMODE
 70
    37
  9
$ATTMODE
 70
     1
  9
$TEXTSIZE
 40
0.2
  9
$TRACEWID
 40
0.05
  9
$TEXTSTYLE
  7
STANDARD
  9
$CLAYER
  8
0
  9
$CELTYPE
  6
BYLAYER
  9
$CECOLOR
 62
   256
  9
$DIMSCALE
 40
1.0
  9
$DIMASZ
 40
0.18
  9
$DIMEXO
 40
0.0625
  9
$DIMDLI
 40
0.38
  9
$DIMRND
 40
0.0
  9
$DIMDLE
 40
0.0
  9
$DIMEXE
 40
0.18
  9
$DIMTP
 40
0.0
  9
$DIMTM
 40
0.0
  9
$DIMTXT
 40
0.18
  9
$DIMCEN
 40
0.09
  9
$DIMTSZ
 40
0.0
  9
$DIMTOL
 70
     0
  9
$DIMLIM
 70
     0
  9
$DIMTIH
 70
     1
  9
$DIMTOH
 70
     1
  9
$DIMSE1
 70
     0
  9
$DIMSE2
 70
     0
  9
$DIMTAD
 70
     0
  9
$DIMZIN
 70
     0
  9
$DIMBLK
  1

  9
$DIMASO
 70
     1
  9
$DIMSHO
 70
     1
  9
$DIMPOST
  1

  9
$DIMAPOST
  1

  9
$DIMALT
 70
     0
  9
$DIMALTD
 70
     2
  9
$DIMALTF
 40
25.4
  9
$DIMLFAC
 40
1.0
  9
$DIMTOFL
 70
     0
  9
$DIMTVP
 40
0.0
  9
$DIMTIX
 70
     0
  9
$DIMSOXD
 70
     0
  9
$DIMSAH
 70
     0
  9
$DIMBLK1
  1

  9
$DIMBLK2
  1

  9
$LUNITS
 70
     2
  9
$LUPREC
 70
     4
  9
$SKETCHINC
 40
0.1
  9
$FILLETRAD
 40
0.5
  9
$AUNITS
 70
     0
  9
$AUPREC
 70
     0
  9
$MENU
  1
.
  9
$ELEVATION
 40
0.0
  9
$THICKNESS
 40
0.0
  9
$LIMCHECK
 70
     0
  9
$CHAMFERA
 40
0.0
  9
$CHAMFERB
 40
0.0
  9
$SKPOLY
 70
     0
  9
$TDCREATE
 40
2458955.72795603
  9
$TDUPDATE
 40
2458955.72795603
  9
$TDINDWG
 40
0.0000000116
  9
$TDUSRTIMER
 40
0.0000000116
  9
$USRTIMER
 70
     1
  9
$ANGBASE
 50
0.0
  9
$ANGDIR
 70
     0
  9
$PDMODE
 70
     0
  9
$PDSIZE
 40
0.0
  9
$PLINEWID
 40
0.0
  9
$COORDS
 70
     1
  9
$SPLFRAME
 70
     0
  9
$SPLINETYPE
 70
     6
  9
$SPLINESEGS
 70
     8
  9
$ATTDIA
 70
     0
  9
$ATTREQ
 70
     1
  9
$SURFTAB1
 70
     6
  9
$SURFTAB2
 70
     6
  9
$SURFTYPE
 70
     6
  9
$SURFU
 70
     6
  9
$SURFV
 70
     6
  9
$UCSNAME
  2

  9
$UCSORG
 10
0.0
 20
0.0
 30
0.0
  9
$UCSXDIR
 10
1.0
 20
0.0
 30
0.0
  9
$UCSYDIR
 10
0.0
 20
1.0
 30
0.0
  9
$USERI1
 70
     0
  9
$USERI2
 70
     0
  9
$USERI3
 70
     0
  9
$USERI4
 70
     0
  9
$USERI5
 70
     0
  9
$USERR1
 40
0.0
  9
$USERR2
 40
0.0
  9
$USERR3
 40
0.0
  9
$USERR4
 40
0.0
  9
$USERR5
 40
0.0
  9
$WORLDVIEW
 70
     1
  0
ENDSEC
  0
SECTION
  2
TABLES
  0
TABLE
  2
LTYPE
 70
     1
  0
LTYPE
  2
CONTINUOUS
 70
     0
  3
Solid line
 72
    65
 73
     0
 40
0.0
  0
ENDTAB
  0
TABLE
  2
LAYER
 70
     2
  0
LAYER
  2
0
 70
     0
 62
     7
  6
CONTINUOUS
  0
LAYER
  2
LAYER_1
 70
     0
 62
     7
  6
CONTINUOUS
  0
ENDTAB
  0
TABLE
  2
STYLE
 70
     1
  0
STYLE
  2
STANDARD
 70
     0
 40
0.0
 41
1.0
 50
0.0
 71
     0
 42
0.2
  3
txt
  4

  0
ENDTAB
  0
TABLE
  2
VIEW
 70
     0
  0
ENDTAB
  0
ENDSEC
  0
SECTION
  2
BLOCKS
  0
ENDSEC
  0
SECTION
  2
ENTITIES
  0
POLYLINE
  8
LAYER_1
 62
     1
 66
     1
  0
VERTEX
  8
LAYER_1
 62
     1
 10
-2133.185
 20
-140.9656
  0
VERTEX
  8
LAYER_1
 62
     1
 10
-2134.2562
 20
-151.7301
  0
VERTEX
  8
LAYER_1
 62
     1
 10
-2137.3284
 20
-161.7577
  0
VERTEX
  8
LAYER_1
 62
     1
 10
-2142.1891
 20
-170.833
  0
VERTEX
  8
LAYER_1
 62
     1
 10
-2148.6262
 20
-178.7409
  0
VERTEX
  8
LAYER_1
 62
     1
 10
-2156.4272
 20
-185.2662
  0
VERTEX
  8
LAYER_1
 62
     1
 10
-2165.3798
 20
-190.1935
  0
VERTEX
  8
LAYER_1
 62
     1
 10
-2175.2719
 20
-193.3078
  0
VERTEX
  8
LAYER_1
 62
     1
 10
-2185.8909
 20
-194.3937
  0
SEQEND
  8
LAYER_1
 62
     1
  0
POLYLINE
  8
LAYER_1
 62
     1
 66
     1
  0
VERTEX
  8
LAYER_1
 62
     1
 10
-2344.0083
 20
-194.3937
  0
VERTEX
  8
LAYER_1
 62
     1
 10
-2346.6657
 20
-194.1226
  0
VERTEX
  8
LAYER_1
 62
     1
 10
-2349.1399
 20
-193.345
  0
VERTEX
  8
LAYER_1
 62
     1
 10
-2351.3783
 20
-192.1143
  0
VERTEX
  8
LAYER_1
 62
     1
 10
-2353.3279
 20
-190.484
  0
VERTEX
  8
LAYER_1
 62
     1
 10
-2354.9362
 20
-188.5076
  0
VERTEX
  8
LAYER_1
 62
     1
 10
-2356.1502
 20
-186.2386
  0
VERTEX
  8
LAYER_1
 62
     1
 10
-2356.9174
 20
-183.7305
  0
VERTEX
  8
LAYER_1
 62
     1
 10
-2357.1848
 20
-181.0367
  0
SEQEND
  8
LAYER_1
 62
     1
  0
POLYLINE
  8
LAYER_1
 62
     1
 66
     1
  0
VERTEX
  8
LAYER_1
 62
     1
 10
-2357.1848
 20
-181.0367
  0
VERTEX
  8
LAYER_1
 62
     1
 10
-2357.1848
 20
86.104
  0
SEQEND
  8
LAYER_1
 62
     1
  0
POLYLINE
  8
LAYER_1
 62
     1
 66
     1
  0
VERTEX
  8
LAYER_1
 62
     1
 10
-2357.1848
 20
86.104
  0
VERTEX
  8
LAYER_1
 62
     1
 10
-2356.9174
 20
88.7978
  0
VERTEX
  8
LAYER_1
 62
     1
 10
-2356.1502
 20
91.306
  0
VERTEX
  8
LAYER_1
 62
     1
 10
-2354.9362
 20
93.575
  0
VERTEX
  8
LAYER_1
 62
     1
 10
-2353.3279
 20
95.5514
  0
VERTEX
  8
LAYER_1
 62
     1
 10
-2351.3783
 20
97.1817
  0
VERTEX
  8
LAYER_1
 62
     1
 10
-2349.1399
 20
98.4124
  0
VERTEX
  8
LAYER_1
 62
     1
 10
-2346.6657
 20
99.19
  0
VERTEX
  8
LAYER_1
 62
     1
 10
-2344.0083
 20
99.4611
  0
SEQEND
  8
LAYER_1
 62
     1
  0
POLYLINE
  8
LAYER_1
 62
     1
 66
     1
  0
VERTEX
  8
LAYER_1
 62
     1
 10
-2344.0083
 20
99.4611
  0
VERTEX
  8
LAYER_1
 62
     1
 10
-2185.8909
 20
99.4611
  0
SEQEND
  8
LAYER_1
 62
     1
  0
POLYLINE
  8
LAYER_1
 62
     1
 66
     1
  0
VERTEX
  8
LAYER_1
 62
     1
 10
-2185.8909
 20
99.4611
  0
VERTEX
  8
LAYER_1
 62
     1
 10
-2175.2719
 20
98.3752
  0
VERTEX
  8
LAYER_1
 62
     1
 10
-2165.3798
 20
95.2609
  0
VERTEX
  8
LAYER_1
 62
     1
 10
-2156.4272
 20
90.3335
  0
VERTEX
  8
LAYER_1
 62
     1
 10
-2148.6262
 20
83.8083
  0
VERTEX
  8
LAYER_1
 62
     1
 10
-2142.1891
 20
75.9003
  0
VERTEX
  8
LAYER_1
 62
     1
 10
-2137.3284
 20
66.825
  0
VERTEX
  8
LAYER_1
 62
     1
 10
-2134.2562
 20
56.7974
  0
VERTEX
  8
LAYER_1
 62
     1
 10
-2133.185
 20
46.0329
  0
SEQEND
  8
LAYER_1
 62
     1
  0
POLYLINE
  8
LAYER_1
 62
     1
 66
     1
 70
     1
  0
VERTEX
  8
LAYER_1
 62
     1
 10
-2347.4836
 20
-172.9174
  0
VERTEX
  8
LAYER_1
 62
     1
 10
-2347.4836
 20
-169.8504
  0
VERTEX
  8
LAYER_1
 62
     1
 10
-2347.453
 20
-169.5491
  0
VERTEX
  8
LAYER_1
 62
     1
 10
-2347.3652
 20
-169.268
  0
VERTEX
  8
LAYER_1
 62
     1
 10
-2347.2265
 20
-169.0132
  0
VERTEX
  8
LAYER_1
 62
     1
 10
-2347.043
 20
-168.791
  0
VERTEX
  8
LAYER_1
 62
     1
 10
-2346.8208
 20
-168.6075
  0
VERTEX
  8
LAYER_1
 62
     1
 10
-2346.566
 20
-168.4688
  0
VERTEX
  8
LAYER_1
 62
     1
 10
-2346.2849
 20
-168.381
  0
VERTEX
  8
LAYER_1
 62
     1
 10
-2345.9836
 20
-168.3504
  0
VERTEX
  8
LAYER_1
 62
     1
 10
-2341.5884
 20
-168.3504
  0
VERTEX
  8
LAYER_1
 62
     1
 10
-2341.2871
 20
-168.381
  0
VERTEX
  8
LAYER_1
 62
     1
 10
-2341.006
 20
-168.4688
  0
VERTEX
  8
LAYER_1
 62
     1
 10
-2340.7512
 20
-168.6075
  0
VERTEX
  8
LAYER_1
 62
     1
 10
-2340.529
 20
-168.791
  0
VERTEX
  8
LAYER_1
 62
     1
 10
-2340.3455
 20
-169.0132
  0
VERTEX
  8
LAYER_1
 62
     1
 10
-2340.2068
 20
-169.268
  0
VERTEX
  8
LAYER_1
 62
     1
 10
-2340.119
 20
-169.5491
  0
VERTEX
  8
LAYER_1
 62
     1
 10
-2340.0884
 20
-169.8504
  0
VERTEX
  8
LAYER_1
 62
     1
 10
-2340.0884
 20
-172.9174
  0
VERTEX
  8
LAYER_1
 62
     1
 10
-2340.119
 20
-173.2187
  0
VERTEX
  8
LAYER_1
 62
     1
 10
-2340.2068
 20
-173.4998
  0
VERTEX
  8
LAYER_1
 62
     1
 10
-2340.3455
 20
-173.7546
  0
VERTEX
  8
LAYER_1
 62
     1
 10
-2340.529
 20
-173.9768
  0
VERTEX
  8
LAYER_1
 62
     1
 10
-2340.7512
 20
-174.1603
  0
VERTEX
  8
LAYER_1
 62
     1
 10
-2341.006
 20
-174.299
  0
VERTEX
  8
LAYER_1
 62
     1
 10
-2341.2871
 20
-174.3868
  0
VERTEX
  8
LAYER_1
 62
     1
 10
-2341.5884
 20
-174.4174
  0
VERTEX
  8
LAYER_1
 62
     1
 10
-2345.9836
 20
-174.4174
  0
VERTEX
  8
LAYER_1
 62
     1
 10
-2346.2849
 20
-174.3868
  0
VERTEX
  8
LAYER_1
 62
     1
 10
-2346.566
 20
-174.299
  0
VERTEX
  8
LAYER_1
 62
     1
 10
-2346.8208
 20
-174.1603
  0
VERTEX
  8
LAYER_1
 62
     1
 10
-2347.043
 20
-173.9768
  0
VERTEX
  8
LAYER_1
 62
     1
 10
-2347.2265
 20
-173.7546
  0
VERTEX
  8
LAYER_1
 62
     1
 10
-2347.3652
 20
-173.4998
  0
VERTEX
  8
LAYER_1
 62
     1
 10
-2347.453
 20
-173.2187
  0
VERTEX
  8
LAYER_1
 62
     1
 10
-2347.4836
 20
-172.9174
  0
SEQEND
  8
LAYER_1
 62
     1
  0
POLYLINE
  8
LAYER_1
 62
     1
 66
     1
 70
     1
  0
VERTEX
  8
LAYER_1
 62
     1
 10
-2347.635
 20
-147.5174
  0
VERTEX
  8
LAYER_1
 62
     1
 10
-2347.635
 20
-144.4504
  0
VERTEX
  8
LAYER_1
 62
     1
 10
-2347.6044
 20
-144.1491
  0
VERTEX
  8
LAYER_1
 62
     1
 10
-2347.5166
 20
-143.868
  0
VERTEX
  8
LAYER_1
 62
     1
 10
-2347.3779
 20
-143.6132
  0
VERTEX
  8
LAYER_1
 62
     1
 10
-2347.1944
 20
-143.391
  0
VERTEX
  8
LAYER_1
 62
     1
 10
-2346.9722
 20
-143.2075
  0
VERTEX
  8
LAYER_1
 62
     1
 10
-2346.7174
 20
-143.0688
  0
VERTEX
  8
LAYER_1
 62
     1
 10
-2346.4363
 20
-142.981
  0
VERTEX
  8
LAYER_1
 62
     1
 10
-2346.135
 20
-142.9504
  0
VERTEX
  8
LAYER_1
 62
     1
 10
-2341.7398
 20
-142.9504
  0
VERTEX
  8
LAYER_1
 62
     1
 10
-2341.4385
 20
-142.981
  0
VERTEX
  8
LAYER_1
 62
     1
 10
-2341.1574
 20
-143.0688
  0
VERTEX
  8
LAYER_1
 62
     1
 10
-2340.9026
 20
-143.2075
  0
VERTEX
  8
LAYER_1
 62
     1
 10
-2340.6804
 20
-143.391
  0
VERTEX
  8
LAYER_1
 62
     1
 10
-2340.4969
 20
-143.6132
  0
VERTEX
  8
LAYER_1
 62
     1
 10
-2340.3582
 20
-143.868
  0
VERTEX
  8
LAYER_1
 62
     1
 10
-2340.2704
 20
-144.1491
  0
VERTEX
  8
LAYER_1
 62
     1
 10
-2340.2398
 20
-144.4504
  0
VERTEX
  8
LAYER_1
 62
     1
 10
-2340.2398
 20
-147.5174
  0
VERTEX
  8
LAYER_1
 62
     1
 10
-2340.2704
 20
-147.8187
  0
VERTEX
  8
LAYER_1
 62
     1
 10
-2340.3582
 20
-148.0998
  0
VERTEX
  8
LAYER_1
 62
     1
 10
-2340.4969
 20
-148.3546
  0
VERTEX
  8
LAYER_1
 62
     1
 10
-2340.6804
 20
-148.5768
  0
VERTEX
  8
LAYER_1
 62
     1
 10
-2340.9026
 20
-148.7603
  0
VERTEX
  8
LAYER_1
 62
     1
 10
-2341.1574
 20
-148.899
  0
VERTEX
  8
LAYER_1
 62
     1
 10
-2341.4385
 20
-148.9868
  0
VERTEX
  8
LAYER_1
 62
     1
 10
-2341.7398
 20
-149.0174
  0
VERTEX
  8
LAYER_1
 62
     1
 10
-2346.135
 20
-149.0174
  0
VERTEX
  8
LAYER_1
 62
     1
 10
-2346.4363
 20
-148.9868
  0
VERTEX
  8
LAYER_1
 62
     1
 10
-2346.7174
 20
-148.899
  0
VERTEX
  8
LAYER_1
 62
     1
 10
-2346.9722
 20
-148.7603
  0
VERTEX
  8
LAYER_1
 62
     1
 10
-2347.1944
 20
-148.5768
  0
VERTEX
  8
LAYER_1
 62
     1
 10
-2347.3779
 20
-148.3546
  0
VERTEX
  8
LAYER_1
 62
     1
 10
-2347.5166
 20
-148.0998
  0
VERTEX
  8
LAYER_1
 62
     1
 10
-2347.6044
 20
-147.8187
  0
VERTEX
  8
LAYER_1
 62
     1
 10
-2347.635
 20
-147.5174
  0
SEQEND
  8
LAYER_1
 62
     1
  0
POLYLINE
  8
LAYER_1
 62
     1
 66
     1
 70
     1
  0
VERTEX
  8
LAYER_1
 62
     1
 10
-2347.4836
 20
-61.7924
  0
VERTEX
  8
LAYER_1
 62
     1
 10
-2347.4836
 20
-58.7254
  0
VERTEX
  8
LAYER_1
 62
     1
 10
-2347.453
 20
-58.4241
  0
VERTEX
  8
LAYER_1
 62
     1
 10
-2347.3652
 20
-58.143
  0
VERTEX
  8
LAYER_1
 62
     1
 10
-2347.2265
 20
-57.8882
  0
VERTEX
  8
LAYER_1
 62
     1
 10
-2347.043
 20
-57.666
  0
VERTEX
  8
LAYER_1
 62
     1
 10
-2346.8208
 20
-57.4825
  0
VERTEX
  8
LAYER_1
 62
     1
 10
-2346.566
 20
-57.3438
  0
VERTEX
  8
LAYER_1
 62
     1
 10
-2346.2849
 20
-57.256
  0
VERTEX
  8
LAYER_1
 62
     1
 10
-2345.9836
 20
-57.2254
  0
VERTEX
  8
LAYER_1
 62
     1
 10
-2341.5884
 20
-57.2254
  0
VERTEX
  8
LAYER_1
 62
     1
 10
-2341.2871
 20
-57.256
  0
VERTEX
  8
LAYER_1
 62
     1
 10
-2341.006
 20
-57.3438
  0
VERTEX
  8
LAYER_1
 62
     1
 10
-2340.7512
 20
-57.4825
  0
VERTEX
  8
LAYER_1
 62
     1
 10
-2340.529
 20
-57.666
  0
VERTEX
  8
LAYER_1
 62
     1
 10
-2340.3455
 20
-57.8882
  0
VERTEX
  8
LAYER_1
 62
     1
 10
-2340.2068
 20
-58.143
  0
VERTEX
  8
LAYER_1
 62
     1
 10
-2340.119
 20
-58.4241
  0
VERTEX
  8
LAYER_1
 62
     1
 10
-2340.0884
 20
-58.7254
  0
VERTEX
  8
LAYER_1
 62
     1
 10
-2340.0884
 20
-61.7924
  0
VERTEX
  8
LAYER_1
 62
     1
 10
-2340.119
 20
-62.0937
  0
VERTEX
  8
LAYER_1
 62
     1
 10
-2340.2068
 20
-62.3748
  0
VERTEX
  8
LAYER_1
 62
     1
 10
-2340.3455
 20
-62.6296
  0
VERTEX
  8
LAYER_1
 62
     1
 10
-2340.529
 20
-62.8518
  0
VERTEX
  8
LAYER_1
 62
     1
 10
-2340.7512
 20
-63.0353
  0
VERTEX
  8
LAYER_1
 62
     1
 10
-2341.006
 20
-63.174
  0
VERTEX
  8
LAYER_1
 62
     1
 10
-2341.2871
 20
-63.2618
  0
VERTEX
  8
LAYER_1
 62
     1
 10
-2341.5884
 20
-63.2924
  0
VERTEX
  8
LAYER_1
 62
     1
 10
-2345.9836
 20
-63.2924
  0
VERTEX
  8
LAYER_1
 62
     1
 10
-2346.2849
 20
-63.2618
  0
VERTEX
  8
LAYER_1
 62
     1
 10
-2346.566
 20
-63.174
  0
VERTEX
  8
LAYER_1
 62
     1
 10
-2346.8208
 20
-63.0353
  0
VERTEX
  8
LAYER_1
 62
     1
 10
-2347.043
 20
-62.8518
  0
VERTEX
  8
LAYER_1
 62
     1
 10
-2347.2265
 20
-62.6296
  0
VERTEX
  8
LAYER_1
 62
     1
 10
-2347.3652
 20
-62.3748
  0
VERTEX
  8
LAYER_1
 62
     1
 10
-2347.453
 20
-62.0937
  0
VERTEX
  8
LAYER_1
 62
     1
 10
-2347.4836
 20
-61.7924
  0
SEQEND
  8
LAYER_1
 62
     1
  0
POLYLINE
  8
LAYER_1
 62
     1
 66
     1
 70
     1
  0
VERTEX
  8
LAYER_1
 62
     1
 10
-2347.635
 20
-36.3924
  0
VERTEX
  8
LAYER_1
 62
     1
 10
-2347.635
 20
-33.3254
  0
VERTEX
  8
LAYER_1
 62
     1
 10
-2347.6044
 20
-33.0241
  0
VERTEX
  8
LAYER_1
 62
     1
 10
-2347.5166
 20
-32.743
  0
VERTEX
  8
LAYER_1
 62
     1
 10
-2347.3779
 20
-32.4882
  0
VERTEX
  8
LAYER_1
 62
     1
 10
-2347.1944
 20
-32.266
  0
VERTEX
  8
LAYER_1
 62
     1
 10
-2346.9722
 20
-32.0825
  0
VERTEX
  8
LAYER_1
 62
     1
 10
-2346.7174
 20
-31.9438
  0
VERTEX
  8
LAYER_1
 62
     1
 10
-2346.4363
 20
-31.856
  0
VERTEX
  8
LAYER_1
 62
     1
 10
-2346.135
 20
-31.8254
  0
VERTEX
  8
LAYER_1
 62
     1
 10
-2341.7398
 20
-31.8254
  0
VERTEX
  8
LAYER_1
 62
     1
 10
-2341.4385
 20
-31.856
  0
VERTEX
  8
LAYER_1
 62
     1
 10
-2341.1574
 20
-31.9438
  0
VERTEX
  8
LAYER_1
 62
     1
 10
-2340.9026
 20
-32.0825
  0
VERTEX
  8
LAYER_1
 62
     1
 10
-2340.6804
 20
-32.266
  0
VERTEX
  8
LAYER_1
 62
     1
 10
-2340.4969
 20
-32.4882
  0
VERTEX
  8
LAYER_1
 62
     1
 10
-2340.3582
 20
-32.743
  0
VERTEX
  8
LAYER_1
 62
     1
 10
-2340.2704
 20
-33.0241
  0
VERTEX
  8
LAYER_1
 62
     1
 10
-2340.2398
 20
-33.3254
  0
VERTEX
  8
LAYER_1
 62
     1
 10
-2340.2398
 20
-36.3924
  0
VERTEX
  8
LAYER_1
 62
     1
 10
-2340.2704
 20
-36.6937
  0
VERTEX
  8
LAYER_1
 62
     1
 10
-2340.3582
 20
-36.9748
  0
VERTEX
  8
LAYER_1
 62
     1
 10
-2340.4969
 20
-37.2296
  0
VERTEX
  8
LAYER_1
 62
     1
 10
-2340.6804
 20
-37.4518
  0
VERTEX
  8
LAYER_1
 62
     1
 10
-2340.9026
 20
-37.6353
  0
VERTEX
  8
LAYER_1
 62
     1
 10
-2341.1574
 20
-37.774
  0
VERTEX
  8
LAYER_1
 62
     1
 10
-2341.4385
 20
-37.8618
  0
VERTEX
  8
LAYER_1
 62
     1
 10
-2341.7398
 20
-37.8924
  0
VERTEX
  8
LAYER_1
 62
     1
 10
-2346.135
 20
-37.8924
  0
VERTEX
  8
LAYER_1
 62
     1
 10
-2346.4363
 20
-37.8618
  0
VERTEX
  8
LAYER_1
 62
     1
 10
-2346.7174
 20
-37.774
  0
VERTEX
  8
LAYER_1
 62
     1
 10
-2346.9722
 20
-37.6353
  0
VERTEX
  8
LAYER_1
 62
     1
 10
-2347.1944
 20
-37.4518
  0
VERTEX
  8
LAYER_1
 62
     1
 10
-2347.3779
 20
-37.2296
  0
VERTEX
  8
LAYER_1
 62
     1
 10
-2347.5166
 20
-36.9748
  0
VERTEX
  8
LAYER_1
 62
     1
 10
-2347.6044
 20
-36.6937
  0
VERTEX
  8
LAYER_1
 62
     1
 10
-2347.635
 20
-36.3924
  0
SEQEND
  8
LAYER_1
 62
     1
  0
POLYLINE
  8
LAYER_1
 62
     1
 66
     1
 70
     1
  0
VERTEX
  8
LAYER_1
 62
     1
 10
-2347.4836
 20
49.3823
  0
VERTEX
  8
LAYER_1
 62
     1
 10
-2347.4836
 20
52.4493
  0
VERTEX
  8
LAYER_1
 62
     1
 10
-2347.453
 20
52.7506
  0
VERTEX
  8
LAYER_1
 62
     1
 10
-2347.3652
 20
53.0317
  0
VERTEX
  8
LAYER_1
 62
     1
 10
-2347.2265
 20
53.2865
  0
VERTEX
  8
LAYER_1
 62
     1
 10
-2347.043
 20
53.5087
  0
VERTEX
  8
LAYER_1
 62
     1
 10
-2346.8208
 20
53.6922
  0
VERTEX
  8
LAYER_1
 62
     1
 10
-2346.566
 20
53.8309
  0
VERTEX
  8
LAYER_1
 62
     1
 10
-2346.2849
 20
53.9187
  0
VERTEX
  8
LAYER_1
 62
     1
 10
-2345.9836
 20
53.9493
  0
VERTEX
  8
LAYER_1
 62
     1
 10
-2341.5884
 20
53.9493
  0
VERTEX
  8
LAYER_1
 62
     1
 10
-2341.2871
 20
53.9187
  0
VERTEX
  8
LAYER_1
 62
     1
 10
-2341.006
 20
53.8309
  0
VERTEX
  8
LAYER_1
 62
     1
 10
-2340.7512
 20
53.6922
  0
VERTEX
  8
LAYER_1
 62
     1
 10
-2340.529
 20
53.5087
  0
VERTEX
  8
LAYER_1
 62
     1
 10
-2340.3455
 20
53.2865
  0
VERTEX
  8
LAYER_1
 62
     1
 10
-2340.2068
 20
53.0317
  0
VERTEX
  8
LAYER_1
 62
     1
 10
-2340.119
 20
52.7506
  0
VERTEX
  8
LAYER_1
 62
     1
 10
-2340.0884
 20
52.4493
  0
VERTEX
  8
LAYER_1
 62
     1
 10
-2340.0884
 20
49.3823
  0
VERTEX
  8
LAYER_1
 62
     1
 10
-2340.119
 20
49.081
  0
VERTEX
  8
LAYER_1
 62
     1
 10
-2340.2068
 20
48.7999
  0
VERTEX
  8
LAYER_1
 62
     1
 10
-2340.3455
 20
48.5451
  0
VERTEX
  8
LAYER_1
 62
     1
 10
-2340.529
 20
48.3229
  0
VERTEX
  8
LAYER_1
 62
     1
 10
-2340.7512
 20
48.1394
  0
VERTEX
  8
LAYER_1
 62
     1
 10
-2341.006
 20
48.0007
  0
VERTEX
  8
LAYER_1
 62
     1
 10
-2341.2871
 20
47.9129
  0
VERTEX
  8
LAYER_1
 62
     1
 10
-2341.5884
 20
47.8823
  0
VERTEX
  8
LAYER_1
 62
     1
 10
-2345.9836
 20
47.8823
  0
VERTEX
  8
LAYER_1
 62
     1
 10
-2346.2849
 20
47.9129
  0
VERTEX
  8
LAYER_1
 62
     1
 10
-2346.566
 20
48.0007
  0
VERTEX
  8
LAYER_1
 62
     1
 10
-2346.8208
 20
48.1394
  0
VERTEX
  8
LAYER_1
 62
     1
 10
-2347.043
 20
48.3229
  0
VERTEX
  8
LAYER_1
 62
     1
 10
-2347.2265
 20
48.5451
  0
VERTEX
  8
LAYER_1
 62
     1
 10
-2347.3652
 20
48.7999
  0
VERTEX
  8
LAYER_1
 62
     1
 10
-2347.453
 20
49.081
  0
VERTEX
  8
LAYER_1
 62
     1
 10
-2347.4836
 20
49.3823
  0
SEQEND
  8
LAYER_1
 62
     1
  0
POLYLINE
  8
LAYER_1
 62
     1
 66
     1
 70
     1
  0
VERTEX
  8
LAYER_1
 62
     1
 10
-2347.635
 20
74.7823
  0
VERTEX
  8
LAYER_1
 62
     1
 10
-2347.635
 20
77.8493
  0
VERTEX
  8
LAYER_1
 62
     1
 10
-2347.6044
 20
78.1506
  0
VERTEX
  8
LAYER_1
 62
     1
 10
-2347.5166
 20
78.4317
  0
VERTEX
  8
LAYER_1
 62
     1
 10
-2347.3779
 20
78.6865
  0
VERTEX
  8
LAYER_1
 62
     1
 10
-2347.1944
 20
78.9087
  0
VERTEX
  8
LAYER_1
 62
     1
 10
-2346.9722
 20
79.0922
  0
VERTEX
  8
LAYER_1
 62
     1
 10
-2346.7174
 20
79.2309
  0
VERTEX
  8
LAYER_1
 62
     1
 10
-2346.4363
 20
79.3187
  0
VERTEX
  8
LAYER_1
 62
     1
 10
-2346.135
 20
79.3493
  0
VERTEX
  8
LAYER_1
 62
     1
 10
-2341.7398
 20
79.3493
  0
VERTEX
  8
LAYER_1
 62
     1
 10
-2341.4385
 20
79.3187
  0
VERTEX
  8
LAYER_1
 62
     1
 10
-2341.1574
 20
79.2309
  0
VERTEX
  8
LAYER_1
 62
     1
 10
-2340.9026
 20
79.0922
  0
VERTEX
  8
LAYER_1
 62
     1
 10
-2340.6804
 20
78.9087
  0
VERTEX
  8
LAYER_1
 62
     1
 10
-2340.4969
 20
78.6865
  0
VERTEX
  8
LAYER_1
 62
     1
 10
-2340.3582
 20
78.4317
  0
VERTEX
  8
LAYER_1
 62
     1
 10
-2340.2704
 20
78.1506
  0
VERTEX
  8
LAYER_1
 62
     1
 10
-2340.2398
 20
77.8493
  0
VERTEX
  8
LAYER_1
 62
     1
 10
-2340.2398
 20
74.7823
  0
VERTEX
  8
LAYER_1
 62
     1
 10
-2340.2704
 20
74.481
  0
VERTEX
  8
LAYER_1
 62
     1
 10
-2340.3582
 20
74.1999
  0
VERTEX
  8
LAYER_1
 62
     1
 10
-2340.4969
 20
73.9451
  0
VERTEX
  8
LAYER_1
 62
     1
 10
-2340.6804
 20
73.7229
  0
VERTEX
  8
LAYER_1
 62
     1
 10
-2340.9026
 20
73.5394
  0
VERTEX
  8
LAYER_1
 62
     1
 10
-2341.1574
 20
73.4007
  0
VERTEX
  8
LAYER_1
 62
     1
 10
-2341.4385
 20
73.3129
  0
VERTEX
  8
LAYER_1
 62
     1
 10
-2341.7398
 20
73.2823
  0
VERTEX
  8
LAYER_1
 62
     1
 10
-2346.135
 20
73.2823
  0
VERTEX
  8
LAYER_1
 62
     1
 10
-2346.4363
 20
73.3129
  0
VERTEX
  8
LAYER_1
 62
     1
 10
-2346.7174
 20
73.4007
  0
VERTEX
  8
LAYER_1
 62
     1
 10
-2346.9722
 20
73.5394
  0
VERTEX
  8
LAYER_1
 62
     1
 10
-2347.1944
 20
73.7229
  0
VERTEX
  8
LAYER_1
 62
     1
 10
-2347.3779
 20
73.9451
  0
VERTEX
  8
LAYER_1
 62
     1
 10
-2347.5166
 20
74.1999
  0
VERTEX
  8
LAYER_1
 62
     1
 10
-2347.6044
 20
74.481
  0
VERTEX
  8
LAYER_1
 62
     1
 10
-2347.635
 20
74.7823
  0
SEQEND
  8
LAYER_1
 62
     1
  0
POLYLINE
  8
LAYER_1
 62
     1
 66
     1
  0
VERTEX
  8
LAYER_1
 62
     1
 10
-2344.0083
 20
-194.5385
  0
VERTEX
  8
LAYER_1
 62
     1
 10
-2185.8909
 20
-194.5385
  0
SEQEND
  8
LAYER_1
 62
     1
  0
POLYLINE
  8
LAYER_1
 62
     1
 66
     1
  0
VERTEX
  8
LAYER_1
 62
     1
 10
-2133.185
 20
-434.966
  0
VERTEX
  8
LAYER_1
 62
     1
 10
-2134.2562
 20
-445.7305
  0
VERTEX
  8
LAYER_1
 62
     1
 10
-2137.3284
 20
-455.7581
  0
VERTEX
  8
LAYER_1
 62
     1
 10
-2142.1891
 20
-464.8334
  0
VERTEX
  8
LAYER_1
 62
     1
 10
-2148.6262
 20
-472.7413
  0
VERTEX
  8
LAYER_1
 62
     1
 10
-2156.4272
 20
-479.2666
  0
VERTEX
  8
LAYER_1
 62
     1
 10
-2165.3798
 20
-484.1939
  0
VERTEX
  8
LAYER_1
 62
     1
 10
-2175.2719
 20
-487.3082
  0
VERTEX
  8
LAYER_1
 62
     1
 10
-2185.8909
 20
-488.3941
  0
SEQEND
  8
LAYER_1
 62
     1
  0
POLYLINE
  8
LAYER_1
 62
     1
 66
     1
  0
VERTEX
  8
LAYER_1
 62
     1
 10
-2344.0083
 20
-488.3941
  0
VERTEX
  8
LAYER_1
 62
     1
 10
-2346.6657
 20
-488.123
  0
VERTEX
  8
LAYER_1
 62
     1
 10
-2349.1399
 20
-487.3454
  0
VERTEX
  8
LAYER_1
 62
     1
 10
-2351.3783
 20
-486.1147
  0
VERTEX
  8
LAYER_1
 62
     1
 10
-2353.3279
 20
-484.4844
  0
VERTEX
  8
LAYER_1
 62
     1
 10
-2354.9362
 20
-482.508
  0
VERTEX
  8
LAYER_1
 62
     1
 10
-2356.1502
 20
-480.239
  0
VERTEX
  8
LAYER_1
 62
     1
 10
-2356.9174
 20
-477.7309
  0
VERTEX
  8
LAYER_1
 62
     1
 10
-2357.1848
 20
-475.0371
  0
SEQEND
  8
LAYER_1
 62
     1
  0
POLYLINE
  8
LAYER_1
 62
     1
 66
     1
  0
VERTEX
  8
LAYER_1
 62
     1
 10
-2357.1848
 20
-475.0371
  0
VERTEX
  8
LAYER_1
 62
     1
 10
-2357.1848
 20
-207.8964
  0
SEQEND
  8
LAYER_1
 62
     1
  0
POLYLINE
  8
LAYER_1
 62
     1
 66
     1
  0
VERTEX
  8
LAYER_1
 62
     1
 10
-2357.1848
 20
-207.8964
  0
VERTEX
  8
LAYER_1
 62
     1
 10
-2356.9174
 20
-205.2026
  0
VERTEX
  8
LAYER_1
 62
     1
 10
-2356.1502
 20
-202.6944
  0
VERTEX
  8
LAYER_1
 62
     1
 10
-2354.9362
 20
-200.4254
  0
VERTEX
  8
LAYER_1
 62
     1
 10
-2353.3279
 20
-198.449
  0
VERTEX
  8
LAYER_1
 62
     1
 10
-2351.3783
 20
-196.8187
  0
VERTEX
  8
LAYER_1
 62
     1
 10
-2349.1399
 20
-195.588
  0
VERTEX
  8
LAYER_1
 62
     1
 10
-2346.6657
 20
-194.8104
  0
VERTEX
  8
LAYER_1
 62
     1
 10
-2344.0083
 20
-194.5393
  0
SEQEND
  8
LAYER_1
 62
     1
  0
POLYLINE
  8
LAYER_1
 62
     1
 66
     1
  0
VERTEX
  8
LAYER_1
 62
     1
 10
-2344.0083
 20
-194.5393
  0
VERTEX
  8
LAYER_1
 62
     1
 10
-2185.8909
 20
-194.5393
  0
SEQEND
  8
LAYER_1
 62
     1
  0
POLYLINE
  8
LAYER_1
 62
     1
 66
     1
  0
VERTEX
  8
LAYER_1
 62
     1
 10
-2185.8909
 20
-194.5393
  0
VERTEX
  8
LAYER_1
 62
     1
 10
-2175.2719
 20
-195.6252
  0
VERTEX
  8
LAYER_1
 62
     1
 10
-2165.3798
 20
-198.7395
  0
VERTEX
  8
LAYER_1
 62
     1
 10
-2156.4272
 20
-203.6669
  0
VERTEX
  8
LAYER_1
 62
     1
 10
-2148.6262
 20
-210.1921
  0
VERTEX
  8
LAYER_1
 62
     1
 10
-2142.1891
 20
-218.1001
  0
VERTEX
  8
LAYER_1
 62
     1
 10
-2137.3284
 20
-227.1754
  0
VERTEX
  8
LAYER_1
 62
     1
 10
-2134.2562
 20
-237.203
  0
VERTEX
  8
LAYER_1
 62
     1
 10
-2133.185
 20
-247.9675
  0
SEQEND
  8
LAYER_1
 62
     1
  0
POLYLINE
  8
LAYER_1
 62
     1
 66
     1
 70
     1
  0
VERTEX
  8
LAYER_1
 62
     1
 10
-2347.4836
 20
-466.9178
  0
VERTEX
  8
LAYER_1
 62
     1
 10
-2347.4836
 20
-463.8508
  0
VERTEX
  8
LAYER_1
 62
     1
 10
-2347.453
 20
-463.5495
  0
VERTEX
  8
LAYER_1
 62
     1
 10
-2347.3652
 20
-463.2684
  0
VERTEX
  8
LAYER_1
 62
     1
 10
-2347.2265
 20
-463.0136
  0
VERTEX
  8
LAYER_1
 62
     1
 10
-2347.043
 20
-462.7914
  0
VERTEX
  8
LAYER_1
 62
     1
 10
-2346.8208
 20
-462.6079
  0
VERTEX
  8
LAYER_1
 62
     1
 10
-2346.566
 20
-462.4692
  0
VERTEX
  8
LAYER_1
 62
     1
 10
-2346.2849
 20
-462.3814
  0
VERTEX
  8
LAYER_1
 62
     1
 10
-2345.9836
 20
-462.3508
  0
VERTEX
  8
LAYER_1
 62
     1
 10
-2341.5884
 20
-462.3508
  0
VERTEX
  8
LAYER_1
 62
     1
 10
-2341.2871
 20
-462.3814
  0
VERTEX
  8
LAYER_1
 62
     1
 10
-2341.006
 20
-462.4692
  0
VERTEX
  8
LAYER_1
 62
     1
 10
-2340.7512
 20
-462.6079
  0
VERTEX
  8
LAYER_1
 62
     1
 10
-2340.529
 20
-462.7914
  0
VERTEX
  8
LAYER_1
 62
     1
 10
-2340.3455
 20
-463.0136
  0
VERTEX
  8
LAYER_1
 62
     1
 10
-2340.2068
 20
-463.2684
  0
VERTEX
  8
LAYER_1
 62
     1
 10
-2340.119
 20
-463.5495
  0
VERTEX
  8
LAYER_1
 62
     1
 10
-2340.0884
 20
-463.8508
  0
VERTEX
  8
LAYER_1
 62
     1
 10
-2340.0884
 20
-466.9178
  0
VERTEX
  8
LAYER_1
 62
     1
 10
-2340.119
 20
-467.2191
  0
VERTEX
  8
LAYER_1
 62
     1
 10
-2340.2068
 20
-467.5002
  0
VERTEX
  8
LAYER_1
 62
     1
 10
-2340.3455
 20
-467.755
  0
VERTEX
  8
LAYER_1
 62
     1
 10
-2340.529
 20
-467.9772
  0
VERTEX
  8
LAYER_1
 62
     1
 10
-2340.7512
 20
-468.1607
  0
VERTEX
  8
LAYER_1
 62
     1
 10
-2341.006
 20
-468.2994
  0
VERTEX
  8
LAYER_1
 62
     1
 10
-2341.2871
 20
-468.3872
  0
VERTEX
  8
LAYER_1
 62
     1
 10
-2341.5884
 20
-468.4178
  0
VERTEX
  8
LAYER_1
 62
     1
 10
-2345.9836
 20
-468.4178
  0
VERTEX
  8
LAYER_1
 62
     1
 10
-2346.2849
 20
-468.3872
  0
VERTEX
  8
LAYER_1
 62
     1
 10
-2346.566
 20
-468.2994
  0
VERTEX
  8
LAYER_1
 62
     1
 10
-2346.8208
 20
-468.1607
  0
VERTEX
  8
LAYER_1
 62
     1
 10
-2347.043
 20
-467.9772
  0
VERTEX
  8
LAYER_1
 62
     1
 10
-2347.2265
 20
-467.755
  0
VERTEX
  8
LAYER_1
 62
     1
 10
-2347.3652
 20
-467.5002
  0
VERTEX
  8
LAYER_1
 62
     1
 10
-2347.453
 20
-467.2191
  0
VERTEX
  8
LAYER_1
 62
     1
 10
-2347.4836
 20
-466.9178
  0
SEQEND
  8
LAYER_1
 62
     1
  0
POLYLINE
  8
LAYER_1
 62
     1
 66
     1
 70
     1
  0
VERTEX
  8
LAYER_1
 62
     1
 10
-2347.635
 20
-441.5178
  0
VERTEX
  8
LAYER_1
 62
     1
 10
-2347.635
 20
-438.4508
  0
VERTEX
  8
LAYER_1
 62
     1
 10
-2347.6044
 20
-438.1495
  0
VERTEX
  8
LAYER_1
 62
     1
 10
-2347.5166
 20
-437.8684
  0
VERTEX
  8
LAYER_1
 62
     1
 10
-2347.3779
 20
-437.6136
  0
VERTEX
  8
LAYER_1
 62
     1
 10
-2347.1944
 20
-437.3914
  0
VERTEX
  8
LAYER_1
 62
     1
 10
-2346.9722
 20
-437.2079
  0
VERTEX
  8
LAYER_1
 62
     1
 10
-2346.7174
 20
-437.0692
  0
VERTEX
  8
LAYER_1
 62
     1
 10
-2346.4363
 20
-436.9814
  0
VERTEX
  8
LAYER_1
 62
     1
 10
-2346.135
 20
-436.9508
  0
VERTEX
  8
LAYER_1
 62
     1
 10
-2341.7398
 20
-436.9508
  0
VERTEX
  8
LAYER_1
 62
     1
 10
-2341.4385
 20
-436.9814
  0
VERTEX
  8
LAYER_1
 62
     1
 10
-2341.1574
 20
-437.0692
  0
VERTEX
  8
LAYER_1
 62
     1
 10
-2340.9026
 20
-437.2079
  0
VERTEX
  8
LAYER_1
 62
     1
 10
-2340.6804
 20
-437.3914
  0
VERTEX
  8
LAYER_1
 62
     1
 10
-2340.4969
 20
-437.6136
  0
VERTEX
  8
LAYER_1
 62
     1
 10
-2340.3582
 20
-437.8684
  0
VERTEX
  8
LAYER_1
 62
     1
 10
-2340.2704
 20
-438.1495
  0
VERTEX
  8
LAYER_1
 62
     1
 10
-2340.2398
 20
-438.4508
  0
VERTEX
  8
LAYER_1
 62
     1
 10
-2340.2398
 20
-441.5178
  0
VERTEX
  8
LAYER_1
 62
     1
 10
-2340.2704
 20
-441.8191
  0
VERTEX
  8
LAYER_1
 62
     1
 10
-2340.3582
 20
-442.1002
  0
VERTEX
  8
LAYER_1
 62
     1
 10
-2340.4969
 20
-442.355
  0
VERTEX
  8
LAYER_1
 62
     1
 10
-2340.6804
 20
-442.5772
  0
VERTEX
  8
LAYER_1
 62
     1
 10
-2340.9026
 20
-442.7607
  0
VERTEX
  8
LAYER_1
 62
     1
 10
-2341.1574
 20
-442.8994
  0
VERTEX
  8
LAYER_1
 62
     1
 10
-2341.4385
 20
-442.9872
  0
VERTEX
  8
LAYER_1
 62
     1
 10
-2341.7398
 20
-443.0178
  0
VERTEX
  8
LAYER_1
 62
     1
 10
-2346.135
 20
-443.0178
  0
VERTEX
  8
LAYER_1
 62
     1
 10
-2346.4363
 20
-442.9872
  0
VERTEX
  8
LAYER_1
 62
     1
 10
-2346.7174
 20
-442.8994
  0
VERTEX
  8
LAYER_1
 62
     1
 10
-2346.9722
 20
-442.7607
  0
VERTEX
  8
LAYER_1
 62
     1
 10
-2347.1944
 20
-442.5772
  0
VERTEX
  8
LAYER_1
 62
     1
 10
-2347.3779
 20
-442.355
  0
VERTEX
  8
LAYER_1
 62
     1
 10
-2347.5166
 20
-442.1002
  0
VERTEX
  8
LAYER_1
 62
     1
 10
-2347.6044
 20
-441.8191
  0
VERTEX
  8
LAYER_1
 62
     1
 10
-2347.635
 20
-441.5178
  0
SEQEND
  8
LAYER_1
 62
     1
  0
POLYLINE
  8
LAYER_1
 62
     1
 66
     1
 70
     1
  0
VERTEX
  8
LAYER_1
 62
     1
 10
-2347.4836
 20
-355.7928
  0
VERTEX
  8
LAYER_1
 62
     1
 10
-2347.4836
 20
-352.7258
  0
VERTEX
  8
LAYER_1
 62
     1
 10
-2347.453
 20
-352.4245
  0
VERTEX
  8
LAYER_1
 62
     1
 10
-2347.3652
 20
-352.1434
  0
VERTEX
  8
LAYER_1
 62
     1
 10
-2347.2265
 20
-351.8886
  0
VERTEX
  8
LAYER_1
 62
     1
 10
-2347.043
 20
-351.6664
  0
VERTEX
  8
LAYER_1
 62
     1
 10
-2346.8208
 20
-351.4829
  0
VERTEX
  8
LAYER_1
 62
     1
 10
-2346.566
 20
-351.3442
  0
VERTEX
  8
LAYER_1
 62
     1
 10
-2346.2849
 20
-351.2564
  0
VERTEX
  8
LAYER_1
 62
     1
 10
-2345.9836
 20
-351.2258
  0
VERTEX
  8
LAYER_1
 62
     1
 10
-2341.5884
 20
-351.2258
  0
VERTEX
  8
LAYER_1
 62
     1
 10
-2341.2871
 20
-351.2564
  0
VERTEX
  8
LAYER_1
 62
     1
 10
-2341.006
 20
-351.3442
  0
VERTEX
  8
LAYER_1
 62
     1
 10
-2340.7512
 20
-351.4829
  0
VERTEX
  8
LAYER_1
 62
     1
 10
-2340.529
 20
-351.6664
  0
VERTEX
  8
LAYER_1
 62
     1
 10
-2340.3455
 20
-351.8886
  0
VERTEX
  8
LAYER_1
 62
     1
 10
-2340.2068
 20
-352.1434
  0
VERTEX
  8
LAYER_1
 62
     1
 10
-2340.119
 20
-352.4245
  0
VERTEX
  8
LAYER_1
 62
     1
 10
-2340.0884
 20
-352.7258
  0
VERTEX
  8
LAYER_1
 62
     1
 10
-2340.0884
 20
-355.7928
  0
VERTEX
  8
LAYER_1
 62
     1
 10
-2340.119
 20
-356.0941
  0
VERTEX
  8
LAYER_1
 62
     1
 10
-2340.2068
 20
-356.3752
  0
VERTEX
  8
LAYER_1
 62
     1
 10
-2340.3455
 20
-356.63
  0
VERTEX
  8
LAYER_1
 62
     1
 10
-2340.529
 20
-356.8522
  0
VERTEX
  8
LAYER_1
 62
     1
 10
-2340.7512
 20
-357.0357
  0
VERTEX
  8
LAYER_1
 62
     1
 10
-2341.006
 20
-357.1744
  0
VERTEX
  8
LAYER_1
 62
     1
 10
-2341.2871
 20
-357.2622
  0
VERTEX
  8
LAYER_1
 62
     1
 10
-2341.5884
 20
-357.2928
  0
VERTEX
  8
LAYER_1
 62
     1
 10
-2345.9836
 20
-357.2928
  0
VERTEX
  8
LAYER_1
 62
     1
 10
-2346.2849
 20
-357.2622
  0
VERTEX
  8
LAYER_1
 62
     1
 10
-2346.566
 20
-357.1744
  0
VERTEX
  8
LAYER_1
 62
     1
 10
-2346.8208
 20
-357.0357
  0
VERTEX
  8
LAYER_1
 62
     1
 10
-2347.043
 20
-356.8522
  0
VERTEX
  8
LAYER_1
 62
     1
 10
-2347.2265
 20
-356.63
  0
VERTEX
  8
LAYER_1
 62
     1
 10
-2347.3652
 20
-356.3752
  0
VERTEX
  8
LAYER_1
 62
     1
 10
-2347.453
 20
-356.0941
  0
VERTEX
  8
LAYER_1
 62
     1
 10
-2347.4836
 20
-355.7928
  0
SEQEND
  8
LAYER_1
 62
     1
  0
POLYLINE
  8
LAYER_1
 62
     1
 66
     1
 70
     1
  0
VERTEX
  8
LAYER_1
 62
     1
 10
-2347.635
 20
-330.3928
  0
VERTEX
  8
LAYER_1
 62
     1
 10
-2347.635
 20
-327.3258
  0
VERTEX
  8
LAYER_1
 62
     1
 10
-2347.6044
 20
-327.0245
  0
VERTEX
  8
LAYER_1
 62
     1
 10
-2347.5166
 20
-326.7434
  0
VERTEX
  8
LAYER_1
 62
     1
 10
-2347.3779
 20
-326.4886
  0
VERTEX
  8
LAYER_1
 62
     1
 10
-2347.1944
 20
-326.2664
  0
VERTEX
  8
LAYER_1
 62
     1
 10
-2346.9722
 20
-326.0829
  0
VERTEX
  8
LAYER_1
 62
     1
 10
-2346.7174
 20
-325.9442
  0
VERTEX
  8
LAYER_1
 62
     1
 10
-2346.4363
 20
-325.8564
  0
VERTEX
  8
LAYER_1
 62
     1
 10
-2346.135
 20
-325.8258
  0
VERTEX
  8
LAYER_1
 62
     1
 10
-2341.7398
 20
-325.8258
  0
VERTEX
  8
LAYER_1
 62
     1
 10
-2341.4385
 20
-325.8564
  0
VERTEX
  8
LAYER_1
 62
     1
 10
-2341.1574
 20
-325.9442
  0
VERTEX
  8
LAYER_1
 62
     1
 10
-2340.9026
 20
-326.0829
  0
VERTEX
  8
LAYER_1
 62
     1
 10
-2340.6804
 20
-326.2664
  0
VERTEX
  8
LAYER_1
 62
     1
 10
-2340.4969
 20
-326.4886
  0
VERTEX
  8
LAYER_1
 62
     1
 10
-2340.3582
 20
-326.7434
  0
VERTEX
  8
LAYER_1
 62
     1
 10
-2340.2704
 20
-327.0245
  0
VERTEX
  8
LAYER_1
 62
     1
 10
-2340.2398
 20
-327.3258
  0
VERTEX
  8
LAYER_1
 62
     1
 10
-2340.2398
 20
-330.3928
  0
VERTEX
  8
LAYER_1
 62
     1
 10
-2340.2704
 20
-330.6941
  0
VERTEX
  8
LAYER_1
 62
     1
 10
-2340.3582
 20
-330.9752
  0
VERTEX
  8
LAYER_1
 62
     1
 10
-2340.4969
 20
-331.23
  0
VERTEX
  8
LAYER_1
 62
     1
 10
-2340.6804
 20
-331.4522
  0
VERTEX
  8
LAYER_1
 62
     1
 10
-2340.9026
 20
-331.6357
  0
VERTEX
  8
LAYER_1
 62
     1
 10
-2341.1574
 20
-331.7744
  0
VERTEX
  8
LAYER_1
 62
     1
 10
-2341.4385
 20
-331.8622
  0
VERTEX
  8
LAYER_1
 62
     1
 10
-2341.7398
 20
-331.8928
  0
VERTEX
  8
LAYER_1
 62
     1
 10
-2346.135
 20
-331.8928
  0
VERTEX
  8
LAYER_1
 62
     1
 10
-2346.4363
 20
-331.8622
  0
VERTEX
  8
LAYER_1
 62
     1
 10
-2346.7174
 20
-331.7744
  0
VERTEX
  8
LAYER_1
 62
     1
 10
-2346.9722
 20
-331.6357
  0
VERTEX
  8
LAYER_1
 62
     1
 10
-2347.1944
 20
-331.4522
  0
VERTEX
  8
LAYER_1
 62
     1
 10
-2347.3779
 20
-331.23
  0
VERTEX
  8
LAYER_1
 62
     1
 10
-2347.5166
 20
-330.9752
  0
VERTEX
  8
LAYER_1
 62
     1
 10
-2347.6044
 20
-330.6941
  0
VERTEX
  8
LAYER_1
 62
     1
 10
-2347.635
 20
-330.3928
  0
SEQEND
  8
LAYER_1
 62
     1
  0
POLYLINE
  8
LAYER_1
 62
     1
 66
     1
 70
     1
  0
VERTEX
  8
LAYER_1
 62
     1
 10
-2347.4836
 20
-244.6181
  0
VERTEX
  8
LAYER_1
 62
     1
 10
-2347.4836
 20
-241.5511
  0
VERTEX
  8
LAYER_1
 62
     1
 10
-2347.453
 20
-241.2498
  0
VERTEX
  8
LAYER_1
 62
     1
 10
-2347.3652
 20
-240.9687
  0
VERTEX
  8
LAYER_1
 62
     1
 10
-2347.2265
 20
-240.7139
  0
VERTEX
  8
LAYER_1
 62
     1
 10
-2347.043
 20
-240.4917
  0
VERTEX
  8
LAYER_1
 62
     1
 10
-2346.8208
 20
-240.3082
  0
VERTEX
  8
LAYER_1
 62
     1
 10
-2346.566
 20
-240.1695
  0
VERTEX
  8
LAYER_1
 62
     1
 10
-2346.2849
 20
-240.0817
  0
VERTEX
  8
LAYER_1
 62
     1
 10
-2345.9836
 20
-240.0511
  0
VERTEX
  8
LAYER_1
 62
     1
 10
-2341.5884
 20
-240.0511
  0
VERTEX
  8
LAYER_1
 62
     1
 10
-2341.2871
 20
-240.0817
  0
VERTEX
  8
LAYER_1
 62
     1
 10
-2341.006
 20
-240.1695
  0
VERTEX
  8
LAYER_1
 62
     1
 10
-2340.7512
 20
-240.3082
  0
VERTEX
  8
LAYER_1
 62
     1
 10
-2340.529
 20
-240.4917
  0
VERTEX
  8
LAYER_1
 62
     1
 10
-2340.3455
 20
-240.7139
  0
VERTEX
  8
LAYER_1
 62
     1
 10
-2340.2068
 20
-240.9687
  0
VERTEX
  8
LAYER_1
 62
     1
 10
-2340.119
 20
-241.2498
  0
VERTEX
  8
LAYER_1
 62
     1
 10
-2340.0884
 20
-241.5511
  0
VERTEX
  8
LAYER_1
 62
     1
 10
-2340.0884
 20
-244.6181
  0
VERTEX
  8
LAYER_1
 62
     1
 10
-2340.119
 20
-244.9194
  0
VERTEX
  8
LAYER_1
 62
     1
 10
-2340.2068
 20
-245.2005
  0
VERTEX
  8
LAYER_1
 62
     1
 10
-2340.3455
 20
-245.4553
  0
VERTEX
  8
LAYER_1
 62
     1
 10
-2340.529
 20
-245.6775
  0
VERTEX
  8
LAYER_1
 62
     1
 10
-2340.7512
 20
-245.861
  0
VERTEX
  8
LAYER_1
 62
     1
 10
-2341.006
 20
-245.9997
  0
VERTEX
  8
LAYER_1
 62
     1
 10
-2341.2871
 20
-246.0875
  0
VERTEX
  8
LAYER_1
 62
     1
 10
-2341.5884
 20
-246.1181
  0
VERTEX
  8
LAYER_1
 62
     1
 10
-2345.9836
 20
-246.1181
  0
VERTEX
  8
LAYER_1
 62
     1
 10
-2346.2849
 20
-246.0875
  0
VERTEX
  8
LAYER_1
 62
     1
 10
-2346.566
 20
-245.9997
  0
VERTEX
  8
LAYER_1
 62
     1
 10
-2346.8208
 20
-245.861
  0
VERTEX
  8
LAYER_1
 62
     1
 10
-2347.043
 20
-245.6775
  0
VERTEX
  8
LAYER_1
 62
     1
 10
-2347.2265
 20
-245.4553
  0
VERTEX
  8
LAYER_1
 62
     1
 10
-2347.3652
 20
-245.2005
  0
VERTEX
  8
LAYER_1
 62
     1
 10
-2347.453
 20
-244.9194
  0
VERTEX
  8
LAYER_1
 62
     1
 10
-2347.4836
 20
-244.6181
  0
SEQEND
  8
LAYER_1
 62
     1
  0
POLYLINE
  8
LAYER_1
 62
     1
 66
     1
 70
     1
  0
VERTEX
  8
LAYER_1
 62
     1
 10
-2347.635
 20
-219.2181
  0
VERTEX
  8
LAYER_1
 62
     1
 10
-2347.635
 20
-216.1511
  0
VERTEX
  8
LAYER_1
 62
     1
 10
-2347.6044
 20
-215.8498
  0
VERTEX
  8
LAYER_1
 62
     1
 10
-2347.5166
 20
-215.5687
  0
VERTEX
  8
LAYER_1
 62
     1
 10
-2347.3779
 20
-215.3139
  0
VERTEX
  8
LAYER_1
 62
     1
 10
-2347.1944
 20
-215.0917
  0
VERTEX
  8
LAYER_1
 62
     1
 10
-2346.9722
 20
-214.9082
  0
VERTEX
  8
LAYER_1
 62
     1
 10
-2346.7174
 20
-214.7695
  0
VERTEX
  8
LAYER_1
 62
     1
 10
-2346.4363
 20
-214.6817
  0
VERTEX
  8
LAYER_1
 62
     1
 10
-2346.135
 20
-214.6511
  0
VERTEX
  8
LAYER_1
 62
     1
 10
-2341.7398
 20
-214.6511
  0
VERTEX
  8
LAYER_1
 62
     1
 10
-2341.4385
 20
-214.6817
  0
VERTEX
  8
LAYER_1
 62
     1
 10
-2341.1574
 20
-214.7695
  0
VERTEX
  8
LAYER_1
 62
     1
 10
-2340.9026
 20
-214.9082
  0
VERTEX
  8
LAYER_1
 62
     1
 10
-2340.6804
 20
-215.0917
  0
VERTEX
  8
LAYER_1
 62
     1
 10
-2340.4969
 20
-215.3139
  0
VERTEX
  8
LAYER_1
 62
     1
 10
-2340.3582
 20
-215.5687
  0
VERTEX
  8
LAYER_1
 62
     1
 10
-2340.2704
 20
-215.8498
  0
VERTEX
  8
LAYER_1
 62
     1
 10
-2340.2398
 20
-216.1511
  0
VERTEX
  8
LAYER_1
 62
     1
 10
-2340.2398
 20
-219.2181
  0
VERTEX
  8
LAYER_1
 62
     1
 10
-2340.2704
 20
-219.5194
  0
VERTEX
  8
LAYER_1
 62
     1
 10
-2340.3582
 20
-219.8005
  0
VERTEX
  8
LAYER_1
 62
     1
 10
-2340.4969
 20
-220.0553
  0
VERTEX
  8
LAYER_1
 62
     1
 10
-2340.6804
 20
-220.2775
  0
VERTEX
  8
LAYER_1
 62
     1
 10
-2340.9026
 20
-220.461
  0
VERTEX
  8
LAYER_1
 62
     1
 10
-2341.1574
 20
-220.5997
  0
VERTEX
  8
LAYER_1
 62
     1
 10
-2341.4385
 20
-220.6875
  0
VERTEX
  8
LAYER_1
 62
     1
 10
-2341.7398
 20
-220.7181
  0
VERTEX
  8
LAYER_1
 62
     1
 10
-2346.135
 20
-220.7181
  0
VERTEX
  8
LAYER_1
 62
     1
 10
-2346.4363
 20
-220.6875
  0
VERTEX
  8
LAYER_1
 62
     1
 10
-2346.7174
 20
-220.5997
  0
VERTEX
  8
LAYER_1
 62
     1
 10
-2346.9722
 20
-220.461
  0
VERTEX
  8
LAYER_1
 62
     1
 10
-2347.1944
 20
-220.2775
  0
VERTEX
  8
LAYER_1
 62
     1
 10
-2347.3779
 20
-220.0553
  0
VERTEX
  8
LAYER_1
 62
     1
 10
-2347.5166
 20
-219.8005
  0
VERTEX
  8
LAYER_1
 62
     1
 10
-2347.6044
 20
-219.5194
  0
VERTEX
  8
LAYER_1
 62
     1
 10
-2347.635
 20
-219.2181
  0
SEQEND
  8
LAYER_1
 62
     1
  0
POLYLINE
  8
LAYER_1
 62
     1
 66
     1
  0
VERTEX
  8
LAYER_1
 62
     1
 10
-2344.0083
 20
-488.5389
  0
VERTEX
  8
LAYER_1
 62
     1
 10
-2185.8909
 20
-488.5389
  0
SEQEND
  8
LAYER_1
 62
     1
  0
POLYLINE
  8
LAYER_1
 62
     1
 66
     1
  0
VERTEX
  8
LAYER_1
 62
     1
 10
-1909.1849
 20
-140.9656
  0
VERTEX
  8
LAYER_1
 62
     1
 10
-1910.2561
 20
-151.7301
  0
VERTEX
  8
LAYER_1
 62
     1
 10
-1913.3283
 20
-161.7577
  0
VERTEX
  8
LAYER_1
 62
     1
 10
-1918.189
 20
-170.833
  0
VERTEX
  8
LAYER_1
 62
     1
 10
-1924.6261
 20
-178.7409
  0
VERTEX
  8
LAYER_1
 62
     1
 10
-1932.4271
 20
-185.2662
  0
VERTEX
  8
LAYER_1
 62
     1
 10
-1941.3797
 20
-190.1935
  0
VERTEX
  8
LAYER_1
 62
     1
 10
-1951.2718
 20
-193.3078
  0
VERTEX
  8
LAYER_1
 62
     1
 10
-1961.8908
 20
-194.3937
  0
SEQEND
  8
LAYER_1
 62
     1
  0
POLYLINE
  8
LAYER_1
 62
     1
 66
     1
  0
VERTEX
  8
LAYER_1
 62
     1
 10
-2120.0082
 20
-194.3937
  0
VERTEX
  8
LAYER_1
 62
     1
 10
-2122.6656
 20
-194.1226
  0
VERTEX
  8
LAYER_1
 62
     1
 10
-2125.1398
 20
-193.345
  0
VERTEX
  8
LAYER_1
 62
     1
 10
-2127.3782
 20
-192.1143
  0
VERTEX
  8
LAYER_1
 62
     1
 10
-2129.3278
 20
-190.484
  0
VERTEX
  8
LAYER_1
 62
     1
 10
-2130.9361
 20
-188.5076
  0
VERTEX
  8
LAYER_1
 62
     1
 10
-2132.1501
 20
-186.2386
  0
VERTEX
  8
LAYER_1
 62
     1
 10
-2132.9173
 20
-183.7305
  0
VERTEX
  8
LAYER_1
 62
     1
 10
-2133.1847
 20
-181.0367
  0
SEQEND
  8
LAYER_1
 62
     1
  0
POLYLINE
  8
LAYER_1
 62
     1
 66
     1
  0
VERTEX
  8
LAYER_1
 62
     1
 10
-2133.1847
 20
-181.0367
  0
VERTEX
  8
LAYER_1
 62
     1
 10
-2133.1847
 20
86.104
  0
SEQEND
  8
LAYER_1
 62
     1
  0
POLYLINE
  8
LAYER_1
 62
     1
 66
     1
  0
VERTEX
  8
LAYER_1
 62
     1
 10
-2133.1847
 20
86.104
  0
VERTEX
  8
LAYER_1
 62
     1
 10
-2132.9173
 20
88.7978
  0
VERTEX
  8
LAYER_1
 62
     1
 10
-2132.1501
 20
91.306
  0
VERTEX
  8
LAYER_1
 62
     1
 10
-2130.9361
 20
93.575
  0
VERTEX
  8
LAYER_1
 62
     1
 10
-2129.3278
 20
95.5514
  0
VERTEX
  8
LAYER_1
 62
     1
 10
-2127.3782
 20
97.1817
  0
VERTEX
  8
LAYER_1
 62
     1
 10
-2125.1398
 20
98.4124
  0
VERTEX
  8
LAYER_1
 62
     1
 10
-2122.6656
 20
99.19
  0
VERTEX
  8
LAYER_1
 62
     1
 10
-2120.0082
 20
99.4611
  0
SEQEND
  8
LAYER_1
 62
     1
  0
POLYLINE
  8
LAYER_1
 62
     1
 66
     1
  0
VERTEX
  8
LAYER_1
 62
     1
 10
-2120.0082
 20
99.4611
  0
VERTEX
  8
LAYER_1
 62
     1
 10
-1961.8908
 20
99.4611
  0
SEQEND
  8
LAYER_1
 62
     1
  0
POLYLINE
  8
LAYER_1
 62
     1
 66
     1
  0
VERTEX
  8
LAYER_1
 62
     1
 10
-1961.8908
 20
99.4611
  0
VERTEX
  8
LAYER_1
 62
     1
 10
-1951.2718
 20
98.3752
  0
VERTEX
  8
LAYER_1
 62
     1
 10
-1941.3797
 20
95.2609
  0
VERTEX
  8
LAYER_1
 62
     1
 10
-1932.4271
 20
90.3335
  0
VERTEX
  8
LAYER_1
 62
     1
 10
-1924.6261
 20
83.8083
  0
VERTEX
  8
LAYER_1
 62
     1
 10
-1918.189
 20
75.9003
  0
VERTEX
  8
LAYER_1
 62
     1
 10
-1913.3283
 20
66.825
  0
VERTEX
  8
LAYER_1
 62
     1
 10
-1910.2561
 20
56.7974
  0
VERTEX
  8
LAYER_1
 62
     1
 10
-1909.1849
 20
46.0329
  0
SEQEND
  8
LAYER_1
 62
     1
  0
POLYLINE
  8
LAYER_1
 62
     1
 66
     1
 70
     1
  0
VERTEX
  8
LAYER_1
 62
     1
 10
-2123.4835
 20
-172.9174
  0
VERTEX
  8
LAYER_1
 62
     1
 10
-2123.4835
 20
-169.8504
  0
VERTEX
  8
LAYER_1
 62
     1
 10
-2123.4529
 20
-169.5491
  0
VERTEX
  8
LAYER_1
 62
     1
 10
-2123.3651
 20
-169.268
  0
VERTEX
  8
LAYER_1
 62
     1
 10
-2123.2264
 20
-169.0132
  0
VERTEX
  8
LAYER_1
 62
     1
 10
-2123.0429
 20
-168.791
  0
VERTEX
  8
LAYER_1
 62
     1
 10
-2122.8207
 20
-168.6075
  0
VERTEX
  8
LAYER_1
 62
     1
 10
-2122.5659
 20
-168.4688
  0
VERTEX
  8
LAYER_1
 62
     1
 10
-2122.2848
 20
-168.381
  0
VERTEX
  8
LAYER_1
 62
     1
 10
-2121.9835
 20
-168.3504
  0
VERTEX
  8
LAYER_1
 62
     1
 10
-2117.5883
 20
-168.3504
  0
VERTEX
  8
LAYER_1
 62
     1
 10
-2117.287
 20
-168.381
  0
VERTEX
  8
LAYER_1
 62
     1
 10
-2117.0059
 20
-168.4688
  0
VERTEX
  8
LAYER_1
 62
     1
 10
-2116.7511
 20
-168.6075
  0
VERTEX
  8
LAYER_1
 62
     1
 10
-2116.5289
 20
-168.791
  0
VERTEX
  8
LAYER_1
 62
     1
 10
-2116.3454
 20
-169.0132
  0
VERTEX
  8
LAYER_1
 62
     1
 10
-2116.2067
 20
-169.268
  0
VERTEX
  8
LAYER_1
 62
     1
 10
-2116.1189
 20
-169.5491
  0
VERTEX
  8
LAYER_1
 62
     1
 10
-2116.0883
 20
-169.8504
  0
VERTEX
  8
LAYER_1
 62
     1
 10
-2116.0883
 20
-172.9174
  0
VERTEX
  8
LAYER_1
 62
     1
 10
-2116.1189
 20
-173.2187
  0
VERTEX
  8
LAYER_1
 62
     1
 10
-2116.2067
 20
-173.4998
  0
VERTEX
  8
LAYER_1
 62
     1
 10
-2116.3454
 20
-173.7546
  0
VERTEX
  8
LAYER_1
 62
     1
 10
-2116.5289
 20
-173.9768
  0
VERTEX
  8
LAYER_1
 62
     1
 10
-2116.7511
 20
-174.1603
  0
VERTEX
  8
LAYER_1
 62
     1
 10
-2117.0059
 20
-174.299
  0
VERTEX
  8
LAYER_1
 62
     1
 10
-2117.287
 20
-174.3868
  0
VERTEX
  8
LAYER_1
 62
     1
 10
-2117.5883
 20
-174.4174
  0
VERTEX
  8
LAYER_1
 62
     1
 10
-2121.9835
 20
-174.4174
  0
VERTEX
  8
LAYER_1
 62
     1
 10
-2122.2848
 20
-174.3868
  0
VERTEX
  8
LAYER_1
 62
     1
 10
-2122.5659
 20
-174.299
  0
VERTEX
  8
LAYER_1
 62
     1
 10
-2122.8207
 20
-174.1603
  0
VERTEX
  8
LAYER_1
 62
     1
 10
-2123.0429
 20
-173.9768
  0
VERTEX
  8
LAYER_1
 62
     1
 10
-2123.2264
 20
-173.7546
  0
VERTEX
  8
LAYER_1
 62
     1
 10
-2123.3651
 20
-173.4998
  0
VERTEX
  8
LAYER_1
 62
     1
 10
-2123.4529
 20
-173.2187
  0
VERTEX
  8
LAYER_1
 62
     1
 10
-2123.4835
 20
-172.9174
  0
SEQEND
  8
LAYER_1
 62
     1
  0
POLYLINE
  8
LAYER_1
 62
     1
 66
     1
 70
     1
  0
VERTEX
  8
LAYER_1
 62
     1
 10
-2123.6349
 20
-147.5174
  0
VERTEX
  8
LAYER_1
 62
     1
 10
-2123.6349
 20
-144.4504
  0
VERTEX
  8
LAYER_1
 62
     1
 10
-2123.6043
 20
-144.1491
  0
VERTEX
  8
LAYER_1
 62
     1
 10
-2123.5165
 20
-143.868
  0
VERTEX
  8
LAYER_1
 62
     1
 10
-2123.3778
 20
-143.6132
  0
VERTEX
  8
LAYER_1
 62
     1
 10
-2123.1943
 20
-143.391
  0
VERTEX
  8
LAYER_1
 62
     1
 10
-2122.9721
 20
-143.2075
  0
VERTEX
  8
LAYER_1
 62
     1
 10
-2122.7173
 20
-143.0688
  0
VERTEX
  8
LAYER_1
 62
     1
 10
-2122.4362
 20
-142.981
  0
VERTEX
  8
LAYER_1
 62
     1
 10
-2122.1349
 20
-142.9504
  0
VERTEX
  8
LAYER_1
 62
     1
 10
-2117.7397
 20
-142.9504
  0
VERTEX
  8
LAYER_1
 62
     1
 10
-2117.4384
 20
-142.981
  0
VERTEX
  8
LAYER_1
 62
     1
 10
-2117.1573
 20
-143.0688
  0
VERTEX
  8
LAYER_1
 62
     1
 10
-2116.9025
 20
-143.2075
  0
VERTEX
  8
LAYER_1
 62
     1
 10
-2116.6803
 20
-143.391
  0
VERTEX
  8
LAYER_1
 62
     1
 10
-2116.4968
 20
-143.6132
  0
VERTEX
  8
LAYER_1
 62
     1
 10
-2116.3581
 20
-143.868
  0
VERTEX
  8
LAYER_1
 62
     1
 10
-2116.2703
 20
-144.1491
  0
VERTEX
  8
LAYER_1
 62
     1
 10
-2116.2397
 20
-144.4504
  0
VERTEX
  8
LAYER_1
 62
     1
 10
-2116.2397
 20
-147.5174
  0
VERTEX
  8
LAYER_1
 62
     1
 10
-2116.2703
 20
-147.8187
  0
VERTEX
  8
LAYER_1
 62
     1
 10
-2116.3581
 20
-148.0998
  0
VERTEX
  8
LAYER_1
 62
     1
 10
-2116.4968
 20
-148.3546
  0
VERTEX
  8
LAYER_1
 62
     1
 10
-2116.6803
 20
-148.5768
  0
VERTEX
  8
LAYER_1
 62
     1
 10
-2116.9025
 20
-148.7603
  0
VERTEX
  8
LAYER_1
 62
     1
 10
-2117.1573
 20
-148.899
  0
VERTEX
  8
LAYER_1
 62
     1
 10
-2117.4384
 20
-148.9868
  0
VERTEX
  8
LAYER_1
 62
     1
 10
-2117.7397
 20
-149.0174
  0
VERTEX
  8
LAYER_1
 62
     1
 10
-2122.1349
 20
-149.0174
  0
VERTEX
  8
LAYER_1
 62
     1
 10
-2122.4362
 20
-148.9868
  0
VERTEX
  8
LAYER_1
 62
     1
 10
-2122.7173
 20
-148.899
  0
VERTEX
  8
LAYER_1
 62
     1
 10
-2122.9721
 20
-148.7603
  0
VERTEX
  8
LAYER_1
 62
     1
 10
-2123.1943
 20
-148.5768
  0
VERTEX
  8
LAYER_1
 62
     1
 10
-2123.3778
 20
-148.3546
  0
VERTEX
  8
LAYER_1
 62
     1
 10
-2123.5165
 20
-148.0998
  0
VERTEX
  8
LAYER_1
 62
     1
 10
-2123.6043
 20
-147.8187
  0
VERTEX
  8
LAYER_1
 62
     1
 10
-2123.6349
 20
-147.5174
  0
SEQEND
  8
LAYER_1
 62
     1
  0
POLYLINE
  8
LAYER_1
 62
     1
 66
     1
 70
     1
  0
VERTEX
  8
LAYER_1
 62
     1
 10
-2123.4835
 20
-61.7924
  0
VERTEX
  8
LAYER_1
 62
     1
 10
-2123.4835
 20
-58.7254
  0
VERTEX
  8
LAYER_1
 62
     1
 10
-2123.4529
 20
-58.4241
  0
VERTEX
  8
LAYER_1
 62
     1
 10
-2123.3651
 20
-58.143
  0
VERTEX
  8
LAYER_1
 62
     1
 10
-2123.2264
 20
-57.8882
  0
VERTEX
  8
LAYER_1
 62
     1
 10
-2123.0429
 20
-57.666
  0
VERTEX
  8
LAYER_1
 62
     1
 10
-2122.8207
 20
-57.4825
  0
VERTEX
  8
LAYER_1
 62
     1
 10
-2122.5659
 20
-57.3438
  0
VERTEX
  8
LAYER_1
 62
     1
 10
-2122.2848
 20
-57.256
  0
VERTEX
  8
LAYER_1
 62
     1
 10
-2121.9835
 20
-57.2254
  0
VERTEX
  8
LAYER_1
 62
     1
 10
-2117.5883
 20
-57.2254
  0
VERTEX
  8
LAYER_1
 62
     1
 10
-2117.287
 20
-57.256
  0
VERTEX
  8
LAYER_1
 62
     1
 10
-2117.0059
 20
-57.3438
  0
VERTEX
  8
LAYER_1
 62
     1
 10
-2116.7511
 20
-57.4825
  0
VERTEX
  8
LAYER_1
 62
     1
 10
-2116.5289
 20
-57.666
  0
VERTEX
  8
LAYER_1
 62
     1
 10
-2116.3454
 20
-57.8882
  0
VERTEX
  8
LAYER_1
 62
     1
 10
-2116.2067
 20
-58.143
  0
VERTEX
  8
LAYER_1
 62
     1
 10
-2116.1189
 20
-58.4241
  0
VERTEX
  8
LAYER_1
 62
     1
 10
-2116.0883
 20
-58.7254
  0
VERTEX
  8
LAYER_1
 62
     1
 10
-2116.0883
 20
-61.7924
  0
VERTEX
  8
LAYER_1
 62
     1
 10
-2116.1189
 20
-62.0937
  0
VERTEX
  8
LAYER_1
 62
     1
 10
-2116.2067
 20
-62.3748
  0
VERTEX
  8
LAYER_1
 62
     1
 10
-2116.3454
 20
-62.6296
  0
VERTEX
  8
LAYER_1
 62
     1
 10
-2116.5289
 20
-62.8518
  0
VERTEX
  8
LAYER_1
 62
     1
 10
-2116.7511
 20
-63.0353
  0
VERTEX
  8
LAYER_1
 62
     1
 10
-2117.0059
 20
-63.174
  0
VERTEX
  8
LAYER_1
 62
     1
 10
-2117.287
 20
-63.2618
  0
VERTEX
  8
LAYER_1
 62
     1
 10
-2117.5883
 20
-63.2924
  0
VERTEX
  8
LAYER_1
 62
     1
 10
-2121.9835
 20
-63.2924
  0
VERTEX
  8
LAYER_1
 62
     1
 10
-2122.2848
 20
-63.2618
  0
VERTEX
  8
LAYER_1
 62
     1
 10
-2122.5659
 20
-63.174
  0
VERTEX
  8
LAYER_1
 62
     1
 10
-2122.8207
 20
-63.0353
  0
VERTEX
  8
LAYER_1
 62
     1
 10
-2123.0429
 20
-62.8518
  0
VERTEX
  8
LAYER_1
 62
     1
 10
-2123.2264
 20
-62.6296
  0
VERTEX
  8
LAYER_1
 62
     1
 10
-2123.3651
 20
-62.3748
  0
VERTEX
  8
LAYER_1
 62
     1
 10
-2123.4529
 20
-62.0937
  0
VERTEX
  8
LAYER_1
 62
     1
 10
-2123.4835
 20
-61.7924
  0
SEQEND
  8
LAYER_1
 62
     1
  0
POLYLINE
  8
LAYER_1
 62
     1
 66
     1
 70
     1
  0
VERTEX
  8
LAYER_1
 62
     1
 10
-2123.6349
 20
-36.3924
  0
VERTEX
  8
LAYER_1
 62
     1
 10
-2123.6349
 20
-33.3254
  0
VERTEX
  8
LAYER_1
 62
     1
 10
-2123.6043
 20
-33.0241
  0
VERTEX
  8
LAYER_1
 62
     1
 10
-2123.5165
 20
-32.743
  0
VERTEX
  8
LAYER_1
 62
     1
 10
-2123.3778
 20
-32.4882
  0
VERTEX
  8
LAYER_1
 62
     1
 10
-2123.1943
 20
-32.266
  0
VERTEX
  8
LAYER_1
 62
     1
 10
-2122.9721
 20
-32.0825
  0
VERTEX
  8
LAYER_1
 62
     1
 10
-2122.7173
 20
-31.9438
  0
VERTEX
  8
LAYER_1
 62
     1
 10
-2122.4362
 20
-31.856
  0
VERTEX
  8
LAYER_1
 62
     1
 10
-2122.1349
 20
-31.8254
  0
VERTEX
  8
LAYER_1
 62
     1
 10
-2117.7397
 20
-31.8254
  0
VERTEX
  8
LAYER_1
 62
     1
 10
-2117.4384
 20
-31.856
  0
VERTEX
  8
LAYER_1
 62
     1
 10
-2117.1573
 20
-31.9438
  0
VERTEX
  8
LAYER_1
 62
     1
 10
-2116.9025
 20
-32.0825
  0
VERTEX
  8
LAYER_1
 62
     1
 10
-2116.6803
 20
-32.266
  0
VERTEX
  8
LAYER_1
 62
     1
 10
-2116.4968
 20
-32.4882
  0
VERTEX
  8
LAYER_1
 62
     1
 10
-2116.3581
 20
-32.743
  0
VERTEX
  8
LAYER_1
 62
     1
 10
-2116.2703
 20
-33.0241
  0
VERTEX
  8
LAYER_1
 62
     1
 10
-2116.2397
 20
-33.3254
  0
VERTEX
  8
LAYER_1
 62
     1
 10
-2116.2397
 20
-36.3924
  0
VERTEX
  8
LAYER_1
 62
     1
 10
-2116.2703
 20
-36.6937
  0
VERTEX
  8
LAYER_1
 62
     1
 10
-2116.3581
 20
-36.9748
  0
VERTEX
  8
LAYER_1
 62
     1
 10
-2116.4968
 20
-37.2296
  0
VERTEX
  8
LAYER_1
 62
     1
 10
-2116.6803
 20
-37.4518
  0
VERTEX
  8
LAYER_1
 62
     1
 10
-2116.9025
 20
-37.6353
  0
VERTEX
  8
LAYER_1
 62
     1
 10
-2117.1573
 20
-37.774
  0
VERTEX
  8
LAYER_1
 62
     1
 10
-2117.4384
 20
-37.8618
  0
VERTEX
  8
LAYER_1
 62
     1
 10
-2117.7397
 20
-37.8924
  0
VERTEX
  8
LAYER_1
 62
     1
 10
-2122.1349
 20
-37.8924
  0
VERTEX
  8
LAYER_1
 62
     1
 10
-2122.4362
 20
-37.8618
  0
VERTEX
  8
LAYER_1
 62
     1
 10
-2122.7173
 20
-37.774
  0
VERTEX
  8
LAYER_1
 62
     1
 10
-2122.9721
 20
-37.6353
  0
VERTEX
  8
LAYER_1
 62
     1
 10
-2123.1943
 20
-37.4518
  0
VERTEX
  8
LAYER_1
 62
     1
 10
-2123.3778
 20
-37.2296
  0
VERTEX
  8
LAYER_1
 62
     1
 10
-2123.5165
 20
-36.9748
  0
VERTEX
  8
LAYER_1
 62
     1
 10
-2123.6043
 20
-36.6937
  0
VERTEX
  8
LAYER_1
 62
     1
 10
-2123.6349
 20
-36.3924
  0
SEQEND
  8
LAYER_1
 62
     1
  0
POLYLINE
  8
LAYER_1
 62
     1
 66
     1
 70
     1
  0
VERTEX
  8
LAYER_1
 62
     1
 10
-2123.4835
 20
49.3823
  0
VERTEX
  8
LAYER_1
 62
     1
 10
-2123.4835
 20
52.4493
  0
VERTEX
  8
LAYER_1
 62
     1
 10
-2123.4529
 20
52.7506
  0
VERTEX
  8
LAYER_1
 62
     1
 10
-2123.3651
 20
53.0317
  0
VERTEX
  8
LAYER_1
 62
     1
 10
-2123.2264
 20
53.2865
  0
VERTEX
  8
LAYER_1
 62
     1
 10
-2123.0429
 20
53.5087
  0
VERTEX
  8
LAYER_1
 62
     1
 10
-2122.8207
 20
53.6922
  0
VERTEX
  8
LAYER_1
 62
     1
 10
-2122.5659
 20
53.8309
  0
VERTEX
  8
LAYER_1
 62
     1
 10
-2122.2848
 20
53.9187
  0
VERTEX
  8
LAYER_1
 62
     1
 10
-2121.9835
 20
53.9493
  0
VERTEX
  8
LAYER_1
 62
     1
 10
-2117.5883
 20
53.9493
  0
VERTEX
  8
LAYER_1
 62
     1
 10
-2117.287
 20
53.9187
  0
VERTEX
  8
LAYER_1
 62
     1
 10
-2117.0059
 20
53.8309
  0
VERTEX
  8
LAYER_1
 62
     1
 10
-2116.7511
 20
53.6922
  0
VERTEX
  8
LAYER_1
 62
     1
 10
-2116.5289
 20
53.5087
  0
VERTEX
  8
LAYER_1
 62
     1
 10
-2116.3454
 20
53.2865
  0
VERTEX
  8
LAYER_1
 62
     1
 10
-2116.2067
 20
53.0317
  0
VERTEX
  8
LAYER_1
 62
     1
 10
-2116.1189
 20
52.7506
  0
VERTEX
  8
LAYER_1
 62
     1
 10
-2116.0883
 20
52.4493
  0
VERTEX
  8
LAYER_1
 62
     1
 10
-2116.0883
 20
49.3823
  0
VERTEX
  8
LAYER_1
 62
     1
 10
-2116.1189
 20
49.081
  0
VERTEX
  8
LAYER_1
 62
     1
 10
-2116.2067
 20
48.7999
  0
VERTEX
  8
LAYER_1
 62
     1
 10
-2116.3454
 20
48.5451
  0
VERTEX
  8
LAYER_1
 62
     1
 10
-2116.5289
 20
48.3229
  0
VERTEX
  8
LAYER_1
 62
     1
 10
-2116.7511
 20
48.1394
  0
VERTEX
  8
LAYER_1
 62
     1
 10
-2117.0059
 20
48.0007
  0
VERTEX
  8
LAYER_1
 62
     1
 10
-2117.287
 20
47.9129
  0
VERTEX
  8
LAYER_1
 62
     1
 10
-2117.5883
 20
47.8823
  0
VERTEX
  8
LAYER_1
 62
     1
 10
-2121.9835
 20
47.8823
  0
VERTEX
  8
LAYER_1
 62
     1
 10
-2122.2848
 20
47.9129
  0
VERTEX
  8
LAYER_1
 62
     1
 10
-2122.5659
 20
48.0007
  0
VERTEX
  8
LAYER_1
 62
     1
 10
-2122.8207
 20
48.1394
  0
VERTEX
  8
LAYER_1
 62
     1
 10
-2123.0429
 20
48.3229
  0
VERTEX
  8
LAYER_1
 62
     1
 10
-2123.2264
 20
48.5451
  0
VERTEX
  8
LAYER_1
 62
     1
 10
-2123.3651
 20
48.7999
  0
VERTEX
  8
LAYER_1
 62
     1
 10
-2123.4529
 20
49.081
  0
VERTEX
  8
LAYER_1
 62
     1
 10
-2123.4835
 20
49.3823
  0
SEQEND
  8
LAYER_1
 62
     1
  0
POLYLINE
  8
LAYER_1
 62
     1
 66
     1
 70
     1
  0
VERTEX
  8
LAYER_1
 62
     1
 10
-2123.6349
 20
74.7823
  0
VERTEX
  8
LAYER_1
 62
     1
 10
-2123.6349
 20
77.8493
  0
VERTEX
  8
LAYER_1
 62
     1
 10
-2123.6043
 20
78.1506
  0
VERTEX
  8
LAYER_1
 62
     1
 10
-2123.5165
 20
78.4317
  0
VERTEX
  8
LAYER_1
 62
     1
 10
-2123.3778
 20
78.6865
  0
VERTEX
  8
LAYER_1
 62
     1
 10
-2123.1943
 20
78.9087
  0
VERTEX
  8
LAYER_1
 62
     1
 10
-2122.9721
 20
79.0922
  0
VERTEX
  8
LAYER_1
 62
     1
 10
-2122.7173
 20
79.2309
  0
VERTEX
  8
LAYER_1
 62
     1
 10
-2122.4362
 20
79.3187
  0
VERTEX
  8
LAYER_1
 62
     1
 10
-2122.1349
 20
79.3493
  0
VERTEX
  8
LAYER_1
 62
     1
 10
-2117.7397
 20
79.3493
  0
VERTEX
  8
LAYER_1
 62
     1
 10
-2117.4384
 20
79.3187
  0
VERTEX
  8
LAYER_1
 62
     1
 10
-2117.1573
 20
79.2309
  0
VERTEX
  8
LAYER_1
 62
     1
 10
-2116.9025
 20
79.0922
  0
VERTEX
  8
LAYER_1
 62
     1
 10
-2116.6803
 20
78.9087
  0
VERTEX
  8
LAYER_1
 62
     1
 10
-2116.4968
 20
78.6865
  0
VERTEX
  8
LAYER_1
 62
     1
 10
-2116.3581
 20
78.4317
  0
VERTEX
  8
LAYER_1
 62
     1
 10
-2116.2703
 20
78.1506
  0
VERTEX
  8
LAYER_1
 62
     1
 10
-2116.2397
 20
77.8493
  0
VERTEX
  8
LAYER_1
 62
     1
 10
-2116.2397
 20
74.7823
  0
VERTEX
  8
LAYER_1
 62
     1
 10
-2116.2703
 20
74.481
  0
VERTEX
  8
LAYER_1
 62
     1
 10
-2116.3581
 20
74.1999
  0
VERTEX
  8
LAYER_1
 62
     1
 10
-2116.4968
 20
73.9451
  0
VERTEX
  8
LAYER_1
 62
     1
 10
-2116.6803
 20
73.7229
  0
VERTEX
  8
LAYER_1
 62
     1
 10
-2116.9025
 20
73.5394
  0
VERTEX
  8
LAYER_1
 62
     1
 10
-2117.1573
 20
73.4007
  0
VERTEX
  8
LAYER_1
 62
     1
 10
-2117.4384
 20
73.3129
  0
VERTEX
  8
LAYER_1
 62
     1
 10
-2117.7397
 20
73.2823
  0
VERTEX
  8
LAYER_1
 62
     1
 10
-2122.1349
 20
73.2823
  0
VERTEX
  8
LAYER_1
 62
     1
 10
-2122.4362
 20
73.3129
  0
VERTEX
  8
LAYER_1
 62
     1
 10
-2122.7173
 20
73.4007
  0
VERTEX
  8
LAYER_1
 62
     1
 10
-2122.9721
 20
73.5394
  0
VERTEX
  8
LAYER_1
 62
     1
 10
-2123.1943
 20
73.7229
  0
VERTEX
  8
LAYER_1
 62
     1
 10
-2123.3778
 20
73.9451
  0
VERTEX
  8
LAYER_1
 62
     1
 10
-2123.5165
 20
74.1999
  0
VERTEX
  8
LAYER_1
 62
     1
 10
-2123.6043
 20
74.481
  0
VERTEX
  8
LAYER_1
 62
     1
 10
-2123.6349
 20
74.7823
  0
SEQEND
  8
LAYER_1
 62
     1
  0
POLYLINE
  8
LAYER_1
 62
     1
 66
     1
  0
VERTEX
  8
LAYER_1
 62
     1
 10
-2120.0082
 20
-194.5385
  0
VERTEX
  8
LAYER_1
 62
     1
 10
-1961.8908
 20
-194.5385
  0
SEQEND
  8
LAYER_1
 62
     1
  0
POLYLINE
  8
LAYER_1
 62
     1
 66
     1
  0
VERTEX
  8
LAYER_1
 62
     1
 10
-1909.1849
 20
-434.966
  0
VERTEX
  8
LAYER_1
 62
     1
 10
-1910.2561
 20
-445.7305
  0
VERTEX
  8
LAYER_1
 62
     1
 10
-1913.3283
 20
-455.7581
  0
VERTEX
  8
LAYER_1
 62
     1
 10
-1918.189
 20
-464.8334
  0
VERTEX
  8
LAYER_1
 62
     1
 10
-1924.6261
 20
-472.7413
  0
VERTEX
  8
LAYER_1
 62
     1
 10
-1932.4271
 20
-479.2666
  0
VERTEX
  8
LAYER_1
 62
     1
 10
-1941.3797
 20
-484.1939
  0
VERTEX
  8
LAYER_1
 62
     1
 10
-1951.2718
 20
-487.3082
  0
VERTEX
  8
LAYER_1
 62
     1
 10
-1961.8908
 20
-488.3941
  0
SEQEND
  8
LAYER_1
 62
     1
  0
POLYLINE
  8
LAYER_1
 62
     1
 66
     1
  0
VERTEX
  8
LAYER_1
 62
     1
 10
-2120.0082
 20
-488.3941
  0
VERTEX
  8
LAYER_1
 62
     1
 10
-2122.6656
 20
-488.123
  0
VERTEX
  8
LAYER_1
 62
     1
 10
-2125.1398
 20
-487.3454
  0
VERTEX
  8
LAYER_1
 62
     1
 10
-2127.3782
 20
-486.1147
  0
VERTEX
  8
LAYER_1
 62
     1
 10
-2129.3278
 20
-484.4844
  0
VERTEX
  8
LAYER_1
 62
     1
 10
-2130.9361
 20
-482.508
  0
VERTEX
  8
LAYER_1
 62
     1
 10
-2132.1501
 20
-480.239
  0
VERTEX
  8
LAYER_1
 62
     1
 10
-2132.9173
 20
-477.7309
  0
VERTEX
  8
LAYER_1
 62
     1
 10
-2133.1847
 20
-475.0371
  0
SEQEND
  8
LAYER_1
 62
     1
  0
POLYLINE
  8
LAYER_1
 62
     1
 66
     1
  0
VERTEX
  8
LAYER_1
 62
     1
 10
-2133.1847
 20
-475.0371
  0
VERTEX
  8
LAYER_1
 62
     1
 10
-2133.1847
 20
-207.8964
  0
SEQEND
  8
LAYER_1
 62
     1
  0
POLYLINE
  8
LAYER_1
 62
     1
 66
     1
  0
VERTEX
  8
LAYER_1
 62
     1
 10
-2133.1847
 20
-207.8964
  0
VERTEX
  8
LAYER_1
 62
     1
 10
-2132.9173
 20
-205.2026
  0
VERTEX
  8
LAYER_1
 62
     1
 10
-2132.1501
 20
-202.6944
  0
VERTEX
  8
LAYER_1
 62
     1
 10
-2130.9361
 20
-200.4254
  0
VERTEX
  8
LAYER_1
 62
     1
 10
-2129.3278
 20
-198.449
  0
VERTEX
  8
LAYER_1
 62
     1
 10
-2127.3782
 20
-196.8187
  0
VERTEX
  8
LAYER_1
 62
     1
 10
-2125.1398
 20
-195.588
  0
VERTEX
  8
LAYER_1
 62
     1
 10
-2122.6656
 20
-194.8104
  0
VERTEX
  8
LAYER_1
 62
     1
 10
-2120.0082
 20
-194.5393
  0
SEQEND
  8
LAYER_1
 62
     1
  0
POLYLINE
  8
LAYER_1
 62
     1
 66
     1
  0
VERTEX
  8
LAYER_1
 62
     1
 10
-2120.0082
 20
-194.5393
  0
VERTEX
  8
LAYER_1
 62
     1
 10
-1961.8908
 20
-194.5393
  0
SEQEND
  8
LAYER_1
 62
     1
  0
POLYLINE
  8
LAYER_1
 62
     1
 66
     1
  0
VERTEX
  8
LAYER_1
 62
     1
 10
-1961.8908
 20
-194.5393
  0
VERTEX
  8
LAYER_1
 62
     1
 10
-1951.2718
 20
-195.6252
  0
VERTEX
  8
LAYER_1
 62
     1
 10
-1941.3797
 20
-198.7395
  0
VERTEX
  8
LAYER_1
 62
     1
 10
-1932.4271
 20
-203.6669
  0
VERTEX
  8
LAYER_1
 62
     1
 10
-1924.6261
 20
-210.1921
  0
VERTEX
  8
LAYER_1
 62
     1
 10
-1918.189
 20
-218.1001
  0
VERTEX
  8
LAYER_1
 62
     1
 10
-1913.3283
 20
-227.1754
  0
VERTEX
  8
LAYER_1
 62
     1
 10
-1910.2561
 20
-237.203
  0
VERTEX
  8
LAYER_1
 62
     1
 10
-1909.1849
 20
-247.9675
  0
SEQEND
  8
LAYER_1
 62
     1
  0
POLYLINE
  8
LAYER_1
 62
     1
 66
     1
 70
     1
  0
VERTEX
  8
LAYER_1
 62
     1
 10
-2123.4835
 20
-466.9178
  0
VERTEX
  8
LAYER_1
 62
     1
 10
-2123.4835
 20
-463.8508
  0
VERTEX
  8
LAYER_1
 62
     1
 10
-2123.4529
 20
-463.5495
  0
VERTEX
  8
LAYER_1
 62
     1
 10
-2123.3651
 20
-463.2684
  0
VERTEX
  8
LAYER_1
 62
     1
 10
-2123.2264
 20
-463.0136
  0
VERTEX
  8
LAYER_1
 62
     1
 10
-2123.0429
 20
-462.7914
  0
VERTEX
  8
LAYER_1
 62
     1
 10
-2122.8207
 20
-462.6079
  0
VERTEX
  8
LAYER_1
 62
     1
 10
-2122.5659
 20
-462.4692
  0
VERTEX
  8
LAYER_1
 62
     1
 10
-2122.2848
 20
-462.3814
  0
VERTEX
  8
LAYER_1
 62
     1
 10
-2121.9835
 20
-462.3508
  0
VERTEX
  8
LAYER_1
 62
     1
 10
-2117.5883
 20
-462.3508
  0
VERTEX
  8
LAYER_1
 62
     1
 10
-2117.287
 20
-462.3814
  0
VERTEX
  8
LAYER_1
 62
     1
 10
-2117.0059
 20
-462.4692
  0
VERTEX
  8
LAYER_1
 62
     1
 10
-2116.7511
 20
-462.6079
  0
VERTEX
  8
LAYER_1
 62
     1
 10
-2116.5289
 20
-462.7914
  0
VERTEX
  8
LAYER_1
 62
     1
 10
-2116.3454
 20
-463.0136
  0
VERTEX
  8
LAYER_1
 62
     1
 10
-2116.2067
 20
-463.2684
  0
VERTEX
  8
LAYER_1
 62
     1
 10
-2116.1189
 20
-463.5495
  0
VERTEX
  8
LAYER_1
 62
     1
 10
-2116.0883
 20
-463.8508
  0
VERTEX
  8
LAYER_1
 62
     1
 10
-2116.0883
 20
-466.9178
  0
VERTEX
  8
LAYER_1
 62
     1
 10
-2116.1189
 20
-467.2191
  0
VERTEX
  8
LAYER_1
 62
     1
 10
-2116.2067
 20
-467.5002
  0
VERTEX
  8
LAYER_1
 62
     1
 10
-2116.3454
 20
-467.755
  0
VERTEX
  8
LAYER_1
 62
     1
 10
-2116.5289
 20
-467.9772
  0
VERTEX
  8
LAYER_1
 62
     1
 10
-2116.7511
 20
-468.1607
  0
VERTEX
  8
LAYER_1
 62
     1
 10
-2117.0059
 20
-468.2994
  0
VERTEX
  8
LAYER_1
 62
     1
 10
-2117.287
 20
-468.3872
  0
VERTEX
  8
LAYER_1
 62
     1
 10
-2117.5883
 20
-468.4178
  0
VERTEX
  8
LAYER_1
 62
     1
 10
-2121.9835
 20
-468.4178
  0
VERTEX
  8
LAYER_1
 62
     1
 10
-2122.2848
 20
-468.3872
  0
VERTEX
  8
LAYER_1
 62
     1
 10
-2122.5659
 20
-468.2994
  0
VERTEX
  8
LAYER_1
 62
     1
 10
-2122.8207
 20
-468.1607
  0
VERTEX
  8
LAYER_1
 62
     1
 10
-2123.0429
 20
-467.9772
  0
VERTEX
  8
LAYER_1
 62
     1
 10
-2123.2264
 20
-467.755
  0
VERTEX
  8
LAYER_1
 62
     1
 10
-2123.3651
 20
-467.5002
  0
VERTEX
  8
LAYER_1
 62
     1
 10
-2123.4529
 20
-467.2191
  0
VERTEX
  8
LAYER_1
 62
     1
 10
-2123.4835
 20
-466.9178
  0
SEQEND
  8
LAYER_1
 62
     1
  0
POLYLINE
  8
LAYER_1
 62
     1
 66
     1
 70
     1
  0
VERTEX
  8
LAYER_1
 62
     1
 10
-2123.6349
 20
-441.5178
  0
VERTEX
  8
LAYER_1
 62
     1
 10
-2123.6349
 20
-438.4508
  0
VERTEX
  8
LAYER_1
 62
     1
 10
-2123.6043
 20
-438.1495
  0
VERTEX
  8
LAYER_1
 62
     1
 10
-2123.5165
 20
-437.8684
  0
VERTEX
  8
LAYER_1
 62
     1
 10
-2123.3778
 20
-437.6136
  0
VERTEX
  8
LAYER_1
 62
     1
 10
-2123.1943
 20
-437.3914
  0
VERTEX
  8
LAYER_1
 62
     1
 10
-2122.9721
 20
-437.2079
  0
VERTEX
  8
LAYER_1
 62
     1
 10
-2122.7173
 20
-437.0692
  0
VERTEX
  8
LAYER_1
 62
     1
 10
-2122.4362
 20
-436.9814
  0
VERTEX
  8
LAYER_1
 62
     1
 10
-2122.1349
 20
-436.9508
  0
VERTEX
  8
LAYER_1
 62
     1
 10
-2117.7397
 20
-436.9508
  0
VERTEX
  8
LAYER_1
 62
     1
 10
-2117.4384
 20
-436.9814
  0
VERTEX
  8
LAYER_1
 62
     1
 10
-2117.1573
 20
-437.0692
  0
VERTEX
  8
LAYER_1
 62
     1
 10
-2116.9025
 20
-437.2079
  0
VERTEX
  8
LAYER_1
 62
     1
 10
-2116.6803
 20
-437.3914
  0
VERTEX
  8
LAYER_1
 62
     1
 10
-2116.4968
 20
-437.6136
  0
VERTEX
  8
LAYER_1
 62
     1
 10
-2116.3581
 20
-437.8684
  0
VERTEX
  8
LAYER_1
 62
     1
 10
-2116.2703
 20
-438.1495
  0
VERTEX
  8
LAYER_1
 62
     1
 10
-2116.2397
 20
-438.4508
  0
VERTEX
  8
LAYER_1
 62
     1
 10
-2116.2397
 20
-441.5178
  0
VERTEX
  8
LAYER_1
 62
     1
 10
-2116.2703
 20
-441.8191
  0
VERTEX
  8
LAYER_1
 62
     1
 10
-2116.3581
 20
-442.1002
  0
VERTEX
  8
LAYER_1
 62
     1
 10
-2116.4968
 20
-442.355
  0
VERTEX
  8
LAYER_1
 62
     1
 10
-2116.6803
 20
-442.5772
  0
VERTEX
  8
LAYER_1
 62
     1
 10
-2116.9025
 20
-442.7607
  0
VERTEX
  8
LAYER_1
 62
     1
 10
-2117.1573
 20
-442.8994
  0
VERTEX
  8
LAYER_1
 62
     1
 10
-2117.4384
 20
-442.9872
  0
VERTEX
  8
LAYER_1
 62
     1
 10
-2117.7397
 20
-443.0178
  0
VERTEX
  8
LAYER_1
 62
     1
 10
-2122.1349
 20
-443.0178
  0
VERTEX
  8
LAYER_1
 62
     1
 10
-2122.4362
 20
-442.9872
  0
VERTEX
  8
LAYER_1
 62
     1
 10
-2122.7173
 20
-442.8994
  0
VERTEX
  8
LAYER_1
 62
     1
 10
-2122.9721
 20
-442.7607
  0
VERTEX
  8
LAYER_1
 62
     1
 10
-2123.1943
 20
-442.5772
  0
VERTEX
  8
LAYER_1
 62
     1
 10
-2123.3778
 20
-442.355
  0
VERTEX
  8
LAYER_1
 62
     1
 10
-2123.5165
 20
-442.1002
  0
VERTEX
  8
LAYER_1
 62
     1
 10
-2123.6043
 20
-441.8191
  0
VERTEX
  8
LAYER_1
 62
     1
 10
-2123.6349
 20
-441.5178
  0
SEQEND
  8
LAYER_1
 62
     1
  0
POLYLINE
  8
LAYER_1
 62
     1
 66
     1
 70
     1
  0
VERTEX
  8
LAYER_1
 62
     1
 10
-2123.4835
 20
-355.7928
  0
VERTEX
  8
LAYER_1
 62
     1
 10
-2123.4835
 20
-352.7258
  0
VERTEX
  8
LAYER_1
 62
     1
 10
-2123.4529
 20
-352.4245
  0
VERTEX
  8
LAYER_1
 62
     1
 10
-2123.3651
 20
-352.1434
  0
VERTEX
  8
LAYER_1
 62
     1
 10
-2123.2264
 20
-351.8886
  0
VERTEX
  8
LAYER_1
 62
     1
 10
-2123.0429
 20
-351.6664
  0
VERTEX
  8
LAYER_1
 62
     1
 10
-2122.8207
 20
-351.4829
  0
VERTEX
  8
LAYER_1
 62
     1
 10
-2122.5659
 20
-351.3442
  0
VERTEX
  8
LAYER_1
 62
     1
 10
-2122.2848
 20
-351.2564
  0
VERTEX
  8
LAYER_1
 62
     1
 10
-2121.9835
 20
-351.2258
  0
VERTEX
  8
LAYER_1
 62
     1
 10
-2117.5883
 20
-351.2258
  0
VERTEX
  8
LAYER_1
 62
     1
 10
-2117.287
 20
-351.2564
  0
VERTEX
  8
LAYER_1
 62
     1
 10
-2117.0059
 20
-351.3442
  0
VERTEX
  8
LAYER_1
 62
     1
 10
-2116.7511
 20
-351.4829
  0
VERTEX
  8
LAYER_1
 62
     1
 10
-2116.5289
 20
-351.6664
  0
VERTEX
  8
LAYER_1
 62
     1
 10
-2116.3454
 20
-351.8886
  0
VERTEX
  8
LAYER_1
 62
     1
 10
-2116.2067
 20
-352.1434
  0
VERTEX
  8
LAYER_1
 62
     1
 10
-2116.1189
 20
-352.4245
  0
VERTEX
  8
LAYER_1
 62
     1
 10
-2116.0883
 20
-352.7258
  0
VERTEX
  8
LAYER_1
 62
     1
 10
-2116.0883
 20
-355.7928
  0
VERTEX
  8
LAYER_1
 62
     1
 10
-2116.1189
 20
-356.0941
  0
VERTEX
  8
LAYER_1
 62
     1
 10
-2116.2067
 20
-356.3752
  0
VERTEX
  8
LAYER_1
 62
     1
 10
-2116.3454
 20
-356.63
  0
VERTEX
  8
LAYER_1
 62
     1
 10
-2116.5289
 20
-356.8522
  0
VERTEX
  8
LAYER_1
 62
     1
 10
-2116.7511
 20
-357.0357
  0
VERTEX
  8
LAYER_1
 62
     1
 10
-2117.0059
 20
-357.1744
  0
VERTEX
  8
LAYER_1
 62
     1
 10
-2117.287
 20
-357.2622
  0
VERTEX
  8
LAYER_1
 62
     1
 10
-2117.5883
 20
-357.2928
  0
VERTEX
  8
LAYER_1
 62
     1
 10
-2121.9835
 20
-357.2928
  0
VERTEX
  8
LAYER_1
 62
     1
 10
-2122.2848
 20
-357.2622
  0
VERTEX
  8
LAYER_1
 62
     1
 10
-2122.5659
 20
-357.1744
  0
VERTEX
  8
LAYER_1
 62
     1
 10
-2122.8207
 20
-357.0357
  0
VERTEX
  8
LAYER_1
 62
     1
 10
-2123.0429
 20
-356.8522
  0
VERTEX
  8
LAYER_1
 62
     1
 10
-2123.2264
 20
-356.63
  0
VERTEX
  8
LAYER_1
 62
     1
 10
-2123.3651
 20
-356.3752
  0
VERTEX
  8
LAYER_1
 62
     1
 10
-2123.4529
 20
-356.0941
  0
VERTEX
  8
LAYER_1
 62
     1
 10
-2123.4835
 20
-355.7928
  0
SEQEND
  8
LAYER_1
 62
     1
  0
POLYLINE
  8
LAYER_1
 62
     1
 66
     1
 70
     1
  0
VERTEX
  8
LAYER_1
 62
     1
 10
-2123.6349
 20
-330.3928
  0
VERTEX
  8
LAYER_1
 62
     1
 10
-2123.6349
 20
-327.3258
  0
VERTEX
  8
LAYER_1
 62
     1
 10
-2123.6043
 20
-327.0245
  0
VERTEX
  8
LAYER_1
 62
     1
 10
-2123.5165
 20
-326.7434
  0
VERTEX
  8
LAYER_1
 62
     1
 10
-2123.3778
 20
-326.4886
  0
VERTEX
  8
LAYER_1
 62
     1
 10
-2123.1943
 20
-326.2664
  0
VERTEX
  8
LAYER_1
 62
     1
 10
-2122.9721
 20
-326.0829
  0
VERTEX
  8
LAYER_1
 62
     1
 10
-2122.7173
 20
-325.9442
  0
VERTEX
  8
LAYER_1
 62
     1
 10
-2122.4362
 20
-325.8564
  0
VERTEX
  8
LAYER_1
 62
     1
 10
-2122.1349
 20
-325.8258
  0
VERTEX
  8
LAYER_1
 62
     1
 10
-2117.7397
 20
-325.8258
  0
VERTEX
  8
LAYER_1
 62
     1
 10
-2117.4384
 20
-325.8564
  0
VERTEX
  8
LAYER_1
 62
     1
 10
-2117.1573
 20
-325.9442
  0
VERTEX
  8
LAYER_1
 62
     1
 10
-2116.9025
 20
-326.0829
  0
VERTEX
  8
LAYER_1
 62
     1
 10
-2116.6803
 20
-326.2664
  0
VERTEX
  8
LAYER_1
 62
     1
 10
-2116.4968
 20
-326.4886
  0
VERTEX
  8
LAYER_1
 62
     1
 10
-2116.3581
 20
-326.7434
  0
VERTEX
  8
LAYER_1
 62
     1
 10
-2116.2703
 20
-327.0245
  0
VERTEX
  8
LAYER_1
 62
     1
 10
-2116.2397
 20
-327.3258
  0
VERTEX
  8
LAYER_1
 62
     1
 10
-2116.2397
 20
-330.3928
  0
VERTEX
  8
LAYER_1
 62
     1
 10
-2116.2703
 20
-330.6941
  0
VERTEX
  8
LAYER_1
 62
     1
 10
-2116.3581
 20
-330.9752
  0
VERTEX
  8
LAYER_1
 62
     1
 10
-2116.4968
 20
-331.23
  0
VERTEX
  8
LAYER_1
 62
     1
 10
-2116.6803
 20
-331.4522
  0
VERTEX
  8
LAYER_1
 62
     1
 10
-2116.9025
 20
-331.6357
  0
VERTEX
  8
LAYER_1
 62
     1
 10
-2117.1573
 20
-331.7744
  0
VERTEX
  8
LAYER_1
 62
     1
 10
-2117.4384
 20
-331.8622
  0
VERTEX
  8
LAYER_1
 62
     1
 10
-2117.7397
 20
-331.8928
  0
VERTEX
  8
LAYER_1
 62
     1
 10
-2122.1349
 20
-331.8928
  0
VERTEX
  8
LAYER_1
 62
     1
 10
-2122.4362
 20
-331.8622
  0
VERTEX
  8
LAYER_1
 62
     1
 10
-2122.7173
 20
-331.7744
  0
VERTEX
  8
LAYER_1
 62
     1
 10
-2122.9721
 20
-331.6357
  0
VERTEX
  8
LAYER_1
 62
     1
 10
-2123.1943
 20
-331.4522
  0
VERTEX
  8
LAYER_1
 62
     1
 10
-2123.3778
 20
-331.23
  0
VERTEX
  8
LAYER_1
 62
     1
 10
-2123.5165
 20
-330.9752
  0
VERTEX
  8
LAYER_1
 62
     1
 10
-2123.6043
 20
-330.6941
  0
VERTEX
  8
LAYER_1
 62
     1
 10
-2123.6349
 20
-330.3928
  0
SEQEND
  8
LAYER_1
 62
     1
  0
POLYLINE
  8
LAYER_1
 62
     1
 66
     1
 70
     1
  0
VERTEX
  8
LAYER_1
 62
     1
 10
-2123.4835
 20
-244.6181
  0
VERTEX
  8
LAYER_1
 62
     1
 10
-2123.4835
 20
-241.5511
  0
VERTEX
  8
LAYER_1
 62
     1
 10
-2123.4529
 20
-241.2498
  0
VERTEX
  8
LAYER_1
 62
     1
 10
-2123.3651
 20
-240.9687
  0
VERTEX
  8
LAYER_1
 62
     1
 10
-2123.2264
 20
-240.7139
  0
VERTEX
  8
LAYER_1
 62
     1
 10
-2123.0429
 20
-240.4917
  0
VERTEX
  8
LAYER_1
 62
     1
 10
-2122.8207
 20
-240.3082
  0
VERTEX
  8
LAYER_1
 62
     1
 10
-2122.5659
 20
-240.1695
  0
VERTEX
  8
LAYER_1
 62
     1
 10
-2122.2848
 20
-240.0817
  0
VERTEX
  8
LAYER_1
 62
     1
 10
-2121.9835
 20
-240.0511
  0
VERTEX
  8
LAYER_1
 62
     1
 10
-2117.5883
 20
-240.0511
  0
VERTEX
  8
LAYER_1
 62
     1
 10
-2117.287
 20
-240.0817
  0
VERTEX
  8
LAYER_1
 62
     1
 10
-2117.0059
 20
-240.1695
  0
VERTEX
  8
LAYER_1
 62
     1
 10
-2116.7511
 20
-240.3082
  0
VERTEX
  8
LAYER_1
 62
     1
 10
-2116.5289
 20
-240.4917
  0
VERTEX
  8
LAYER_1
 62
     1
 10
-2116.3454
 20
-240.7139
  0
VERTEX
  8
LAYER_1
 62
     1
 10
-2116.2067
 20
-240.9687
  0
VERTEX
  8
LAYER_1
 62
     1
 10
-2116.1189
 20
-241.2498
  0
VERTEX
  8
LAYER_1
 62
     1
 10
-2116.0883
 20
-241.5511
  0
VERTEX
  8
LAYER_1
 62
     1
 10
-2116.0883
 20
-244.6181
  0
VERTEX
  8
LAYER_1
 62
     1
 10
-2116.1189
 20
-244.9194
  0
VERTEX
  8
LAYER_1
 62
     1
 10
-2116.2067
 20
-245.2005
  0
VERTEX
  8
LAYER_1
 62
     1
 10
-2116.3454
 20
-245.4553
  0
VERTEX
  8
LAYER_1
 62
     1
 10
-2116.5289
 20
-245.6775
  0
VERTEX
  8
LAYER_1
 62
     1
 10
-2116.7511
 20
-245.861
  0
VERTEX
  8
LAYER_1
 62
     1
 10
-2117.0059
 20
-245.9997
  0
VERTEX
  8
LAYER_1
 62
     1
 10
-2117.287
 20
-246.0875
  0
VERTEX
  8
LAYER_1
 62
     1
 10
-2117.5883
 20
-246.1181
  0
VERTEX
  8
LAYER_1
 62
     1
 10
-2121.9835
 20
-246.1181
  0
VERTEX
  8
LAYER_1
 62
     1
 10
-2122.2848
 20
-246.0875
  0
VERTEX
  8
LAYER_1
 62
     1
 10
-2122.5659
 20
-245.9997
  0
VERTEX
  8
LAYER_1
 62
     1
 10
-2122.8207
 20
-245.861
  0
VERTEX
  8
LAYER_1
 62
     1
 10
-2123.0429
 20
-245.6775
  0
VERTEX
  8
LAYER_1
 62
     1
 10
-2123.2264
 20
-245.4553
  0
VERTEX
  8
LAYER_1
 62
     1
 10
-2123.3651
 20
-245.2005
  0
VERTEX
  8
LAYER_1
 62
     1
 10
-2123.4529
 20
-244.9194
  0
VERTEX
  8
LAYER_1
 62
     1
 10
-2123.4835
 20
-244.6181
  0
SEQEND
  8
LAYER_1
 62
     1
  0
POLYLINE
  8
LAYER_1
 62
     1
 66
     1
 70
     1
  0
VERTEX
  8
LAYER_1
 62
     1
 10
-2123.6349
 20
-219.2181
  0
VERTEX
  8
LAYER_1
 62
     1
 10
-2123.6349
 20
-216.1511
  0
VERTEX
  8
LAYER_1
 62
     1
 10
-2123.6043
 20
-215.8498
  0
VERTEX
  8
LAYER_1
 62
     1
 10
-2123.5165
 20
-215.5687
  0
VERTEX
  8
LAYER_1
 62
     1
 10
-2123.3778
 20
-215.3139
  0
VERTEX
  8
LAYER_1
 62
     1
 10
-2123.1943
 20
-215.0917
  0
VERTEX
  8
LAYER_1
 62
     1
 10
-2122.9721
 20
-214.9082
  0
VERTEX
  8
LAYER_1
 62
     1
 10
-2122.7173
 20
-214.7695
  0
VERTEX
  8
LAYER_1
 62
     1
 10
-2122.4362
 20
-214.6817
  0
VERTEX
  8
LAYER_1
 62
     1
 10
-2122.1349
 20
-214.6511
  0
VERTEX
  8
LAYER_1
 62
     1
 10
-2117.7397
 20
-214.6511
  0
VERTEX
  8
LAYER_1
 62
     1
 10
-2117.4384
 20
-214.6817
  0
VERTEX
  8
LAYER_1
 62
     1
 10
-2117.1573
 20
-214.7695
  0
VERTEX
  8
LAYER_1
 62
     1
 10
-2116.9025
 20
-214.9082
  0
VERTEX
  8
LAYER_1
 62
     1
 10
-2116.6803
 20
-215.0917
  0
VERTEX
  8
LAYER_1
 62
     1
 10
-2116.4968
 20
-215.3139
  0
VERTEX
  8
LAYER_1
 62
     1
 10
-2116.3581
 20
-215.5687
  0
VERTEX
  8
LAYER_1
 62
     1
 10
-2116.2703
 20
-215.8498
  0
VERTEX
  8
LAYER_1
 62
     1
 10
-2116.2397
 20
-216.1511
  0
VERTEX
  8
LAYER_1
 62
     1
 10
-2116.2397
 20
-219.2181
  0
VERTEX
  8
LAYER_1
 62
     1
 10
-2116.2703
 20
-219.5194
  0
VERTEX
  8
LAYER_1
 62
     1
 10
-2116.3581
 20
-219.8005
  0
VERTEX
  8
LAYER_1
 62
     1
 10
-2116.4968
 20
-220.0553
  0
VERTEX
  8
LAYER_1
 62
     1
 10
-2116.6803
 20
-220.2775
  0
VERTEX
  8
LAYER_1
 62
     1
 10
-2116.9025
 20
-220.461
  0
VERTEX
  8
LAYER_1
 62
     1
 10
-2117.1573
 20
-220.5997
  0
VERTEX
  8
LAYER_1
 62
     1
 10
-2117.4384
 20
-220.6875
  0
VERTEX
  8
LAYER_1
 62
     1
 10
-2117.7397
 20
-220.7181
  0
VERTEX
  8
LAYER_1
 62
     1
 10
-2122.1349
 20
-220.7181
  0
VERTEX
  8
LAYER_1
 62
     1
 10
-2122.4362
 20
-220.6875
  0
VERTEX
  8
LAYER_1
 62
     1
 10
-2122.7173
 20
-220.5997
  0
VERTEX
  8
LAYER_1
 62
     1
 10
-2122.9721
 20
-220.461
  0
VERTEX
  8
LAYER_1
 62
     1
 10
-2123.1943
 20
-220.2775
  0
VERTEX
  8
LAYER_1
 62
     1
 10
-2123.3778
 20
-220.0553
  0
VERTEX
  8
LAYER_1
 62
     1
 10
-2123.5165
 20
-219.8005
  0
VERTEX
  8
LAYER_1
 62
     1
 10
-2123.6043
 20
-219.5194
  0
VERTEX
  8
LAYER_1
 62
     1
 10
-2123.6349
 20
-219.2181
  0
SEQEND
  8
LAYER_1
 62
     1
  0
POLYLINE
  8
LAYER_1
 62
     1
 66
     1
  0
VERTEX
  8
LAYER_1
 62
     1
 10
-2120.0082
 20
-488.5389
  0
VERTEX
  8
LAYER_1
 62
     1
 10
-1961.8908
 20
-488.5389
  0
SEQEND
  8
LAYER_1
 62
     1
  0
POLYLINE
  8
LAYER_1
 62
     1
 66
     1
  0
VERTEX
  8
LAYER_1
 62
     1
 10
-1685.1849
 20
-140.9656
  0
VERTEX
  8
LAYER_1
 62
     1
 10
-1686.2561
 20
-151.7301
  0
VERTEX
  8
LAYER_1
 62
     1
 10
-1689.3283
 20
-161.7577
  0
VERTEX
  8
LAYER_1
 62
     1
 10
-1694.189
 20
-170.833
  0
VERTEX
  8
LAYER_1
 62
     1
 10
-1700.6261
 20
-178.7409
  0
VERTEX
  8
LAYER_1
 62
     1
 10
-1708.4271
 20
-185.2662
  0
VERTEX
  8
LAYER_1
 62
     1
 10
-1717.3797
 20
-190.1935
  0
VERTEX
  8
LAYER_1
 62
     1
 10
-1727.2718
 20
-193.3078
  0
VERTEX
  8
LAYER_1
 62
     1
 10
-1737.8908
 20
-194.3937
  0
SEQEND
  8
LAYER_1
 62
     1
  0
POLYLINE
  8
LAYER_1
 62
     1
 66
     1
  0
VERTEX
  8
LAYER_1
 62
     1
 10
-1896.0082
 20
-194.3937
  0
VERTEX
  8
LAYER_1
 62
     1
 10
-1898.6656
 20
-194.1226
  0
VERTEX
  8
LAYER_1
 62
     1
 10
-1901.1398
 20
-193.345
  0
VERTEX
  8
LAYER_1
 62
     1
 10
-1903.3782
 20
-192.1143
  0
VERTEX
  8
LAYER_1
 62
     1
 10
-1905.3278
 20
-190.484
  0
VERTEX
  8
LAYER_1
 62
     1
 10
-1906.9361
 20
-188.5076
  0
VERTEX
  8
LAYER_1
 62
     1
 10
-1908.1501
 20
-186.2386
  0
VERTEX
  8
LAYER_1
 62
     1
 10
-1908.9173
 20
-183.7305
  0
VERTEX
  8
LAYER_1
 62
     1
 10
-1909.1847
 20
-181.0367
  0
SEQEND
  8
LAYER_1
 62
     1
  0
POLYLINE
  8
LAYER_1
 62
     1
 66
     1
  0
VERTEX
  8
LAYER_1
 62
     1
 10
-1909.1847
 20
-181.0367
  0
VERTEX
  8
LAYER_1
 62
     1
 10
-1909.1847
 20
86.104
  0
SEQEND
  8
LAYER_1
 62
     1
  0
POLYLINE
  8
LAYER_1
 62
     1
 66
     1
  0
VERTEX
  8
LAYER_1
 62
     1
 10
-1909.1847
 20
86.104
  0
VERTEX
  8
LAYER_1
 62
     1
 10
-1908.9173
 20
88.7978
  0
VERTEX
  8
LAYER_1
 62
     1
 10
-1908.1501
 20
91.306
  0
VERTEX
  8
LAYER_1
 62
     1
 10
-1906.9361
 20
93.575
  0
VERTEX
  8
LAYER_1
 62
     1
 10
-1905.3278
 20
95.5514
  0
VERTEX
  8
LAYER_1
 62
     1
 10
-1903.3782
 20
97.1817
  0
VERTEX
  8
LAYER_1
 62
     1
 10
-1901.1398
 20
98.4124
  0
VERTEX
  8
LAYER_1
 62
     1
 10
-1898.6656
 20
99.19
  0
VERTEX
  8
LAYER_1
 62
     1
 10
-1896.0082
 20
99.4611
  0
SEQEND
  8
LAYER_1
 62
     1
  0
POLYLINE
  8
LAYER_1
 62
     1
 66
     1
  0
VERTEX
  8
LAYER_1
 62
     1
 10
-1896.0082
 20
99.4611
  0
VERTEX
  8
LAYER_1
 62
     1
 10
-1737.8908
 20
99.4611
  0
SEQEND
  8
LAYER_1
 62
     1
  0
POLYLINE
  8
LAYER_1
 62
     1
 66
     1
  0
VERTEX
  8
LAYER_1
 62
     1
 10
-1737.8908
 20
99.4611
  0
VERTEX
  8
LAYER_1
 62
     1
 10
-1727.2718
 20
98.3752
  0
VERTEX
  8
LAYER_1
 62
     1
 10
-1717.3797
 20
95.2609
  0
VERTEX
  8
LAYER_1
 62
     1
 10
-1708.4271
 20
90.3335
  0
VERTEX
  8
LAYER_1
 62
     1
 10
-1700.6261
 20
83.8083
  0
VERTEX
  8
LAYER_1
 62
     1
 10
-1694.189
 20
75.9003
  0
VERTEX
  8
LAYER_1
 62
     1
 10
-1689.3283
 20
66.825
  0
VERTEX
  8
LAYER_1
 62
     1
 10
-1686.2561
 20
56.7974
  0
VERTEX
  8
LAYER_1
 62
     1
 10
-1685.1849
 20
46.0329
  0
SEQEND
  8
LAYER_1
 62
     1
  0
POLYLINE
  8
LAYER_1
 62
     1
 66
     1
 70
     1
  0
VERTEX
  8
LAYER_1
 62
     1
 10
-1899.4835
 20
-172.9174
  0
VERTEX
  8
LAYER_1
 62
     1
 10
-1899.4835
 20
-169.8504
  0
VERTEX
  8
LAYER_1
 62
     1
 10
-1899.4529
 20
-169.5491
  0
VERTEX
  8
LAYER_1
 62
     1
 10
-1899.3651
 20
-169.268
  0
VERTEX
  8
LAYER_1
 62
     1
 10
-1899.2264
 20
-169.0132
  0
VERTEX
  8
LAYER_1
 62
     1
 10
-1899.0429
 20
-168.791
  0
VERTEX
  8
LAYER_1
 62
     1
 10
-1898.8207
 20
-168.6075
  0
VERTEX
  8
LAYER_1
 62
     1
 10
-1898.5659
 20
-168.4688
  0
VERTEX
  8
LAYER_1
 62
     1
 10
-1898.2848
 20
-168.381
  0
VERTEX
  8
LAYER_1
 62
     1
 10
-1897.9835
 20
-168.3504
  0
VERTEX
  8
LAYER_1
 62
     1
 10
-1893.5883
 20
-168.3504
  0
VERTEX
  8
LAYER_1
 62
     1
 10
-1893.287
 20
-168.381
  0
VERTEX
  8
LAYER_1
 62
     1
 10
-1893.0059
 20
-168.4688
  0
VERTEX
  8
LAYER_1
 62
     1
 10
-1892.7511
 20
-168.6075
  0
VERTEX
  8
LAYER_1
 62
     1
 10
-1892.5289
 20
-168.791
  0
VERTEX
  8
LAYER_1
 62
     1
 10
-1892.3454
 20
-169.0132
  0
VERTEX
  8
LAYER_1
 62
     1
 10
-1892.2067
 20
-169.268
  0
VERTEX
  8
LAYER_1
 62
     1
 10
-1892.1189
 20
-169.5491
  0
VERTEX
  8
LAYER_1
 62
     1
 10
-1892.0883
 20
-169.8504
  0
VERTEX
  8
LAYER_1
 62
     1
 10
-1892.0883
 20
-172.9174
  0
VERTEX
  8
LAYER_1
 62
     1
 10
-1892.1189
 20
-173.2187
  0
VERTEX
  8
LAYER_1
 62
     1
 10
-1892.2067
 20
-173.4998
  0
VERTEX
  8
LAYER_1
 62
     1
 10
-1892.3454
 20
-173.7546
  0
VERTEX
  8
LAYER_1
 62
     1
 10
-1892.5289
 20
-173.9768
  0
VERTEX
  8
LAYER_1
 62
     1
 10
-1892.7511
 20
-174.1603
  0
VERTEX
  8
LAYER_1
 62
     1
 10
-1893.0059
 20
-174.299
  0
VERTEX
  8
LAYER_1
 62
     1
 10
-1893.287
 20
-174.3868
  0
VERTEX
  8
LAYER_1
 62
     1
 10
-1893.5883
 20
-174.4174
  0
VERTEX
  8
LAYER_1
 62
     1
 10
-1897.9835
 20
-174.4174
  0
VERTEX
  8
LAYER_1
 62
     1
 10
-1898.2848
 20
-174.3868
  0
VERTEX
  8
LAYER_1
 62
     1
 10
-1898.5659
 20
-174.299
  0
VERTEX
  8
LAYER_1
 62
     1
 10
-1898.8207
 20
-174.1603
  0
VERTEX
  8
LAYER_1
 62
     1
 10
-1899.0429
 20
-173.9768
  0
VERTEX
  8
LAYER_1
 62
     1
 10
-1899.2264
 20
-173.7546
  0
VERTEX
  8
LAYER_1
 62
     1
 10
-1899.3651
 20
-173.4998
  0
VERTEX
  8
LAYER_1
 62
     1
 10
-1899.4529
 20
-173.2187
  0
VERTEX
  8
LAYER_1
 62
     1
 10
-1899.4835
 20
-172.9174
  0
SEQEND
  8
LAYER_1
 62
     1
  0
POLYLINE
  8
LAYER_1
 62
     1
 66
     1
 70
     1
  0
VERTEX
  8
LAYER_1
 62
     1
 10
-1899.6349
 20
-147.5174
  0
VERTEX
  8
LAYER_1
 62
     1
 10
-1899.6349
 20
-144.4504
  0
VERTEX
  8
LAYER_1
 62
     1
 10
-1899.6043
 20
-144.1491
  0
VERTEX
  8
LAYER_1
 62
     1
 10
-1899.5165
 20
-143.868
  0
VERTEX
  8
LAYER_1
 62
     1
 10
-1899.3778
 20
-143.6132
  0
VERTEX
  8
LAYER_1
 62
     1
 10
-1899.1943
 20
-143.391
  0
VERTEX
  8
LAYER_1
 62
     1
 10
-1898.9721
 20
-143.2075
  0
VERTEX
  8
LAYER_1
 62
     1
 10
-1898.7173
 20
-143.0688
  0
VERTEX
  8
LAYER_1
 62
     1
 10
-1898.4362
 20
-142.981
  0
VERTEX
  8
LAYER_1
 62
     1
 10
-1898.1349
 20
-142.9504
  0
VERTEX
  8
LAYER_1
 62
     1
 10
-1893.7397
 20
-142.9504
  0
VERTEX
  8
LAYER_1
 62
     1
 10
-1893.4384
 20
-142.981
  0
VERTEX
  8
LAYER_1
 62
     1
 10
-1893.1573
 20
-143.0688
  0
VERTEX
  8
LAYER_1
 62
     1
 10
-1892.9025
 20
-143.2075
  0
VERTEX
  8
LAYER_1
 62
     1
 10
-1892.6803
 20
-143.391
  0
VERTEX
  8
LAYER_1
 62
     1
 10
-1892.4968
 20
-143.6132
  0
VERTEX
  8
LAYER_1
 62
     1
 10
-1892.3581
 20
-143.868
  0
VERTEX
  8
LAYER_1
 62
     1
 10
-1892.2703
 20
-144.1491
  0
VERTEX
  8
LAYER_1
 62
     1
 10
-1892.2397
 20
-144.4504
  0
VERTEX
  8
LAYER_1
 62
     1
 10
-1892.2397
 20
-147.5174
  0
VERTEX
  8
LAYER_1
 62
     1
 10
-1892.2703
 20
-147.8187
  0
VERTEX
  8
LAYER_1
 62
     1
 10
-1892.3581
 20
-148.0998
  0
VERTEX
  8
LAYER_1
 62
     1
 10
-1892.4968
 20
-148.3546
  0
VERTEX
  8
LAYER_1
 62
     1
 10
-1892.6803
 20
-148.5768
  0
VERTEX
  8
LAYER_1
 62
     1
 10
-1892.9025
 20
-148.7603
  0
VERTEX
  8
LAYER_1
 62
     1
 10
-1893.1573
 20
-148.899
  0
VERTEX
  8
LAYER_1
 62
     1
 10
-1893.4384
 20
-148.9868
  0
VERTEX
  8
LAYER_1
 62
     1
 10
-1893.7397
 20
-149.0174
  0
VERTEX
  8
LAYER_1
 62
     1
 10
-1898.1349
 20
-149.0174
  0
VERTEX
  8
LAYER_1
 62
     1
 10
-1898.4362
 20
-148.9868
  0
VERTEX
  8
LAYER_1
 62
     1
 10
-1898.7173
 20
-148.899
  0
VERTEX
  8
LAYER_1
 62
     1
 10
-1898.9721
 20
-148.7603
  0
VERTEX
  8
LAYER_1
 62
     1
 10
-1899.1943
 20
-148.5768
  0
VERTEX
  8
LAYER_1
 62
     1
 10
-1899.3778
 20
-148.3546
  0
VERTEX
  8
LAYER_1
 62
     1
 10
-1899.5165
 20
-148.0998
  0
VERTEX
  8
LAYER_1
 62
     1
 10
-1899.6043
 20
-147.8187
  0
VERTEX
  8
LAYER_1
 62
     1
 10
-1899.6349
 20
-147.5174
  0
SEQEND
  8
LAYER_1
 62
     1
  0
POLYLINE
  8
LAYER_1
 62
     1
 66
     1
 70
     1
  0
VERTEX
  8
LAYER_1
 62
     1
 10
-1899.4835
 20
-61.7924
  0
VERTEX
  8
LAYER_1
 62
     1
 10
-1899.4835
 20
-58.7254
  0
VERTEX
  8
LAYER_1
 62
     1
 10
-1899.4529
 20
-58.4241
  0
VERTEX
  8
LAYER_1
 62
     1
 10
-1899.3651
 20
-58.143
  0
VERTEX
  8
LAYER_1
 62
     1
 10
-1899.2264
 20
-57.8882
  0
VERTEX
  8
LAYER_1
 62
     1
 10
-1899.0429
 20
-57.666
  0
VERTEX
  8
LAYER_1
 62
     1
 10
-1898.8207
 20
-57.4825
  0
VERTEX
  8
LAYER_1
 62
     1
 10
-1898.5659
 20
-57.3438
  0
VERTEX
  8
LAYER_1
 62
     1
 10
-1898.2848
 20
-57.256
  0
VERTEX
  8
LAYER_1
 62
     1
 10
-1897.9835
 20
-57.2254
  0
VERTEX
  8
LAYER_1
 62
     1
 10
-1893.5883
 20
-57.2254
  0
VERTEX
  8
LAYER_1
 62
     1
 10
-1893.287
 20
-57.256
  0
VERTEX
  8
LAYER_1
 62
     1
 10
-1893.0059
 20
-57.3438
  0
VERTEX
  8
LAYER_1
 62
     1
 10
-1892.7511
 20
-57.4825
  0
VERTEX
  8
LAYER_1
 62
     1
 10
-1892.5289
 20
-57.666
  0
VERTEX
  8
LAYER_1
 62
     1
 10
-1892.3454
 20
-57.8882
  0
VERTEX
  8
LAYER_1
 62
     1
 10
-1892.2067
 20
-58.143
  0
VERTEX
  8
LAYER_1
 62
     1
 10
-1892.1189
 20
-58.4241
  0
VERTEX
  8
LAYER_1
 62
     1
 10
-1892.0883
 20
-58.7254
  0
VERTEX
  8
LAYER_1
 62
     1
 10
-1892.0883
 20
-61.7924
  0
VERTEX
  8
LAYER_1
 62
     1
 10
-1892.1189
 20
-62.0937
  0
VERTEX
  8
LAYER_1
 62
     1
 10
-1892.2067
 20
-62.3748
  0
VERTEX
  8
LAYER_1
 62
     1
 10
-1892.3454
 20
-62.6296
  0
VERTEX
  8
LAYER_1
 62
     1
 10
-1892.5289
 20
-62.8518
  0
VERTEX
  8
LAYER_1
 62
     1
 10
-1892.7511
 20
-63.0353
  0
VERTEX
  8
LAYER_1
 62
     1
 10
-1893.0059
 20
-63.174
  0
VERTEX
  8
LAYER_1
 62
     1
 10
-1893.287
 20
-63.2618
  0
VERTEX
  8
LAYER_1
 62
     1
 10
-1893.5883
 20
-63.2924
  0
VERTEX
  8
LAYER_1
 62
     1
 10
-1897.9835
 20
-63.2924
  0
VERTEX
  8
LAYER_1
 62
     1
 10
-1898.2848
 20
-63.2618
  0
VERTEX
  8
LAYER_1
 62
     1
 10
-1898.5659
 20
-63.174
  0
VERTEX
  8
LAYER_1
 62
     1
 10
-1898.8207
 20
-63.0353
  0
VERTEX
  8
LAYER_1
 62
     1
 10
-1899.0429
 20
-62.8518
  0
VERTEX
  8
LAYER_1
 62
     1
 10
-1899.2264
 20
-62.6296
  0
VERTEX
  8
LAYER_1
 62
     1
 10
-1899.3651
 20
-62.3748
  0
VERTEX
  8
LAYER_1
 62
     1
 10
-1899.4529
 20
-62.0937
  0
VERTEX
  8
LAYER_1
 62
     1
 10
-1899.4835
 20
-61.7924
  0
SEQEND
  8
LAYER_1
 62
     1
  0
POLYLINE
  8
LAYER_1
 62
     1
 66
     1
 70
     1
  0
VERTEX
  8
LAYER_1
 62
     1
 10
-1899.6349
 20
-36.3924
  0
VERTEX
  8
LAYER_1
 62
     1
 10
-1899.6349
 20
-33.3254
  0
VERTEX
  8
LAYER_1
 62
     1
 10
-1899.6043
 20
-33.0241
  0
VERTEX
  8
LAYER_1
 62
     1
 10
-1899.5165
 20
-32.743
  0
VERTEX
  8
LAYER_1
 62
     1
 10
-1899.3778
 20
-32.4882
  0
VERTEX
  8
LAYER_1
 62
     1
 10
-1899.1943
 20
-32.266
  0
VERTEX
  8
LAYER_1
 62
     1
 10
-1898.9721
 20
-32.0825
  0
VERTEX
  8
LAYER_1
 62
     1
 10
-1898.7173
 20
-31.9438
  0
VERTEX
  8
LAYER_1
 62
     1
 10
-1898.4362
 20
-31.856
  0
VERTEX
  8
LAYER_1
 62
     1
 10
-1898.1349
 20
-31.8254
  0
VERTEX
  8
LAYER_1
 62
     1
 10
-1893.7397
 20
-31.8254
  0
VERTEX
  8
LAYER_1
 62
     1
 10
-1893.4384
 20
-31.856
  0
VERTEX
  8
LAYER_1
 62
     1
 10
-1893.1573
 20
-31.9438
  0
VERTEX
  8
LAYER_1
 62
     1
 10
-1892.9025
 20
-32.0825
  0
VERTEX
  8
LAYER_1
 62
     1
 10
-1892.6803
 20
-32.266
  0
VERTEX
  8
LAYER_1
 62
     1
 10
-1892.4968
 20
-32.4882
  0
VERTEX
  8
LAYER_1
 62
     1
 10
-1892.3581
 20
-32.743
  0
VERTEX
  8
LAYER_1
 62
     1
 10
-1892.2703
 20
-33.0241
  0
VERTEX
  8
LAYER_1
 62
     1
 10
-1892.2397
 20
-33.3254
  0
VERTEX
  8
LAYER_1
 62
     1
 10
-1892.2397
 20
-36.3924
  0
VERTEX
  8
LAYER_1
 62
     1
 10
-1892.2703
 20
-36.6937
  0
VERTEX
  8
LAYER_1
 62
     1
 10
-1892.3581
 20
-36.9748
  0
VERTEX
  8
LAYER_1
 62
     1
 10
-1892.4968
 20
-37.2296
  0
VERTEX
  8
LAYER_1
 62
     1
 10
-1892.6803
 20
-37.4518
  0
VERTEX
  8
LAYER_1
 62
     1
 10
-1892.9025
 20
-37.6353
  0
VERTEX
  8
LAYER_1
 62
     1
 10
-1893.1573
 20
-37.774
  0
VERTEX
  8
LAYER_1
 62
     1
 10
-1893.4384
 20
-37.8618
  0
VERTEX
  8
LAYER_1
 62
     1
 10
-1893.7397
 20
-37.8924
  0
VERTEX
  8
LAYER_1
 62
     1
 10
-1898.1349
 20
-37.8924
  0
VERTEX
  8
LAYER_1
 62
     1
 10
-1898.4362
 20
-37.8618
  0
VERTEX
  8
LAYER_1
 62
     1
 10
-1898.7173
 20
-37.774
  0
VERTEX
  8
LAYER_1
 62
     1
 10
-1898.9721
 20
-37.6353
  0
VERTEX
  8
LAYER_1
 62
     1
 10
-1899.1943
 20
-37.4518
  0
VERTEX
  8
LAYER_1
 62
     1
 10
-1899.3778
 20
-37.2296
  0
VERTEX
  8
LAYER_1
 62
     1
 10
-1899.5165
 20
-36.9748
  0
VERTEX
  8
LAYER_1
 62
     1
 10
-1899.6043
 20
-36.6937
  0
VERTEX
  8
LAYER_1
 62
     1
 10
-1899.6349
 20
-36.3924
  0
SEQEND
  8
LAYER_1
 62
     1
  0
POLYLINE
  8
LAYER_1
 62
     1
 66
     1
 70
     1
  0
VERTEX
  8
LAYER_1
 62
     1
 10
-1899.4835
 20
49.3823
  0
VERTEX
  8
LAYER_1
 62
     1
 10
-1899.4835
 20
52.4493
  0
VERTEX
  8
LAYER_1
 62
     1
 10
-1899.4529
 20
52.7506
  0
VERTEX
  8
LAYER_1
 62
     1
 10
-1899.3651
 20
53.0317
  0
VERTEX
  8
LAYER_1
 62
     1
 10
-1899.2264
 20
53.2865
  0
VERTEX
  8
LAYER_1
 62
     1
 10
-1899.0429
 20
53.5087
  0
VERTEX
  8
LAYER_1
 62
     1
 10
-1898.8207
 20
53.6922
  0
VERTEX
  8
LAYER_1
 62
     1
 10
-1898.5659
 20
53.8309
  0
VERTEX
  8
LAYER_1
 62
     1
 10
-1898.2848
 20
53.9187
  0
VERTEX
  8
LAYER_1
 62
     1
 10
-1897.9835
 20
53.9493
  0
VERTEX
  8
LAYER_1
 62
     1
 10
-1893.5883
 20
53.9493
  0
VERTEX
  8
LAYER_1
 62
     1
 10
-1893.287
 20
53.9187
  0
VERTEX
  8
LAYER_1
 62
     1
 10
-1893.0059
 20
53.8309
  0
VERTEX
  8
LAYER_1
 62
     1
 10
-1892.7511
 20
53.6922
  0
VERTEX
  8
LAYER_1
 62
     1
 10
-1892.5289
 20
53.5087
  0
VERTEX
  8
LAYER_1
 62
     1
 10
-1892.3454
 20
53.2865
  0
VERTEX
  8
LAYER_1
 62
     1
 10
-1892.2067
 20
53.0317
  0
VERTEX
  8
LAYER_1
 62
     1
 10
-1892.1189
 20
52.7506
  0
VERTEX
  8
LAYER_1
 62
     1
 10
-1892.0883
 20
52.4493
  0
VERTEX
  8
LAYER_1
 62
     1
 10
-1892.0883
 20
49.3823
  0
VERTEX
  8
LAYER_1
 62
     1
 10
-1892.1189
 20
49.081
  0
VERTEX
  8
LAYER_1
 62
     1
 10
-1892.2067
 20
48.7999
  0
VERTEX
  8
LAYER_1
 62
     1
 10
-1892.3454
 20
48.5451
  0
VERTEX
  8
LAYER_1
 62
     1
 10
-1892.5289
 20
48.3229
  0
VERTEX
  8
LAYER_1
 62
     1
 10
-1892.7511
 20
48.1394
  0
VERTEX
  8
LAYER_1
 62
     1
 10
-1893.0059
 20
48.0007
  0
VERTEX
  8
LAYER_1
 62
     1
 10
-1893.287
 20
47.9129
  0
VERTEX
  8
LAYER_1
 62
     1
 10
-1893.5883
 20
47.8823
  0
VERTEX
  8
LAYER_1
 62
     1
 10
-1897.9835
 20
47.8823
  0
VERTEX
  8
LAYER_1
 62
     1
 10
-1898.2848
 20
47.9129
  0
VERTEX
  8
LAYER_1
 62
     1
 10
-1898.5659
 20
48.0007
  0
VERTEX
  8
LAYER_1
 62
     1
 10
-1898.8207
 20
48.1394
  0
VERTEX
  8
LAYER_1
 62
     1
 10
-1899.0429
 20
48.3229
  0
VERTEX
  8
LAYER_1
 62
     1
 10
-1899.2264
 20
48.5451
  0
VERTEX
  8
LAYER_1
 62
     1
 10
-1899.3651
 20
48.7999
  0
VERTEX
  8
LAYER_1
 62
     1
 10
-1899.4529
 20
49.081
  0
VERTEX
  8
LAYER_1
 62
     1
 10
-1899.4835
 20
49.3823
  0
SEQEND
  8
LAYER_1
 62
     1
  0
POLYLINE
  8
LAYER_1
 62
     1
 66
     1
 70
     1
  0
VERTEX
  8
LAYER_1
 62
     1
 10
-1899.6349
 20
74.7823
  0
VERTEX
  8
LAYER_1
 62
     1
 10
-1899.6349
 20
77.8493
  0
VERTEX
  8
LAYER_1
 62
     1
 10
-1899.6043
 20
78.1506
  0
VERTEX
  8
LAYER_1
 62
     1
 10
-1899.5165
 20
78.4317
  0
VERTEX
  8
LAYER_1
 62
     1
 10
-1899.3778
 20
78.6865
  0
VERTEX
  8
LAYER_1
 62
     1
 10
-1899.1943
 20
78.9087
  0
VERTEX
  8
LAYER_1
 62
     1
 10
-1898.9721
 20
79.0922
  0
VERTEX
  8
LAYER_1
 62
     1
 10
-1898.7173
 20
79.2309
  0
VERTEX
  8
LAYER_1
 62
     1
 10
-1898.4362
 20
79.3187
  0
VERTEX
  8
LAYER_1
 62
     1
 10
-1898.1349
 20
79.3493
  0
VERTEX
  8
LAYER_1
 62
     1
 10
-1893.7397
 20
79.3493
  0
VERTEX
  8
LAYER_1
 62
     1
 10
-1893.4384
 20
79.3187
  0
VERTEX
  8
LAYER_1
 62
     1
 10
-1893.1573
 20
79.2309
  0
VERTEX
  8
LAYER_1
 62
     1
 10
-1892.9025
 20
79.0922
  0
VERTEX
  8
LAYER_1
 62
     1
 10
-1892.6803
 20
78.9087
  0
VERTEX
  8
LAYER_1
 62
     1
 10
-1892.4968
 20
78.6865
  0
VERTEX
  8
LAYER_1
 62
     1
 10
-1892.3581
 20
78.4317
  0
VERTEX
  8
LAYER_1
 62
     1
 10
-1892.2703
 20
78.1506
  0
VERTEX
  8
LAYER_1
 62
     1
 10
-1892.2397
 20
77.8493
  0
VERTEX
  8
LAYER_1
 62
     1
 10
-1892.2397
 20
74.7823
  0
VERTEX
  8
LAYER_1
 62
     1
 10
-1892.2703
 20
74.481
  0
VERTEX
  8
LAYER_1
 62
     1
 10
-1892.3581
 20
74.1999
  0
VERTEX
  8
LAYER_1
 62
     1
 10
-1892.4968
 20
73.9451
  0
VERTEX
  8
LAYER_1
 62
     1
 10
-1892.6803
 20
73.7229
  0
VERTEX
  8
LAYER_1
 62
     1
 10
-1892.9025
 20
73.5394
  0
VERTEX
  8
LAYER_1
 62
     1
 10
-1893.1573
 20
73.4007
  0
VERTEX
  8
LAYER_1
 62
     1
 10
-1893.4384
 20
73.3129
  0
VERTEX
  8
LAYER_1
 62
     1
 10
-1893.7397
 20
73.2823
  0
VERTEX
  8
LAYER_1
 62
     1
 10
-1898.1349
 20
73.2823
  0
VERTEX
  8
LAYER_1
 62
     1
 10
-1898.4362
 20
73.3129
  0
VERTEX
  8
LAYER_1
 62
     1
 10
-1898.7173
 20
73.4007
  0
VERTEX
  8
LAYER_1
 62
     1
 10
-1898.9721
 20
73.5394
  0
VERTEX
  8
LAYER_1
 62
     1
 10
-1899.1943
 20
73.7229
  0
VERTEX
  8
LAYER_1
 62
     1
 10
-1899.3778
 20
73.9451
  0
VERTEX
  8
LAYER_1
 62
     1
 10
-1899.5165
 20
74.1999
  0
VERTEX
  8
LAYER_1
 62
     1
 10
-1899.6043
 20
74.481
  0
VERTEX
  8
LAYER_1
 62
     1
 10
-1899.6349
 20
74.7823
  0
SEQEND
  8
LAYER_1
 62
     1
  0
POLYLINE
  8
LAYER_1
 62
     1
 66
     1
  0
VERTEX
  8
LAYER_1
 62
     1
 10
-1896.0082
 20
-194.5385
  0
VERTEX
  8
LAYER_1
 62
     1
 10
-1737.8908
 20
-194.5385
  0
SEQEND
  8
LAYER_1
 62
     1
  0
POLYLINE
  8
LAYER_1
 62
     1
 66
     1
  0
VERTEX
  8
LAYER_1
 62
     1
 10
-1685.1849
 20
-434.966
  0
VERTEX
  8
LAYER_1
 62
     1
 10
-1686.2561
 20
-445.7305
  0
VERTEX
  8
LAYER_1
 62
     1
 10
-1689.3283
 20
-455.7581
  0
VERTEX
  8
LAYER_1
 62
     1
 10
-1694.189
 20
-464.8334
  0
VERTEX
  8
LAYER_1
 62
     1
 10
-1700.6261
 20
-472.7413
  0
VERTEX
  8
LAYER_1
 62
     1
 10
-1708.4271
 20
-479.2666
  0
VERTEX
  8
LAYER_1
 62
     1
 10
-1717.3797
 20
-484.1939
  0
VERTEX
  8
LAYER_1
 62
     1
 10
-1727.2718
 20
-487.3082
  0
VERTEX
  8
LAYER_1
 62
     1
 10
-1737.8908
 20
-488.3941
  0
SEQEND
  8
LAYER_1
 62
     1
  0
POLYLINE
  8
LAYER_1
 62
     1
 66
     1
  0
VERTEX
  8
LAYER_1
 62
     1
 10
-1896.0082
 20
-488.3941
  0
VERTEX
  8
LAYER_1
 62
     1
 10
-1898.6656
 20
-488.123
  0
VERTEX
  8
LAYER_1
 62
     1
 10
-1901.1398
 20
-487.3454
  0
VERTEX
  8
LAYER_1
 62
     1
 10
-1903.3782
 20
-486.1147
  0
VERTEX
  8
LAYER_1
 62
     1
 10
-1905.3278
 20
-484.4844
  0
VERTEX
  8
LAYER_1
 62
     1
 10
-1906.9361
 20
-482.508
  0
VERTEX
  8
LAYER_1
 62
     1
 10
-1908.1501
 20
-480.239
  0
VERTEX
  8
LAYER_1
 62
     1
 10
-1908.9173
 20
-477.7309
  0
VERTEX
  8
LAYER_1
 62
     1
 10
-1909.1847
 20
-475.0371
  0
SEQEND
  8
LAYER_1
 62
     1
  0
POLYLINE
  8
LAYER_1
 62
     1
 66
     1
  0
VERTEX
  8
LAYER_1
 62
     1
 10
-1909.1847
 20
-475.0371
  0
VERTEX
  8
LAYER_1
 62
     1
 10
-1909.1847
 20
-207.8964
  0
SEQEND
  8
LAYER_1
 62
     1
  0
POLYLINE
  8
LAYER_1
 62
     1
 66
     1
  0
VERTEX
  8
LAYER_1
 62
     1
 10
-1909.1847
 20
-207.8964
  0
VERTEX
  8
LAYER_1
 62
     1
 10
-1908.9173
 20
-205.2026
  0
VERTEX
  8
LAYER_1
 62
     1
 10
-1908.1501
 20
-202.6944
  0
VERTEX
  8
LAYER_1
 62
     1
 10
-1906.9361
 20
-200.4254
  0
VERTEX
  8
LAYER_1
 62
     1
 10
-1905.3278
 20
-198.449
  0
VERTEX
  8
LAYER_1
 62
     1
 10
-1903.3782
 20
-196.8187
  0
VERTEX
  8
LAYER_1
 62
     1
 10
-1901.1398
 20
-195.588
  0
VERTEX
  8
LAYER_1
 62
     1
 10
-1898.6656
 20
-194.8104
  0
VERTEX
  8
LAYER_1
 62
     1
 10
-1896.0082
 20
-194.5393
  0
SEQEND
  8
LAYER_1
 62
     1
  0
POLYLINE
  8
LAYER_1
 62
     1
 66
     1
  0
VERTEX
  8
LAYER_1
 62
     1
 10
-1896.0082
 20
-194.5393
  0
VERTEX
  8
LAYER_1
 62
     1
 10
-1737.8908
 20
-194.5393
  0
SEQEND
  8
LAYER_1
 62
     1
  0
POLYLINE
  8
LAYER_1
 62
     1
 66
     1
  0
VERTEX
  8
LAYER_1
 62
     1
 10
-1737.8908
 20
-194.5393
  0
VERTEX
  8
LAYER_1
 62
     1
 10
-1727.2718
 20
-195.6252
  0
VERTEX
  8
LAYER_1
 62
     1
 10
-1717.3797
 20
-198.7395
  0
VERTEX
  8
LAYER_1
 62
     1
 10
-1708.4271
 20
-203.6669
  0
VERTEX
  8
LAYER_1
 62
     1
 10
-1700.6261
 20
-210.1921
  0
VERTEX
  8
LAYER_1
 62
     1
 10
-1694.189
 20
-218.1001
  0
VERTEX
  8
LAYER_1
 62
     1
 10
-1689.3283
 20
-227.1754
  0
VERTEX
  8
LAYER_1
 62
     1
 10
-1686.2561
 20
-237.203
  0
VERTEX
  8
LAYER_1
 62
     1
 10
-1685.1849
 20
-247.9675
  0
SEQEND
  8
LAYER_1
 62
     1
  0
POLYLINE
  8
LAYER_1
 62
     1
 66
     1
 70
     1
  0
VERTEX
  8
LAYER_1
 62
     1
 10
-1899.4835
 20
-466.9178
  0
VERTEX
  8
LAYER_1
 62
     1
 10
-1899.4835
 20
-463.8508
  0
VERTEX
  8
LAYER_1
 62
     1
 10
-1899.4529
 20
-463.5495
  0
VERTEX
  8
LAYER_1
 62
     1
 10
-1899.3651
 20
-463.2684
  0
VERTEX
  8
LAYER_1
 62
     1
 10
-1899.2264
 20
-463.0136
  0
VERTEX
  8
LAYER_1
 62
     1
 10
-1899.0429
 20
-462.7914
  0
VERTEX
  8
LAYER_1
 62
     1
 10
-1898.8207
 20
-462.6079
  0
VERTEX
  8
LAYER_1
 62
     1
 10
-1898.5659
 20
-462.4692
  0
VERTEX
  8
LAYER_1
 62
     1
 10
-1898.2848
 20
-462.3814
  0
VERTEX
  8
LAYER_1
 62
     1
 10
-1897.9835
 20
-462.3508
  0
VERTEX
  8
LAYER_1
 62
     1
 10
-1893.5883
 20
-462.3508
  0
VERTEX
  8
LAYER_1
 62
     1
 10
-1893.287
 20
-462.3814
  0
VERTEX
  8
LAYER_1
 62
     1
 10
-1893.0059
 20
-462.4692
  0
VERTEX
  8
LAYER_1
 62
     1
 10
-1892.7511
 20
-462.6079
  0
VERTEX
  8
LAYER_1
 62
     1
 10
-1892.5289
 20
-462.7914
  0
VERTEX
  8
LAYER_1
 62
     1
 10
-1892.3454
 20
-463.0136
  0
VERTEX
  8
LAYER_1
 62
     1
 10
-1892.2067
 20
-463.2684
  0
VERTEX
  8
LAYER_1
 62
     1
 10
-1892.1189
 20
-463.5495
  0
VERTEX
  8
LAYER_1
 62
     1
 10
-1892.0883
 20
-463.8508
  0
VERTEX
  8
LAYER_1
 62
     1
 10
-1892.0883
 20
-466.9178
  0
VERTEX
  8
LAYER_1
 62
     1
 10
-1892.1189
 20
-467.2191
  0
VERTEX
  8
LAYER_1
 62
     1
 10
-1892.2067
 20
-467.5002
  0
VERTEX
  8
LAYER_1
 62
     1
 10
-1892.3454
 20
-467.755
  0
VERTEX
  8
LAYER_1
 62
     1
 10
-1892.5289
 20
-467.9772
  0
VERTEX
  8
LAYER_1
 62
     1
 10
-1892.7511
 20
-468.1607
  0
VERTEX
  8
LAYER_1
 62
     1
 10
-1893.0059
 20
-468.2994
  0
VERTEX
  8
LAYER_1
 62
     1
 10
-1893.287
 20
-468.3872
  0
VERTEX
  8
LAYER_1
 62
     1
 10
-1893.5883
 20
-468.4178
  0
VERTEX
  8
LAYER_1
 62
     1
 10
-1897.9835
 20
-468.4178
  0
VERTEX
  8
LAYER_1
 62
     1
 10
-1898.2848
 20
-468.3872
  0
VERTEX
  8
LAYER_1
 62
     1
 10
-1898.5659
 20
-468.2994
  0
VERTEX
  8
LAYER_1
 62
     1
 10
-1898.8207
 20
-468.1607
  0
VERTEX
  8
LAYER_1
 62
     1
 10
-1899.0429
 20
-467.9772
  0
VERTEX
  8
LAYER_1
 62
     1
 10
-1899.2264
 20
-467.755
  0
VERTEX
  8
LAYER_1
 62
     1
 10
-1899.3651
 20
-467.5002
  0
VERTEX
  8
LAYER_1
 62
     1
 10
-1899.4529
 20
-467.2191
  0
VERTEX
  8
LAYER_1
 62
     1
 10
-1899.4835
 20
-466.9178
  0
SEQEND
  8
LAYER_1
 62
     1
  0
POLYLINE
  8
LAYER_1
 62
     1
 66
     1
 70
     1
  0
VERTEX
  8
LAYER_1
 62
     1
 10
-1899.6349
 20
-441.5178
  0
VERTEX
  8
LAYER_1
 62
     1
 10
-1899.6349
 20
-438.4508
  0
VERTEX
  8
LAYER_1
 62
     1
 10
-1899.6043
 20
-438.1495
  0
VERTEX
  8
LAYER_1
 62
     1
 10
-1899.5165
 20
-437.8684
  0
VERTEX
  8
LAYER_1
 62
     1
 10
-1899.3778
 20
-437.6136
  0
VERTEX
  8
LAYER_1
 62
     1
 10
-1899.1943
 20
-437.3914
  0
VERTEX
  8
LAYER_1
 62
     1
 10
-1898.9721
 20
-437.2079
  0
VERTEX
  8
LAYER_1
 62
     1
 10
-1898.7173
 20
-437.0692
  0
VERTEX
  8
LAYER_1
 62
     1
 10
-1898.4362
 20
-436.9814
  0
VERTEX
  8
LAYER_1
 62
     1
 10
-1898.1349
 20
-436.9508
  0
VERTEX
  8
LAYER_1
 62
     1
 10
-1893.7397
 20
-436.9508
  0
VERTEX
  8
LAYER_1
 62
     1
 10
-1893.4384
 20
-436.9814
  0
VERTEX
  8
LAYER_1
 62
     1
 10
-1893.1573
 20
-437.0692
  0
VERTEX
  8
LAYER_1
 62
     1
 10
-1892.9025
 20
-437.2079
  0
VERTEX
  8
LAYER_1
 62
     1
 10
-1892.6803
 20
-437.3914
  0
VERTEX
  8
LAYER_1
 62
     1
 10
-1892.4968
 20
-437.6136
  0
VERTEX
  8
LAYER_1
 62
     1
 10
-1892.3581
 20
-437.8684
  0
VERTEX
  8
LAYER_1
 62
     1
 10
-1892.2703
 20
-438.1495
  0
VERTEX
  8
LAYER_1
 62
     1
 10
-1892.2397
 20
-438.4508
  0
VERTEX
  8
LAYER_1
 62
     1
 10
-1892.2397
 20
-441.5178
  0
VERTEX
  8
LAYER_1
 62
     1
 10
-1892.2703
 20
-441.8191
  0
VERTEX
  8
LAYER_1
 62
     1
 10
-1892.3581
 20
-442.1002
  0
VERTEX
  8
LAYER_1
 62
     1
 10
-1892.4968
 20
-442.355
  0
VERTEX
  8
LAYER_1
 62
     1
 10
-1892.6803
 20
-442.5772
  0
VERTEX
  8
LAYER_1
 62
     1
 10
-1892.9025
 20
-442.7607
  0
VERTEX
  8
LAYER_1
 62
     1
 10
-1893.1573
 20
-442.8994
  0
VERTEX
  8
LAYER_1
 62
     1
 10
-1893.4384
 20
-442.9872
  0
VERTEX
  8
LAYER_1
 62
     1
 10
-1893.7397
 20
-443.0178
  0
VERTEX
  8
LAYER_1
 62
     1
 10
-1898.1349
 20
-443.0178
  0
VERTEX
  8
LAYER_1
 62
     1
 10
-1898.4362
 20
-442.9872
  0
VERTEX
  8
LAYER_1
 62
     1
 10
-1898.7173
 20
-442.8994
  0
VERTEX
  8
LAYER_1
 62
     1
 10
-1898.9721
 20
-442.7607
  0
VERTEX
  8
LAYER_1
 62
     1
 10
-1899.1943
 20
-442.5772
  0
VERTEX
  8
LAYER_1
 62
     1
 10
-1899.3778
 20
-442.355
  0
VERTEX
  8
LAYER_1
 62
     1
 10
-1899.5165
 20
-442.1002
  0
VERTEX
  8
LAYER_1
 62
     1
 10
-1899.6043
 20
-441.8191
  0
VERTEX
  8
LAYER_1
 62
     1
 10
-1899.6349
 20
-441.5178
  0
SEQEND
  8
LAYER_1
 62
     1
  0
POLYLINE
  8
LAYER_1
 62
     1
 66
     1
 70
     1
  0
VERTEX
  8
LAYER_1
 62
     1
 10
-1899.4835
 20
-355.7928
  0
VERTEX
  8
LAYER_1
 62
     1
 10
-1899.4835
 20
-352.7258
  0
VERTEX
  8
LAYER_1
 62
     1
 10
-1899.4529
 20
-352.4245
  0
VERTEX
  8
LAYER_1
 62
     1
 10
-1899.3651
 20
-352.1434
  0
VERTEX
  8
LAYER_1
 62
     1
 10
-1899.2264
 20
-351.8886
  0
VERTEX
  8
LAYER_1
 62
     1
 10
-1899.0429
 20
-351.6664
  0
VERTEX
  8
LAYER_1
 62
     1
 10
-1898.8207
 20
-351.4829
  0
VERTEX
  8
LAYER_1
 62
     1
 10
-1898.5659
 20
-351.3442
  0
VERTEX
  8
LAYER_1
 62
     1
 10
-1898.2848
 20
-351.2564
  0
VERTEX
  8
LAYER_1
 62
     1
 10
-1897.9835
 20
-351.2258
  0
VERTEX
  8
LAYER_1
 62
     1
 10
-1893.5883
 20
-351.2258
  0
VERTEX
  8
LAYER_1
 62
     1
 10
-1893.287
 20
-351.2564
  0
VERTEX
  8
LAYER_1
 62
     1
 10
-1893.0059
 20
-351.3442
  0
VERTEX
  8
LAYER_1
 62
     1
 10
-1892.7511
 20
-351.4829
  0
VERTEX
  8
LAYER_1
 62
     1
 10
-1892.5289
 20
-351.6664
  0
VERTEX
  8
LAYER_1
 62
     1
 10
-1892.3454
 20
-351.8886
  0
VERTEX
  8
LAYER_1
 62
     1
 10
-1892.2067
 20
-352.1434
  0
VERTEX
  8
LAYER_1
 62
     1
 10
-1892.1189
 20
-352.4245
  0
VERTEX
  8
LAYER_1
 62
     1
 10
-1892.0883
 20
-352.7258
  0
VERTEX
  8
LAYER_1
 62
     1
 10
-1892.0883
 20
-355.7928
  0
VERTEX
  8
LAYER_1
 62
     1
 10
-1892.1189
 20
-356.0941
  0
VERTEX
  8
LAYER_1
 62
     1
 10
-1892.2067
 20
-356.3752
  0
VERTEX
  8
LAYER_1
 62
     1
 10
-1892.3454
 20
-356.63
  0
VERTEX
  8
LAYER_1
 62
     1
 10
-1892.5289
 20
-356.8522
  0
VERTEX
  8
LAYER_1
 62
     1
 10
-1892.7511
 20
-357.0357
  0
VERTEX
  8
LAYER_1
 62
     1
 10
-1893.0059
 20
-357.1744
  0
VERTEX
  8
LAYER_1
 62
     1
 10
-1893.287
 20
-357.2622
  0
VERTEX
  8
LAYER_1
 62
     1
 10
-1893.5883
 20
-357.2928
  0
VERTEX
  8
LAYER_1
 62
     1
 10
-1897.9835
 20
-357.2928
  0
VERTEX
  8
LAYER_1
 62
     1
 10
-1898.2848
 20
-357.2622
  0
VERTEX
  8
LAYER_1
 62
     1
 10
-1898.5659
 20
-357.1744
  0
VERTEX
  8
LAYER_1
 62
     1
 10
-1898.8207
 20
-357.0357
  0
VERTEX
  8
LAYER_1
 62
     1
 10
-1899.0429
 20
-356.8522
  0
VERTEX
  8
LAYER_1
 62
     1
 10
-1899.2264
 20
-356.63
  0
VERTEX
  8
LAYER_1
 62
     1
 10
-1899.3651
 20
-356.3752
  0
VERTEX
  8
LAYER_1
 62
     1
 10
-1899.4529
 20
-356.0941
  0
VERTEX
  8
LAYER_1
 62
     1
 10
-1899.4835
 20
-355.7928
  0
SEQEND
  8
LAYER_1
 62
     1
  0
POLYLINE
  8
LAYER_1
 62
     1
 66
     1
 70
     1
  0
VERTEX
  8
LAYER_1
 62
     1
 10
-1899.6349
 20
-330.3928
  0
VERTEX
  8
LAYER_1
 62
     1
 10
-1899.6349
 20
-327.3258
  0
VERTEX
  8
LAYER_1
 62
     1
 10
-1899.6043
 20
-327.0245
  0
VERTEX
  8
LAYER_1
 62
     1
 10
-1899.5165
 20
-326.7434
  0
VERTEX
  8
LAYER_1
 62
     1
 10
-1899.3778
 20
-326.4886
  0
VERTEX
  8
LAYER_1
 62
     1
 10
-1899.1943
 20
-326.2664
  0
VERTEX
  8
LAYER_1
 62
     1
 10
-1898.9721
 20
-326.0829
  0
VERTEX
  8
LAYER_1
 62
     1
 10
-1898.7173
 20
-325.9442
  0
VERTEX
  8
LAYER_1
 62
     1
 10
-1898.4362
 20
-325.8564
  0
VERTEX
  8
LAYER_1
 62
     1
 10
-1898.1349
 20
-325.8258
  0
VERTEX
  8
LAYER_1
 62
     1
 10
-1893.7397
 20
-325.8258
  0
VERTEX
  8
LAYER_1
 62
     1
 10
-1893.4384
 20
-325.8564
  0
VERTEX
  8
LAYER_1
 62
     1
 10
-1893.1573
 20
-325.9442
  0
VERTEX
  8
LAYER_1
 62
     1
 10
-1892.9025
 20
-326.0829
  0
VERTEX
  8
LAYER_1
 62
     1
 10
-1892.6803
 20
-326.2664
  0
VERTEX
  8
LAYER_1
 62
     1
 10
-1892.4968
 20
-326.4886
  0
VERTEX
  8
LAYER_1
 62
     1
 10
-1892.3581
 20
-326.7434
  0
VERTEX
  8
LAYER_1
 62
     1
 10
-1892.2703
 20
-327.0245
  0
VERTEX
  8
LAYER_1
 62
     1
 10
-1892.2397
 20
-327.3258
  0
VERTEX
  8
LAYER_1
 62
     1
 10
-1892.2397
 20
-330.3928
  0
VERTEX
  8
LAYER_1
 62
     1
 10
-1892.2703
 20
-330.6941
  0
VERTEX
  8
LAYER_1
 62
     1
 10
-1892.3581
 20
-330.9752
  0
VERTEX
  8
LAYER_1
 62
     1
 10
-1892.4968
 20
-331.23
  0
VERTEX
  8
LAYER_1
 62
     1
 10
-1892.6803
 20
-331.4522
  0
VERTEX
  8
LAYER_1
 62
     1
 10
-1892.9025
 20
-331.6357
  0
VERTEX
  8
LAYER_1
 62
     1
 10
-1893.1573
 20
-331.7744
  0
VERTEX
  8
LAYER_1
 62
     1
 10
-1893.4384
 20
-331.8622
  0
VERTEX
  8
LAYER_1
 62
     1
 10
-1893.7397
 20
-331.8928
  0
VERTEX
  8
LAYER_1
 62
     1
 10
-1898.1349
 20
-331.8928
  0
VERTEX
  8
LAYER_1
 62
     1
 10
-1898.4362
 20
-331.8622
  0
VERTEX
  8
LAYER_1
 62
     1
 10
-1898.7173
 20
-331.7744
  0
VERTEX
  8
LAYER_1
 62
     1
 10
-1898.9721
 20
-331.6357
  0
VERTEX
  8
LAYER_1
 62
     1
 10
-1899.1943
 20
-331.4522
  0
VERTEX
  8
LAYER_1
 62
     1
 10
-1899.3778
 20
-331.23
  0
VERTEX
  8
LAYER_1
 62
     1
 10
-1899.5165
 20
-330.9752
  0
VERTEX
  8
LAYER_1
 62
     1
 10
-1899.6043
 20
-330.6941
  0
VERTEX
  8
LAYER_1
 62
     1
 10
-1899.6349
 20
-330.3928
  0
SEQEND
  8
LAYER_1
 62
     1
  0
POLYLINE
  8
LAYER_1
 62
     1
 66
     1
 70
     1
  0
VERTEX
  8
LAYER_1
 62
     1
 10
-1899.4835
 20
-244.6181
  0
VERTEX
  8
LAYER_1
 62
     1
 10
-1899.4835
 20
-241.5511
  0
VERTEX
  8
LAYER_1
 62
     1
 10
-1899.4529
 20
-241.2498
  0
VERTEX
  8
LAYER_1
 62
     1
 10
-1899.3651
 20
-240.9687
  0
VERTEX
  8
LAYER_1
 62
     1
 10
-1899.2264
 20
-240.7139
  0
VERTEX
  8
LAYER_1
 62
     1
 10
-1899.0429
 20
-240.4917
  0
VERTEX
  8
LAYER_1
 62
     1
 10
-1898.8207
 20
-240.3082
  0
VERTEX
  8
LAYER_1
 62
     1
 10
-1898.5659
 20
-240.1695
  0
VERTEX
  8
LAYER_1
 62
     1
 10
-1898.2848
 20
-240.0817
  0
VERTEX
  8
LAYER_1
 62
     1
 10
-1897.9835
 20
-240.0511
  0
VERTEX
  8
LAYER_1
 62
     1
 10
-1893.5883
 20
-240.0511
  0
VERTEX
  8
LAYER_1
 62
     1
 10
-1893.287
 20
-240.0817
  0
VERTEX
  8
LAYER_1
 62
     1
 10
-1893.0059
 20
-240.1695
  0
VERTEX
  8
LAYER_1
 62
     1
 10
-1892.7511
 20
-240.3082
  0
VERTEX
  8
LAYER_1
 62
     1
 10
-1892.5289
 20
-240.4917
  0
VERTEX
  8
LAYER_1
 62
     1
 10
-1892.3454
 20
-240.7139
  0
VERTEX
  8
LAYER_1
 62
     1
 10
-1892.2067
 20
-240.9687
  0
VERTEX
  8
LAYER_1
 62
     1
 10
-1892.1189
 20
-241.2498
  0
VERTEX
  8
LAYER_1
 62
     1
 10
-1892.0883
 20
-241.5511
  0
VERTEX
  8
LAYER_1
 62
     1
 10
-1892.0883
 20
-244.6181
  0
VERTEX
  8
LAYER_1
 62
     1
 10
-1892.1189
 20
-244.9194
  0
VERTEX
  8
LAYER_1
 62
     1
 10
-1892.2067
 20
-245.2005
  0
VERTEX
  8
LAYER_1
 62
     1
 10
-1892.3454
 20
-245.4553
  0
VERTEX
  8
LAYER_1
 62
     1
 10
-1892.5289
 20
-245.6775
  0
VERTEX
  8
LAYER_1
 62
     1
 10
-1892.7511
 20
-245.861
  0
VERTEX
  8
LAYER_1
 62
     1
 10
-1893.0059
 20
-245.9997
  0
VERTEX
  8
LAYER_1
 62
     1
 10
-1893.287
 20
-246.0875
  0
VERTEX
  8
LAYER_1
 62
     1
 10
-1893.5883
 20
-246.1181
  0
VERTEX
  8
LAYER_1
 62
     1
 10
-1897.9835
 20
-246.1181
  0
VERTEX
  8
LAYER_1
 62
     1
 10
-1898.2848
 20
-246.0875
  0
VERTEX
  8
LAYER_1
 62
     1
 10
-1898.5659
 20
-245.9997
  0
VERTEX
  8
LAYER_1
 62
     1
 10
-1898.8207
 20
-245.861
  0
VERTEX
  8
LAYER_1
 62
     1
 10
-1899.0429
 20
-245.6775
  0
VERTEX
  8
LAYER_1
 62
     1
 10
-1899.2264
 20
-245.4553
  0
VERTEX
  8
LAYER_1
 62
     1
 10
-1899.3651
 20
-245.2005
  0
VERTEX
  8
LAYER_1
 62
     1
 10
-1899.4529
 20
-244.9194
  0
VERTEX
  8
LAYER_1
 62
     1
 10
-1899.4835
 20
-244.6181
  0
SEQEND
  8
LAYER_1
 62
     1
  0
POLYLINE
  8
LAYER_1
 62
     1
 66
     1
 70
     1
  0
VERTEX
  8
LAYER_1
 62
     1
 10
-1899.6349
 20
-219.2181
  0
VERTEX
  8
LAYER_1
 62
     1
 10
-1899.6349
 20
-216.1511
  0
VERTEX
  8
LAYER_1
 62
     1
 10
-1899.6043
 20
-215.8498
  0
VERTEX
  8
LAYER_1
 62
     1
 10
-1899.5165
 20
-215.5687
  0
VERTEX
  8
LAYER_1
 62
     1
 10
-1899.3778
 20
-215.3139
  0
VERTEX
  8
LAYER_1
 62
     1
 10
-1899.1943
 20
-215.0917
  0
VERTEX
  8
LAYER_1
 62
     1
 10
-1898.9721
 20
-214.9082
  0
VERTEX
  8
LAYER_1
 62
     1
 10
-1898.7173
 20
-214.7695
  0
VERTEX
  8
LAYER_1
 62
     1
 10
-1898.4362
 20
-214.6817
  0
VERTEX
  8
LAYER_1
 62
     1
 10
-1898.1349
 20
-214.6511
  0
VERTEX
  8
LAYER_1
 62
     1
 10
-1893.7397
 20
-214.6511
  0
VERTEX
  8
LAYER_1
 62
     1
 10
-1893.4384
 20
-214.6817
  0
VERTEX
  8
LAYER_1
 62
     1
 10
-1893.1573
 20
-214.7695
  0
VERTEX
  8
LAYER_1
 62
     1
 10
-1892.9025
 20
-214.9082
  0
VERTEX
  8
LAYER_1
 62
     1
 10
-1892.6803
 20
-215.0917
  0
VERTEX
  8
LAYER_1
 62
     1
 10
-1892.4968
 20
-215.3139
  0
VERTEX
  8
LAYER_1
 62
     1
 10
-1892.3581
 20
-215.5687
  0
VERTEX
  8
LAYER_1
 62
     1
 10
-1892.2703
 20
-215.8498
  0
VERTEX
  8
LAYER_1
 62
     1
 10
-1892.2397
 20
-216.1511
  0
VERTEX
  8
LAYER_1
 62
     1
 10
-1892.2397
 20
-219.2181
  0
VERTEX
  8
LAYER_1
 62
     1
 10
-1892.2703
 20
-219.5194
  0
VERTEX
  8
LAYER_1
 62
     1
 10
-1892.3581
 20
-219.8005
  0
VERTEX
  8
LAYER_1
 62
     1
 10
-1892.4968
 20
-220.0553
  0
VERTEX
  8
LAYER_1
 62
     1
 10
-1892.6803
 20
-220.2775
  0
VERTEX
  8
LAYER_1
 62
     1
 10
-1892.9025
 20
-220.461
  0
VERTEX
  8
LAYER_1
 62
     1
 10
-1893.1573
 20
-220.5997
  0
VERTEX
  8
LAYER_1
 62
     1
 10
-1893.4384
 20
-220.6875
  0
VERTEX
  8
LAYER_1
 62
     1
 10
-1893.7397
 20
-220.7181
  0
VERTEX
  8
LAYER_1
 62
     1
 10
-1898.1349
 20
-220.7181
  0
VERTEX
  8
LAYER_1
 62
     1
 10
-1898.4362
 20
-220.6875
  0
VERTEX
  8
LAYER_1
 62
     1
 10
-1898.7173
 20
-220.5997
  0
VERTEX
  8
LAYER_1
 62
     1
 10
-1898.9721
 20
-220.461
  0
VERTEX
  8
LAYER_1
 62
     1
 10
-1899.1943
 20
-220.2775
  0
VERTEX
  8
LAYER_1
 62
     1
 10
-1899.3778
 20
-220.0553
  0
VERTEX
  8
LAYER_1
 62
     1
 10
-1899.5165
 20
-219.8005
  0
VERTEX
  8
LAYER_1
 62
     1
 10
-1899.6043
 20
-219.5194
  0
VERTEX
  8
LAYER_1
 62
     1
 10
-1899.6349
 20
-219.2181
  0
SEQEND
  8
LAYER_1
 62
     1
  0
POLYLINE
  8
LAYER_1
 62
     1
 66
     1
  0
VERTEX
  8
LAYER_1
 62
     1
 10
-1896.0082
 20
-488.5389
  0
VERTEX
  8
LAYER_1
 62
     1
 10
-1737.8908
 20
-488.5389
  0
SEQEND
  8
LAYER_1
 62
     1
  0
POLYLINE
  8
LAYER_1
 62
     1
 66
     1
  0
VERTEX
  8
LAYER_1
 62
     1
 10
-1685.1847
 20
46.033
  0
VERTEX
  8
LAYER_1
 62
     1
 10
-1685.1847
 20
-140.9655
  0
SEQEND
  8
LAYER_1
 62
     1
  0
POLYLINE
  8
LAYER_1
 62
     1
 66
     1
  0
VERTEX
  8
LAYER_1
 62
     1
 10
-1685.1847
 20
-434.966
  0
VERTEX
  8
LAYER_1
 62
     1
 10
-1685.1847
 20
-247.9675
  0
SEQEND
  8
LAYER_1
 62
     1
  0
ENDSEC
  0
EOF
