<?xml version="1.0" encoding="UTF-8" standalone="no"?>
<!-- Created with Inkscape (http://www.inkscape.org/) -->

<svg
   xmlns:dc="http://purl.org/dc/elements/1.1/"
   xmlns:cc="http://creativecommons.org/ns#"
   xmlns:rdf="http://www.w3.org/1999/02/22-rdf-syntax-ns#"
   xmlns:svg="http://www.w3.org/2000/svg"
   xmlns="http://www.w3.org/2000/svg"
   xmlns:sodipodi="http://sodipodi.sourceforge.net/DTD/sodipodi-0.dtd"
   xmlns:inkscape="http://www.inkscape.org/namespaces/inkscape"
   width="11in"
   height="8.5in"
   viewBox="0 0 990.00002 765.00002"
   id="svg4195"
   version="1.1"
   inkscape:version="0.91 r13725"
   sodipodi:docname="Shield-v7.svg">
  <defs
     id="defs4197" />
  <sodipodi:namedview
     id="base"
     pagecolor="#ffffff"
     bordercolor="#666666"
     borderopacity="1.0"
     inkscape:pageopacity="0.0"
     inkscape:pageshadow="2"
     inkscape:zoom="0.71709512"
     inkscape:cx="267.29252"
     inkscape:cy="292.85714"
     inkscape:document-units="in"
     inkscape:current-layer="layer1"
     showgrid="false"
     units="in"
     inkscape:window-width="1920"
     inkscape:window-height="1035"
     inkscape:window-x="1920"
     inkscape:window-y="23"
     inkscape:window-maximized="1" />
  <metadata
     id="metadata4200">
    <rdf:RDF>
      <cc:Work
         rdf:about="">
        <dc:format>image/svg+xml</dc:format>
        <dc:type
           rdf:resource="http://purl.org/dc/dcmitype/StillImage" />
        <dc:title />
      </cc:Work>
    </rdf:RDF>
  </metadata>
  <g
     inkscape:label="Layer 1"
     inkscape:groupmode="layer"
     id="layer1"
     transform="translate(0,-287.36217)">
    <g
       id="g4166">
      <g
         style="fill:#000000;fill-opacity:0.19607843;stroke:#000000;stroke-width:0.10629921;stroke-miterlimit:4;stroke-dasharray:none;stroke-opacity:1"
         id="LWPOLYLINE"
         transform="matrix(1.2498323,0,0,1.2498323,87.679609,287.41348)">
        <path
           style="fill:#000000;fill-opacity:0.19607843;stroke:#000000;stroke-width:0.10629921;stroke-miterlimit:4;stroke-dasharray:none;stroke-opacity:1"
           id="path6"
           d="m 577.9,612 -504,0 c -79.5,0 -144,-64.5 -144,-144 l 0,-432 c 0,-19.9 16.1,-36 36,-36 l 720,0 c 19.9,0 36,16.1 36,36 l 0,432 c 0,79.5 -64.5,144 -144,144 z"
           class="st0"
           inkscape:connector-curvature="0" />
      </g>
      <g
         style="fill:#000000;fill-opacity:0.19607843;stroke:#000000;stroke-width:0.10629921;stroke-miterlimit:4;stroke-dasharray:none;stroke-opacity:1"
         id="CIRCLE"
         transform="matrix(1.2498323,0,0,1.2498323,87.679609,287.41348)">
        <path
           style="fill:#000000;fill-opacity:0.19607843;stroke:#000000;stroke-width:0.10629921;stroke-miterlimit:4;stroke-dasharray:none;stroke-opacity:1"
           id="path12"
           d="m 281.2,36 c 0,-4.8 3.9,-8.6 8.6,-8.6 4.8,0 8.6,3.9 8.6,8.6 0,4.7 -3.9,8.6 -8.6,8.6 -4.7,0 -8.6,-3.8 -8.6,-8.6 l 0,0 z"
           class="st0"
           inkscape:connector-curvature="0" />
      </g>
      <g
         style="fill:#000000;fill-opacity:0.19607843;stroke:#000000;stroke-width:0.10629921;stroke-miterlimit:4;stroke-dasharray:none;stroke-opacity:1"
         id="CIRCLE_1_"
         transform="matrix(1.2498323,0,0,1.2498323,87.679609,287.41348)">
        <path
           style="fill:#000000;fill-opacity:0.19607843;stroke:#000000;stroke-width:0.10629921;stroke-miterlimit:4;stroke-dasharray:none;stroke-opacity:1"
           id="path15"
           d="m 38.2,36 c 0,-4.8 3.9,-8.6 8.6,-8.6 4.7,0 8.6,3.9 8.6,8.6 0,4.7 -3.9,8.6 -8.6,8.6 -4.7,0 -8.6,-3.8 -8.6,-8.6 l 0,0 z"
           class="st0"
           inkscape:connector-curvature="0" />
      </g>
      <g
         style="fill:#000000;fill-opacity:0.19607843;stroke:#000000;stroke-width:0.10629921;stroke-miterlimit:4;stroke-dasharray:none;stroke-opacity:1"
         id="CIRCLE_2_"
         transform="matrix(1.2498323,0,0,1.2498323,87.679609,287.41348)">
        <path
           style="fill:#000000;fill-opacity:0.19607843;stroke:#000000;stroke-width:0.10629921;stroke-miterlimit:4;stroke-dasharray:none;stroke-opacity:1"
           id="path18"
           d="m -33.8,36 c 0,-4.8 3.9,-8.6 8.6,-8.6 4.7,0 8.6,3.9 8.6,8.6 0,4.7 -3.9,8.6 -8.6,8.6 -4.7,0 -8.6,-3.8 -8.6,-8.6 l 0,0 z"
           class="st0"
           inkscape:connector-curvature="0" />
      </g>
      <g
         style="fill:#000000;fill-opacity:0.19607843;stroke:#000000;stroke-width:0.10629921;stroke-miterlimit:4;stroke-dasharray:none;stroke-opacity:1"
         id="CIRCLE_3_"
         transform="matrix(1.2498323,0,0,1.2498323,87.679609,287.41348)">
        <path
           style="fill:#000000;fill-opacity:0.19607843;stroke:#000000;stroke-width:0.10629921;stroke-miterlimit:4;stroke-dasharray:none;stroke-opacity:1"
           id="path21"
           d="m 353.2,36 c 0,-4.8 3.9,-8.6 8.6,-8.6 4.8,0 8.6,3.9 8.6,8.6 0,4.7 -3.9,8.6 -8.6,8.6 -4.7,0 -8.6,-3.8 -8.6,-8.6 l 0,0 z"
           class="st0"
           inkscape:connector-curvature="0" />
      </g>
      <g
         style="fill:#000000;fill-opacity:0.19607843;stroke:#000000;stroke-width:0.10629921;stroke-miterlimit:4;stroke-dasharray:none;stroke-opacity:1"
         id="CIRCLE_4_"
         transform="matrix(1.2498323,0,0,1.2498323,87.679609,287.41348)">
        <path
           style="fill:#000000;fill-opacity:0.19607843;stroke:#000000;stroke-width:0.10629921;stroke-miterlimit:4;stroke-dasharray:none;stroke-opacity:1"
           id="path24"
           d="m 596.2,36 c 0,-4.8 3.9,-8.6 8.6,-8.6 4.7,0 8.6,3.9 8.6,8.6 0,4.7 -3.9,8.6 -8.6,8.6 -4.7,0 -8.6,-3.8 -8.6,-8.6 l 0,0 z"
           class="st0"
           inkscape:connector-curvature="0" />
      </g>
      <g
         style="fill:#000000;fill-opacity:0.19607843;stroke:#000000;stroke-width:0.10629921;stroke-miterlimit:4;stroke-dasharray:none;stroke-opacity:1"
         id="CIRCLE_5_"
         transform="matrix(1.2498323,0,0,1.2498323,87.679609,287.41348)">
        <path
           style="fill:#000000;fill-opacity:0.19607843;stroke:#000000;stroke-width:0.10629921;stroke-miterlimit:4;stroke-dasharray:none;stroke-opacity:1"
           id="path27"
           d="m 668.2,36 c 0,-4.8 3.9,-8.6 8.6,-8.6 4.7,0 8.6,3.9 8.6,8.6 0,4.7 -3.9,8.6 -8.6,8.6 -4.7,0 -8.6,-3.8 -8.6,-8.6 l 0,0 z"
           class="st0"
           inkscape:connector-curvature="0" />
      </g>
    </g>
  </g>
</svg>
