  0
SECTION
  2
HEADER
  9
$ACADVER
  1
AC1004
  9
$INSBASE
 10
0.0
 20
0.0
  9
$EXTMIN
 10
-1909.2228
 20
-488.577
  9
$EXTMAX
 10
-1685.1466
 20
-194.5004
  9
$LIMMIN
 10
0.0
 20
0.0
  9
$LIMMAX
 10
12.0
 20
9.0
  9
$ORTHOMODE
 70
     0
  9
$REGENMODE
 70
     1
  9
$FILLMODE
 70
     1
  9
$QTEXTMODE
 70
     0
  9
$DRAGMODE
 70
     2
  9
$LTSCALE
 40
1.0
  9
$OSMODE
 70
    37
  9
$ATTMODE
 70
     1
  9
$TEXTSIZE
 40
0.2
  9
$TRACEWID
 40
0.05
  9
$TEXTSTYLE
  7
STANDARD
  9
$CLAYER
  8
0
  9
$CELTYPE
  6
BYLAYER
  9
$CECOLOR
 62
   256
  9
$DIMSCALE
 40
1.0
  9
$DIMASZ
 40
0.18
  9
$DIMEXO
 40
0.0625
  9
$DIMDLI
 40
0.38
  9
$DIMRND
 40
0.0
  9
$DIMDLE
 40
0.0
  9
$DIMEXE
 40
0.18
  9
$DIMTP
 40
0.0
  9
$DIMTM
 40
0.0
  9
$DIMTXT
 40
0.18
  9
$DIMCEN
 40
0.09
  9
$DIMTSZ
 40
0.0
  9
$DIMTOL
 70
     0
  9
$DIMLIM
 70
     0
  9
$DIMTIH
 70
     1
  9
$DIMTOH
 70
     1
  9
$DIMSE1
 70
     0
  9
$DIMSE2
 70
     0
  9
$DIMTAD
 70
     0
  9
$DIMZIN
 70
     0
  9
$DIMBLK
  1

  9
$DIMASO
 70
     1
  9
$DIMSHO
 70
     1
  9
$DIMPOST
  1

  9
$DIMAPOST
  1

  9
$DIMALT
 70
     0
  9
$DIMALTD
 70
     2
  9
$DIMALTF
 40
25.4
  9
$DIMLFAC
 40
1.0
  9
$DIMTOFL
 70
     0
  9
$DIMTVP
 40
0.0
  9
$DIMTIX
 70
     0
  9
$DIMSOXD
 70
     0
  9
$DIMSAH
 70
     0
  9
$DIMBLK1
  1

  9
$DIMBLK2
  1

  9
$LUNITS
 70
     2
  9
$LUPREC
 70
     4
  9
$SKETCHINC
 40
0.1
  9
$FILLETRAD
 40
0.5
  9
$AUNITS
 70
     0
  9
$AUPREC
 70
     0
  9
$MENU
  1
.
  9
$ELEVATION
 40
0.0
  9
$THICKNESS
 40
0.0
  9
$LIMCHECK
 70
     0
  9
$CHAMFERA
 40
0.0
  9
$CHAMFERB
 40
0.0
  9
$SKPOLY
 70
     0
  9
$TDCREATE
 40
2458955.728208981
  9
$TDUPDATE
 40
2458955.728208981
  9
$TDINDWG
 40
0.0000000116
  9
$TDUSRTIMER
 40
0.0000000116
  9
$USRTIMER
 70
     1
  9
$ANGBASE
 50
0.0
  9
$ANGDIR
 70
     0
  9
$PDMODE
 70
     0
  9
$PDSIZE
 40
0.0
  9
$PLINEWID
 40
0.0
  9
$COORDS
 70
     1
  9
$SPLFRAME
 70
     0
  9
$SPLINETYPE
 70
     6
  9
$SPLINESEGS
 70
     8
  9
$ATTDIA
 70
     0
  9
$ATTREQ
 70
     1
  9
$SURFTAB1
 70
     6
  9
$SURFTAB2
 70
     6
  9
$SURFTYPE
 70
     6
  9
$SURFU
 70
     6
  9
$SURFV
 70
     6
  9
$UCSNAME
  2

  9
$UCSORG
 10
0.0
 20
0.0
 30
0.0
  9
$UCSXDIR
 10
1.0
 20
0.0
 30
0.0
  9
$UCSYDIR
 10
0.0
 20
1.0
 30
0.0
  9
$USERI1
 70
     0
  9
$USERI2
 70
     0
  9
$USERI3
 70
     0
  9
$USERI4
 70
     0
  9
$USERI5
 70
     0
  9
$USERR1
 40
0.0
  9
$USERR2
 40
0.0
  9
$USERR3
 40
0.0
  9
$USERR4
 40
0.0
  9
$USERR5
 40
0.0
  9
$WORLDVIEW
 70
     1
  0
ENDSEC
  0
SECTION
  2
TABLES
  0
TABLE
  2
LTYPE
 70
     1
  0
LTYPE
  2
CONTINUOUS
 70
     0
  3
Solid line
 72
    65
 73
     0
 40
0.0
  0
ENDTAB
  0
TABLE
  2
LAYER
 70
     2
  0
LAYER
  2
0
 70
     0
 62
     7
  6
CONTINUOUS
  0
LAYER
  2
LAYER_1
 70
     0
 62
     7
  6
CONTINUOUS
  0
ENDTAB
  0
TABLE
  2
STYLE
 70
     1
  0
STYLE
  2
STANDARD
 70
     0
 40
0.0
 41
1.0
 50
0.0
 71
     0
 42
0.2
  3
txt
  4

  0
ENDTAB
  0
TABLE
  2
VIEW
 70
     0
  0
ENDTAB
  0
ENDSEC
  0
SECTION
  2
BLOCKS
  0
ENDSEC
  0
SECTION
  2
ENTITIES
  0
POLYLINE
  8
LAYER_1
 62
     1
 66
     1
  0
VERTEX
  8
LAYER_1
 62
     1
 10
-1896.0082
 20
-194.5385
  0
VERTEX
  8
LAYER_1
 62
     1
 10
-1737.8908
 20
-194.5385
  0
SEQEND
  8
LAYER_1
 62
     1
  0
POLYLINE
  8
LAYER_1
 62
     1
 66
     1
  0
VERTEX
  8
LAYER_1
 62
     1
 10
-1685.1849
 20
-434.966
  0
VERTEX
  8
LAYER_1
 62
     1
 10
-1686.2561
 20
-445.7305
  0
VERTEX
  8
LAYER_1
 62
     1
 10
-1689.3283
 20
-455.7581
  0
VERTEX
  8
LAYER_1
 62
     1
 10
-1694.189
 20
-464.8334
  0
VERTEX
  8
LAYER_1
 62
     1
 10
-1700.6261
 20
-472.7413
  0
VERTEX
  8
LAYER_1
 62
     1
 10
-1708.4271
 20
-479.2666
  0
VERTEX
  8
LAYER_1
 62
     1
 10
-1717.3797
 20
-484.1939
  0
VERTEX
  8
LAYER_1
 62
     1
 10
-1727.2718
 20
-487.3082
  0
VERTEX
  8
LAYER_1
 62
     1
 10
-1737.8908
 20
-488.3941
  0
SEQEND
  8
LAYER_1
 62
     1
  0
POLYLINE
  8
LAYER_1
 62
     1
 66
     1
  0
VERTEX
  8
LAYER_1
 62
     1
 10
-1896.0082
 20
-488.3941
  0
VERTEX
  8
LAYER_1
 62
     1
 10
-1898.6656
 20
-488.123
  0
VERTEX
  8
LAYER_1
 62
     1
 10
-1901.1398
 20
-487.3454
  0
VERTEX
  8
LAYER_1
 62
     1
 10
-1903.3782
 20
-486.1147
  0
VERTEX
  8
LAYER_1
 62
     1
 10
-1905.3278
 20
-484.4844
  0
VERTEX
  8
LAYER_1
 62
     1
 10
-1906.9361
 20
-482.508
  0
VERTEX
  8
LAYER_1
 62
     1
 10
-1908.1501
 20
-480.239
  0
VERTEX
  8
LAYER_1
 62
     1
 10
-1908.9173
 20
-477.7309
  0
VERTEX
  8
LAYER_1
 62
     1
 10
-1909.1847
 20
-475.0371
  0
SEQEND
  8
LAYER_1
 62
     1
  0
POLYLINE
  8
LAYER_1
 62
     1
 66
     1
  0
VERTEX
  8
LAYER_1
 62
     1
 10
-1909.1847
 20
-475.0371
  0
VERTEX
  8
LAYER_1
 62
     1
 10
-1909.1847
 20
-207.8964
  0
SEQEND
  8
LAYER_1
 62
     1
  0
POLYLINE
  8
LAYER_1
 62
     1
 66
     1
  0
VERTEX
  8
LAYER_1
 62
     1
 10
-1909.1847
 20
-207.8964
  0
VERTEX
  8
LAYER_1
 62
     1
 10
-1908.9173
 20
-205.2026
  0
VERTEX
  8
LAYER_1
 62
     1
 10
-1908.1501
 20
-202.6944
  0
VERTEX
  8
LAYER_1
 62
     1
 10
-1906.9361
 20
-200.4254
  0
VERTEX
  8
LAYER_1
 62
     1
 10
-1905.3278
 20
-198.449
  0
VERTEX
  8
LAYER_1
 62
     1
 10
-1903.3782
 20
-196.8187
  0
VERTEX
  8
LAYER_1
 62
     1
 10
-1901.1398
 20
-195.588
  0
VERTEX
  8
LAYER_1
 62
     1
 10
-1898.6656
 20
-194.8104
  0
VERTEX
  8
LAYER_1
 62
     1
 10
-1896.0082
 20
-194.5393
  0
SEQEND
  8
LAYER_1
 62
     1
  0
POLYLINE
  8
LAYER_1
 62
     1
 66
     1
  0
VERTEX
  8
LAYER_1
 62
     1
 10
-1896.0082
 20
-194.5393
  0
VERTEX
  8
LAYER_1
 62
     1
 10
-1737.8908
 20
-194.5393
  0
SEQEND
  8
LAYER_1
 62
     1
  0
POLYLINE
  8
LAYER_1
 62
     1
 66
     1
  0
VERTEX
  8
LAYER_1
 62
     1
 10
-1737.8908
 20
-194.5393
  0
VERTEX
  8
LAYER_1
 62
     1
 10
-1727.2718
 20
-195.6252
  0
VERTEX
  8
LAYER_1
 62
     1
 10
-1717.3797
 20
-198.7395
  0
VERTEX
  8
LAYER_1
 62
     1
 10
-1708.4271
 20
-203.6669
  0
VERTEX
  8
LAYER_1
 62
     1
 10
-1700.6261
 20
-210.1921
  0
VERTEX
  8
LAYER_1
 62
     1
 10
-1694.189
 20
-218.1001
  0
VERTEX
  8
LAYER_1
 62
     1
 10
-1689.3283
 20
-227.1754
  0
VERTEX
  8
LAYER_1
 62
     1
 10
-1686.2561
 20
-237.203
  0
VERTEX
  8
LAYER_1
 62
     1
 10
-1685.1849
 20
-247.9675
  0
SEQEND
  8
LAYER_1
 62
     1
  0
POLYLINE
  8
LAYER_1
 62
     1
 66
     1
 70
     1
  0
VERTEX
  8
LAYER_1
 62
     1
 10
-1899.4835
 20
-466.9178
  0
VERTEX
  8
LAYER_1
 62
     1
 10
-1899.4835
 20
-463.8508
  0
VERTEX
  8
LAYER_1
 62
     1
 10
-1899.4529
 20
-463.5495
  0
VERTEX
  8
LAYER_1
 62
     1
 10
-1899.3651
 20
-463.2684
  0
VERTEX
  8
LAYER_1
 62
     1
 10
-1899.2264
 20
-463.0136
  0
VERTEX
  8
LAYER_1
 62
     1
 10
-1899.0429
 20
-462.7914
  0
VERTEX
  8
LAYER_1
 62
     1
 10
-1898.8207
 20
-462.6079
  0
VERTEX
  8
LAYER_1
 62
     1
 10
-1898.5659
 20
-462.4692
  0
VERTEX
  8
LAYER_1
 62
     1
 10
-1898.2848
 20
-462.3814
  0
VERTEX
  8
LAYER_1
 62
     1
 10
-1897.9835
 20
-462.3508
  0
VERTEX
  8
LAYER_1
 62
     1
 10
-1893.5883
 20
-462.3508
  0
VERTEX
  8
LAYER_1
 62
     1
 10
-1893.287
 20
-462.3814
  0
VERTEX
  8
LAYER_1
 62
     1
 10
-1893.0059
 20
-462.4692
  0
VERTEX
  8
LAYER_1
 62
     1
 10
-1892.7511
 20
-462.6079
  0
VERTEX
  8
LAYER_1
 62
     1
 10
-1892.5289
 20
-462.7914
  0
VERTEX
  8
LAYER_1
 62
     1
 10
-1892.3454
 20
-463.0136
  0
VERTEX
  8
LAYER_1
 62
     1
 10
-1892.2067
 20
-463.2684
  0
VERTEX
  8
LAYER_1
 62
     1
 10
-1892.1189
 20
-463.5495
  0
VERTEX
  8
LAYER_1
 62
     1
 10
-1892.0883
 20
-463.8508
  0
VERTEX
  8
LAYER_1
 62
     1
 10
-1892.0883
 20
-466.9178
  0
VERTEX
  8
LAYER_1
 62
     1
 10
-1892.1189
 20
-467.2191
  0
VERTEX
  8
LAYER_1
 62
     1
 10
-1892.2067
 20
-467.5002
  0
VERTEX
  8
LAYER_1
 62
     1
 10
-1892.3454
 20
-467.755
  0
VERTEX
  8
LAYER_1
 62
     1
 10
-1892.5289
 20
-467.9772
  0
VERTEX
  8
LAYER_1
 62
     1
 10
-1892.7511
 20
-468.1607
  0
VERTEX
  8
LAYER_1
 62
     1
 10
-1893.0059
 20
-468.2994
  0
VERTEX
  8
LAYER_1
 62
     1
 10
-1893.287
 20
-468.3872
  0
VERTEX
  8
LAYER_1
 62
     1
 10
-1893.5883
 20
-468.4178
  0
VERTEX
  8
LAYER_1
 62
     1
 10
-1897.9835
 20
-468.4178
  0
VERTEX
  8
LAYER_1
 62
     1
 10
-1898.2848
 20
-468.3872
  0
VERTEX
  8
LAYER_1
 62
     1
 10
-1898.5659
 20
-468.2994
  0
VERTEX
  8
LAYER_1
 62
     1
 10
-1898.8207
 20
-468.1607
  0
VERTEX
  8
LAYER_1
 62
     1
 10
-1899.0429
 20
-467.9772
  0
VERTEX
  8
LAYER_1
 62
     1
 10
-1899.2264
 20
-467.755
  0
VERTEX
  8
LAYER_1
 62
     1
 10
-1899.3651
 20
-467.5002
  0
VERTEX
  8
LAYER_1
 62
     1
 10
-1899.4529
 20
-467.2191
  0
VERTEX
  8
LAYER_1
 62
     1
 10
-1899.4835
 20
-466.9178
  0
SEQEND
  8
LAYER_1
 62
     1
  0
POLYLINE
  8
LAYER_1
 62
     1
 66
     1
 70
     1
  0
VERTEX
  8
LAYER_1
 62
     1
 10
-1899.6349
 20
-441.5178
  0
VERTEX
  8
LAYER_1
 62
     1
 10
-1899.6349
 20
-438.4508
  0
VERTEX
  8
LAYER_1
 62
     1
 10
-1899.6043
 20
-438.1495
  0
VERTEX
  8
LAYER_1
 62
     1
 10
-1899.5165
 20
-437.8684
  0
VERTEX
  8
LAYER_1
 62
     1
 10
-1899.3778
 20
-437.6136
  0
VERTEX
  8
LAYER_1
 62
     1
 10
-1899.1943
 20
-437.3914
  0
VERTEX
  8
LAYER_1
 62
     1
 10
-1898.9721
 20
-437.2079
  0
VERTEX
  8
LAYER_1
 62
     1
 10
-1898.7173
 20
-437.0692
  0
VERTEX
  8
LAYER_1
 62
     1
 10
-1898.4362
 20
-436.9814
  0
VERTEX
  8
LAYER_1
 62
     1
 10
-1898.1349
 20
-436.9508
  0
VERTEX
  8
LAYER_1
 62
     1
 10
-1893.7397
 20
-436.9508
  0
VERTEX
  8
LAYER_1
 62
     1
 10
-1893.4384
 20
-436.9814
  0
VERTEX
  8
LAYER_1
 62
     1
 10
-1893.1573
 20
-437.0692
  0
VERTEX
  8
LAYER_1
 62
     1
 10
-1892.9025
 20
-437.2079
  0
VERTEX
  8
LAYER_1
 62
     1
 10
-1892.6803
 20
-437.3914
  0
VERTEX
  8
LAYER_1
 62
     1
 10
-1892.4968
 20
-437.6136
  0
VERTEX
  8
LAYER_1
 62
     1
 10
-1892.3581
 20
-437.8684
  0
VERTEX
  8
LAYER_1
 62
     1
 10
-1892.2703
 20
-438.1495
  0
VERTEX
  8
LAYER_1
 62
     1
 10
-1892.2397
 20
-438.4508
  0
VERTEX
  8
LAYER_1
 62
     1
 10
-1892.2397
 20
-441.5178
  0
VERTEX
  8
LAYER_1
 62
     1
 10
-1892.2703
 20
-441.8191
  0
VERTEX
  8
LAYER_1
 62
     1
 10
-1892.3581
 20
-442.1002
  0
VERTEX
  8
LAYER_1
 62
     1
 10
-1892.4968
 20
-442.355
  0
VERTEX
  8
LAYER_1
 62
     1
 10
-1892.6803
 20
-442.5772
  0
VERTEX
  8
LAYER_1
 62
     1
 10
-1892.9025
 20
-442.7607
  0
VERTEX
  8
LAYER_1
 62
     1
 10
-1893.1573
 20
-442.8994
  0
VERTEX
  8
LAYER_1
 62
     1
 10
-1893.4384
 20
-442.9872
  0
VERTEX
  8
LAYER_1
 62
     1
 10
-1893.7397
 20
-443.0178
  0
VERTEX
  8
LAYER_1
 62
     1
 10
-1898.1349
 20
-443.0178
  0
VERTEX
  8
LAYER_1
 62
     1
 10
-1898.4362
 20
-442.9872
  0
VERTEX
  8
LAYER_1
 62
     1
 10
-1898.7173
 20
-442.8994
  0
VERTEX
  8
LAYER_1
 62
     1
 10
-1898.9721
 20
-442.7607
  0
VERTEX
  8
LAYER_1
 62
     1
 10
-1899.1943
 20
-442.5772
  0
VERTEX
  8
LAYER_1
 62
     1
 10
-1899.3778
 20
-442.355
  0
VERTEX
  8
LAYER_1
 62
     1
 10
-1899.5165
 20
-442.1002
  0
VERTEX
  8
LAYER_1
 62
     1
 10
-1899.6043
 20
-441.8191
  0
VERTEX
  8
LAYER_1
 62
     1
 10
-1899.6349
 20
-441.5178
  0
SEQEND
  8
LAYER_1
 62
     1
  0
POLYLINE
  8
LAYER_1
 62
     1
 66
     1
 70
     1
  0
VERTEX
  8
LAYER_1
 62
     1
 10
-1899.4835
 20
-355.7928
  0
VERTEX
  8
LAYER_1
 62
     1
 10
-1899.4835
 20
-352.7258
  0
VERTEX
  8
LAYER_1
 62
     1
 10
-1899.4529
 20
-352.4245
  0
VERTEX
  8
LAYER_1
 62
     1
 10
-1899.3651
 20
-352.1434
  0
VERTEX
  8
LAYER_1
 62
     1
 10
-1899.2264
 20
-351.8886
  0
VERTEX
  8
LAYER_1
 62
     1
 10
-1899.0429
 20
-351.6664
  0
VERTEX
  8
LAYER_1
 62
     1
 10
-1898.8207
 20
-351.4829
  0
VERTEX
  8
LAYER_1
 62
     1
 10
-1898.5659
 20
-351.3442
  0
VERTEX
  8
LAYER_1
 62
     1
 10
-1898.2848
 20
-351.2564
  0
VERTEX
  8
LAYER_1
 62
     1
 10
-1897.9835
 20
-351.2258
  0
VERTEX
  8
LAYER_1
 62
     1
 10
-1893.5883
 20
-351.2258
  0
VERTEX
  8
LAYER_1
 62
     1
 10
-1893.287
 20
-351.2564
  0
VERTEX
  8
LAYER_1
 62
     1
 10
-1893.0059
 20
-351.3442
  0
VERTEX
  8
LAYER_1
 62
     1
 10
-1892.7511
 20
-351.4829
  0
VERTEX
  8
LAYER_1
 62
     1
 10
-1892.5289
 20
-351.6664
  0
VERTEX
  8
LAYER_1
 62
     1
 10
-1892.3454
 20
-351.8886
  0
VERTEX
  8
LAYER_1
 62
     1
 10
-1892.2067
 20
-352.1434
  0
VERTEX
  8
LAYER_1
 62
     1
 10
-1892.1189
 20
-352.4245
  0
VERTEX
  8
LAYER_1
 62
     1
 10
-1892.0883
 20
-352.7258
  0
VERTEX
  8
LAYER_1
 62
     1
 10
-1892.0883
 20
-355.7928
  0
VERTEX
  8
LAYER_1
 62
     1
 10
-1892.1189
 20
-356.0941
  0
VERTEX
  8
LAYER_1
 62
     1
 10
-1892.2067
 20
-356.3752
  0
VERTEX
  8
LAYER_1
 62
     1
 10
-1892.3454
 20
-356.63
  0
VERTEX
  8
LAYER_1
 62
     1
 10
-1892.5289
 20
-356.8522
  0
VERTEX
  8
LAYER_1
 62
     1
 10
-1892.7511
 20
-357.0357
  0
VERTEX
  8
LAYER_1
 62
     1
 10
-1893.0059
 20
-357.1744
  0
VERTEX
  8
LAYER_1
 62
     1
 10
-1893.287
 20
-357.2622
  0
VERTEX
  8
LAYER_1
 62
     1
 10
-1893.5883
 20
-357.2928
  0
VERTEX
  8
LAYER_1
 62
     1
 10
-1897.9835
 20
-357.2928
  0
VERTEX
  8
LAYER_1
 62
     1
 10
-1898.2848
 20
-357.2622
  0
VERTEX
  8
LAYER_1
 62
     1
 10
-1898.5659
 20
-357.1744
  0
VERTEX
  8
LAYER_1
 62
     1
 10
-1898.8207
 20
-357.0357
  0
VERTEX
  8
LAYER_1
 62
     1
 10
-1899.0429
 20
-356.8522
  0
VERTEX
  8
LAYER_1
 62
     1
 10
-1899.2264
 20
-356.63
  0
VERTEX
  8
LAYER_1
 62
     1
 10
-1899.3651
 20
-356.3752
  0
VERTEX
  8
LAYER_1
 62
     1
 10
-1899.4529
 20
-356.0941
  0
VERTEX
  8
LAYER_1
 62
     1
 10
-1899.4835
 20
-355.7928
  0
SEQEND
  8
LAYER_1
 62
     1
  0
POLYLINE
  8
LAYER_1
 62
     1
 66
     1
 70
     1
  0
VERTEX
  8
LAYER_1
 62
     1
 10
-1899.6349
 20
-330.3928
  0
VERTEX
  8
LAYER_1
 62
     1
 10
-1899.6349
 20
-327.3258
  0
VERTEX
  8
LAYER_1
 62
     1
 10
-1899.6043
 20
-327.0245
  0
VERTEX
  8
LAYER_1
 62
     1
 10
-1899.5165
 20
-326.7434
  0
VERTEX
  8
LAYER_1
 62
     1
 10
-1899.3778
 20
-326.4886
  0
VERTEX
  8
LAYER_1
 62
     1
 10
-1899.1943
 20
-326.2664
  0
VERTEX
  8
LAYER_1
 62
     1
 10
-1898.9721
 20
-326.0829
  0
VERTEX
  8
LAYER_1
 62
     1
 10
-1898.7173
 20
-325.9442
  0
VERTEX
  8
LAYER_1
 62
     1
 10
-1898.4362
 20
-325.8564
  0
VERTEX
  8
LAYER_1
 62
     1
 10
-1898.1349
 20
-325.8258
  0
VERTEX
  8
LAYER_1
 62
     1
 10
-1893.7397
 20
-325.8258
  0
VERTEX
  8
LAYER_1
 62
     1
 10
-1893.4384
 20
-325.8564
  0
VERTEX
  8
LAYER_1
 62
     1
 10
-1893.1573
 20
-325.9442
  0
VERTEX
  8
LAYER_1
 62
     1
 10
-1892.9025
 20
-326.0829
  0
VERTEX
  8
LAYER_1
 62
     1
 10
-1892.6803
 20
-326.2664
  0
VERTEX
  8
LAYER_1
 62
     1
 10
-1892.4968
 20
-326.4886
  0
VERTEX
  8
LAYER_1
 62
     1
 10
-1892.3581
 20
-326.7434
  0
VERTEX
  8
LAYER_1
 62
     1
 10
-1892.2703
 20
-327.0245
  0
VERTEX
  8
LAYER_1
 62
     1
 10
-1892.2397
 20
-327.3258
  0
VERTEX
  8
LAYER_1
 62
     1
 10
-1892.2397
 20
-330.3928
  0
VERTEX
  8
LAYER_1
 62
     1
 10
-1892.2703
 20
-330.6941
  0
VERTEX
  8
LAYER_1
 62
     1
 10
-1892.3581
 20
-330.9752
  0
VERTEX
  8
LAYER_1
 62
     1
 10
-1892.4968
 20
-331.23
  0
VERTEX
  8
LAYER_1
 62
     1
 10
-1892.6803
 20
-331.4522
  0
VERTEX
  8
LAYER_1
 62
     1
 10
-1892.9025
 20
-331.6357
  0
VERTEX
  8
LAYER_1
 62
     1
 10
-1893.1573
 20
-331.7744
  0
VERTEX
  8
LAYER_1
 62
     1
 10
-1893.4384
 20
-331.8622
  0
VERTEX
  8
LAYER_1
 62
     1
 10
-1893.7397
 20
-331.8928
  0
VERTEX
  8
LAYER_1
 62
     1
 10
-1898.1349
 20
-331.8928
  0
VERTEX
  8
LAYER_1
 62
     1
 10
-1898.4362
 20
-331.8622
  0
VERTEX
  8
LAYER_1
 62
     1
 10
-1898.7173
 20
-331.7744
  0
VERTEX
  8
LAYER_1
 62
     1
 10
-1898.9721
 20
-331.6357
  0
VERTEX
  8
LAYER_1
 62
     1
 10
-1899.1943
 20
-331.4522
  0
VERTEX
  8
LAYER_1
 62
     1
 10
-1899.3778
 20
-331.23
  0
VERTEX
  8
LAYER_1
 62
     1
 10
-1899.5165
 20
-330.9752
  0
VERTEX
  8
LAYER_1
 62
     1
 10
-1899.6043
 20
-330.6941
  0
VERTEX
  8
LAYER_1
 62
     1
 10
-1899.6349
 20
-330.3928
  0
SEQEND
  8
LAYER_1
 62
     1
  0
POLYLINE
  8
LAYER_1
 62
     1
 66
     1
 70
     1
  0
VERTEX
  8
LAYER_1
 62
     1
 10
-1899.4835
 20
-244.6181
  0
VERTEX
  8
LAYER_1
 62
     1
 10
-1899.4835
 20
-241.5511
  0
VERTEX
  8
LAYER_1
 62
     1
 10
-1899.4529
 20
-241.2498
  0
VERTEX
  8
LAYER_1
 62
     1
 10
-1899.3651
 20
-240.9687
  0
VERTEX
  8
LAYER_1
 62
     1
 10
-1899.2264
 20
-240.7139
  0
VERTEX
  8
LAYER_1
 62
     1
 10
-1899.0429
 20
-240.4917
  0
VERTEX
  8
LAYER_1
 62
     1
 10
-1898.8207
 20
-240.3082
  0
VERTEX
  8
LAYER_1
 62
     1
 10
-1898.5659
 20
-240.1695
  0
VERTEX
  8
LAYER_1
 62
     1
 10
-1898.2848
 20
-240.0817
  0
VERTEX
  8
LAYER_1
 62
     1
 10
-1897.9835
 20
-240.0511
  0
VERTEX
  8
LAYER_1
 62
     1
 10
-1893.5883
 20
-240.0511
  0
VERTEX
  8
LAYER_1
 62
     1
 10
-1893.287
 20
-240.0817
  0
VERTEX
  8
LAYER_1
 62
     1
 10
-1893.0059
 20
-240.1695
  0
VERTEX
  8
LAYER_1
 62
     1
 10
-1892.7511
 20
-240.3082
  0
VERTEX
  8
LAYER_1
 62
     1
 10
-1892.5289
 20
-240.4917
  0
VERTEX
  8
LAYER_1
 62
     1
 10
-1892.3454
 20
-240.7139
  0
VERTEX
  8
LAYER_1
 62
     1
 10
-1892.2067
 20
-240.9687
  0
VERTEX
  8
LAYER_1
 62
     1
 10
-1892.1189
 20
-241.2498
  0
VERTEX
  8
LAYER_1
 62
     1
 10
-1892.0883
 20
-241.5511
  0
VERTEX
  8
LAYER_1
 62
     1
 10
-1892.0883
 20
-244.6181
  0
VERTEX
  8
LAYER_1
 62
     1
 10
-1892.1189
 20
-244.9194
  0
VERTEX
  8
LAYER_1
 62
     1
 10
-1892.2067
 20
-245.2005
  0
VERTEX
  8
LAYER_1
 62
     1
 10
-1892.3454
 20
-245.4553
  0
VERTEX
  8
LAYER_1
 62
     1
 10
-1892.5289
 20
-245.6775
  0
VERTEX
  8
LAYER_1
 62
     1
 10
-1892.7511
 20
-245.861
  0
VERTEX
  8
LAYER_1
 62
     1
 10
-1893.0059
 20
-245.9997
  0
VERTEX
  8
LAYER_1
 62
     1
 10
-1893.287
 20
-246.0875
  0
VERTEX
  8
LAYER_1
 62
     1
 10
-1893.5883
 20
-246.1181
  0
VERTEX
  8
LAYER_1
 62
     1
 10
-1897.9835
 20
-246.1181
  0
VERTEX
  8
LAYER_1
 62
     1
 10
-1898.2848
 20
-246.0875
  0
VERTEX
  8
LAYER_1
 62
     1
 10
-1898.5659
 20
-245.9997
  0
VERTEX
  8
LAYER_1
 62
     1
 10
-1898.8207
 20
-245.861
  0
VERTEX
  8
LAYER_1
 62
     1
 10
-1899.0429
 20
-245.6775
  0
VERTEX
  8
LAYER_1
 62
     1
 10
-1899.2264
 20
-245.4553
  0
VERTEX
  8
LAYER_1
 62
     1
 10
-1899.3651
 20
-245.2005
  0
VERTEX
  8
LAYER_1
 62
     1
 10
-1899.4529
 20
-244.9194
  0
VERTEX
  8
LAYER_1
 62
     1
 10
-1899.4835
 20
-244.6181
  0
SEQEND
  8
LAYER_1
 62
     1
  0
POLYLINE
  8
LAYER_1
 62
     1
 66
     1
 70
     1
  0
VERTEX
  8
LAYER_1
 62
     1
 10
-1899.6349
 20
-219.2181
  0
VERTEX
  8
LAYER_1
 62
     1
 10
-1899.6349
 20
-216.1511
  0
VERTEX
  8
LAYER_1
 62
     1
 10
-1899.6043
 20
-215.8498
  0
VERTEX
  8
LAYER_1
 62
     1
 10
-1899.5165
 20
-215.5687
  0
VERTEX
  8
LAYER_1
 62
     1
 10
-1899.3778
 20
-215.3139
  0
VERTEX
  8
LAYER_1
 62
     1
 10
-1899.1943
 20
-215.0917
  0
VERTEX
  8
LAYER_1
 62
     1
 10
-1898.9721
 20
-214.9082
  0
VERTEX
  8
LAYER_1
 62
     1
 10
-1898.7173
 20
-214.7695
  0
VERTEX
  8
LAYER_1
 62
     1
 10
-1898.4362
 20
-214.6817
  0
VERTEX
  8
LAYER_1
 62
     1
 10
-1898.1349
 20
-214.6511
  0
VERTEX
  8
LAYER_1
 62
     1
 10
-1893.7397
 20
-214.6511
  0
VERTEX
  8
LAYER_1
 62
     1
 10
-1893.4384
 20
-214.6817
  0
VERTEX
  8
LAYER_1
 62
     1
 10
-1893.1573
 20
-214.7695
  0
VERTEX
  8
LAYER_1
 62
     1
 10
-1892.9025
 20
-214.9082
  0
VERTEX
  8
LAYER_1
 62
     1
 10
-1892.6803
 20
-215.0917
  0
VERTEX
  8
LAYER_1
 62
     1
 10
-1892.4968
 20
-215.3139
  0
VERTEX
  8
LAYER_1
 62
     1
 10
-1892.3581
 20
-215.5687
  0
VERTEX
  8
LAYER_1
 62
     1
 10
-1892.2703
 20
-215.8498
  0
VERTEX
  8
LAYER_1
 62
     1
 10
-1892.2397
 20
-216.1511
  0
VERTEX
  8
LAYER_1
 62
     1
 10
-1892.2397
 20
-219.2181
  0
VERTEX
  8
LAYER_1
 62
     1
 10
-1892.2703
 20
-219.5194
  0
VERTEX
  8
LAYER_1
 62
     1
 10
-1892.3581
 20
-219.8005
  0
VERTEX
  8
LAYER_1
 62
     1
 10
-1892.4968
 20
-220.0553
  0
VERTEX
  8
LAYER_1
 62
     1
 10
-1892.6803
 20
-220.2775
  0
VERTEX
  8
LAYER_1
 62
     1
 10
-1892.9025
 20
-220.461
  0
VERTEX
  8
LAYER_1
 62
     1
 10
-1893.1573
 20
-220.5997
  0
VERTEX
  8
LAYER_1
 62
     1
 10
-1893.4384
 20
-220.6875
  0
VERTEX
  8
LAYER_1
 62
     1
 10
-1893.7397
 20
-220.7181
  0
VERTEX
  8
LAYER_1
 62
     1
 10
-1898.1349
 20
-220.7181
  0
VERTEX
  8
LAYER_1
 62
     1
 10
-1898.4362
 20
-220.6875
  0
VERTEX
  8
LAYER_1
 62
     1
 10
-1898.7173
 20
-220.5997
  0
VERTEX
  8
LAYER_1
 62
     1
 10
-1898.9721
 20
-220.461
  0
VERTEX
  8
LAYER_1
 62
     1
 10
-1899.1943
 20
-220.2775
  0
VERTEX
  8
LAYER_1
 62
     1
 10
-1899.3778
 20
-220.0553
  0
VERTEX
  8
LAYER_1
 62
     1
 10
-1899.5165
 20
-219.8005
  0
VERTEX
  8
LAYER_1
 62
     1
 10
-1899.6043
 20
-219.5194
  0
VERTEX
  8
LAYER_1
 62
     1
 10
-1899.6349
 20
-219.2181
  0
SEQEND
  8
LAYER_1
 62
     1
  0
POLYLINE
  8
LAYER_1
 62
     1
 66
     1
  0
VERTEX
  8
LAYER_1
 62
     1
 10
-1896.0082
 20
-488.5389
  0
VERTEX
  8
LAYER_1
 62
     1
 10
-1737.8908
 20
-488.5389
  0
SEQEND
  8
LAYER_1
 62
     1
  0
POLYLINE
  8
LAYER_1
 62
     1
 66
     1
  0
VERTEX
  8
LAYER_1
 62
     1
 10
-1685.1847
 20
-434.966
  0
VERTEX
  8
LAYER_1
 62
     1
 10
-1685.1847
 20
-247.9675
  0
SEQEND
  8
LAYER_1
 62
     1
  0
ENDSEC
  0
EOF
