<?xml version="1.0" encoding="UTF-8" standalone="no"?>
<!-- Created with Inkscape (http://www.inkscape.org/) -->

<svg
   xmlns:dc="http://purl.org/dc/elements/1.1/"
   xmlns:cc="http://creativecommons.org/ns#"
   xmlns:rdf="http://www.w3.org/1999/02/22-rdf-syntax-ns#"
   xmlns:svg="http://www.w3.org/2000/svg"
   xmlns="http://www.w3.org/2000/svg"
   xmlns:sodipodi="http://sodipodi.sourceforge.net/DTD/sodipodi-0.dtd"
   xmlns:inkscape="http://www.inkscape.org/namespaces/inkscape"
   width="8.5in"
   height="11in"
   viewBox="0 0 765.00001 990.00002"
   id="svg4149"
   version="1.1"
   inkscape:version="0.91 r13725"
   sodipodi:docname="face shield frame v7.svg">
  <defs
     id="defs4151" />
  <sodipodi:namedview
     id="base"
     pagecolor="#ffffff"
     bordercolor="#666666"
     borderopacity="1.0"
     inkscape:pageopacity="0.0"
     inkscape:pageshadow="2"
     inkscape:zoom="1.2181133"
     inkscape:cx="189.16823"
     inkscape:cy="495"
     inkscape:document-units="in"
     inkscape:current-layer="layer1"
     showgrid="false"
     units="in"
     inkscape:window-width="1920"
     inkscape:window-height="1035"
     inkscape:window-x="1920"
     inkscape:window-y="23"
     inkscape:window-maximized="1" />
  <metadata
     id="metadata4154">
    <rdf:RDF>
      <cc:Work
         rdf:about="">
        <dc:format>image/svg+xml</dc:format>
        <dc:type
           rdf:resource="http://purl.org/dc/dcmitype/StillImage" />
        <dc:title />
      </cc:Work>
    </rdf:RDF>
  </metadata>
  <g
     inkscape:label="Layer 1"
     inkscape:groupmode="layer"
     id="layer1"
     transform="translate(0,-62.362175)">
    <path
       style="fill:#000000;stroke:#000000;stroke-width:0.00354331;stroke-miterlimit:4;stroke-dasharray:none;fill-opacity:0.19607843"
       d="m 498.3851,884.39582 3.52878,-0.45355 3.46854,-0.79015 3.37713,-1.11614 3.25381,-1.43859 3.10111,-1.7433 2.91897,-2.03386 2.71063,-2.30315 2.47678,-2.55473 2.21988,-2.77795 1.94315,-2.97992 1.64799,-3.15354 1.33724,-3.29528 1.01516,-3.41221 0.68244,-3.49015 0.34477,-3.53977 0.002,-3.55748 -0.33839,-3.54331 -0.67748,-3.49015 -1.00913,-3.41221 -1.33229,-3.29882 -1.64303,-3.15354 -1.93819,-2.98347 -2.21563,-2.78503 -2.47252,-2.55827 -2.70673,-2.3067 -2.91614,-2.0374 -3.09792,-1.74685 -3.25169,-1.44567 -3.37535,-1.12323 7.42571,-9.03897 7.25704,-9.06024 7.08697,-9.07795 6.91477,-9.09567 6.73972,-9.11693 6.56185,-9.13465 6.38044,-9.15945 6.19618,-9.17716 6.00767,-9.19843 5.81528,-9.2211 5.61933,-9.24272 5.41878,-9.26504 5.21469,-9.28807 5.00634,-9.31146 4.79444,-9.33555 4.57831,-9.35965 4.35969,-9.38409 4.13752,-9.4089 3.91358,-9.43441 3.68787,-9.45957 3.46182,-9.48508 3.23539,-9.51023 3.01039,-9.53575 2.78681,-9.56091 2.565,-9.58571 2.34603,-9.61051 2.13059,-9.63461 1.91764,-9.65834 1.70893,-9.68209 1.50308,-9.70476 1.3011,-9.7278 1.10197,-9.75012 -0.86422,-1.56543 -0.58996,-1.68839 -0.2987,-1.76315 10e-4,-1.78831 0.30083,-1.76244 0.59244,-1.68767 0.86669,-1.56402 1.1165,-1.39677 1.33511,-1.18984 1.51548,-0.94926 1.6533,-0.68173 1.74402,-0.39472 1.78583,-0.0971 1.77661,0.20374 1.71744,0.4989 1.60937,0.77953 1.45595,1.03819 1.26141,1.26779 1.03075,1.46126 0.77138,1.61327 0.49039,1.71992 1.38225,-1.14591 1.18275,-1.35106 0.95245,-1.5222 0.69838,-1.65402 0.42626,-1.74437 0.14315,-1.78972 0,-5.99528 -0.13323,-1.72559 -0.39614,-1.68449 -0.64984,-1.60405 -0.88831,-1.48536 -1.10586,-1.33157 -1.29686,-1.14626 -0.54885,1.76067 -0.84544,1.63913 -1.11578,1.4687 -1.35284,1.25362 -1.54913,1.00063 -1.69866,0.71823 -1.79752,0.41351 -1.84182,0.0967 -1.83082,-0.22323 -1.76457,-0.5361 -1.64551,-0.83339 -1.4765,-1.10516 -1.26354,-1.34362 -1.01197,-1.54169 -0.73028,-1.6937 -0.42661,-1.79433 -0.1102,-1.84075 0.20977,-1.8326 0.52334,-1.76846 0.82134,-1.65154 1.09418,-1.48465 1.33441,-1.27311 0.0861,-11.28295 -0.15166,-11.30953 -0.38799,-11.3361 -0.62327,-11.36232 0.0156,-0.37347 -1.16363,-1.34504 -0.92303,-1.52008 -0.65693,-1.65295 -0.37169,-1.73941 -0.0769,-1.77697 0.22075,-1.76492 0.51165,-1.70327 0.78874,-1.59413 1.04351,-1.44036 1.26885,-1.24618 1.45914,-1.01725 1.6083,-0.75968 1.71213,-0.481 1.76847,-0.18869 1.77555,0.10885 1.73197,0.40327 1.6409,0.68648 1.50343,0.95046 1.32378,1.18764 1.10728,1.39217 0.85961,1.55693 0.58818,1.67846 1.37445,-1.38508 1.11473,-1.60193 0.82063,-1.77023 0.50279,-1.88568 0.16937,-1.94407 0,-6.04726 -0.13393,-1.7308 -0.39863,-1.68959 -0.65409,-1.60816 -0.89327,-1.48841 -1.11189,-1.33324 -1.30358,-1.14629 -0.5439,1.75674 -0.8387,1.63676 -1.10799,1.46767 -1.34433,1.25479 -1.54063,1.00421 -1.69051,0.72375 -1.79008,0.42152 -1.83579,0.10661 -1.82693,-0.21135 -1.76315,-0.52303 -1.64657,-0.81911 -1.48075,-1.09066 -1.27063,-1.32949 -1.02225,-1.52862 -0.74374,-1.68197 -0.44256,-1.78494 -0.12826,-1.83455 0.18956,-1.82916 0.50244,-1.7691 0.79937,-1.65607 1.07327,-1.49354 -0.41244,-2.64657 -0.46594,-2.5342 -0.52122,-2.41861 -0.57756,-2.30026 -0.63532,-2.18031 -0.69307,-2.05933 -0.75083,-1.93855 -0.80822,-1.81874 -0.86457,-1.70051 -0.92055,-1.5841 -0.97477,-1.4698 -1.02862,-1.35762 -1.08142,-1.24735 -1.1335,-1.13875 -1.18453,-1.03149 -1.23555,-0.92509 -0.82098,-0.95255 -0.9326,-0.86711 -1.04457,-0.78169 -1.15689,-0.69679 -1.26815,-0.61353 -1.37941,-0.53341 -1.48677,-0.45843 -1.59094,-0.3915 -1.68839,-0.33559 -1.77697,-0.29427 -3.77433,-0.53844 -3.97736,-0.61455 -2.02819,-0.39331 -2.03457,-0.48164 -2.02606,-0.59191 -2.0048,-0.72251 -1.97115,-0.87067 -1.9272,-1.03337 -1.87547,-1.20731 -1.81701,-1.38908 -1.75358,-1.57621 -1.68733,-1.76658 -1.61787,-1.95874 -1.54772,-2.15079 -1.47614,-2.34248 -1.40457,-2.5324 -1.33334,-2.72091 -1.26213,-2.90764 -1.19161,-3.09295 -1.12146,-3.27685 0.0503,-4.38094 -0.13818,-4.17331 -0.33201,-3.95965 -0.53469,-3.73677 -0.74764,-3.50149 -0.97405,-3.25276 -0.57579,-1.52858 -0.63708,-1.46126 -0.69981,-1.39217 -0.76323,-1.32165 -0.82807,-1.25079 -0.89291,-1.17921 -0.95776,-1.10799 -1.02224,-1.03678 -1.08602,-0.96696 -1.14839,-0.89788 -1.20969,-0.83055 -1.26956,-0.76429 -2.71418,-1.33618 -2.93881,-1.08851 -3.15497,-0.85074 -3.36578,-0.61867 -13.07304,-3.77468 -13.1609,-3.48768 -13.24949,-3.19712 -13.33984,-2.90268 -13.43197,-2.60185 -13.52587,-2.29429 -13.62295,-1.97788 -13.72217,-1.65295 -1.43398,1.0435 -1.5874,0.79051 -1.69653,0.51556 -1.7589,0.22641 -1.77166,-0.0691 -1.73586,-0.36283 -1.65118,-0.6463 -1.52114,-0.91169 -1.34823,-1.15193 -1.13776,-1.35992 -0.8961,-1.53036 -0.62929,-1.65791 -0.34477,-1.73941 -0.0507,-1.77236 0.24449,-1.75642 0.53292,-1.69122 0.80681,-1.57925 1.05803,-1.423 1.27984,-1.22704 1.46622,-0.99744 1.6115,-0.7402 -1.31315,-1.04315 -1.45347,-0.83658 -1.56153,-0.61122 -1.63524,-0.3724 -1.67244,-0.12472 -4.72925,0 -1.63843,0.11976 -1.6037,0.35717 -1.53425,0.58712 -1.43256,0.80433 1.48925,0.97087 1.30642,1.20543 1.08709,1.4067 0.83763,1.56791 0.56481,1.68555 0.27602,1.75606 -0.0209,1.77768 -0.31642,1.74933 -0.60378,1.67209 -0.87378,1.54807 -1.11969,1.38047 -1.33405,1.17496 -1.51122,0.93615 -1.64612,0.67145 -1.73494,0.38729 -1.77527,0.0928 -1.76595,-0.2041 -1.7072,-0.49571 -1.60069,-0.77315 -1.44953,-1.02897 -1.2577,-1.25646 -11.83673,-0.23811 -11.91406,0.0149 -11.91401,-0.0149 -11.83674,0.23811 -1.25769,1.25646 -1.44954,1.02897 -1.60069,0.77315 -1.7072,0.49571 -1.76591,0.2041 -1.7753,-0.0928 -1.73491,-0.38729 -1.64605,-0.67145 -1.51122,-0.93615 -1.33405,-1.17496 -1.11969,-1.38047 -0.87378,-1.54807 -0.60378,-1.67209 -0.31677,-1.74933 -0.0206,-1.77768 0.27602,-1.75606 0.56445,-1.68555 0.83764,-1.56791 1.08744,-1.4067 1.30642,-1.20543 1.48925,-0.97087 -1.43256,-0.80433 -1.5346,-0.58712 -1.60335,-0.35717 -1.63843,-0.11976 -4.72925,0 -1.67244,0.12472 -1.63524,0.3724 -1.56189,0.61122 -1.45346,0.83658 -1.3128,1.04315 1.6115,0.7402 1.46587,0.99744 1.27984,1.22704 1.05839,1.423 0.80681,1.57925 0.53291,1.69122 0.24449,1.75642 -0.051,1.77236 -0.34476,1.73941 -0.62894,1.65791 -0.8961,1.53036 -1.13811,1.35992 -1.34823,1.15193 -1.52078,0.91169 -1.65119,0.6463 -1.73586,0.36283 -1.77201,0.0691 -1.75854,-0.22641 -1.69689,-0.51556 -1.58705,-0.79051 -1.43398,-1.0435 -13.72216,1.65295 -13.62296,1.97788 -13.52622,2.29429 -13.43161,2.60185 -13.33985,2.90268 -13.24984,3.19712 -13.16055,3.48768 -13.07303,3.77468 -3.36579,0.61867 -3.15496,0.85074 -2.93882,1.08851 -2.71417,1.33618 -1.26957,0.76429 -1.21004,0.83055 -1.14839,0.89788 -1.08567,0.96696 -1.02224,1.03678 -0.95776,1.10799 -0.89291,1.17921 -0.82807,1.25079 -0.76359,1.32165 -0.69945,1.39217 -0.63708,1.46126 -0.57579,1.52858 -0.97405,3.25276 -0.748,3.50149 -0.53433,3.73677 -0.33236,3.95965 -0.13819,4.17331 0.0507,4.38094 -1.12146,3.27685 -1.19161,3.09295 -1.26248,2.90764 -1.33299,2.72091 -1.40492,2.5324 -1.47615,2.34248 -1.54736,2.15079 -1.61823,1.95874 -1.68696,1.76658 -1.75394,1.57621 -1.81666,1.38908 -1.87547,1.20731 -1.9272,1.03337 -1.97114,0.87067 -2.00481,0.72251 -2.02642,0.59191 -2.03421,0.48164 -2.02819,0.39331 -3.97736,0.61455 -3.77433,0.53844 -1.77697,0.29427 -1.68838,0.33559 -1.59095,0.3915 -1.48713,0.45843 -1.37905,0.53341 -1.26851,0.61353 -1.15653,0.69679 -1.04457,0.78169 -0.9326,0.86711 -0.82098,0.95255 -1.23555,0.92509 -1.18488,1.03149 -1.13315,1.13875 -1.08142,1.24735 -1.02862,1.35762 -0.97512,1.4698 -0.9202,1.5841 -0.86492,1.70051 -0.80787,1.81874 -0.75083,1.93855 -0.69307,2.05933 -0.63532,2.18031 -0.57791,2.30026 -0.52122,2.41861 -0.46594,2.5342 -0.41209,2.64657 1.07291,1.49354 0.79973,1.65607 0.50208,1.7691 0.18992,1.82916 -0.12826,1.83455 -0.44292,1.78494 -0.74338,1.68197 -1.0226,1.52862 -1.27063,1.32949 -1.48075,1.09066 -1.64622,0.81911 -1.76315,0.52303 -1.82693,0.21135 -1.83579,-0.10661 -1.79008,-0.42152 -1.69051,-0.72375 -1.54063,-1.00421 -1.34468,-1.25479 -1.10799,-1.46767 -0.83835,-1.63676 -0.5439,-1.75674 -1.303578,1.14629 -1.11189,1.33324 -0.89362,1.48841 -0.65374,1.60816 -0.39863,1.68959 -0.13393,1.7308 0,6.04726 0.16937,1.94407 0.50244,1.88568 0.82098,1.77023 1.11473,1.60193 1.374448,1.38508 0.58783,-1.67846 0.85996,-1.55693 1.10729,-1.39217 1.32378,-1.18764 1.50342,-0.95046 1.64055,-0.68648 1.73232,-0.40327 1.7752,-0.10885 1.76882,0.18869 1.71213,0.481 1.6083,0.75968 1.45878,1.01725 1.26922,1.24618 1.0435,1.44036 0.78839,1.59413 0.512,1.70327 0.2204,1.76492 -0.0765,1.77697 -0.37205,1.73941 -0.65657,1.65295 -0.92304,1.52008 -1.16362,1.34504 0.0156,0.37347 -0.62327,11.36232 -0.38799,11.3361 -0.15201,11.30953 0.0865,11.28295 1.33441,1.27311 1.09418,1.48465 0.82134,1.65154 0.52334,1.76846 0.20977,1.8326 -0.1102,1.84075 -0.42661,1.79433 -0.73028,1.6937 -1.01232,1.54169 -1.26319,1.34362 -1.47685,1.10516 -1.64516,0.83339 -1.76492,0.5361 -1.83047,0.22323 -1.84217,-0.0967 -1.79717,-0.41351 -1.69901,-0.71823 -1.54913,-1.00063 -1.35284,-1.25362 -1.11579,-1.4687 -0.84508,-1.63913 -0.549208,-1.76067 -1.29685,1.14626 -1.10551,1.33157 -0.88831,1.48536 -0.65019,1.60405 -0.39615,1.68449 -0.13287,1.72559 0,5.99528 0.14315,1.78972 0.42626,1.74437 0.69838,1.65402 0.95245,1.5222 1.18275,1.35106 1.382248,1.14591 0.49004,-1.71992 0.77137,-1.61327 1.03111,-1.46126 1.26141,-1.26779 1.45595,-1.03819 1.60937,-0.77953 1.71744,-0.4989 1.77661,-0.20374 1.78548,0.0971 1.74401,0.39472 1.65331,0.68173 1.51583,0.94926 1.33476,1.18984 1.11685,1.39677 0.86669,1.56402 0.59209,1.68767 0.30118,1.76244 0.001,1.78831 -0.29835,1.76315 -0.58996,1.68839 -0.86456,1.56543 1.10232,9.75012 1.3011,9.7278 1.50307,9.70476 1.70894,9.68209 1.91764,9.65834 2.13059,9.63461 2.34602,9.61051 2.565,9.58571 2.78681,9.56091 3.01004,9.53575 3.23575,9.51023 3.46146,9.48508 3.68823,9.45957 3.91358,9.43441 4.13752,9.4089 4.35969,9.38409 4.5783,9.35965 4.79445,9.33555 5.00634,9.31146 5.21469,9.28807 5.41878,9.26504 5.61933,9.24272 5.81528,9.2211 6.00768,9.19843 6.19582,9.17716 6.38079,9.15945 6.56185,9.13465 6.73973,9.11693 6.91441,9.09567 7.08732,9.07795 7.25705,9.06024 7.42535,9.03897 -3.375,1.12323 -3.25169,1.44567 -3.09791,1.74685 -2.91615,2.0374 -2.70673,2.3067 -2.47252,2.55827 -2.21598,2.78503 -1.93819,2.98347 -1.64268,3.15354 -1.33228,3.29882 -1.00949,3.41221 -0.67713,3.49015 -0.33874,3.54331 0.003,3.55748 0.34441,3.53977 0.68279,3.49015 1.0148,3.41221 1.3376,3.29528 1.648,3.15354 1.94279,2.97992 2.22024,2.77795 2.47677,2.55473 2.71027,2.30315 2.91934,2.03386 3.10074,1.7433 3.25418,1.43859 3.37677,1.11614 3.4689,0.79015 3.52842,0.45355 3.55571,0.10984 3.55004,-0.23031 3.51142,-0.57048 3.4402,-0.90354 3.33779,-1.23307 3.20386,-1.54488 3.04087,-1.84607 2.84952,-2.12952 2.63197,-2.39174 2.38996,-2.63622 2.12563,-2.85236 1.84217,-3.0437 1.54169,-3.20669 1.22634,-3.3378 0.9,-3.44409 0.56551,-3.51142 0.22607,-3.55039 -0.11658,-3.55394 -0.45673,-3.52914 -0.7937,-3.46535 -1.12323,-3.37677 -1.44177,-3.25276 -1.74756,-3.09685 -2.03705,-2.91614 -3.36472,-3.79134 -7.20497,-8.23465 -7.06145,-8.24882 -6.91654,-8.2559 -6.76842,-8.27008 -6.61819,-8.28071 -6.46583,-8.2878 -6.31134,-8.29842 -6.15402,-8.30906 -5.99456,-8.31614 -5.833,-8.32323 -5.66929,-8.33386 -5.50275,-8.34271 -5.3341,-8.3491 -5.16331,-8.35653 -4.98968,-8.36363 -4.81465,-8.37035 -3.60673,-6.49063 -3.49441,-6.49488 -3.38245,-6.49843 -3.27011,-6.50339 -3.15744,-6.5087 -3.04477,-6.51472 -2.93209,-6.52075 -2.81905,-6.52784 -2.70567,-6.53527 -2.59264,-6.54343 -2.4789,-6.55193 -2.36515,-6.56078 -2.25142,-6.57071 -2.13732,-6.58099 -2.02323,-6.59197 -1.90878,-6.60295 -2.27233,-8.4398 -2.09551,-8.46249 -1.92082,-8.48586 -1.74827,-8.5089 -1.57819,-8.53193 -1.40988,-8.55532 -1.2437,-8.57799 -1.07965,-8.60102 -0.91772,-8.62406 -0.75826,-8.64673 -0.60059,-8.66976 -0.44469,-8.6928 -0.29161,-8.71583 -0.14032,-8.7385 0.009,-8.76118 0.15591,-8.78422 0.37063,-10.34008 0.57401,-10.36807 0.0737,-1.13492 -0.0475,-1.13598 -0.18283,-5.11335 -0.11303,-4.94858 -0.0425,-4.76788 0.0287,-4.57076 0.10063,-4.35791 0.17256,-4.1288 0.24626,-3.88361 0.3196,-3.62218 0.27071,-2.37327 0.30614,-2.21489 0.33555,-2.05161 0.3593,-1.8833 0.37736,-1.71007 0.38941,-1.53188 0.39578,-1.34863 0.39579,-1.16048 0.39118,-0.98991 0.36532,-0.809 0.33271,-0.64458 0.29374,-0.49665 0.24839,-0.36522 0.1963,-0.25033 0.13783,-0.15182 0.073,-0.0699 0.88831,-0.65123 0.85358,-0.69637 0.81603,-0.73963 0.66082,-0.12107 0.81284,-0.13316 0.96059,-0.14556 1.10445,-0.15796 1.44248,-0.19605 1.61964,-0.22249 1.78371,-0.2666 1.93606,-0.32835 2.07531,-0.40766 2.20217,-0.5046 2.31626,-0.61923 2.41795,-0.75136 2.12173,-0.76535 2.1554,-0.89239 2.17098,-1.01771 2.16922,-1.14133 2.14901,-1.26326 2.11181,-1.38355 2.05618,-1.50208 1.98319,-1.61898 2.1717,-1.98896 2.05334,-2.10501 1.93855,-2.21216 1.82586,-2.31041 1.71673,-2.39981 1.60973,-2.48017 1.50626,-2.55179 1.40563,-2.61453 1.71355,-3.54083 1.57216,-3.6528 1.44284,-3.76724 1.32626,-3.88453 1.1335,-3.51531 -2.95583,24.46246 8.85969,0 10.82728,-5.94656 10.8163,-5.61047 10.80532,-5.27209 10.79468,-4.9298 5.39327,-2.33469 5.39043,-2.24716 5.3876,-2.15823 5.38477,-2.06893 5.38193,-1.97823 5.37909,-1.88646 5.37591,-1.79362 5.37307,-1.69937 5.37024,-1.60441 5.36669,-1.50768 5.36386,-1.40953 5.36067,-1.31102 5.35748,-1.21004 5.35429,-1.1087 5.3511,-1.00524 5.34756,-0.90141 5.34437,-0.79619 5.34101,-0.68952 5.33756,-0.58217 5.3341,-0.47338 5.33062,-0.36461 5.32715,-0.25441 5.32364,-0.14421 5.32006,-0.0337 5.3201,0.0337 5.32365,0.14421 5.32715,0.25441 5.33062,0.36461 5.33409,0.47338 5.33757,0.58217 5.34076,0.68952 5.34437,0.79619 5.34791,0.90141 5.35075,1.00524 5.35429,1.1087 5.35748,1.21004 5.36103,1.31102 5.3635,1.40953 5.36705,1.50768 5.37023,1.60441 5.37272,1.69937 5.37626,1.79362 5.37874,1.88646 5.38193,1.97823 5.38477,2.06893 5.38759,2.15823 5.39044,2.24716 5.39327,2.33469 10.79468,4.9298 10.80567,5.27209 10.8163,5.61047 10.82693,5.94656 8.85969,0 -2.95583,-24.46246 1.13386,3.51531 1.3259,3.88453 1.44319,3.76724 1.57217,3.6528 1.71354,3.54083 1.40528,2.61453 1.50626,2.55179 1.61008,2.48017 1.71673,2.39981 1.82586,2.31041 1.93819,2.21216 2.0537,2.10501 2.17134,1.98896 1.98319,1.61898 2.05654,1.50208 2.11181,1.38355 2.14901,1.26326 2.16922,1.14133 2.17098,1.01771 2.1554,0.89239 2.12173,0.76535 2.41795,0.75136 2.31626,0.61923 2.20217,0.5046 2.07531,0.40766 1.93606,0.32835 1.78371,0.2666 1.61964,0.22249 1.44213,0.19605 1.1048,0.15796 0.96059,0.14556 0.81284,0.13316 0.66082,0.12107 0.81603,0.73963 0.85358,0.69637 0.88831,0.65123 0.073,0.0699 0.13783,0.15182 0.1963,0.25033 0.24839,0.36522 0.29374,0.49665 0.33271,0.64458 0.36497,0.809 0.39118,0.98991 0.39614,1.16048 0.39543,1.34863 0.38941,1.53188 0.37736,1.71007 0.35965,1.8833 0.33555,2.05161 0.30614,2.21489 0.27036,2.37327 0.31996,3.62218 0.2459,3.88361 0.17292,4.1288 0.10063,4.35791 0.0283,4.57076 -0.0425,4.76788 -0.11268,4.94858 -0.18283,5.11335 -0.0478,1.13598 0.074,1.13492 0.57402,10.36807 0.37027,10.34008 0.15591,8.78422 0.009,8.76118 -0.14032,8.7385 -0.29161,8.71583 -0.44504,8.6928 -0.60059,8.66976 -0.75792,8.64673 -0.91807,8.62406 -1.07964,8.60102 -1.2437,8.57799 -1.40989,8.55532 -1.57783,8.53193 -1.74862,8.5089 -1.92083,8.48586 -2.09516,8.46249 -2.27232,8.4398 -1.90878,6.60295 -2.02323,6.59197 -2.13732,6.58099 -2.25142,6.57071 -2.36516,6.56078 -2.47889,6.55193 -2.59264,6.54343 -2.70567,6.53527 -2.81906,6.52784 -2.93208,6.52075 -3.04477,6.51472 -3.15779,6.5087 -3.27012,6.50339 -3.38209,6.49843 -3.49476,6.49488 -3.60638,6.49063 -4.81465,8.37035 -4.99004,8.36363 -5.1633,8.35653 -5.3341,8.3491 -5.50275,8.34271 -5.66894,8.33386 -5.83299,8.32323 -5.99493,8.31614 -6.15401,8.30906 -6.31099,8.29842 -6.46582,8.2878 -6.61855,8.28071 -6.76842,8.27008 -6.91618,8.2559 -7.06182,8.24882 -7.2046,8.23465 -3.36508,3.79134 -2.0367,2.91614 -1.74755,3.09685 -1.44213,3.25276 -1.12287,3.37677 -0.79371,3.46535 -0.45708,3.52914 -0.11622,3.55394 0.22571,3.55039 0.56551,3.51142 0.90035,3.44409 1.22634,3.3378 1.54134,3.20669 1.84217,3.0437 2.12598,2.85236 2.38996,2.63622 2.63161,2.39174 2.84953,2.12952 3.04087,1.84607 3.20421,1.54488 3.33744,1.23307 3.44055,0.90354 3.51142,0.57048 3.55004,0.23031 z"
       id="path4140" />
    <path
       style="fill:#000000;stroke:#000000;stroke-width:0.00354331;stroke-miterlimit:4;stroke-dasharray:none;fill-opacity:0.19607843"
       d="m 381.53944,274.82082 -0.93216,-0.24945 -0.87463,-0.40783 -0.79051,-0.55382 -0.68243,-0.68244 -0.55353,-0.79051 -0.40787,-0.87449 -0.24973,-0.93225 -0.0842,-0.96129 0.0842,-0.9613 0.24973,-0.93225 0.40787,-0.87484 0.55353,-0.79051 0.68243,-0.68244 0.79051,-0.55347 0.87463,-0.40783 0.93216,-0.24981 0.96136,-0.084 0.96141,0.084 0.93216,0.24981 0.87464,0.40783 0.79052,0.55347 0.6824,0.68244 0.55354,0.79051 0.4079,0.87484 0.24974,0.93225 0.0841,0.9613 -0.0841,0.96129 -0.24974,0.93225 -0.4079,0.87449 -0.55354,0.79051 -0.6824,0.68244 -0.79052,0.55382 -0.87464,0.40783 -0.93216,0.24945 -0.96141,0.0843 z"
       id="path4138" />
    <path
       style="fill:#000000;stroke:#000000;stroke-width:0.00354331;stroke-miterlimit:4;stroke-dasharray:none;fill-opacity:0.19607843"
       d="m 268.59134,852.95605 -0.93224,-0.24803 -0.87449,-0.40748 -0.79051,-0.5563 -0.68244,-0.68031 -0.55382,-0.79016 -0.40748,-0.8752 -0.24981,-0.93189 -0.0843,-0.96378 0.0843,-0.96023 0.24981,-0.93189 0.40748,-0.8752 0.55382,-0.79016 0.68244,-0.68386 0.79051,-0.55275 0.87449,-0.40748 0.93224,-0.24803 0.9613,-0.085 0.9613,0.085 0.93224,0.24803 0.87485,0.40748 0.79051,0.55275 0.68244,0.68386 0.55346,0.79016 0.40784,0.8752 0.2498,0.93189 0.084,0.96023 -0.084,0.96378 -0.2498,0.93189 -0.40784,0.8752 -0.55346,0.79016 -0.68244,0.68031 -0.79051,0.5563 -0.87485,0.40748 -0.93224,0.24803 -0.9613,0.085 z"
       id="path4136" />
    <path
       style="fill:#000000;stroke:#000000;stroke-width:0.00354331;stroke-miterlimit:4;stroke-dasharray:none;fill-opacity:0.19607843"
       d="m 494.48746,852.95605 -0.93189,-0.24803 -0.87484,-0.40748 -0.79052,-0.5563 -0.68244,-0.68031 -0.55346,-0.79016 -0.40784,-0.8752 -0.2498,-0.93189 -0.0843,-0.96378 0.0843,-0.96023 0.2498,-0.93189 0.40784,-0.8752 0.55346,-0.79016 0.68244,-0.68386 0.79052,-0.55275 0.87484,-0.40748 0.93189,-0.24803 0.9613,-0.085 0.96165,0.085 0.93224,0.24803 0.87449,0.40748 0.79052,0.55275 0.68244,0.68386 0.55346,0.79016 0.40784,0.8752 0.2498,0.93189 0.0843,0.96023 -0.0843,0.96378 -0.2498,0.93189 -0.40784,0.8752 -0.55346,0.79016 -0.68244,0.68031 -0.79052,0.5563 -0.87449,0.40748 -0.93224,0.24803 -0.96165,0.085 z"
       id="path6" />
  </g>
</svg>
