  0
SECTION
  2
HEADER
  9
$ACADVER
  1
AC1014
  9
$HANDSEED
  5
FFFF
  9
$MEASUREMENT
 70
     1
  0
ENDSEC
  0
SECTION
  2
TABLES
  0
TABLE
  2
VPORT
  5
8
330
0
100
AcDbSymbolTable
 70
     4
  0
VPORT
  5
2E
330
8
100
AcDbSymbolTableRecord
100
AcDbViewportTableRecord
  2
*ACTIVE
 70
     0
 10
0.0
 20
0.0
 11
1.0
 21
1.0
 12
210.0
 22
148.5
 13
0.0
 23
0.0
 14
10.0
 24
10.0
 15
10.0
 25
10.0
 16
0.0
 26
0.0
 36
1.0
 17
0.0
 27
0.0
 37
0.0
 40
341.0
 41
1.24
 42
50.0
 43
0.0
 44
0.0
 50
0.0
 51
0.0
 71
     0
 72
   100
 73
     1
 74
     3
 75
     0
 76
     0
 77
     0
 78
     0
  0
ENDTAB
  0
TABLE
  2
LTYPE
  5
5
330
0
100
AcDbSymbolTable
 70
     1
  0
LTYPE
  5
14
330
5
100
AcDbSymbolTableRecord
100
AcDbLinetypeTableRecord
  2
BYBLOCK
 70
     0
  3

 72
    65
 73
     0
 40
0.0
  0
LTYPE
  5
15
330
5
100
AcDbSymbolTableRecord
100
AcDbLinetypeTableRecord
  2
BYLAYER
 70
     0
  3

 72
    65
 73
     0
 40
0.0
  0
LTYPE
  5
16
330
5
100
AcDbSymbolTableRecord
100
AcDbLinetypeTableRecord
  2
CONTINUOUS
 70
     0
  3
Solid line
 72
    65
 73
     0
 40
0.0
  0
ENDTAB
  0
TABLE
  2
LAYER
  5
2
100
AcDbSymbolTable
 70
2
  0
LAYER
  5
50
100
AcDbSymbolTableRecord
100
AcDbLayerTableRecord
  2
0
 70
0
  6
CONTINUOUS
  0
LAYER
  5
51
100
AcDbSymbolTableRecord
100
AcDbLayerTableRecord
  2
Layer_1
 70
0
  6
CONTINUOUS
  0
ENDTAB
  0
TABLE
  2
STYLE
  5
3
330
0
100
AcDbSymbolTable
 70
     1
  0
STYLE
  5
11
330
3
100
AcDbSymbolTableRecord
100
AcDbTextStyleTableRecord
  2
STANDARD
 70
     0
 40
0.0
 41
1.0
 50
0.0
 71
     0
 42
2.5
  3
txt
  4

  0
ENDTAB
  0
TABLE
  2
VIEW
  5
6
330
0
100
AcDbSymbolTable
 70
     0
  0
ENDTAB
  0
TABLE
  2
UCS
  5
7
330
0
100
AcDbSymbolTable
 70
     0
  0
ENDTAB
  0
TABLE
  2
APPID
  5
9
330
0
100
AcDbSymbolTable
 70
     2
  0
APPID
  5
12
330
9
100
AcDbSymbolTableRecord
100
AcDbRegAppTableRecord
  2
ACAD
 70
     0
  0
ENDTAB
  0
TABLE
  2
DIMSTYLE
  5
A
330
0
100
AcDbSymbolTable
 70
     1
  0
DIMSTYLE
105
27
330
A
100
AcDbSymbolTableRecord
100
AcDbDimStyleTableRecord
  2
ISO-25
 70
     0
  3

  4

  5

  6

  7

 40
1.0
 41
2.5
 42
0.625
 43
3.75
 44
1.25
 45
0.0
 46
0.0
 47
0.0
 48
0.0
140
2.5
141
2.5
142
0.0
143
0.03937007874016
144
1.0
145
0.0
146
1.0
147
0.625
 71
     0
 72
     0
 73
     0
 74
     0
 75
     0
 76
     0
 77
     1
 78
     8
170
     0
171
     3
172
     1
173
     0
174
     0
175
     0
176
     0
177
     0
178
     0
270
     2
271
     2
272
     2
273
     2
274
     3
340
11
275
     0
280
     0
281
     0
282
     0
283
     0
284
     8
285
     0
286
     0
287
     3
288
     0
  0
ENDTAB
  0
TABLE
  2
BLOCK_RECORD
  5
1
330
0
100
AcDbSymbolTable
 70
     1
  0
BLOCK_RECORD
  5
1F
330
1
100
AcDbSymbolTableRecord
100
AcDbBlockTableRecord
  2
*MODEL_SPACE
  0
BLOCK_RECORD
  5
1B
330
1
100
AcDbSymbolTableRecord
100
AcDbBlockTableRecord
  2
*PAPER_SPACE
  0
ENDTAB
  0
ENDSEC
  0
SECTION
  2
BLOCKS
  0
BLOCK
  5
20
330
1F
100
AcDbEntity
  8
0
100
AcDbBlockBegin
  2
*MODEL_SPACE
 70
     0
 10
0.0
 20
0.0
 30
0.0
  3
*MODEL_SPACE
  1

  0
ENDBLK
  5
21
330
1F
100
AcDbEntity
  8
0
100
AcDbBlockEnd
  0
BLOCK
  5
1C
330
1B
100
AcDbEntity
 67
     1
  8
0
100
AcDbBlockBegin
  2
*PAPER_SPACE
  1

  0
ENDBLK
  5
1D
330
1B
100
AcDbEntity
 67
     1
  8
0
100
AcDbBlockEnd
  0
ENDSEC
  0
SECTION
  2
ENTITIES
  0
LINE
  5
100
100
AcDbEntity
  8
Layer_1
 62
7
100
AcDbLine
 10
5.537612
 20
1.866293
 30
0.0
 11
5.576821
 21
1.871332
 31
0.0
  0
LINE
  5
101
100
AcDbEntity
  8
Layer_1
 62
7
100
AcDbLine
 10
5.576821
 20
1.871332
 30
0.0
 11
5.615360
 21
1.880112
 31
0.0
  0
LINE
  5
102
100
AcDbEntity
  8
Layer_1
 62
7
100
AcDbLine
 10
5.615360
 20
1.880112
 30
0.0
 11
5.652884
 21
1.892513
 31
0.0
  0
LINE
  5
103
100
AcDbEntity
  8
Layer_1
 62
7
100
AcDbLine
 10
5.652884
 20
1.892513
 30
0.0
 11
5.689037
 21
1.908498
 31
0.0
  0
LINE
  5
104
100
AcDbEntity
  8
Layer_1
 62
7
100
AcDbLine
 10
5.689037
 20
1.908498
 30
0.0
 11
5.723494
 21
1.927868
 31
0.0
  0
LINE
  5
105
100
AcDbEntity
  8
Layer_1
 62
7
100
AcDbLine
 10
5.723494
 20
1.927868
 30
0.0
 11
5.755927
 21
1.950466
 31
0.0
  0
LINE
  5
106
100
AcDbEntity
  8
Layer_1
 62
7
100
AcDbLine
 10
5.755927
 20
1.950466
 30
0.0
 11
5.786045
 21
1.976057
 31
0.0
  0
LINE
  5
107
100
AcDbEntity
  8
Layer_1
 62
7
100
AcDbLine
 10
5.786045
 20
1.976057
 30
0.0
 11
5.813565
 21
2.004442
 31
0.0
  0
LINE
  5
108
100
AcDbEntity
  8
Layer_1
 62
7
100
AcDbLine
 10
5.813565
 20
2.004442
 30
0.0
 11
5.838230
 21
2.035309
 31
0.0
  0
LINE
  5
109
100
AcDbEntity
  8
Layer_1
 62
7
100
AcDbLine
 10
5.838230
 20
2.035309
 30
0.0
 11
5.859821
 21
2.068419
 31
0.0
  0
LINE
  5
10a
100
AcDbEntity
  8
Layer_1
 62
7
100
AcDbLine
 10
5.859821
 20
2.068419
 30
0.0
 11
5.878132
 21
2.103458
 31
0.0
  0
LINE
  5
10b
100
AcDbEntity
  8
Layer_1
 62
7
100
AcDbLine
 10
5.878132
 20
2.103458
 30
0.0
 11
5.892990
 21
2.140072
 31
0.0
  0
LINE
  5
10c
100
AcDbEntity
  8
Layer_1
 62
7
100
AcDbLine
 10
5.892990
 20
2.140072
 30
0.0
 11
5.904270
 21
2.177986
 31
0.0
  0
LINE
  5
10d
100
AcDbEntity
  8
Layer_1
 62
7
100
AcDbLine
 10
5.904270
 20
2.177986
 30
0.0
 11
5.911852
 21
2.216765
 31
0.0
  0
LINE
  5
10e
100
AcDbEntity
  8
Layer_1
 62
7
100
AcDbLine
 10
5.911852
 20
2.216765
 30
0.0
 11
5.915683
 21
2.256096
 31
0.0
  0
LINE
  5
10f
100
AcDbEntity
  8
Layer_1
 62
7
100
AcDbLine
 10
5.915683
 20
2.256096
 30
0.0
 11
5.915705
 21
2.295624
 31
0.0
  0
LINE
  5
110
100
AcDbEntity
  8
Layer_1
 62
7
100
AcDbLine
 10
5.915705
 20
2.295624
 30
0.0
 11
5.911945
 21
2.334994
 31
0.0
  0
LINE
  5
111
100
AcDbEntity
  8
Layer_1
 62
7
100
AcDbLine
 10
5.911945
 20
2.334994
 30
0.0
 11
5.904418
 21
2.373773
 31
0.0
  0
LINE
  5
112
100
AcDbEntity
  8
Layer_1
 62
7
100
AcDbLine
 10
5.904418
 20
2.373773
 30
0.0
 11
5.893205
 21
2.411687
 31
0.0
  0
LINE
  5
113
100
AcDbEntity
  8
Layer_1
 62
7
100
AcDbLine
 10
5.893205
 20
2.411687
 30
0.0
 11
5.878402
 21
2.448340
 31
0.0
  0
LINE
  5
114
100
AcDbEntity
  8
Layer_1
 62
7
100
AcDbLine
 10
5.878402
 20
2.448340
 30
0.0
 11
5.860146
 21
2.483379
 31
0.0
  0
LINE
  5
115
100
AcDbEntity
  8
Layer_1
 62
7
100
AcDbLine
 10
5.860146
 20
2.483379
 30
0.0
 11
5.838611
 21
2.516529
 31
0.0
  0
LINE
  5
116
100
AcDbEntity
  8
Layer_1
 62
7
100
AcDbLine
 10
5.838611
 20
2.516529
 30
0.0
 11
5.813993
 21
2.547474
 31
0.0
  0
LINE
  5
117
100
AcDbEntity
  8
Layer_1
 62
7
100
AcDbLine
 10
5.813993
 20
2.547474
 30
0.0
 11
5.786520
 21
2.575899
 31
0.0
  0
LINE
  5
118
100
AcDbEntity
  8
Layer_1
 62
7
100
AcDbLine
 10
5.786520
 20
2.575899
 30
0.0
 11
5.756445
 21
2.601529
 31
0.0
  0
LINE
  5
119
100
AcDbEntity
  8
Layer_1
 62
7
100
AcDbLine
 10
5.756445
 20
2.601529
 30
0.0
 11
5.724044
 21
2.624167
 31
0.0
  0
LINE
  5
11a
100
AcDbEntity
  8
Layer_1
 62
7
100
AcDbLine
 10
5.724044
 20
2.624167
 30
0.0
 11
5.689623
 21
2.643576
 31
0.0
  0
LINE
  5
11b
100
AcDbEntity
  8
Layer_1
 62
7
100
AcDbLine
 10
5.689623
 20
2.643576
 30
0.0
 11
5.653493
 21
2.659639
 31
0.0
  0
LINE
  5
11c
100
AcDbEntity
  8
Layer_1
 62
7
100
AcDbLine
 10
5.653493
 20
2.659639
 30
0.0
 11
5.615989
 21
2.672120
 31
0.0
  0
LINE
  5
11d
100
AcDbEntity
  8
Layer_1
 62
7
100
AcDbLine
 10
5.615989
 20
2.672120
 30
0.0
 11
5.698497
 21
2.772553
 31
0.0
  0
LINE
  5
11e
100
AcDbEntity
  8
Layer_1
 62
7
100
AcDbLine
 10
5.698497
 20
2.772553
 30
0.0
 11
5.779130
 21
2.873222
 31
0.0
  0
LINE
  5
11f
100
AcDbEntity
  8
Layer_1
 62
7
100
AcDbLine
 10
5.779130
 20
2.873222
 30
0.0
 11
5.857875
 21
2.974088
 31
0.0
  0
LINE
  5
120
100
AcDbEntity
  8
Layer_1
 62
7
100
AcDbLine
 10
5.857875
 20
2.974088
 30
0.0
 11
5.934705
 21
3.075151
 31
0.0
  0
LINE
  5
121
100
AcDbEntity
  8
Layer_1
 62
7
100
AcDbLine
 10
5.934705
 20
3.075151
 30
0.0
 11
6.009591
 21
3.176450
 31
0.0
  0
LINE
  5
122
100
AcDbEntity
  8
Layer_1
 62
7
100
AcDbLine
 10
6.009591
 20
3.176450
 30
0.0
 11
6.082501
 21
3.277946
 31
0.0
  0
LINE
  5
123
100
AcDbEntity
  8
Layer_1
 62
7
100
AcDbLine
 10
6.082501
 20
3.277946
 30
0.0
 11
6.153394
 21
3.379718
 31
0.0
  0
LINE
  5
124
100
AcDbEntity
  8
Layer_1
 62
7
100
AcDbLine
 10
6.153394
 20
3.379718
 30
0.0
 11
6.222241
 21
3.481687
 31
0.0
  0
LINE
  5
125
100
AcDbEntity
  8
Layer_1
 62
7
100
AcDbLine
 10
6.222241
 20
3.481687
 30
0.0
 11
6.288993
 21
3.583891
 31
0.0
  0
LINE
  5
126
100
AcDbEntity
  8
Layer_1
 62
7
100
AcDbLine
 10
6.288993
 20
3.583891
 30
0.0
 11
6.353607
 21
3.686348
 31
0.0
  0
LINE
  5
127
100
AcDbEntity
  8
Layer_1
 62
7
100
AcDbLine
 10
6.353607
 20
3.686348
 30
0.0
 11
6.416044
 21
3.789045
 31
0.0
  0
LINE
  5
128
100
AcDbEntity
  8
Layer_1
 62
7
100
AcDbLine
 10
6.416044
 20
3.789045
 30
0.0
 11
6.476253
 21
3.891990
 31
0.0
  0
LINE
  5
129
100
AcDbEntity
  8
Layer_1
 62
7
100
AcDbLine
 10
6.476253
 20
3.891990
 30
0.0
 11
6.534194
 21
3.995191
 31
0.0
  0
LINE
  5
12a
100
AcDbEntity
  8
Layer_1
 62
7
100
AcDbLine
 10
6.534194
 20
3.995191
 30
0.0
 11
6.589820
 21
4.098651
 31
0.0
  0
LINE
  5
12b
100
AcDbEntity
  8
Layer_1
 62
7
100
AcDbLine
 10
6.589820
 20
4.098651
 30
0.0
 11
6.643091
 21
4.202380
 31
0.0
  0
LINE
  5
12c
100
AcDbEntity
  8
Layer_1
 62
7
100
AcDbLine
 10
6.643091
 20
4.202380
 30
0.0
 11
6.693961
 21
4.306376
 31
0.0
  0
LINE
  5
12d
100
AcDbEntity
  8
Layer_1
 62
7
100
AcDbLine
 10
6.693961
 20
4.306376
 30
0.0
 11
6.742402
 21
4.410643
 31
0.0
  0
LINE
  5
12e
100
AcDbEntity
  8
Layer_1
 62
7
100
AcDbLine
 10
6.742402
 20
4.410643
 30
0.0
 11
6.788375
 21
4.515187
 31
0.0
  0
LINE
  5
12f
100
AcDbEntity
  8
Layer_1
 62
7
100
AcDbLine
 10
6.788375
 20
4.515187
 30
0.0
 11
6.831859
 21
4.620013
 31
0.0
  0
LINE
  5
130
100
AcDbEntity
  8
Layer_1
 62
7
100
AcDbLine
 10
6.831859
 20
4.620013
 30
0.0
 11
6.872835
 21
4.725120
 31
0.0
  0
LINE
  5
131
100
AcDbEntity
  8
Layer_1
 62
7
100
AcDbLine
 10
6.872835
 20
4.725120
 30
0.0
 11
6.911300
 21
4.830510
 31
0.0
  0
LINE
  5
132
100
AcDbEntity
  8
Layer_1
 62
7
100
AcDbLine
 10
6.911300
 20
4.830510
 30
0.0
 11
6.947249
 21
4.936179
 31
0.0
  0
LINE
  5
133
100
AcDbEntity
  8
Layer_1
 62
7
100
AcDbLine
 10
6.947249
 20
4.936179
 30
0.0
 11
6.980697
 21
5.042132
 31
0.0
  0
LINE
  5
134
100
AcDbEntity
  8
Layer_1
 62
7
100
AcDbLine
 10
6.980697
 20
5.042132
 30
0.0
 11
7.011662
 21
5.148364
 31
0.0
  0
LINE
  5
135
100
AcDbEntity
  8
Layer_1
 62
7
100
AcDbLine
 10
7.011662
 20
5.148364
 30
0.0
 11
7.040162
 21
5.254872
 31
0.0
  0
LINE
  5
136
100
AcDbEntity
  8
Layer_1
 62
7
100
AcDbLine
 10
7.040162
 20
5.254872
 30
0.0
 11
7.066229
 21
5.361655
 31
0.0
  0
LINE
  5
137
100
AcDbEntity
  8
Layer_1
 62
7
100
AcDbLine
 10
7.066229
 20
5.361655
 30
0.0
 11
7.089902
 21
5.468706
 31
0.0
  0
LINE
  5
138
100
AcDbEntity
  8
Layer_1
 62
7
100
AcDbLine
 10
7.089902
 20
5.468706
 30
0.0
 11
7.111209
 21
5.576021
 31
0.0
  0
LINE
  5
139
100
AcDbEntity
  8
Layer_1
 62
7
100
AcDbLine
 10
7.111209
 20
5.576021
 30
0.0
 11
7.130197
 21
5.683600
 31
0.0
  0
LINE
  5
13a
100
AcDbEntity
  8
Layer_1
 62
7
100
AcDbLine
 10
7.130197
 20
5.683600
 30
0.0
 11
7.146898
 21
5.791431
 31
0.0
  0
LINE
  5
13b
100
AcDbEntity
  8
Layer_1
 62
7
100
AcDbLine
 10
7.146898
 20
5.791431
 30
0.0
 11
7.161355
 21
5.899517
 31
0.0
  0
LINE
  5
13c
100
AcDbEntity
  8
Layer_1
 62
7
100
AcDbLine
 10
7.161355
 20
5.899517
 30
0.0
 11
7.173599
 21
6.007852
 31
0.0
  0
LINE
  5
13d
100
AcDbEntity
  8
Layer_1
 62
7
100
AcDbLine
 10
7.173599
 20
6.007852
 30
0.0
 11
7.163997
 21
6.025246
 31
0.0
  0
LINE
  5
13e
100
AcDbEntity
  8
Layer_1
 62
7
100
AcDbLine
 10
7.163997
 20
6.025246
 30
0.0
 11
7.157442
 21
6.044006
 31
0.0
  0
LINE
  5
13f
100
AcDbEntity
  8
Layer_1
 62
7
100
AcDbLine
 10
7.157442
 20
6.044006
 30
0.0
 11
7.154123
 21
6.063596
 31
0.0
  0
LINE
  5
140
100
AcDbEntity
  8
Layer_1
 62
7
100
AcDbLine
 10
7.154123
 20
6.063596
 30
0.0
 11
7.154134
 21
6.083466
 31
0.0
  0
LINE
  5
141
100
AcDbEntity
  8
Layer_1
 62
7
100
AcDbLine
 10
7.154134
 20
6.083466
 30
0.0
 11
7.157476
 21
6.103049
 31
0.0
  0
LINE
  5
142
100
AcDbEntity
  8
Layer_1
 62
7
100
AcDbLine
 10
7.157476
 20
6.103049
 30
0.0
 11
7.164059
 21
6.121801
 31
0.0
  0
LINE
  5
143
100
AcDbEntity
  8
Layer_1
 62
7
100
AcDbLine
 10
7.164059
 20
6.121801
 30
0.0
 11
7.173689
 21
6.139179
 31
0.0
  0
LINE
  5
144
100
AcDbEntity
  8
Layer_1
 62
7
100
AcDbLine
 10
7.173689
 20
6.139179
 30
0.0
 11
7.186094
 21
6.154699
 31
0.0
  0
LINE
  5
145
100
AcDbEntity
  8
Layer_1
 62
7
100
AcDbLine
 10
7.186094
 20
6.154699
 30
0.0
 11
7.200929
 21
6.167919
 31
0.0
  0
LINE
  5
146
100
AcDbEntity
  8
Layer_1
 62
7
100
AcDbLine
 10
7.200929
 20
6.167919
 30
0.0
 11
7.217768
 21
6.178466
 31
0.0
  0
LINE
  5
147
100
AcDbEntity
  8
Layer_1
 62
7
100
AcDbLine
 10
7.217768
 20
6.178466
 30
0.0
 11
7.236138
 21
6.186041
 31
0.0
  0
LINE
  5
148
100
AcDbEntity
  8
Layer_1
 62
7
100
AcDbLine
 10
7.236138
 20
6.186041
 30
0.0
 11
7.255516
 21
6.190427
 31
0.0
  0
LINE
  5
149
100
AcDbEntity
  8
Layer_1
 62
7
100
AcDbLine
 10
7.255516
 20
6.190427
 30
0.0
 11
7.275358
 21
6.191506
 31
0.0
  0
LINE
  5
14a
100
AcDbEntity
  8
Layer_1
 62
7
100
AcDbLine
 10
7.275358
 20
6.191506
 30
0.0
 11
7.295098
 21
6.189242
 31
0.0
  0
LINE
  5
14b
100
AcDbEntity
  8
Layer_1
 62
7
100
AcDbLine
 10
7.295098
 20
6.189242
 30
0.0
 11
7.314181
 21
6.183699
 31
0.0
  0
LINE
  5
14c
100
AcDbEntity
  8
Layer_1
 62
7
100
AcDbLine
 10
7.314181
 20
6.183699
 30
0.0
 11
7.332063
 21
6.175037
 31
0.0
  0
LINE
  5
14d
100
AcDbEntity
  8
Layer_1
 62
7
100
AcDbLine
 10
7.332063
 20
6.175037
 30
0.0
 11
7.348240
 21
6.163502
 31
0.0
  0
LINE
  5
14e
100
AcDbEntity
  8
Layer_1
 62
7
100
AcDbLine
 10
7.348240
 20
6.163502
 30
0.0
 11
7.362256
 21
6.149415
 31
0.0
  0
LINE
  5
14f
100
AcDbEntity
  8
Layer_1
 62
7
100
AcDbLine
 10
7.362256
 20
6.149415
 30
0.0
 11
7.373709
 21
6.133179
 31
0.0
  0
LINE
  5
150
100
AcDbEntity
  8
Layer_1
 62
7
100
AcDbLine
 10
7.373709
 20
6.133179
 30
0.0
 11
7.382279
 21
6.115254
 31
0.0
  0
LINE
  5
151
100
AcDbEntity
  8
Layer_1
 62
7
100
AcDbLine
 10
7.382279
 20
6.115254
 30
0.0
 11
7.387728
 21
6.096144
 31
0.0
  0
LINE
  5
152
100
AcDbEntity
  8
Layer_1
 62
7
100
AcDbLine
 10
7.387728
 20
6.096144
 30
0.0
 11
7.403087
 21
6.108876
 31
0.0
  0
LINE
  5
153
100
AcDbEntity
  8
Layer_1
 62
7
100
AcDbLine
 10
7.403087
 20
6.108876
 30
0.0
 11
7.416228
 21
6.123888
 31
0.0
  0
LINE
  5
154
100
AcDbEntity
  8
Layer_1
 62
7
100
AcDbLine
 10
7.416228
 20
6.123888
 30
0.0
 11
7.426811
 21
6.140801
 31
0.0
  0
LINE
  5
155
100
AcDbEntity
  8
Layer_1
 62
7
100
AcDbLine
 10
7.426811
 20
6.140801
 30
0.0
 11
7.434571
 21
6.159179
 31
0.0
  0
LINE
  5
156
100
AcDbEntity
  8
Layer_1
 62
7
100
AcDbLine
 10
7.434571
 20
6.159179
 30
0.0
 11
7.439307
 21
6.178561
 31
0.0
  0
LINE
  5
157
100
AcDbEntity
  8
Layer_1
 62
7
100
AcDbLine
 10
7.439307
 20
6.178561
 30
0.0
 11
7.440898
 21
6.198447
 31
0.0
  0
LINE
  5
158
100
AcDbEntity
  8
Layer_1
 62
7
100
AcDbLine
 10
7.440898
 20
6.198447
 30
0.0
 11
7.440898
 21
6.265061
 31
0.0
  0
LINE
  5
159
100
AcDbEntity
  8
Layer_1
 62
7
100
AcDbLine
 10
7.440898
 20
6.265061
 30
0.0
 11
7.439417
 21
6.284234
 31
0.0
  0
LINE
  5
15a
100
AcDbEntity
  8
Layer_1
 62
7
100
AcDbLine
 10
7.439417
 20
6.284234
 30
0.0
 11
7.435016
 21
6.302951
 31
0.0
  0
LINE
  5
15b
100
AcDbEntity
  8
Layer_1
 62
7
100
AcDbLine
 10
7.435016
 20
6.302951
 30
0.0
 11
7.427795
 21
6.320773
 31
0.0
  0
LINE
  5
15c
100
AcDbEntity
  8
Layer_1
 62
7
100
AcDbLine
 10
7.427795
 20
6.320773
 30
0.0
 11
7.417925
 21
6.337277
 31
0.0
  0
LINE
  5
15d
100
AcDbEntity
  8
Layer_1
 62
7
100
AcDbLine
 10
7.417925
 20
6.337277
 30
0.0
 11
7.405638
 21
6.352073
 31
0.0
  0
LINE
  5
15e
100
AcDbEntity
  8
Layer_1
 62
7
100
AcDbLine
 10
7.405638
 20
6.352073
 30
0.0
 11
7.391228
 21
6.364809
 31
0.0
  0
LINE
  5
15f
100
AcDbEntity
  8
Layer_1
 62
7
100
AcDbLine
 10
7.391228
 20
6.364809
 30
0.0
 11
7.385130
 21
6.345246
 31
0.0
  0
LINE
  5
160
100
AcDbEntity
  8
Layer_1
 62
7
100
AcDbLine
 10
7.385130
 20
6.345246
 30
0.0
 11
7.375736
 21
6.327033
 31
0.0
  0
LINE
  5
161
100
AcDbEntity
  8
Layer_1
 62
7
100
AcDbLine
 10
7.375736
 20
6.327033
 30
0.0
 11
7.363339
 21
6.310714
 31
0.0
  0
LINE
  5
162
100
AcDbEntity
  8
Layer_1
 62
7
100
AcDbLine
 10
7.363339
 20
6.310714
 30
0.0
 11
7.348307
 21
6.296785
 31
0.0
  0
LINE
  5
163
100
AcDbEntity
  8
Layer_1
 62
7
100
AcDbLine
 10
7.348307
 20
6.296785
 30
0.0
 11
7.331094
 21
6.285667
 31
0.0
  0
LINE
  5
164
100
AcDbEntity
  8
Layer_1
 62
7
100
AcDbLine
 10
7.331094
 20
6.285667
 30
0.0
 11
7.312220
 21
6.277687
 31
0.0
  0
LINE
  5
165
100
AcDbEntity
  8
Layer_1
 62
7
100
AcDbLine
 10
7.312220
 20
6.277687
 30
0.0
 11
7.292248
 21
6.273092
 31
0.0
  0
LINE
  5
166
100
AcDbEntity
  8
Layer_1
 62
7
100
AcDbLine
 10
7.292248
 20
6.273092
 30
0.0
 11
7.271783
 21
6.272018
 31
0.0
  0
LINE
  5
167
100
AcDbEntity
  8
Layer_1
 62
7
100
AcDbLine
 10
7.271783
 20
6.272018
 30
0.0
 11
7.251441
 21
6.274498
 31
0.0
  0
LINE
  5
168
100
AcDbEntity
  8
Layer_1
 62
7
100
AcDbLine
 10
7.251441
 20
6.274498
 30
0.0
 11
7.231835
 21
6.280455
 31
0.0
  0
LINE
  5
169
100
AcDbEntity
  8
Layer_1
 62
7
100
AcDbLine
 10
7.231835
 20
6.280455
 30
0.0
 11
7.213551
 21
6.289715
 31
0.0
  0
LINE
  5
16a
100
AcDbEntity
  8
Layer_1
 62
7
100
AcDbLine
 10
7.213551
 20
6.289715
 30
0.0
 11
7.197146
 21
6.301994
 31
0.0
  0
LINE
  5
16b
100
AcDbEntity
  8
Layer_1
 62
7
100
AcDbLine
 10
7.197146
 20
6.301994
 30
0.0
 11
7.183106
 21
6.316923
 31
0.0
  0
LINE
  5
16c
100
AcDbEntity
  8
Layer_1
 62
7
100
AcDbLine
 10
7.183106
 20
6.316923
 30
0.0
 11
7.171862
 21
6.334053
 31
0.0
  0
LINE
  5
16d
100
AcDbEntity
  8
Layer_1
 62
7
100
AcDbLine
 10
7.171862
 20
6.334053
 30
0.0
 11
7.163748
 21
6.352872
 31
0.0
  0
LINE
  5
16e
100
AcDbEntity
  8
Layer_1
 62
7
100
AcDbLine
 10
7.163748
 20
6.352872
 30
0.0
 11
7.159008
 21
6.372809
 31
0.0
  0
LINE
  5
16f
100
AcDbEntity
  8
Layer_1
 62
7
100
AcDbLine
 10
7.159008
 20
6.372809
 30
0.0
 11
7.157783
 21
6.393262
 31
0.0
  0
LINE
  5
170
100
AcDbEntity
  8
Layer_1
 62
7
100
AcDbLine
 10
7.157783
 20
6.393262
 30
0.0
 11
7.160114
 21
6.413624
 31
0.0
  0
LINE
  5
171
100
AcDbEntity
  8
Layer_1
 62
7
100
AcDbLine
 10
7.160114
 20
6.413624
 30
0.0
 11
7.165929
 21
6.433274
 31
0.0
  0
LINE
  5
172
100
AcDbEntity
  8
Layer_1
 62
7
100
AcDbLine
 10
7.165929
 20
6.433274
 30
0.0
 11
7.175055
 21
6.451624
 31
0.0
  0
LINE
  5
173
100
AcDbEntity
  8
Layer_1
 62
7
100
AcDbLine
 10
7.175055
 20
6.451624
 30
0.0
 11
7.187213
 21
6.468120
 31
0.0
  0
LINE
  5
174
100
AcDbEntity
  8
Layer_1
 62
7
100
AcDbLine
 10
7.187213
 20
6.468120
 30
0.0
 11
7.202039
 21
6.482266
 31
0.0
  0
LINE
  5
175
100
AcDbEntity
  8
Layer_1
 62
7
100
AcDbLine
 10
7.202039
 20
6.482266
 30
0.0
 11
7.202996
 21
6.607632
 31
0.0
  0
LINE
  5
176
100
AcDbEntity
  8
Layer_1
 62
7
100
AcDbLine
 10
7.202996
 20
6.607632
 30
0.0
 11
7.201311
 21
6.733294
 31
0.0
  0
LINE
  5
177
100
AcDbEntity
  8
Layer_1
 62
7
100
AcDbLine
 10
7.201311
 20
6.733294
 30
0.0
 11
7.197000
 21
6.859250
 31
0.0
  0
LINE
  5
178
100
AcDbEntity
  8
Layer_1
 62
7
100
AcDbLine
 10
7.197000
 20
6.859250
 30
0.0
 11
7.190075
 21
6.985498
 31
0.0
  0
LINE
  5
179
100
AcDbEntity
  8
Layer_1
 62
7
100
AcDbLine
 10
7.190075
 20
6.985498
 30
0.0
 11
7.190248
 21
6.989648
 31
0.0
  0
LINE
  5
17a
100
AcDbEntity
  8
Layer_1
 62
7
100
AcDbLine
 10
7.190248
 20
6.989648
 30
0.0
 11
7.177319
 21
7.004593
 31
0.0
  0
LINE
  5
17b
100
AcDbEntity
  8
Layer_1
 62
7
100
AcDbLine
 10
7.177319
 20
7.004593
 30
0.0
 11
7.167063
 21
7.021483
 31
0.0
  0
LINE
  5
17c
100
AcDbEntity
  8
Layer_1
 62
7
100
AcDbLine
 10
7.167063
 20
7.021483
 30
0.0
 11
7.159764
 21
7.039849
 31
0.0
  0
LINE
  5
17d
100
AcDbEntity
  8
Layer_1
 62
7
100
AcDbLine
 10
7.159764
 20
7.039849
 30
0.0
 11
7.155634
 21
7.059175
 31
0.0
  0
LINE
  5
17e
100
AcDbEntity
  8
Layer_1
 62
7
100
AcDbLine
 10
7.155634
 20
7.059175
 30
0.0
 11
7.154779
 21
7.078920
 31
0.0
  0
LINE
  5
17f
100
AcDbEntity
  8
Layer_1
 62
7
100
AcDbLine
 10
7.154779
 20
7.078920
 30
0.0
 11
7.157232
 21
7.098530
 31
0.0
  0
LINE
  5
180
100
AcDbEntity
  8
Layer_1
 62
7
100
AcDbLine
 10
7.157232
 20
7.098530
 30
0.0
 11
7.162917
 21
7.117455
 31
0.0
  0
LINE
  5
181
100
AcDbEntity
  8
Layer_1
 62
7
100
AcDbLine
 10
7.162917
 20
7.117455
 30
0.0
 11
7.171681
 21
7.135168
 31
0.0
  0
LINE
  5
182
100
AcDbEntity
  8
Layer_1
 62
7
100
AcDbLine
 10
7.171681
 20
7.135168
 30
0.0
 11
7.183275
 21
7.151172
 31
0.0
  0
LINE
  5
183
100
AcDbEntity
  8
Layer_1
 62
7
100
AcDbLine
 10
7.183275
 20
7.151172
 30
0.0
 11
7.197374
 21
7.165018
 31
0.0
  0
LINE
  5
184
100
AcDbEntity
  8
Layer_1
 62
7
100
AcDbLine
 10
7.197374
 20
7.165018
 30
0.0
 11
7.213586
 21
7.176321
 31
0.0
  0
LINE
  5
185
100
AcDbEntity
  8
Layer_1
 62
7
100
AcDbLine
 10
7.213586
 20
7.176321
 30
0.0
 11
7.231456
 21
7.184762
 31
0.0
  0
LINE
  5
186
100
AcDbEntity
  8
Layer_1
 62
7
100
AcDbLine
 10
7.231456
 20
7.184762
 30
0.0
 11
7.250480
 21
7.190106
 31
0.0
  0
LINE
  5
187
100
AcDbEntity
  8
Layer_1
 62
7
100
AcDbLine
 10
7.250480
 20
7.190106
 30
0.0
 11
7.270130
 21
7.192203
 31
0.0
  0
LINE
  5
188
100
AcDbEntity
  8
Layer_1
 62
7
100
AcDbLine
 10
7.270130
 20
7.192203
 30
0.0
 11
7.289858
 21
7.190993
 31
0.0
  0
LINE
  5
189
100
AcDbEntity
  8
Layer_1
 62
7
100
AcDbLine
 10
7.289858
 20
7.190993
 30
0.0
 11
7.309102
 21
7.186512
 31
0.0
  0
LINE
  5
18a
100
AcDbEntity
  8
Layer_1
 62
7
100
AcDbLine
 10
7.309102
 20
7.186512
 30
0.0
 11
7.327334
 21
7.178885
 31
0.0
  0
LINE
  5
18b
100
AcDbEntity
  8
Layer_1
 62
7
100
AcDbLine
 10
7.327334
 20
7.178885
 30
0.0
 11
7.344039
 21
7.168324
 31
0.0
  0
LINE
  5
18c
100
AcDbEntity
  8
Layer_1
 62
7
100
AcDbLine
 10
7.344039
 20
7.168324
 30
0.0
 11
7.358748
 21
7.155128
 31
0.0
  0
LINE
  5
18d
100
AcDbEntity
  8
Layer_1
 62
7
100
AcDbLine
 10
7.358748
 20
7.155128
 30
0.0
 11
7.371051
 21
7.139660
 31
0.0
  0
LINE
  5
18e
100
AcDbEntity
  8
Layer_1
 62
7
100
AcDbLine
 10
7.371051
 20
7.139660
 30
0.0
 11
7.380602
 21
7.122360
 31
0.0
  0
LINE
  5
18f
100
AcDbEntity
  8
Layer_1
 62
7
100
AcDbLine
 10
7.380602
 20
7.122360
 30
0.0
 11
7.387138
 21
7.103711
 31
0.0
  0
LINE
  5
190
100
AcDbEntity
  8
Layer_1
 62
7
100
AcDbLine
 10
7.387138
 20
7.103711
 30
0.0
 11
7.402409
 21
7.119101
 31
0.0
  0
LINE
  5
191
100
AcDbEntity
  8
Layer_1
 62
7
100
AcDbLine
 10
7.402409
 20
7.119101
 30
0.0
 11
7.414795
 21
7.136900
 31
0.0
  0
LINE
  5
192
100
AcDbEntity
  8
Layer_1
 62
7
100
AcDbLine
 10
7.414795
 20
7.136900
 30
0.0
 11
7.423913
 21
7.156569
 31
0.0
  0
LINE
  5
193
100
AcDbEntity
  8
Layer_1
 62
7
100
AcDbLine
 10
7.423913
 20
7.156569
 30
0.0
 11
7.429500
 21
7.177521
 31
0.0
  0
LINE
  5
194
100
AcDbEntity
  8
Layer_1
 62
7
100
AcDbLine
 10
7.429500
 20
7.177521
 30
0.0
 11
7.431382
 21
7.199122
 31
0.0
  0
LINE
  5
195
100
AcDbEntity
  8
Layer_1
 62
7
100
AcDbLine
 10
7.431382
 20
7.199122
 30
0.0
 11
7.431382
 21
7.266314
 31
0.0
  0
LINE
  5
196
100
AcDbEntity
  8
Layer_1
 62
7
100
AcDbLine
 10
7.431382
 20
7.266314
 30
0.0
 11
7.429894
 21
7.285545
 31
0.0
  0
LINE
  5
197
100
AcDbEntity
  8
Layer_1
 62
7
100
AcDbLine
 10
7.429894
 20
7.285545
 30
0.0
 11
7.425464
 21
7.304318
 31
0.0
  0
LINE
  5
198
100
AcDbEntity
  8
Layer_1
 62
7
100
AcDbLine
 10
7.425464
 20
7.304318
 30
0.0
 11
7.418197
 21
7.322186
 31
0.0
  0
LINE
  5
199
100
AcDbEntity
  8
Layer_1
 62
7
100
AcDbLine
 10
7.418197
 20
7.322186
 30
0.0
 11
7.408271
 21
7.338724
 31
0.0
  0
LINE
  5
19a
100
AcDbEntity
  8
Layer_1
 62
7
100
AcDbLine
 10
7.408271
 20
7.338724
 30
0.0
 11
7.395917
 21
7.353538
 31
0.0
  0
LINE
  5
19b
100
AcDbEntity
  8
Layer_1
 62
7
100
AcDbLine
 10
7.395917
 20
7.353538
 30
0.0
 11
7.381433
 21
7.366275
 31
0.0
  0
LINE
  5
19c
100
AcDbEntity
  8
Layer_1
 62
7
100
AcDbLine
 10
7.381433
 20
7.366275
 30
0.0
 11
7.375390
 21
7.346755
 31
0.0
  0
LINE
  5
19d
100
AcDbEntity
  8
Layer_1
 62
7
100
AcDbLine
 10
7.375390
 20
7.346755
 30
0.0
 11
7.366071
 21
7.328569
 31
0.0
  0
LINE
  5
19e
100
AcDbEntity
  8
Layer_1
 62
7
100
AcDbLine
 10
7.366071
 20
7.328569
 30
0.0
 11
7.353760
 21
7.312262
 31
0.0
  0
LINE
  5
19f
100
AcDbEntity
  8
Layer_1
 62
7
100
AcDbLine
 10
7.353760
 20
7.312262
 30
0.0
 11
7.338823
 21
7.298320
 31
0.0
  0
LINE
  5
1a0
100
AcDbEntity
  8
Layer_1
 62
7
100
AcDbLine
 10
7.338823
 20
7.298320
 30
0.0
 11
7.321705
 21
7.287162
 31
0.0
  0
LINE
  5
1a1
100
AcDbEntity
  8
Layer_1
 62
7
100
AcDbLine
 10
7.321705
 20
7.287162
 30
0.0
 11
7.302921
 21
7.279120
 31
0.0
  0
LINE
  5
1a2
100
AcDbEntity
  8
Layer_1
 62
7
100
AcDbLine
 10
7.302921
 20
7.279120
 30
0.0
 11
7.283031
 21
7.274436
 31
0.0
  0
LINE
  5
1a3
100
AcDbEntity
  8
Layer_1
 62
7
100
AcDbLine
 10
7.283031
 20
7.274436
 30
0.0
 11
7.262634
 21
7.273252
 31
0.0
  0
LINE
  5
1a4
100
AcDbEntity
  8
Layer_1
 62
7
100
AcDbLine
 10
7.262634
 20
7.273252
 30
0.0
 11
7.242334
 21
7.275600
 31
0.0
  0
LINE
  5
1a5
100
AcDbEntity
  8
Layer_1
 62
7
100
AcDbLine
 10
7.242334
 20
7.275600
 30
0.0
 11
7.222744
 21
7.281412
 31
0.0
  0
LINE
  5
1a6
100
AcDbEntity
  8
Layer_1
 62
7
100
AcDbLine
 10
7.222744
 20
7.281412
 30
0.0
 11
7.204449
 21
7.290513
 31
0.0
  0
LINE
  5
1a7
100
AcDbEntity
  8
Layer_1
 62
7
100
AcDbLine
 10
7.204449
 20
7.290513
 30
0.0
 11
7.187996
 21
7.302631
 31
0.0
  0
LINE
  5
1a8
100
AcDbEntity
  8
Layer_1
 62
7
100
AcDbLine
 10
7.187996
 20
7.302631
 30
0.0
 11
7.173878
 21
7.317403
 31
0.0
  0
LINE
  5
1a9
100
AcDbEntity
  8
Layer_1
 62
7
100
AcDbLine
 10
7.173878
 20
7.317403
 30
0.0
 11
7.162519
 21
7.334388
 31
0.0
  0
LINE
  5
1aa
100
AcDbEntity
  8
Layer_1
 62
7
100
AcDbLine
 10
7.162519
 20
7.334388
 30
0.0
 11
7.154256
 21
7.353077
 31
0.0
  0
LINE
  5
1ab
100
AcDbEntity
  8
Layer_1
 62
7
100
AcDbLine
 10
7.154256
 20
7.353077
 30
0.0
 11
7.149338
 21
7.372909
 31
0.0
  0
LINE
  5
1ac
100
AcDbEntity
  8
Layer_1
 62
7
100
AcDbLine
 10
7.149338
 20
7.372909
 30
0.0
 11
7.147913
 21
7.393293
 31
0.0
  0
LINE
  5
1ad
100
AcDbEntity
  8
Layer_1
 62
7
100
AcDbLine
 10
7.147913
 20
7.393293
 30
0.0
 11
7.150019
 21
7.413617
 31
0.0
  0
LINE
  5
1ae
100
AcDbEntity
  8
Layer_1
 62
7
100
AcDbLine
 10
7.150019
 20
7.413617
 30
0.0
 11
7.155602
 21
7.433274
 31
0.0
  0
LINE
  5
1af
100
AcDbEntity
  8
Layer_1
 62
7
100
AcDbLine
 10
7.155602
 20
7.433274
 30
0.0
 11
7.164484
 21
7.451675
 31
0.0
  0
LINE
  5
1b0
100
AcDbEntity
  8
Layer_1
 62
7
100
AcDbLine
 10
7.164484
 20
7.451675
 30
0.0
 11
7.176409
 21
7.468270
 31
0.0
  0
LINE
  5
1b1
100
AcDbEntity
  8
Layer_1
 62
7
100
AcDbLine
 10
7.176409
 20
7.468270
 30
0.0
 11
7.171827
 21
7.497676
 31
0.0
  0
LINE
  5
1b2
100
AcDbEntity
  8
Layer_1
 62
7
100
AcDbLine
 10
7.171827
 20
7.497676
 30
0.0
 11
7.166649
 21
7.525834
 31
0.0
  0
LINE
  5
1b3
100
AcDbEntity
  8
Layer_1
 62
7
100
AcDbLine
 10
7.166649
 20
7.525834
 30
0.0
 11
7.160858
 21
7.552707
 31
0.0
  0
LINE
  5
1b4
100
AcDbEntity
  8
Layer_1
 62
7
100
AcDbLine
 10
7.160858
 20
7.552707
 30
0.0
 11
7.154441
 21
7.578266
 31
0.0
  0
LINE
  5
1b5
100
AcDbEntity
  8
Layer_1
 62
7
100
AcDbLine
 10
7.154441
 20
7.578266
 30
0.0
 11
7.147382
 21
7.602491
 31
0.0
  0
LINE
  5
1b6
100
AcDbEntity
  8
Layer_1
 62
7
100
AcDbLine
 10
7.147382
 20
7.602491
 30
0.0
 11
7.139681
 21
7.625373
 31
0.0
  0
LINE
  5
1b7
100
AcDbEntity
  8
Layer_1
 62
7
100
AcDbLine
 10
7.139681
 20
7.625373
 30
0.0
 11
7.131338
 21
7.646912
 31
0.0
  0
LINE
  5
1b8
100
AcDbEntity
  8
Layer_1
 62
7
100
AcDbLine
 10
7.131338
 20
7.646912
 30
0.0
 11
7.122358
 21
7.667120
 31
0.0
  0
LINE
  5
1b9
100
AcDbEntity
  8
Layer_1
 62
7
100
AcDbLine
 10
7.122358
 20
7.667120
 30
0.0
 11
7.112752
 21
7.686015
 31
0.0
  0
LINE
  5
1ba
100
AcDbEntity
  8
Layer_1
 62
7
100
AcDbLine
 10
7.112752
 20
7.686015
 30
0.0
 11
7.102523
 21
7.703616
 31
0.0
  0
LINE
  5
1bb
100
AcDbEntity
  8
Layer_1
 62
7
100
AcDbLine
 10
7.102523
 20
7.703616
 30
0.0
 11
7.091693
 21
7.719947
 31
0.0
  0
LINE
  5
1bc
100
AcDbEntity
  8
Layer_1
 62
7
100
AcDbLine
 10
7.091693
 20
7.719947
 30
0.0
 11
7.080264
 21
7.735032
 31
0.0
  0
LINE
  5
1bd
100
AcDbEntity
  8
Layer_1
 62
7
100
AcDbLine
 10
7.080264
 20
7.735032
 30
0.0
 11
7.068248
 21
7.748891
 31
0.0
  0
LINE
  5
1be
100
AcDbEntity
  8
Layer_1
 62
7
100
AcDbLine
 10
7.068248
 20
7.748891
 30
0.0
 11
7.055653
 21
7.761544
 31
0.0
  0
LINE
  5
1bf
100
AcDbEntity
  8
Layer_1
 62
7
100
AcDbLine
 10
7.055653
 20
7.761544
 30
0.0
 11
7.042492
 21
7.773005
 31
0.0
  0
LINE
  5
1c0
100
AcDbEntity
  8
Layer_1
 62
7
100
AcDbLine
 10
7.042492
 20
7.773005
 30
0.0
 11
7.028764
 21
7.783284
 31
0.0
  0
LINE
  5
1c1
100
AcDbEntity
  8
Layer_1
 62
7
100
AcDbLine
 10
7.028764
 20
7.783284
 30
0.0
 11
7.019642
 21
7.793868
 31
0.0
  0
LINE
  5
1c2
100
AcDbEntity
  8
Layer_1
 62
7
100
AcDbLine
 10
7.019642
 20
7.793868
 30
0.0
 11
7.009279
 21
7.803502
 31
0.0
  0
LINE
  5
1c3
100
AcDbEntity
  8
Layer_1
 62
7
100
AcDbLine
 10
7.009279
 20
7.803502
 30
0.0
 11
6.997673
 21
7.812188
 31
0.0
  0
LINE
  5
1c4
100
AcDbEntity
  8
Layer_1
 62
7
100
AcDbLine
 10
6.997673
 20
7.812188
 30
0.0
 11
6.984819
 21
7.819930
 31
0.0
  0
LINE
  5
1c5
100
AcDbEntity
  8
Layer_1
 62
7
100
AcDbLine
 10
6.984819
 20
7.819930
 30
0.0
 11
6.970728
 21
7.826747
 31
0.0
  0
LINE
  5
1c6
100
AcDbEntity
  8
Layer_1
 62
7
100
AcDbLine
 10
6.970728
 20
7.826747
 30
0.0
 11
6.955401
 21
7.832674
 31
0.0
  0
LINE
  5
1c7
100
AcDbEntity
  8
Layer_1
 62
7
100
AcDbLine
 10
6.955401
 20
7.832674
 30
0.0
 11
6.938882
 21
7.837767
 31
0.0
  0
LINE
  5
1c8
100
AcDbEntity
  8
Layer_1
 62
7
100
AcDbLine
 10
6.938882
 20
7.837767
 30
0.0
 11
6.921205
 21
7.842117
 31
0.0
  0
LINE
  5
1c9
100
AcDbEntity
  8
Layer_1
 62
7
100
AcDbLine
 10
6.921205
 20
7.842117
 30
0.0
 11
6.902445
 21
7.845846
 31
0.0
  0
LINE
  5
1ca
100
AcDbEntity
  8
Layer_1
 62
7
100
AcDbLine
 10
6.902445
 20
7.845846
 30
0.0
 11
6.882701
 21
7.849116
 31
0.0
  0
LINE
  5
1cb
100
AcDbEntity
  8
Layer_1
 62
7
100
AcDbLine
 10
6.882701
 20
7.849116
 30
0.0
 11
6.840764
 21
7.855098
 31
0.0
  0
LINE
  5
1cc
100
AcDbEntity
  8
Layer_1
 62
7
100
AcDbLine
 10
6.840764
 20
7.855098
 30
0.0
 11
6.796571
 21
7.861927
 31
0.0
  0
LINE
  5
1cd
100
AcDbEntity
  8
Layer_1
 62
7
100
AcDbLine
 10
6.796571
 20
7.861927
 30
0.0
 11
6.774035
 21
7.866297
 31
0.0
  0
LINE
  5
1ce
100
AcDbEntity
  8
Layer_1
 62
7
100
AcDbLine
 10
6.774035
 20
7.866297
 30
0.0
 11
6.751429
 21
7.871648
 31
0.0
  0
LINE
  5
1cf
100
AcDbEntity
  8
Layer_1
 62
7
100
AcDbLine
 10
6.751429
 20
7.871648
 30
0.0
 11
6.728917
 21
7.878225
 31
0.0
  0
LINE
  5
1d0
100
AcDbEntity
  8
Layer_1
 62
7
100
AcDbLine
 10
6.728917
 20
7.878225
 30
0.0
 11
6.706642
 21
7.886253
 31
0.0
  0
LINE
  5
1d1
100
AcDbEntity
  8
Layer_1
 62
7
100
AcDbLine
 10
6.706642
 20
7.886253
 30
0.0
 11
6.684740
 21
7.895927
 31
0.0
  0
LINE
  5
1d2
100
AcDbEntity
  8
Layer_1
 62
7
100
AcDbLine
 10
6.684740
 20
7.895927
 30
0.0
 11
6.663327
 21
7.907409
 31
0.0
  0
LINE
  5
1d3
100
AcDbEntity
  8
Layer_1
 62
7
100
AcDbLine
 10
6.663327
 20
7.907409
 30
0.0
 11
6.642488
 21
7.920824
 31
0.0
  0
LINE
  5
1d4
100
AcDbEntity
  8
Layer_1
 62
7
100
AcDbLine
 10
6.642488
 20
7.920824
 30
0.0
 11
6.622299
 21
7.936258
 31
0.0
  0
LINE
  5
1d5
100
AcDbEntity
  8
Layer_1
 62
7
100
AcDbLine
 10
6.622299
 20
7.936258
 30
0.0
 11
6.602815
 21
7.953771
 31
0.0
  0
LINE
  5
1d6
100
AcDbEntity
  8
Layer_1
 62
7
100
AcDbLine
 10
6.602815
 20
7.953771
 30
0.0
 11
6.584067
 21
7.973400
 31
0.0
  0
LINE
  5
1d7
100
AcDbEntity
  8
Layer_1
 62
7
100
AcDbLine
 10
6.584067
 20
7.973400
 30
0.0
 11
6.566090
 21
7.995164
 31
0.0
  0
LINE
  5
1d8
100
AcDbEntity
  8
Layer_1
 62
7
100
AcDbLine
 10
6.566090
 20
7.995164
 30
0.0
 11
6.548893
 21
8.019061
 31
0.0
  0
LINE
  5
1d9
100
AcDbEntity
  8
Layer_1
 62
7
100
AcDbLine
 10
6.548893
 20
8.019061
 30
0.0
 11
6.532492
 21
8.045089
 31
0.0
  0
LINE
  5
1da
100
AcDbEntity
  8
Layer_1
 62
7
100
AcDbLine
 10
6.532492
 20
8.045089
 30
0.0
 11
6.516886
 21
8.073227
 31
0.0
  0
LINE
  5
1db
100
AcDbEntity
  8
Layer_1
 62
7
100
AcDbLine
 10
6.516886
 20
8.073227
 30
0.0
 11
6.502071
 21
8.103459
 31
0.0
  0
LINE
  5
1dc
100
AcDbEntity
  8
Layer_1
 62
7
100
AcDbLine
 10
6.502071
 20
8.103459
 30
0.0
 11
6.488047
 21
8.135766
 31
0.0
  0
LINE
  5
1dd
100
AcDbEntity
  8
Layer_1
 62
7
100
AcDbLine
 10
6.488047
 20
8.135766
 30
0.0
 11
6.474807
 21
8.170132
 31
0.0
  0
LINE
  5
1de
100
AcDbEntity
  8
Layer_1
 62
7
100
AcDbLine
 10
6.474807
 20
8.170132
 30
0.0
 11
6.462346
 21
8.206542
 31
0.0
  0
LINE
  5
1df
100
AcDbEntity
  8
Layer_1
 62
7
100
AcDbLine
 10
6.462346
 20
8.206542
 30
0.0
 11
6.462905
 21
8.255219
 31
0.0
  0
LINE
  5
1e0
100
AcDbEntity
  8
Layer_1
 62
7
100
AcDbLine
 10
6.462905
 20
8.255219
 30
0.0
 11
6.461370
 21
8.301589
 31
0.0
  0
LINE
  5
1e1
100
AcDbEntity
  8
Layer_1
 62
7
100
AcDbLine
 10
6.461370
 20
8.301589
 30
0.0
 11
6.457681
 21
8.345585
 31
0.0
  0
LINE
  5
1e2
100
AcDbEntity
  8
Layer_1
 62
7
100
AcDbLine
 10
6.457681
 20
8.345585
 30
0.0
 11
6.451740
 21
8.387105
 31
0.0
  0
LINE
  5
1e3
100
AcDbEntity
  8
Layer_1
 62
7
100
AcDbLine
 10
6.451740
 20
8.387105
 30
0.0
 11
6.443433
 21
8.426010
 31
0.0
  0
LINE
  5
1e4
100
AcDbEntity
  8
Layer_1
 62
7
100
AcDbLine
 10
6.443433
 20
8.426010
 30
0.0
 11
6.432610
 21
8.462152
 31
0.0
  0
LINE
  5
1e5
100
AcDbEntity
  8
Layer_1
 62
7
100
AcDbLine
 10
6.432610
 20
8.462152
 30
0.0
 11
6.426212
 21
8.479136
 31
0.0
  0
LINE
  5
1e6
100
AcDbEntity
  8
Layer_1
 62
7
100
AcDbLine
 10
6.426212
 20
8.479136
 30
0.0
 11
6.419134
 21
8.495372
 31
0.0
  0
LINE
  5
1e7
100
AcDbEntity
  8
Layer_1
 62
7
100
AcDbLine
 10
6.419134
 20
8.495372
 30
0.0
 11
6.411358
 21
8.510841
 31
0.0
  0
LINE
  5
1e8
100
AcDbEntity
  8
Layer_1
 62
7
100
AcDbLine
 10
6.411358
 20
8.510841
 30
0.0
 11
6.402878
 21
8.525526
 31
0.0
  0
LINE
  5
1e9
100
AcDbEntity
  8
Layer_1
 62
7
100
AcDbLine
 10
6.402878
 20
8.525526
 30
0.0
 11
6.393677
 21
8.539424
 31
0.0
  0
LINE
  5
1ea
100
AcDbEntity
  8
Layer_1
 62
7
100
AcDbLine
 10
6.393677
 20
8.539424
 30
0.0
 11
6.383756
 21
8.552526
 31
0.0
  0
LINE
  5
1eb
100
AcDbEntity
  8
Layer_1
 62
7
100
AcDbLine
 10
6.383756
 20
8.552526
 30
0.0
 11
6.373114
 21
8.564837
 31
0.0
  0
LINE
  5
1ec
100
AcDbEntity
  8
Layer_1
 62
7
100
AcDbLine
 10
6.373114
 20
8.564837
 30
0.0
 11
6.361756
 21
8.576357
 31
0.0
  0
LINE
  5
1ed
100
AcDbEntity
  8
Layer_1
 62
7
100
AcDbLine
 10
6.361756
 20
8.576357
 30
0.0
 11
6.349689
 21
8.587101
 31
0.0
  0
LINE
  5
1ee
100
AcDbEntity
  8
Layer_1
 62
7
100
AcDbLine
 10
6.349689
 20
8.587101
 30
0.0
 11
6.336929
 21
8.597077
 31
0.0
  0
LINE
  5
1ef
100
AcDbEntity
  8
Layer_1
 62
7
100
AcDbLine
 10
6.336929
 20
8.597077
 30
0.0
 11
6.323488
 21
8.606305
 31
0.0
  0
LINE
  5
1f0
100
AcDbEntity
  8
Layer_1
 62
7
100
AcDbLine
 10
6.323488
 20
8.606305
 30
0.0
 11
6.309382
 21
8.614798
 31
0.0
  0
LINE
  5
1f1
100
AcDbEntity
  8
Layer_1
 62
7
100
AcDbLine
 10
6.309382
 20
8.614798
 30
0.0
 11
6.279224
 21
8.629644
 31
0.0
  0
LINE
  5
1f2
100
AcDbEntity
  8
Layer_1
 62
7
100
AcDbLine
 10
6.279224
 20
8.629644
 30
0.0
 11
6.246571
 21
8.641739
 31
0.0
  0
LINE
  5
1f3
100
AcDbEntity
  8
Layer_1
 62
7
100
AcDbLine
 10
6.246571
 20
8.641739
 30
0.0
 11
6.211515
 21
8.651191
 31
0.0
  0
LINE
  5
1f4
100
AcDbEntity
  8
Layer_1
 62
7
100
AcDbLine
 10
6.211515
 20
8.651191
 30
0.0
 11
6.174118
 21
8.658065
 31
0.0
  0
LINE
  5
1f5
100
AcDbEntity
  8
Layer_1
 62
7
100
AcDbLine
 10
6.174118
 20
8.658065
 30
0.0
 11
6.028862
 21
8.700006
 31
0.0
  0
LINE
  5
1f6
100
AcDbEntity
  8
Layer_1
 62
7
100
AcDbLine
 10
6.028862
 20
8.700006
 30
0.0
 11
5.882630
 21
8.738758
 31
0.0
  0
LINE
  5
1f7
100
AcDbEntity
  8
Layer_1
 62
7
100
AcDbLine
 10
5.882630
 20
8.738758
 30
0.0
 11
5.735413
 21
8.774282
 31
0.0
  0
LINE
  5
1f8
100
AcDbEntity
  8
Layer_1
 62
7
100
AcDbLine
 10
5.735413
 20
8.774282
 30
0.0
 11
5.587193
 21
8.806534
 31
0.0
  0
LINE
  5
1f9
100
AcDbEntity
  8
Layer_1
 62
7
100
AcDbLine
 10
5.587193
 20
8.806534
 30
0.0
 11
5.437948
 21
8.835443
 31
0.0
  0
LINE
  5
1fa
100
AcDbEntity
  8
Layer_1
 62
7
100
AcDbLine
 10
5.437948
 20
8.835443
 30
0.0
 11
5.287661
 21
8.860935
 31
0.0
  0
LINE
  5
1fb
100
AcDbEntity
  8
Layer_1
 62
7
100
AcDbLine
 10
5.287661
 20
8.860935
 30
0.0
 11
5.136295
 21
8.882912
 31
0.0
  0
LINE
  5
1fc
100
AcDbEntity
  8
Layer_1
 62
7
100
AcDbLine
 10
5.136295
 20
8.882912
 30
0.0
 11
4.983826
 21
8.901278
 31
0.0
  0
LINE
  5
1fd
100
AcDbEntity
  8
Layer_1
 62
7
100
AcDbLine
 10
4.983826
 20
8.901278
 30
0.0
 11
4.967893
 21
8.889683
 31
0.0
  0
LINE
  5
1fe
100
AcDbEntity
  8
Layer_1
 62
7
100
AcDbLine
 10
4.967893
 20
8.889683
 30
0.0
 11
4.950255
 21
8.880900
 31
0.0
  0
LINE
  5
1ff
100
AcDbEntity
  8
Layer_1
 62
7
100
AcDbLine
 10
4.950255
 20
8.880900
 30
0.0
 11
4.931405
 21
8.875172
 31
0.0
  0
LINE
  5
200
100
AcDbEntity
  8
Layer_1
 62
7
100
AcDbLine
 10
4.931405
 20
8.875172
 30
0.0
 11
4.911862
 21
8.872656
 31
0.0
  0
LINE
  5
201
100
AcDbEntity
  8
Layer_1
 62
7
100
AcDbLine
 10
4.911862
 20
8.872656
 30
0.0
 11
4.892177
 21
8.873424
 31
0.0
  0
LINE
  5
202
100
AcDbEntity
  8
Layer_1
 62
7
100
AcDbLine
 10
4.892177
 20
8.873424
 30
0.0
 11
4.872889
 21
8.877455
 31
0.0
  0
LINE
  5
203
100
AcDbEntity
  8
Layer_1
 62
7
100
AcDbLine
 10
4.872889
 20
8.877455
 30
0.0
 11
4.854543
 21
8.884636
 31
0.0
  0
LINE
  5
204
100
AcDbEntity
  8
Layer_1
 62
7
100
AcDbLine
 10
4.854543
 20
8.884636
 30
0.0
 11
4.837641
 21
8.894766
 31
0.0
  0
LINE
  5
205
100
AcDbEntity
  8
Layer_1
 62
7
100
AcDbLine
 10
4.837641
 20
8.894766
 30
0.0
 11
4.822661
 21
8.907565
 31
0.0
  0
LINE
  5
206
100
AcDbEntity
  8
Layer_1
 62
7
100
AcDbLine
 10
4.822661
 20
8.907565
 30
0.0
 11
4.810019
 21
8.922676
 31
0.0
  0
LINE
  5
207
100
AcDbEntity
  8
Layer_1
 62
7
100
AcDbLine
 10
4.810019
 20
8.922676
 30
0.0
 11
4.800063
 21
8.939680
 31
0.0
  0
LINE
  5
208
100
AcDbEntity
  8
Layer_1
 62
7
100
AcDbLine
 10
4.800063
 20
8.939680
 30
0.0
 11
4.793070
 21
8.958101
 31
0.0
  0
LINE
  5
209
100
AcDbEntity
  8
Layer_1
 62
7
100
AcDbLine
 10
4.793070
 20
8.958101
 30
0.0
 11
4.789240
 21
8.977428
 31
0.0
  0
LINE
  5
20a
100
AcDbEntity
  8
Layer_1
 62
7
100
AcDbLine
 10
4.789240
 20
8.977428
 30
0.0
 11
4.788676
 21
8.997120
 31
0.0
  0
LINE
  5
20b
100
AcDbEntity
  8
Layer_1
 62
7
100
AcDbLine
 10
4.788676
 20
8.997120
 30
0.0
 11
4.791393
 21
9.016636
 31
0.0
  0
LINE
  5
20c
100
AcDbEntity
  8
Layer_1
 62
7
100
AcDbLine
 10
4.791393
 20
9.016636
 30
0.0
 11
4.797314
 21
9.035428
 31
0.0
  0
LINE
  5
20d
100
AcDbEntity
  8
Layer_1
 62
7
100
AcDbLine
 10
4.797314
 20
9.035428
 30
0.0
 11
4.806279
 21
9.052975
 31
0.0
  0
LINE
  5
20e
100
AcDbEntity
  8
Layer_1
 62
7
100
AcDbLine
 10
4.806279
 20
9.052975
 30
0.0
 11
4.818035
 21
9.068786
 31
0.0
  0
LINE
  5
20f
100
AcDbEntity
  8
Layer_1
 62
7
100
AcDbLine
 10
4.818035
 20
9.068786
 30
0.0
 11
4.832255
 21
9.082420
 31
0.0
  0
LINE
  5
210
100
AcDbEntity
  8
Layer_1
 62
7
100
AcDbLine
 10
4.832255
 20
9.082420
 30
0.0
 11
4.848546
 21
9.093502
 31
0.0
  0
LINE
  5
211
100
AcDbEntity
  8
Layer_1
 62
7
100
AcDbLine
 10
4.848546
 20
9.093502
 30
0.0
 11
4.866452
 21
9.101727
 31
0.0
  0
LINE
  5
212
100
AcDbEntity
  8
Layer_1
 62
7
100
AcDbLine
 10
4.866452
 20
9.101727
 30
0.0
 11
4.851861
 21
9.113317
 31
0.0
  0
LINE
  5
213
100
AcDbEntity
  8
Layer_1
 62
7
100
AcDbLine
 10
4.851861
 20
9.113317
 30
0.0
 11
4.835712
 21
9.122613
 31
0.0
  0
LINE
  5
214
100
AcDbEntity
  8
Layer_1
 62
7
100
AcDbLine
 10
4.835712
 20
9.122613
 30
0.0
 11
4.818361
 21
9.129404
 31
0.0
  0
LINE
  5
215
100
AcDbEntity
  8
Layer_1
 62
7
100
AcDbLine
 10
4.818361
 20
9.129404
 30
0.0
 11
4.800192
 21
9.133542
 31
0.0
  0
LINE
  5
216
100
AcDbEntity
  8
Layer_1
 62
7
100
AcDbLine
 10
4.800192
 20
9.133542
 30
0.0
 11
4.781609
 21
9.134928
 31
0.0
  0
LINE
  5
217
100
AcDbEntity
  8
Layer_1
 62
7
100
AcDbLine
 10
4.781609
 20
9.134928
 30
0.0
 11
4.729062
 21
9.134928
 31
0.0
  0
LINE
  5
218
100
AcDbEntity
  8
Layer_1
 62
7
100
AcDbLine
 10
4.729062
 20
9.134928
 30
0.0
 11
4.710857
 21
9.133597
 31
0.0
  0
LINE
  5
219
100
AcDbEntity
  8
Layer_1
 62
7
100
AcDbLine
 10
4.710857
 20
9.133597
 30
0.0
 11
4.693039
 21
9.129628
 31
0.0
  0
LINE
  5
21a
100
AcDbEntity
  8
Layer_1
 62
7
100
AcDbLine
 10
4.693039
 20
9.129628
 30
0.0
 11
4.675991
 21
9.123105
 31
0.0
  0
LINE
  5
21b
100
AcDbEntity
  8
Layer_1
 62
7
100
AcDbLine
 10
4.675991
 20
9.123105
 30
0.0
 11
4.660074
 21
9.114168
 31
0.0
  0
LINE
  5
21c
100
AcDbEntity
  8
Layer_1
 62
7
100
AcDbLine
 10
4.660074
 20
9.114168
 30
0.0
 11
4.676621
 21
9.103380
 31
0.0
  0
LINE
  5
21d
100
AcDbEntity
  8
Layer_1
 62
7
100
AcDbLine
 10
4.676621
 20
9.103380
 30
0.0
 11
4.691137
 21
9.089987
 31
0.0
  0
LINE
  5
21e
100
AcDbEntity
  8
Layer_1
 62
7
100
AcDbLine
 10
4.691137
 20
9.089987
 30
0.0
 11
4.703216
 21
9.074357
 31
0.0
  0
LINE
  5
21f
100
AcDbEntity
  8
Layer_1
 62
7
100
AcDbLine
 10
4.703216
 20
9.074357
 30
0.0
 11
4.712523
 21
9.056935
 31
0.0
  0
LINE
  5
220
100
AcDbEntity
  8
Layer_1
 62
7
100
AcDbLine
 10
4.712523
 20
9.056935
 30
0.0
 11
4.718798
 21
9.038207
 31
0.0
  0
LINE
  5
221
100
AcDbEntity
  8
Layer_1
 62
7
100
AcDbLine
 10
4.718798
 20
9.038207
 30
0.0
 11
4.721865
 21
9.018695
 31
0.0
  0
LINE
  5
222
100
AcDbEntity
  8
Layer_1
 62
7
100
AcDbLine
 10
4.721865
 20
9.018695
 30
0.0
 11
4.721633
 21
8.998943
 31
0.0
  0
LINE
  5
223
100
AcDbEntity
  8
Layer_1
 62
7
100
AcDbLine
 10
4.721633
 20
8.998943
 30
0.0
 11
4.718117
 21
8.979506
 31
0.0
  0
LINE
  5
224
100
AcDbEntity
  8
Layer_1
 62
7
100
AcDbLine
 10
4.718117
 20
8.979506
 30
0.0
 11
4.711409
 21
8.960928
 31
0.0
  0
LINE
  5
225
100
AcDbEntity
  8
Layer_1
 62
7
100
AcDbLine
 10
4.711409
 20
8.960928
 30
0.0
 11
4.701700
 21
8.943727
 31
0.0
  0
LINE
  5
226
100
AcDbEntity
  8
Layer_1
 62
7
100
AcDbLine
 10
4.701700
 20
8.943727
 30
0.0
 11
4.689259
 21
8.928388
 31
0.0
  0
LINE
  5
227
100
AcDbEntity
  8
Layer_1
 62
7
100
AcDbLine
 10
4.689259
 20
8.928388
 30
0.0
 11
4.674436
 21
8.915333
 31
0.0
  0
LINE
  5
228
100
AcDbEntity
  8
Layer_1
 62
7
100
AcDbLine
 10
4.674436
 20
8.915333
 30
0.0
 11
4.657645
 21
8.904931
 31
0.0
  0
LINE
  5
229
100
AcDbEntity
  8
Layer_1
 62
7
100
AcDbLine
 10
4.657645
 20
8.904931
 30
0.0
 11
4.639355
 21
8.897471
 31
0.0
  0
LINE
  5
22a
100
AcDbEntity
  8
Layer_1
 62
7
100
AcDbLine
 10
4.639355
 20
8.897471
 30
0.0
 11
4.620078
 21
8.893168
 31
0.0
  0
LINE
  5
22b
100
AcDbEntity
  8
Layer_1
 62
7
100
AcDbLine
 10
4.620078
 20
8.893168
 30
0.0
 11
4.600352
 21
8.892137
 31
0.0
  0
LINE
  5
22c
100
AcDbEntity
  8
Layer_1
 62
7
100
AcDbLine
 10
4.600352
 20
8.892137
 30
0.0
 11
4.580731
 21
8.894404
 31
0.0
  0
LINE
  5
22d
100
AcDbEntity
  8
Layer_1
 62
7
100
AcDbLine
 10
4.580731
 20
8.894404
 30
0.0
 11
4.561762
 21
8.899912
 31
0.0
  0
LINE
  5
22e
100
AcDbEntity
  8
Layer_1
 62
7
100
AcDbLine
 10
4.561762
 20
8.899912
 30
0.0
 11
4.543976
 21
8.908503
 31
0.0
  0
LINE
  5
22f
100
AcDbEntity
  8
Layer_1
 62
7
100
AcDbLine
 10
4.543976
 20
8.908503
 30
0.0
 11
4.527870
 21
8.919936
 31
0.0
  0
LINE
  5
230
100
AcDbEntity
  8
Layer_1
 62
7
100
AcDbLine
 10
4.527870
 20
8.919936
 30
0.0
 11
4.513896
 21
8.933896
 31
0.0
  0
LINE
  5
231
100
AcDbEntity
  8
Layer_1
 62
7
100
AcDbLine
 10
4.513896
 20
8.933896
 30
0.0
 11
4.382377
 21
8.936542
 31
0.0
  0
LINE
  5
232
100
AcDbEntity
  8
Layer_1
 62
7
100
AcDbLine
 10
4.382377
 20
8.936542
 30
0.0
 11
4.249998
 21
8.936377
 31
0.0
  0
LINE
  5
233
100
AcDbEntity
  8
Layer_1
 62
7
100
AcDbLine
 10
4.249998
 20
8.936377
 30
0.0
 11
4.117620
 21
8.936542
 31
0.0
  0
LINE
  5
234
100
AcDbEntity
  8
Layer_1
 62
7
100
AcDbLine
 10
4.117620
 20
8.936542
 30
0.0
 11
3.986101
 21
8.933896
 31
0.0
  0
LINE
  5
235
100
AcDbEntity
  8
Layer_1
 62
7
100
AcDbLine
 10
3.986101
 20
8.933896
 30
0.0
 11
3.972127
 21
8.919936
 31
0.0
  0
LINE
  5
236
100
AcDbEntity
  8
Layer_1
 62
7
100
AcDbLine
 10
3.972127
 20
8.919936
 30
0.0
 11
3.956021
 21
8.908503
 31
0.0
  0
LINE
  5
237
100
AcDbEntity
  8
Layer_1
 62
7
100
AcDbLine
 10
3.956021
 20
8.908503
 30
0.0
 11
3.938235
 21
8.899912
 31
0.0
  0
LINE
  5
238
100
AcDbEntity
  8
Layer_1
 62
7
100
AcDbLine
 10
3.938235
 20
8.899912
 30
0.0
 11
3.919266
 21
8.894404
 31
0.0
  0
LINE
  5
239
100
AcDbEntity
  8
Layer_1
 62
7
100
AcDbLine
 10
3.919266
 20
8.894404
 30
0.0
 11
3.899645
 21
8.892137
 31
0.0
  0
LINE
  5
23a
100
AcDbEntity
  8
Layer_1
 62
7
100
AcDbLine
 10
3.899645
 20
8.892137
 30
0.0
 11
3.879920
 21
8.893168
 31
0.0
  0
LINE
  5
23b
100
AcDbEntity
  8
Layer_1
 62
7
100
AcDbLine
 10
3.879920
 20
8.893168
 30
0.0
 11
3.860643
 21
8.897471
 31
0.0
  0
LINE
  5
23c
100
AcDbEntity
  8
Layer_1
 62
7
100
AcDbLine
 10
3.860643
 20
8.897471
 30
0.0
 11
3.842353
 21
8.904931
 31
0.0
  0
LINE
  5
23d
100
AcDbEntity
  8
Layer_1
 62
7
100
AcDbLine
 10
3.842353
 20
8.904931
 30
0.0
 11
3.825562
 21
8.915333
 31
0.0
  0
LINE
  5
23e
100
AcDbEntity
  8
Layer_1
 62
7
100
AcDbLine
 10
3.825562
 20
8.915333
 30
0.0
 11
3.810739
 21
8.928388
 31
0.0
  0
LINE
  5
23f
100
AcDbEntity
  8
Layer_1
 62
7
100
AcDbLine
 10
3.810739
 20
8.928388
 30
0.0
 11
3.798298
 21
8.943727
 31
0.0
  0
LINE
  5
240
100
AcDbEntity
  8
Layer_1
 62
7
100
AcDbLine
 10
3.798298
 20
8.943727
 30
0.0
 11
3.788590
 21
8.960928
 31
0.0
  0
LINE
  5
241
100
AcDbEntity
  8
Layer_1
 62
7
100
AcDbLine
 10
3.788590
 20
8.960928
 30
0.0
 11
3.781881
 21
8.979506
 31
0.0
  0
LINE
  5
242
100
AcDbEntity
  8
Layer_1
 62
7
100
AcDbLine
 10
3.781881
 20
8.979506
 30
0.0
 11
3.778361
 21
8.998943
 31
0.0
  0
LINE
  5
243
100
AcDbEntity
  8
Layer_1
 62
7
100
AcDbLine
 10
3.778361
 20
8.998943
 30
0.0
 11
3.778132
 21
9.018695
 31
0.0
  0
LINE
  5
244
100
AcDbEntity
  8
Layer_1
 62
7
100
AcDbLine
 10
3.778132
 20
9.018695
 30
0.0
 11
3.781199
 21
9.038207
 31
0.0
  0
LINE
  5
245
100
AcDbEntity
  8
Layer_1
 62
7
100
AcDbLine
 10
3.781199
 20
9.038207
 30
0.0
 11
3.787471
 21
9.056935
 31
0.0
  0
LINE
  5
246
100
AcDbEntity
  8
Layer_1
 62
7
100
AcDbLine
 10
3.787471
 20
9.056935
 30
0.0
 11
3.796778
 21
9.074357
 31
0.0
  0
LINE
  5
247
100
AcDbEntity
  8
Layer_1
 62
7
100
AcDbLine
 10
3.796778
 20
9.074357
 30
0.0
 11
3.808861
 21
9.089987
 31
0.0
  0
LINE
  5
248
100
AcDbEntity
  8
Layer_1
 62
7
100
AcDbLine
 10
3.808861
 20
9.089987
 30
0.0
 11
3.823377
 21
9.103380
 31
0.0
  0
LINE
  5
249
100
AcDbEntity
  8
Layer_1
 62
7
100
AcDbLine
 10
3.823377
 20
9.103380
 30
0.0
 11
3.839924
 21
9.114168
 31
0.0
  0
LINE
  5
24a
100
AcDbEntity
  8
Layer_1
 62
7
100
AcDbLine
 10
3.839924
 20
9.114168
 30
0.0
 11
3.824006
 21
9.123105
 31
0.0
  0
LINE
  5
24b
100
AcDbEntity
  8
Layer_1
 62
7
100
AcDbLine
 10
3.824006
 20
9.123105
 30
0.0
 11
3.806955
 21
9.129628
 31
0.0
  0
LINE
  5
24c
100
AcDbEntity
  8
Layer_1
 62
7
100
AcDbLine
 10
3.806955
 20
9.129628
 30
0.0
 11
3.789140
 21
9.133597
 31
0.0
  0
LINE
  5
24d
100
AcDbEntity
  8
Layer_1
 62
7
100
AcDbLine
 10
3.789140
 20
9.133597
 30
0.0
 11
3.770936
 21
9.134928
 31
0.0
  0
LINE
  5
24e
100
AcDbEntity
  8
Layer_1
 62
7
100
AcDbLine
 10
3.770936
 20
9.134928
 30
0.0
 11
3.718388
 21
9.134928
 31
0.0
  0
LINE
  5
24f
100
AcDbEntity
  8
Layer_1
 62
7
100
AcDbLine
 10
3.718388
 20
9.134928
 30
0.0
 11
3.699806
 21
9.133542
 31
0.0
  0
LINE
  5
250
100
AcDbEntity
  8
Layer_1
 62
7
100
AcDbLine
 10
3.699806
 20
9.133542
 30
0.0
 11
3.681636
 21
9.129404
 31
0.0
  0
LINE
  5
251
100
AcDbEntity
  8
Layer_1
 62
7
100
AcDbLine
 10
3.681636
 20
9.129404
 30
0.0
 11
3.664282
 21
9.122613
 31
0.0
  0
LINE
  5
252
100
AcDbEntity
  8
Layer_1
 62
7
100
AcDbLine
 10
3.664282
 20
9.122613
 30
0.0
 11
3.648132
 21
9.113317
 31
0.0
  0
LINE
  5
253
100
AcDbEntity
  8
Layer_1
 62
7
100
AcDbLine
 10
3.648132
 20
9.113317
 30
0.0
 11
3.633546
 21
9.101727
 31
0.0
  0
LINE
  5
254
100
AcDbEntity
  8
Layer_1
 62
7
100
AcDbLine
 10
3.633546
 20
9.101727
 30
0.0
 11
3.651451
 21
9.093502
 31
0.0
  0
LINE
  5
255
100
AcDbEntity
  8
Layer_1
 62
7
100
AcDbLine
 10
3.651451
 20
9.093502
 30
0.0
 11
3.667739
 21
9.082420
 31
0.0
  0
LINE
  5
256
100
AcDbEntity
  8
Layer_1
 62
7
100
AcDbLine
 10
3.667739
 20
9.082420
 30
0.0
 11
3.681959
 21
9.068786
 31
0.0
  0
LINE
  5
257
100
AcDbEntity
  8
Layer_1
 62
7
100
AcDbLine
 10
3.681959
 20
9.068786
 30
0.0
 11
3.693719
 21
9.052975
 31
0.0
  0
LINE
  5
258
100
AcDbEntity
  8
Layer_1
 62
7
100
AcDbLine
 10
3.693719
 20
9.052975
 30
0.0
 11
3.702684
 21
9.035428
 31
0.0
  0
LINE
  5
259
100
AcDbEntity
  8
Layer_1
 62
7
100
AcDbLine
 10
3.702684
 20
9.035428
 30
0.0
 11
3.708605
 21
9.016636
 31
0.0
  0
LINE
  5
25a
100
AcDbEntity
  8
Layer_1
 62
7
100
AcDbLine
 10
3.708605
 20
9.016636
 30
0.0
 11
3.711321
 21
8.997120
 31
0.0
  0
LINE
  5
25b
100
AcDbEntity
  8
Layer_1
 62
7
100
AcDbLine
 10
3.711321
 20
8.997120
 30
0.0
 11
3.710755
 21
8.977428
 31
0.0
  0
LINE
  5
25c
100
AcDbEntity
  8
Layer_1
 62
7
100
AcDbLine
 10
3.710755
 20
8.977428
 30
0.0
 11
3.706924
 21
8.958101
 31
0.0
  0
LINE
  5
25d
100
AcDbEntity
  8
Layer_1
 62
7
100
AcDbLine
 10
3.706924
 20
8.958101
 30
0.0
 11
3.699936
 21
8.939680
 31
0.0
  0
LINE
  5
25e
100
AcDbEntity
  8
Layer_1
 62
7
100
AcDbLine
 10
3.699936
 20
8.939680
 30
0.0
 11
3.689979
 21
8.922676
 31
0.0
  0
LINE
  5
25f
100
AcDbEntity
  8
Layer_1
 62
7
100
AcDbLine
 10
3.689979
 20
8.922676
 30
0.0
 11
3.677334
 21
8.907565
 31
0.0
  0
LINE
  5
260
100
AcDbEntity
  8
Layer_1
 62
7
100
AcDbLine
 10
3.677334
 20
8.907565
 30
0.0
 11
3.662353
 21
8.894766
 31
0.0
  0
LINE
  5
261
100
AcDbEntity
  8
Layer_1
 62
7
100
AcDbLine
 10
3.662353
 20
8.894766
 30
0.0
 11
3.645456
 21
8.884636
 31
0.0
  0
LINE
  5
262
100
AcDbEntity
  8
Layer_1
 62
7
100
AcDbLine
 10
3.645456
 20
8.884636
 30
0.0
 11
3.627109
 21
8.877455
 31
0.0
  0
LINE
  5
263
100
AcDbEntity
  8
Layer_1
 62
7
100
AcDbLine
 10
3.627109
 20
8.877455
 30
0.0
 11
3.607822
 21
8.873424
 31
0.0
  0
LINE
  5
264
100
AcDbEntity
  8
Layer_1
 62
7
100
AcDbLine
 10
3.607822
 20
8.873424
 30
0.0
 11
3.588133
 21
8.872656
 31
0.0
  0
LINE
  5
265
100
AcDbEntity
  8
Layer_1
 62
7
100
AcDbLine
 10
3.588133
 20
8.872656
 30
0.0
 11
3.568593
 21
8.875172
 31
0.0
  0
LINE
  5
266
100
AcDbEntity
  8
Layer_1
 62
7
100
AcDbLine
 10
3.568593
 20
8.875172
 30
0.0
 11
3.549739
 21
8.880900
 31
0.0
  0
LINE
  5
267
100
AcDbEntity
  8
Layer_1
 62
7
100
AcDbLine
 10
3.549739
 20
8.880900
 30
0.0
 11
3.532105
 21
8.889683
 31
0.0
  0
LINE
  5
268
100
AcDbEntity
  8
Layer_1
 62
7
100
AcDbLine
 10
3.532105
 20
8.889683
 30
0.0
 11
3.516172
 21
8.901278
 31
0.0
  0
LINE
  5
269
100
AcDbEntity
  8
Layer_1
 62
7
100
AcDbLine
 10
3.516172
 20
8.901278
 30
0.0
 11
3.363704
 21
8.882912
 31
0.0
  0
LINE
  5
26a
100
AcDbEntity
  8
Layer_1
 62
7
100
AcDbLine
 10
3.363704
 20
8.882912
 30
0.0
 11
3.212337
 21
8.860935
 31
0.0
  0
LINE
  5
26b
100
AcDbEntity
  8
Layer_1
 62
7
100
AcDbLine
 10
3.212337
 20
8.860935
 30
0.0
 11
3.062046
 21
8.835443
 31
0.0
  0
LINE
  5
26c
100
AcDbEntity
  8
Layer_1
 62
7
100
AcDbLine
 10
3.062046
 20
8.835443
 30
0.0
 11
2.912806
 21
8.806534
 31
0.0
  0
LINE
  5
26d
100
AcDbEntity
  8
Layer_1
 62
7
100
AcDbLine
 10
2.912806
 20
8.806534
 30
0.0
 11
2.764585
 21
8.774282
 31
0.0
  0
LINE
  5
26e
100
AcDbEntity
  8
Layer_1
 62
7
100
AcDbLine
 10
2.764585
 20
8.774282
 30
0.0
 11
2.617365
 21
8.738758
 31
0.0
  0
LINE
  5
26f
100
AcDbEntity
  8
Layer_1
 62
7
100
AcDbLine
 10
2.617365
 20
8.738758
 30
0.0
 11
2.471137
 21
8.700006
 31
0.0
  0
LINE
  5
270
100
AcDbEntity
  8
Layer_1
 62
7
100
AcDbLine
 10
2.471137
 20
8.700006
 30
0.0
 11
2.325881
 21
8.658065
 31
0.0
  0
LINE
  5
271
100
AcDbEntity
  8
Layer_1
 62
7
100
AcDbLine
 10
2.325881
 20
8.658065
 30
0.0
 11
2.288483
 21
8.651191
 31
0.0
  0
LINE
  5
272
100
AcDbEntity
  8
Layer_1
 62
7
100
AcDbLine
 10
2.288483
 20
8.651191
 30
0.0
 11
2.253428
 21
8.641739
 31
0.0
  0
LINE
  5
273
100
AcDbEntity
  8
Layer_1
 62
7
100
AcDbLine
 10
2.253428
 20
8.641739
 30
0.0
 11
2.220774
 21
8.629644
 31
0.0
  0
LINE
  5
274
100
AcDbEntity
  8
Layer_1
 62
7
100
AcDbLine
 10
2.220774
 20
8.629644
 30
0.0
 11
2.190617
 21
8.614798
 31
0.0
  0
LINE
  5
275
100
AcDbEntity
  8
Layer_1
 62
7
100
AcDbLine
 10
2.190617
 20
8.614798
 30
0.0
 11
2.176511
 21
8.606305
 31
0.0
  0
LINE
  5
276
100
AcDbEntity
  8
Layer_1
 62
7
100
AcDbLine
 10
2.176511
 20
8.606305
 30
0.0
 11
2.163066
 21
8.597077
 31
0.0
  0
LINE
  5
277
100
AcDbEntity
  8
Layer_1
 62
7
100
AcDbLine
 10
2.163066
 20
8.597077
 30
0.0
 11
2.150306
 21
8.587101
 31
0.0
  0
LINE
  5
278
100
AcDbEntity
  8
Layer_1
 62
7
100
AcDbLine
 10
2.150306
 20
8.587101
 30
0.0
 11
2.138243
 21
8.576357
 31
0.0
  0
LINE
  5
279
100
AcDbEntity
  8
Layer_1
 62
7
100
AcDbLine
 10
2.138243
 20
8.576357
 30
0.0
 11
2.126885
 21
8.564837
 31
0.0
  0
LINE
  5
27a
100
AcDbEntity
  8
Layer_1
 62
7
100
AcDbLine
 10
2.126885
 20
8.564837
 30
0.0
 11
2.116243
 21
8.552526
 31
0.0
  0
LINE
  5
27b
100
AcDbEntity
  8
Layer_1
 62
7
100
AcDbLine
 10
2.116243
 20
8.552526
 30
0.0
 11
2.106322
 21
8.539424
 31
0.0
  0
LINE
  5
27c
100
AcDbEntity
  8
Layer_1
 62
7
100
AcDbLine
 10
2.106322
 20
8.539424
 30
0.0
 11
2.097121
 21
8.525526
 31
0.0
  0
LINE
  5
27d
100
AcDbEntity
  8
Layer_1
 62
7
100
AcDbLine
 10
2.097121
 20
8.525526
 30
0.0
 11
2.088637
 21
8.510841
 31
0.0
  0
LINE
  5
27e
100
AcDbEntity
  8
Layer_1
 62
7
100
AcDbLine
 10
2.088637
 20
8.510841
 30
0.0
 11
2.080865
 21
8.495372
 31
0.0
  0
LINE
  5
27f
100
AcDbEntity
  8
Layer_1
 62
7
100
AcDbLine
 10
2.080865
 20
8.495372
 30
0.0
 11
2.073786
 21
8.479136
 31
0.0
  0
LINE
  5
280
100
AcDbEntity
  8
Layer_1
 62
7
100
AcDbLine
 10
2.073786
 20
8.479136
 30
0.0
 11
2.067389
 21
8.462152
 31
0.0
  0
LINE
  5
281
100
AcDbEntity
  8
Layer_1
 62
7
100
AcDbLine
 10
2.067389
 20
8.462152
 30
0.0
 11
2.056566
 21
8.426010
 31
0.0
  0
LINE
  5
282
100
AcDbEntity
  8
Layer_1
 62
7
100
AcDbLine
 10
2.056566
 20
8.426010
 30
0.0
 11
2.048255
 21
8.387105
 31
0.0
  0
LINE
  5
283
100
AcDbEntity
  8
Layer_1
 62
7
100
AcDbLine
 10
2.048255
 20
8.387105
 30
0.0
 11
2.042318
 21
8.345585
 31
0.0
  0
LINE
  5
284
100
AcDbEntity
  8
Layer_1
 62
7
100
AcDbLine
 10
2.042318
 20
8.345585
 30
0.0
 11
2.038625
 21
8.301589
 31
0.0
  0
LINE
  5
285
100
AcDbEntity
  8
Layer_1
 62
7
100
AcDbLine
 10
2.038625
 20
8.301589
 30
0.0
 11
2.037089
 21
8.255219
 31
0.0
  0
LINE
  5
286
100
AcDbEntity
  8
Layer_1
 62
7
100
AcDbLine
 10
2.037089
 20
8.255219
 30
0.0
 11
2.037653
 21
8.206542
 31
0.0
  0
LINE
  5
287
100
AcDbEntity
  8
Layer_1
 62
7
100
AcDbLine
 10
2.037653
 20
8.206542
 30
0.0
 11
2.025192
 21
8.170132
 31
0.0
  0
LINE
  5
288
100
AcDbEntity
  8
Layer_1
 62
7
100
AcDbLine
 10
2.025192
 20
8.170132
 30
0.0
 11
2.011952
 21
8.135766
 31
0.0
  0
LINE
  5
289
100
AcDbEntity
  8
Layer_1
 62
7
100
AcDbLine
 10
2.011952
 20
8.135766
 30
0.0
 11
1.997924
 21
8.103459
 31
0.0
  0
LINE
  5
28a
100
AcDbEntity
  8
Layer_1
 62
7
100
AcDbLine
 10
1.997924
 20
8.103459
 30
0.0
 11
1.983113
 21
8.073227
 31
0.0
  0
LINE
  5
28b
100
AcDbEntity
  8
Layer_1
 62
7
100
AcDbLine
 10
1.983113
 20
8.073227
 30
0.0
 11
1.967503
 21
8.045089
 31
0.0
  0
LINE
  5
28c
100
AcDbEntity
  8
Layer_1
 62
7
100
AcDbLine
 10
1.967503
 20
8.045089
 30
0.0
 11
1.951101
 21
8.019061
 31
0.0
  0
LINE
  5
28d
100
AcDbEntity
  8
Layer_1
 62
7
100
AcDbLine
 10
1.951101
 20
8.019061
 30
0.0
 11
1.933909
 21
7.995164
 31
0.0
  0
LINE
  5
28e
100
AcDbEntity
  8
Layer_1
 62
7
100
AcDbLine
 10
1.933909
 20
7.995164
 30
0.0
 11
1.915928
 21
7.973400
 31
0.0
  0
LINE
  5
28f
100
AcDbEntity
  8
Layer_1
 62
7
100
AcDbLine
 10
1.915928
 20
7.973400
 30
0.0
 11
1.897184
 21
7.953771
 31
0.0
  0
LINE
  5
290
100
AcDbEntity
  8
Layer_1
 62
7
100
AcDbLine
 10
1.897184
 20
7.953771
 30
0.0
 11
1.877696
 21
7.936258
 31
0.0
  0
LINE
  5
291
100
AcDbEntity
  8
Layer_1
 62
7
100
AcDbLine
 10
1.877696
 20
7.936258
 30
0.0
 11
1.857511
 21
7.920824
 31
0.0
  0
LINE
  5
292
100
AcDbEntity
  8
Layer_1
 62
7
100
AcDbLine
 10
1.857511
 20
7.920824
 30
0.0
 11
1.836672
 21
7.907409
 31
0.0
  0
LINE
  5
293
100
AcDbEntity
  8
Layer_1
 62
7
100
AcDbLine
 10
1.836672
 20
7.907409
 30
0.0
 11
1.815259
 21
7.895927
 31
0.0
  0
LINE
  5
294
100
AcDbEntity
  8
Layer_1
 62
7
100
AcDbLine
 10
1.815259
 20
7.895927
 30
0.0
 11
1.793357
 21
7.886253
 31
0.0
  0
LINE
  5
295
100
AcDbEntity
  8
Layer_1
 62
7
100
AcDbLine
 10
1.793357
 20
7.886253
 30
0.0
 11
1.771082
 21
7.878225
 31
0.0
  0
LINE
  5
296
100
AcDbEntity
  8
Layer_1
 62
7
100
AcDbLine
 10
1.771082
 20
7.878225
 30
0.0
 11
1.748566
 21
7.871648
 31
0.0
  0
LINE
  5
297
100
AcDbEntity
  8
Layer_1
 62
7
100
AcDbLine
 10
1.748566
 20
7.871648
 30
0.0
 11
1.725964
 21
7.866297
 31
0.0
  0
LINE
  5
298
100
AcDbEntity
  8
Layer_1
 62
7
100
AcDbLine
 10
1.725964
 20
7.866297
 30
0.0
 11
1.703428
 21
7.861927
 31
0.0
  0
LINE
  5
299
100
AcDbEntity
  8
Layer_1
 62
7
100
AcDbLine
 10
1.703428
 20
7.861927
 30
0.0
 11
1.659235
 21
7.855098
 31
0.0
  0
LINE
  5
29a
100
AcDbEntity
  8
Layer_1
 62
7
100
AcDbLine
 10
1.659235
 20
7.855098
 30
0.0
 11
1.617298
 21
7.849116
 31
0.0
  0
LINE
  5
29b
100
AcDbEntity
  8
Layer_1
 62
7
100
AcDbLine
 10
1.617298
 20
7.849116
 30
0.0
 11
1.597554
 21
7.845846
 31
0.0
  0
LINE
  5
29c
100
AcDbEntity
  8
Layer_1
 62
7
100
AcDbLine
 10
1.597554
 20
7.845846
 30
0.0
 11
1.578794
 21
7.842117
 31
0.0
  0
LINE
  5
29d
100
AcDbEntity
  8
Layer_1
 62
7
100
AcDbLine
 10
1.578794
 20
7.842117
 30
0.0
 11
1.561117
 21
7.837767
 31
0.0
  0
LINE
  5
29e
100
AcDbEntity
  8
Layer_1
 62
7
100
AcDbLine
 10
1.561117
 20
7.837767
 30
0.0
 11
1.544594
 21
7.832674
 31
0.0
  0
LINE
  5
29f
100
AcDbEntity
  8
Layer_1
 62
7
100
AcDbLine
 10
1.544594
 20
7.832674
 30
0.0
 11
1.529271
 21
7.826747
 31
0.0
  0
LINE
  5
2a0
100
AcDbEntity
  8
Layer_1
 62
7
100
AcDbLine
 10
1.529271
 20
7.826747
 30
0.0
 11
1.515176
 21
7.819930
 31
0.0
  0
LINE
  5
2a1
100
AcDbEntity
  8
Layer_1
 62
7
100
AcDbLine
 10
1.515176
 20
7.819930
 30
0.0
 11
1.502326
 21
7.812188
 31
0.0
  0
LINE
  5
2a2
100
AcDbEntity
  8
Layer_1
 62
7
100
AcDbLine
 10
1.502326
 20
7.812188
 30
0.0
 11
1.490720
 21
7.803502
 31
0.0
  0
LINE
  5
2a3
100
AcDbEntity
  8
Layer_1
 62
7
100
AcDbLine
 10
1.490720
 20
7.803502
 30
0.0
 11
1.480357
 21
7.793868
 31
0.0
  0
LINE
  5
2a4
100
AcDbEntity
  8
Layer_1
 62
7
100
AcDbLine
 10
1.480357
 20
7.793868
 30
0.0
 11
1.471235
 21
7.783284
 31
0.0
  0
LINE
  5
2a5
100
AcDbEntity
  8
Layer_1
 62
7
100
AcDbLine
 10
1.471235
 20
7.783284
 30
0.0
 11
1.457507
 21
7.773005
 31
0.0
  0
LINE
  5
2a6
100
AcDbEntity
  8
Layer_1
 62
7
100
AcDbLine
 10
1.457507
 20
7.773005
 30
0.0
 11
1.444342
 21
7.761544
 31
0.0
  0
LINE
  5
2a7
100
AcDbEntity
  8
Layer_1
 62
7
100
AcDbLine
 10
1.444342
 20
7.761544
 30
0.0
 11
1.431751
 21
7.748891
 31
0.0
  0
LINE
  5
2a8
100
AcDbEntity
  8
Layer_1
 62
7
100
AcDbLine
 10
1.431751
 20
7.748891
 30
0.0
 11
1.419735
 21
7.735032
 31
0.0
  0
LINE
  5
2a9
100
AcDbEntity
  8
Layer_1
 62
7
100
AcDbLine
 10
1.419735
 20
7.735032
 30
0.0
 11
1.408306
 21
7.719947
 31
0.0
  0
LINE
  5
2aa
100
AcDbEntity
  8
Layer_1
 62
7
100
AcDbLine
 10
1.408306
 20
7.719947
 30
0.0
 11
1.397472
 21
7.703616
 31
0.0
  0
LINE
  5
2ab
100
AcDbEntity
  8
Layer_1
 62
7
100
AcDbLine
 10
1.397472
 20
7.703616
 30
0.0
 11
1.387247
 21
7.686015
 31
0.0
  0
LINE
  5
2ac
100
AcDbEntity
  8
Layer_1
 62
7
100
AcDbLine
 10
1.387247
 20
7.686015
 30
0.0
 11
1.377637
 21
7.667120
 31
0.0
  0
LINE
  5
2ad
100
AcDbEntity
  8
Layer_1
 62
7
100
AcDbLine
 10
1.377637
 20
7.667120
 30
0.0
 11
1.368661
 21
7.646912
 31
0.0
  0
LINE
  5
2ae
100
AcDbEntity
  8
Layer_1
 62
7
100
AcDbLine
 10
1.368661
 20
7.646912
 30
0.0
 11
1.360318
 21
7.625373
 31
0.0
  0
LINE
  5
2af
100
AcDbEntity
  8
Layer_1
 62
7
100
AcDbLine
 10
1.360318
 20
7.625373
 30
0.0
 11
1.352617
 21
7.602491
 31
0.0
  0
LINE
  5
2b0
100
AcDbEntity
  8
Layer_1
 62
7
100
AcDbLine
 10
1.352617
 20
7.602491
 30
0.0
 11
1.345558
 21
7.578266
 31
0.0
  0
LINE
  5
2b1
100
AcDbEntity
  8
Layer_1
 62
7
100
AcDbLine
 10
1.345558
 20
7.578266
 30
0.0
 11
1.339137
 21
7.552707
 31
0.0
  0
LINE
  5
2b2
100
AcDbEntity
  8
Layer_1
 62
7
100
AcDbLine
 10
1.339137
 20
7.552707
 30
0.0
 11
1.333346
 21
7.525834
 31
0.0
  0
LINE
  5
2b3
100
AcDbEntity
  8
Layer_1
 62
7
100
AcDbLine
 10
1.333346
 20
7.525834
 30
0.0
 11
1.328168
 21
7.497676
 31
0.0
  0
LINE
  5
2b4
100
AcDbEntity
  8
Layer_1
 62
7
100
AcDbLine
 10
1.328168
 20
7.497676
 30
0.0
 11
1.323590
 21
7.468270
 31
0.0
  0
LINE
  5
2b5
100
AcDbEntity
  8
Layer_1
 62
7
100
AcDbLine
 10
1.323590
 20
7.468270
 30
0.0
 11
1.335511
 21
7.451675
 31
0.0
  0
LINE
  5
2b6
100
AcDbEntity
  8
Layer_1
 62
7
100
AcDbLine
 10
1.335511
 20
7.451675
 30
0.0
 11
1.344397
 21
7.433274
 31
0.0
  0
LINE
  5
2b7
100
AcDbEntity
  8
Layer_1
 62
7
100
AcDbLine
 10
1.344397
 20
7.433274
 30
0.0
 11
1.349975
 21
7.413617
 31
0.0
  0
LINE
  5
2b8
100
AcDbEntity
  8
Layer_1
 62
7
100
AcDbLine
 10
1.349975
 20
7.413617
 30
0.0
 11
1.352086
 21
7.393293
 31
0.0
  0
LINE
  5
2b9
100
AcDbEntity
  8
Layer_1
 62
7
100
AcDbLine
 10
1.352086
 20
7.393293
 30
0.0
 11
1.350661
 21
7.372909
 31
0.0
  0
LINE
  5
2ba
100
AcDbEntity
  8
Layer_1
 62
7
100
AcDbLine
 10
1.350661
 20
7.372909
 30
0.0
 11
1.345739
 21
7.353077
 31
0.0
  0
LINE
  5
2bb
100
AcDbEntity
  8
Layer_1
 62
7
100
AcDbLine
 10
1.345739
 20
7.353077
 30
0.0
 11
1.337479
 21
7.334388
 31
0.0
  0
LINE
  5
2bc
100
AcDbEntity
  8
Layer_1
 62
7
100
AcDbLine
 10
1.337479
 20
7.334388
 30
0.0
 11
1.326117
 21
7.317403
 31
0.0
  0
LINE
  5
2bd
100
AcDbEntity
  8
Layer_1
 62
7
100
AcDbLine
 10
1.326117
 20
7.317403
 30
0.0
 11
1.311999
 21
7.302631
 31
0.0
  0
LINE
  5
2be
100
AcDbEntity
  8
Layer_1
 62
7
100
AcDbLine
 10
1.311999
 20
7.302631
 30
0.0
 11
1.295546
 21
7.290513
 31
0.0
  0
LINE
  5
2bf
100
AcDbEntity
  8
Layer_1
 62
7
100
AcDbLine
 10
1.295546
 20
7.290513
 30
0.0
 11
1.277255
 21
7.281412
 31
0.0
  0
LINE
  5
2c0
100
AcDbEntity
  8
Layer_1
 62
7
100
AcDbLine
 10
1.277255
 20
7.281412
 30
0.0
 11
1.257664
 21
7.275600
 31
0.0
  0
LINE
  5
2c1
100
AcDbEntity
  8
Layer_1
 62
7
100
AcDbLine
 10
1.257664
 20
7.275600
 30
0.0
 11
1.237365
 21
7.273252
 31
0.0
  0
LINE
  5
2c2
100
AcDbEntity
  8
Layer_1
 62
7
100
AcDbLine
 10
1.237365
 20
7.273252
 30
0.0
 11
1.216968
 21
7.274436
 31
0.0
  0
LINE
  5
2c3
100
AcDbEntity
  8
Layer_1
 62
7
100
AcDbLine
 10
1.216968
 20
7.274436
 30
0.0
 11
1.197078
 21
7.279120
 31
0.0
  0
LINE
  5
2c4
100
AcDbEntity
  8
Layer_1
 62
7
100
AcDbLine
 10
1.197078
 20
7.279120
 30
0.0
 11
1.178294
 21
7.287162
 31
0.0
  0
LINE
  5
2c5
100
AcDbEntity
  8
Layer_1
 62
7
100
AcDbLine
 10
1.178294
 20
7.287162
 30
0.0
 11
1.161176
 21
7.298320
 31
0.0
  0
LINE
  5
2c6
100
AcDbEntity
  8
Layer_1
 62
7
100
AcDbLine
 10
1.161176
 20
7.298320
 30
0.0
 11
1.146235
 21
7.312262
 31
0.0
  0
LINE
  5
2c7
100
AcDbEntity
  8
Layer_1
 62
7
100
AcDbLine
 10
1.146235
 20
7.312262
 30
0.0
 11
1.133924
 21
7.328569
 31
0.0
  0
LINE
  5
2c8
100
AcDbEntity
  8
Layer_1
 62
7
100
AcDbLine
 10
1.133924
 20
7.328569
 30
0.0
 11
1.124609
 21
7.346755
 31
0.0
  0
LINE
  5
2c9
100
AcDbEntity
  8
Layer_1
 62
7
100
AcDbLine
 10
1.124609
 20
7.346755
 30
0.0
 11
1.118566
 21
7.366275
 31
0.0
  0
LINE
  5
2ca
100
AcDbEntity
  8
Layer_1
 62
7
100
AcDbLine
 10
1.118566
 20
7.366275
 30
0.0
 11
1.104082
 21
7.353538
 31
0.0
  0
LINE
  5
2cb
100
AcDbEntity
  8
Layer_1
 62
7
100
AcDbLine
 10
1.104082
 20
7.353538
 30
0.0
 11
1.091727
 21
7.338724
 31
0.0
  0
LINE
  5
2cc
100
AcDbEntity
  8
Layer_1
 62
7
100
AcDbLine
 10
1.091727
 20
7.338724
 30
0.0
 11
1.081798
 21
7.322186
 31
0.0
  0
LINE
  5
2cd
100
AcDbEntity
  8
Layer_1
 62
7
100
AcDbLine
 10
1.081798
 20
7.322186
 30
0.0
 11
1.074535
 21
7.304318
 31
0.0
  0
LINE
  5
2ce
100
AcDbEntity
  8
Layer_1
 62
7
100
AcDbLine
 10
1.074535
 20
7.304318
 30
0.0
 11
1.070105
 21
7.285545
 31
0.0
  0
LINE
  5
2cf
100
AcDbEntity
  8
Layer_1
 62
7
100
AcDbLine
 10
1.070105
 20
7.285545
 30
0.0
 11
1.068617
 21
7.266314
 31
0.0
  0
LINE
  5
2d0
100
AcDbEntity
  8
Layer_1
 62
7
100
AcDbLine
 10
1.068617
 20
7.266314
 30
0.0
 11
1.068617
 21
7.199122
 31
0.0
  0
LINE
  5
2d1
100
AcDbEntity
  8
Layer_1
 62
7
100
AcDbLine
 10
1.068617
 20
7.199122
 30
0.0
 11
1.070499
 21
7.177521
 31
0.0
  0
LINE
  5
2d2
100
AcDbEntity
  8
Layer_1
 62
7
100
AcDbLine
 10
1.070499
 20
7.177521
 30
0.0
 11
1.076082
 21
7.156569
 31
0.0
  0
LINE
  5
2d3
100
AcDbEntity
  8
Layer_1
 62
7
100
AcDbLine
 10
1.076082
 20
7.156569
 30
0.0
 11
1.085204
 21
7.136900
 31
0.0
  0
LINE
  5
2d4
100
AcDbEntity
  8
Layer_1
 62
7
100
AcDbLine
 10
1.085204
 20
7.136900
 30
0.0
 11
1.097590
 21
7.119101
 31
0.0
  0
LINE
  5
2d5
100
AcDbEntity
  8
Layer_1
 62
7
100
AcDbLine
 10
1.097590
 20
7.119101
 30
0.0
 11
1.112861
 21
7.103711
 31
0.0
  0
LINE
  5
2d6
100
AcDbEntity
  8
Layer_1
 62
7
100
AcDbLine
 10
1.112861
 20
7.103711
 30
0.0
 11
1.119393
 21
7.122360
 31
0.0
  0
LINE
  5
2d7
100
AcDbEntity
  8
Layer_1
 62
7
100
AcDbLine
 10
1.119393
 20
7.122360
 30
0.0
 11
1.128948
 21
7.139660
 31
0.0
  0
LINE
  5
2d8
100
AcDbEntity
  8
Layer_1
 62
7
100
AcDbLine
 10
1.128948
 20
7.139660
 30
0.0
 11
1.141251
 21
7.155128
 31
0.0
  0
LINE
  5
2d9
100
AcDbEntity
  8
Layer_1
 62
7
100
AcDbLine
 10
1.141251
 20
7.155128
 30
0.0
 11
1.155960
 21
7.168324
 31
0.0
  0
LINE
  5
2da
100
AcDbEntity
  8
Layer_1
 62
7
100
AcDbLine
 10
1.155960
 20
7.168324
 30
0.0
 11
1.172664
 21
7.178885
 31
0.0
  0
LINE
  5
2db
100
AcDbEntity
  8
Layer_1
 62
7
100
AcDbLine
 10
1.172664
 20
7.178885
 30
0.0
 11
1.190893
 21
7.186512
 31
0.0
  0
LINE
  5
2dc
100
AcDbEntity
  8
Layer_1
 62
7
100
AcDbLine
 10
1.190893
 20
7.186512
 30
0.0
 11
1.210141
 21
7.190993
 31
0.0
  0
LINE
  5
2dd
100
AcDbEntity
  8
Layer_1
 62
7
100
AcDbLine
 10
1.210141
 20
7.190993
 30
0.0
 11
1.229865
 21
7.192203
 31
0.0
  0
LINE
  5
2de
100
AcDbEntity
  8
Layer_1
 62
7
100
AcDbLine
 10
1.229865
 20
7.192203
 30
0.0
 11
1.249519
 21
7.190106
 31
0.0
  0
LINE
  5
2df
100
AcDbEntity
  8
Layer_1
 62
7
100
AcDbLine
 10
1.249519
 20
7.190106
 30
0.0
 11
1.268542
 21
7.184762
 31
0.0
  0
LINE
  5
2e0
100
AcDbEntity
  8
Layer_1
 62
7
100
AcDbLine
 10
1.268542
 20
7.184762
 30
0.0
 11
1.286412
 21
7.176321
 31
0.0
  0
LINE
  5
2e1
100
AcDbEntity
  8
Layer_1
 62
7
100
AcDbLine
 10
1.286412
 20
7.176321
 30
0.0
 11
1.302621
 21
7.165018
 31
0.0
  0
LINE
  5
2e2
100
AcDbEntity
  8
Layer_1
 62
7
100
AcDbLine
 10
1.302621
 20
7.165018
 30
0.0
 11
1.316724
 21
7.151172
 31
0.0
  0
LINE
  5
2e3
100
AcDbEntity
  8
Layer_1
 62
7
100
AcDbLine
 10
1.316724
 20
7.151172
 30
0.0
 11
1.328318
 21
7.135168
 31
0.0
  0
LINE
  5
2e4
100
AcDbEntity
  8
Layer_1
 62
7
100
AcDbLine
 10
1.328318
 20
7.135168
 30
0.0
 11
1.337078
 21
7.117455
 31
0.0
  0
LINE
  5
2e5
100
AcDbEntity
  8
Layer_1
 62
7
100
AcDbLine
 10
1.337078
 20
7.117455
 30
0.0
 11
1.342767
 21
7.098530
 31
0.0
  0
LINE
  5
2e6
100
AcDbEntity
  8
Layer_1
 62
7
100
AcDbLine
 10
1.342767
 20
7.098530
 30
0.0
 11
1.345216
 21
7.078920
 31
0.0
  0
LINE
  5
2e7
100
AcDbEntity
  8
Layer_1
 62
7
100
AcDbLine
 10
1.345216
 20
7.078920
 30
0.0
 11
1.344366
 21
7.059175
 31
0.0
  0
LINE
  5
2e8
100
AcDbEntity
  8
Layer_1
 62
7
100
AcDbLine
 10
1.344366
 20
7.059175
 30
0.0
 11
1.340232
 21
7.039849
 31
0.0
  0
LINE
  5
2e9
100
AcDbEntity
  8
Layer_1
 62
7
100
AcDbLine
 10
1.340232
 20
7.039849
 30
0.0
 11
1.332937
 21
7.021483
 31
0.0
  0
LINE
  5
2ea
100
AcDbEntity
  8
Layer_1
 62
7
100
AcDbLine
 10
1.332937
 20
7.021483
 30
0.0
 11
1.322681
 21
7.004593
 31
0.0
  0
LINE
  5
2eb
100
AcDbEntity
  8
Layer_1
 62
7
100
AcDbLine
 10
1.322681
 20
7.004593
 30
0.0
 11
1.309751
 21
6.989648
 31
0.0
  0
LINE
  5
2ec
100
AcDbEntity
  8
Layer_1
 62
7
100
AcDbLine
 10
1.309751
 20
6.989648
 30
0.0
 11
1.309925
 21
6.985498
 31
0.0
  0
LINE
  5
2ed
100
AcDbEntity
  8
Layer_1
 62
7
100
AcDbLine
 10
1.309925
 20
6.985498
 30
0.0
 11
1.303000
 21
6.859250
 31
0.0
  0
LINE
  5
2ee
100
AcDbEntity
  8
Layer_1
 62
7
100
AcDbLine
 10
1.303000
 20
6.859250
 30
0.0
 11
1.298689
 21
6.733294
 31
0.0
  0
LINE
  5
2ef
100
AcDbEntity
  8
Layer_1
 62
7
100
AcDbLine
 10
1.298689
 20
6.733294
 30
0.0
 11
1.297000
 21
6.607632
 31
0.0
  0
LINE
  5
2f0
100
AcDbEntity
  8
Layer_1
 62
7
100
AcDbLine
 10
1.297000
 20
6.607632
 30
0.0
 11
1.297961
 21
6.482266
 31
0.0
  0
LINE
  5
2f1
100
AcDbEntity
  8
Layer_1
 62
7
100
AcDbLine
 10
1.297961
 20
6.482266
 30
0.0
 11
1.312787
 21
6.468120
 31
0.0
  0
LINE
  5
2f2
100
AcDbEntity
  8
Layer_1
 62
7
100
AcDbLine
 10
1.312787
 20
6.468120
 30
0.0
 11
1.324945
 21
6.451624
 31
0.0
  0
LINE
  5
2f3
100
AcDbEntity
  8
Layer_1
 62
7
100
AcDbLine
 10
1.324945
 20
6.451624
 30
0.0
 11
1.334071
 21
6.433274
 31
0.0
  0
LINE
  5
2f4
100
AcDbEntity
  8
Layer_1
 62
7
100
AcDbLine
 10
1.334071
 20
6.433274
 30
0.0
 11
1.339886
 21
6.413624
 31
0.0
  0
LINE
  5
2f5
100
AcDbEntity
  8
Layer_1
 62
7
100
AcDbLine
 10
1.339886
 20
6.413624
 30
0.0
 11
1.342217
 21
6.393262
 31
0.0
  0
LINE
  5
2f6
100
AcDbEntity
  8
Layer_1
 62
7
100
AcDbLine
 10
1.342217
 20
6.393262
 30
0.0
 11
1.340992
 21
6.372809
 31
0.0
  0
LINE
  5
2f7
100
AcDbEntity
  8
Layer_1
 62
7
100
AcDbLine
 10
1.340992
 20
6.372809
 30
0.0
 11
1.336252
 21
6.352872
 31
0.0
  0
LINE
  5
2f8
100
AcDbEntity
  8
Layer_1
 62
7
100
AcDbLine
 10
1.336252
 20
6.352872
 30
0.0
 11
1.328138
 21
6.334053
 31
0.0
  0
LINE
  5
2f9
100
AcDbEntity
  8
Layer_1
 62
7
100
AcDbLine
 10
1.328138
 20
6.334053
 30
0.0
 11
1.316890
 21
6.316923
 31
0.0
  0
LINE
  5
2fa
100
AcDbEntity
  8
Layer_1
 62
7
100
AcDbLine
 10
1.316890
 20
6.316923
 30
0.0
 11
1.302854
 21
6.301994
 31
0.0
  0
LINE
  5
2fb
100
AcDbEntity
  8
Layer_1
 62
7
100
AcDbLine
 10
1.302854
 20
6.301994
 30
0.0
 11
1.286445
 21
6.289715
 31
0.0
  0
LINE
  5
2fc
100
AcDbEntity
  8
Layer_1
 62
7
100
AcDbLine
 10
1.286445
 20
6.289715
 30
0.0
 11
1.268165
 21
6.280455
 31
0.0
  0
LINE
  5
2fd
100
AcDbEntity
  8
Layer_1
 62
7
100
AcDbLine
 10
1.268165
 20
6.280455
 30
0.0
 11
1.248555
 21
6.274498
 31
0.0
  0
LINE
  5
2fe
100
AcDbEntity
  8
Layer_1
 62
7
100
AcDbLine
 10
1.248555
 20
6.274498
 30
0.0
 11
1.228217
 21
6.272018
 31
0.0
  0
LINE
  5
2ff
100
AcDbEntity
  8
Layer_1
 62
7
100
AcDbLine
 10
1.228217
 20
6.272018
 30
0.0
 11
1.207748
 21
6.273092
 31
0.0
  0
LINE
  5
300
100
AcDbEntity
  8
Layer_1
 62
7
100
AcDbLine
 10
1.207748
 20
6.273092
 30
0.0
 11
1.187780
 21
6.277687
 31
0.0
  0
LINE
  5
301
100
AcDbEntity
  8
Layer_1
 62
7
100
AcDbLine
 10
1.187780
 20
6.277687
 30
0.0
 11
1.168902
 21
6.285667
 31
0.0
  0
LINE
  5
302
100
AcDbEntity
  8
Layer_1
 62
7
100
AcDbLine
 10
1.168902
 20
6.285667
 30
0.0
 11
1.151689
 21
6.296785
 31
0.0
  0
LINE
  5
303
100
AcDbEntity
  8
Layer_1
 62
7
100
AcDbLine
 10
1.151689
 20
6.296785
 30
0.0
 11
1.136658
 21
6.310714
 31
0.0
  0
LINE
  5
304
100
AcDbEntity
  8
Layer_1
 62
7
100
AcDbLine
 10
1.136658
 20
6.310714
 30
0.0
 11
1.124260
 21
6.327033
 31
0.0
  0
LINE
  5
305
100
AcDbEntity
  8
Layer_1
 62
7
100
AcDbLine
 10
1.124260
 20
6.327033
 30
0.0
 11
1.114870
 21
6.345246
 31
0.0
  0
LINE
  5
306
100
AcDbEntity
  8
Layer_1
 62
7
100
AcDbLine
 10
1.114870
 20
6.345246
 30
0.0
 11
1.108768
 21
6.364809
 31
0.0
  0
LINE
  5
307
100
AcDbEntity
  8
Layer_1
 62
7
100
AcDbLine
 10
1.108768
 20
6.364809
 30
0.0
 11
1.094358
 21
6.352073
 31
0.0
  0
LINE
  5
308
100
AcDbEntity
  8
Layer_1
 62
7
100
AcDbLine
 10
1.094358
 20
6.352073
 30
0.0
 11
1.082075
 21
6.337277
 31
0.0
  0
LINE
  5
309
100
AcDbEntity
  8
Layer_1
 62
7
100
AcDbLine
 10
1.082075
 20
6.337277
 30
0.0
 11
1.072205
 21
6.320773
 31
0.0
  0
LINE
  5
30a
100
AcDbEntity
  8
Layer_1
 62
7
100
AcDbLine
 10
1.072205
 20
6.320773
 30
0.0
 11
1.064980
 21
6.302951
 31
0.0
  0
LINE
  5
30b
100
AcDbEntity
  8
Layer_1
 62
7
100
AcDbLine
 10
1.064980
 20
6.302951
 30
0.0
 11
1.060579
 21
6.284234
 31
0.0
  0
LINE
  5
30c
100
AcDbEntity
  8
Layer_1
 62
7
100
AcDbLine
 10
1.060579
 20
6.284234
 30
0.0
 11
1.059102
 21
6.265061
 31
0.0
  0
LINE
  5
30d
100
AcDbEntity
  8
Layer_1
 62
7
100
AcDbLine
 10
1.059102
 20
6.265061
 30
0.0
 11
1.059102
 21
6.198447
 31
0.0
  0
LINE
  5
30e
100
AcDbEntity
  8
Layer_1
 62
7
100
AcDbLine
 10
1.059102
 20
6.198447
 30
0.0
 11
1.060693
 21
6.178561
 31
0.0
  0
LINE
  5
30f
100
AcDbEntity
  8
Layer_1
 62
7
100
AcDbLine
 10
1.060693
 20
6.178561
 30
0.0
 11
1.065429
 21
6.159179
 31
0.0
  0
LINE
  5
310
100
AcDbEntity
  8
Layer_1
 62
7
100
AcDbLine
 10
1.065429
 20
6.159179
 30
0.0
 11
1.073189
 21
6.140801
 31
0.0
  0
LINE
  5
311
100
AcDbEntity
  8
Layer_1
 62
7
100
AcDbLine
 10
1.073189
 20
6.140801
 30
0.0
 11
1.083772
 21
6.123888
 31
0.0
  0
LINE
  5
312
100
AcDbEntity
  8
Layer_1
 62
7
100
AcDbLine
 10
1.083772
 20
6.123888
 30
0.0
 11
1.096913
 21
6.108876
 31
0.0
  0
LINE
  5
313
100
AcDbEntity
  8
Layer_1
 62
7
100
AcDbLine
 10
1.096913
 20
6.108876
 30
0.0
 11
1.112272
 21
6.096144
 31
0.0
  0
LINE
  5
314
100
AcDbEntity
  8
Layer_1
 62
7
100
AcDbLine
 10
1.112272
 20
6.096144
 30
0.0
 11
1.117717
 21
6.115254
 31
0.0
  0
LINE
  5
315
100
AcDbEntity
  8
Layer_1
 62
7
100
AcDbLine
 10
1.117717
 20
6.115254
 30
0.0
 11
1.126287
 21
6.133179
 31
0.0
  0
LINE
  5
316
100
AcDbEntity
  8
Layer_1
 62
7
100
AcDbLine
 10
1.126287
 20
6.133179
 30
0.0
 11
1.137744
 21
6.149415
 31
0.0
  0
LINE
  5
317
100
AcDbEntity
  8
Layer_1
 62
7
100
AcDbLine
 10
1.137744
 20
6.149415
 30
0.0
 11
1.151760
 21
6.163502
 31
0.0
  0
LINE
  5
318
100
AcDbEntity
  8
Layer_1
 62
7
100
AcDbLine
 10
1.151760
 20
6.163502
 30
0.0
 11
1.167937
 21
6.175037
 31
0.0
  0
LINE
  5
319
100
AcDbEntity
  8
Layer_1
 62
7
100
AcDbLine
 10
1.167937
 20
6.175037
 30
0.0
 11
1.185819
 21
6.183699
 31
0.0
  0
LINE
  5
31a
100
AcDbEntity
  8
Layer_1
 62
7
100
AcDbLine
 10
1.185819
 20
6.183699
 30
0.0
 11
1.204902
 21
6.189242
 31
0.0
  0
LINE
  5
31b
100
AcDbEntity
  8
Layer_1
 62
7
100
AcDbLine
 10
1.204902
 20
6.189242
 30
0.0
 11
1.224642
 21
6.191506
 31
0.0
  0
LINE
  5
31c
100
AcDbEntity
  8
Layer_1
 62
7
100
AcDbLine
 10
1.224642
 20
6.191506
 30
0.0
 11
1.244480
 21
6.190427
 31
0.0
  0
LINE
  5
31d
100
AcDbEntity
  8
Layer_1
 62
7
100
AcDbLine
 10
1.244480
 20
6.190427
 30
0.0
 11
1.263858
 21
6.186041
 31
0.0
  0
LINE
  5
31e
100
AcDbEntity
  8
Layer_1
 62
7
100
AcDbLine
 10
1.263858
 20
6.186041
 30
0.0
 11
1.282228
 21
6.178466
 31
0.0
  0
LINE
  5
31f
100
AcDbEntity
  8
Layer_1
 62
7
100
AcDbLine
 10
1.282228
 20
6.178466
 30
0.0
 11
1.299071
 21
6.167919
 31
0.0
  0
LINE
  5
320
100
AcDbEntity
  8
Layer_1
 62
7
100
AcDbLine
 10
1.299071
 20
6.167919
 30
0.0
 11
1.313902
 21
6.154699
 31
0.0
  0
LINE
  5
321
100
AcDbEntity
  8
Layer_1
 62
7
100
AcDbLine
 10
1.313902
 20
6.154699
 30
0.0
 11
1.326311
 21
6.139179
 31
0.0
  0
LINE
  5
322
100
AcDbEntity
  8
Layer_1
 62
7
100
AcDbLine
 10
1.326311
 20
6.139179
 30
0.0
 11
1.335941
 21
6.121801
 31
0.0
  0
LINE
  5
323
100
AcDbEntity
  8
Layer_1
 62
7
100
AcDbLine
 10
1.335941
 20
6.121801
 30
0.0
 11
1.342520
 21
6.103049
 31
0.0
  0
LINE
  5
324
100
AcDbEntity
  8
Layer_1
 62
7
100
AcDbLine
 10
1.342520
 20
6.103049
 30
0.0
 11
1.345866
 21
6.083466
 31
0.0
  0
LINE
  5
325
100
AcDbEntity
  8
Layer_1
 62
7
100
AcDbLine
 10
1.345866
 20
6.083466
 30
0.0
 11
1.345877
 21
6.063596
 31
0.0
  0
LINE
  5
326
100
AcDbEntity
  8
Layer_1
 62
7
100
AcDbLine
 10
1.345877
 20
6.063596
 30
0.0
 11
1.342562
 21
6.044006
 31
0.0
  0
LINE
  5
327
100
AcDbEntity
  8
Layer_1
 62
7
100
AcDbLine
 10
1.342562
 20
6.044006
 30
0.0
 11
1.336007
 21
6.025246
 31
0.0
  0
LINE
  5
328
100
AcDbEntity
  8
Layer_1
 62
7
100
AcDbLine
 10
1.336007
 20
6.025246
 30
0.0
 11
1.326401
 21
6.007852
 31
0.0
  0
LINE
  5
329
100
AcDbEntity
  8
Layer_1
 62
7
100
AcDbLine
 10
1.326401
 20
6.007852
 30
0.0
 11
1.338649
 21
5.899517
 31
0.0
  0
LINE
  5
32a
100
AcDbEntity
  8
Layer_1
 62
7
100
AcDbLine
 10
1.338649
 20
5.899517
 30
0.0
 11
1.353106
 21
5.791431
 31
0.0
  0
LINE
  5
32b
100
AcDbEntity
  8
Layer_1
 62
7
100
AcDbLine
 10
1.353106
 20
5.791431
 30
0.0
 11
1.369806
 21
5.683600
 31
0.0
  0
LINE
  5
32c
100
AcDbEntity
  8
Layer_1
 62
7
100
AcDbLine
 10
1.369806
 20
5.683600
 30
0.0
 11
1.388795
 21
5.576021
 31
0.0
  0
LINE
  5
32d
100
AcDbEntity
  8
Layer_1
 62
7
100
AcDbLine
 10
1.388795
 20
5.576021
 30
0.0
 11
1.410102
 21
5.468706
 31
0.0
  0
LINE
  5
32e
100
AcDbEntity
  8
Layer_1
 62
7
100
AcDbLine
 10
1.410102
 20
5.468706
 30
0.0
 11
1.433775
 21
5.361655
 31
0.0
  0
LINE
  5
32f
100
AcDbEntity
  8
Layer_1
 62
7
100
AcDbLine
 10
1.433775
 20
5.361655
 30
0.0
 11
1.459842
 21
5.254872
 31
0.0
  0
LINE
  5
330
100
AcDbEntity
  8
Layer_1
 62
7
100
AcDbLine
 10
1.459842
 20
5.254872
 30
0.0
 11
1.488342
 21
5.148364
 31
0.0
  0
LINE
  5
331
100
AcDbEntity
  8
Layer_1
 62
7
100
AcDbLine
 10
1.488342
 20
5.148364
 30
0.0
 11
1.519306
 21
5.042132
 31
0.0
  0
LINE
  5
332
100
AcDbEntity
  8
Layer_1
 62
7
100
AcDbLine
 10
1.519306
 20
5.042132
 30
0.0
 11
1.552751
 21
4.936179
 31
0.0
  0
LINE
  5
333
100
AcDbEntity
  8
Layer_1
 62
7
100
AcDbLine
 10
1.552751
 20
4.936179
 30
0.0
 11
1.588704
 21
4.830510
 31
0.0
  0
LINE
  5
334
100
AcDbEntity
  8
Layer_1
 62
7
100
AcDbLine
 10
1.588704
 20
4.830510
 30
0.0
 11
1.627165
 21
4.725120
 31
0.0
  0
LINE
  5
335
100
AcDbEntity
  8
Layer_1
 62
7
100
AcDbLine
 10
1.627165
 20
4.725120
 30
0.0
 11
1.668145
 21
4.620013
 31
0.0
  0
LINE
  5
336
100
AcDbEntity
  8
Layer_1
 62
7
100
AcDbLine
 10
1.668145
 20
4.620013
 30
0.0
 11
1.711629
 21
4.515187
 31
0.0
  0
LINE
  5
337
100
AcDbEntity
  8
Layer_1
 62
7
100
AcDbLine
 10
1.711629
 20
4.515187
 30
0.0
 11
1.757602
 21
4.410643
 31
0.0
  0
LINE
  5
338
100
AcDbEntity
  8
Layer_1
 62
7
100
AcDbLine
 10
1.757602
 20
4.410643
 30
0.0
 11
1.806043
 21
4.306376
 31
0.0
  0
LINE
  5
339
100
AcDbEntity
  8
Layer_1
 62
7
100
AcDbLine
 10
1.806043
 20
4.306376
 30
0.0
 11
1.856913
 21
4.202380
 31
0.0
  0
LINE
  5
33a
100
AcDbEntity
  8
Layer_1
 62
7
100
AcDbLine
 10
1.856913
 20
4.202380
 30
0.0
 11
1.910184
 21
4.098651
 31
0.0
  0
LINE
  5
33b
100
AcDbEntity
  8
Layer_1
 62
7
100
AcDbLine
 10
1.910184
 20
4.098651
 30
0.0
 11
1.965810
 21
3.995191
 31
0.0
  0
LINE
  5
33c
100
AcDbEntity
  8
Layer_1
 62
7
100
AcDbLine
 10
1.965810
 20
3.995191
 30
0.0
 11
2.023751
 21
3.891990
 31
0.0
  0
LINE
  5
33d
100
AcDbEntity
  8
Layer_1
 62
7
100
AcDbLine
 10
2.023751
 20
3.891990
 30
0.0
 11
2.083960
 21
3.789045
 31
0.0
  0
LINE
  5
33e
100
AcDbEntity
  8
Layer_1
 62
7
100
AcDbLine
 10
2.083960
 20
3.789045
 30
0.0
 11
2.146397
 21
3.686348
 31
0.0
  0
LINE
  5
33f
100
AcDbEntity
  8
Layer_1
 62
7
100
AcDbLine
 10
2.146397
 20
3.686348
 30
0.0
 11
2.211011
 21
3.583891
 31
0.0
  0
LINE
  5
340
100
AcDbEntity
  8
Layer_1
 62
7
100
AcDbLine
 10
2.211011
 20
3.583891
 30
0.0
 11
2.277763
 21
3.481687
 31
0.0
  0
LINE
  5
341
100
AcDbEntity
  8
Layer_1
 62
7
100
AcDbLine
 10
2.277763
 20
3.481687
 30
0.0
 11
2.346606
 21
3.379718
 31
0.0
  0
LINE
  5
342
100
AcDbEntity
  8
Layer_1
 62
7
100
AcDbLine
 10
2.346606
 20
3.379718
 30
0.0
 11
2.417503
 21
3.277946
 31
0.0
  0
LINE
  5
343
100
AcDbEntity
  8
Layer_1
 62
7
100
AcDbLine
 10
2.417503
 20
3.277946
 30
0.0
 11
2.490413
 21
3.176450
 31
0.0
  0
LINE
  5
344
100
AcDbEntity
  8
Layer_1
 62
7
100
AcDbLine
 10
2.490413
 20
3.176450
 30
0.0
 11
2.565299
 21
3.075151
 31
0.0
  0
LINE
  5
345
100
AcDbEntity
  8
Layer_1
 62
7
100
AcDbLine
 10
2.565299
 20
3.075151
 30
0.0
 11
2.642126
 21
2.974088
 31
0.0
  0
LINE
  5
346
100
AcDbEntity
  8
Layer_1
 62
7
100
AcDbLine
 10
2.642126
 20
2.974088
 30
0.0
 11
2.720874
 21
2.873222
 31
0.0
  0
LINE
  5
347
100
AcDbEntity
  8
Layer_1
 62
7
100
AcDbLine
 10
2.720874
 20
2.873222
 30
0.0
 11
2.801507
 21
2.772553
 31
0.0
  0
LINE
  5
348
100
AcDbEntity
  8
Layer_1
 62
7
100
AcDbLine
 10
2.801507
 20
2.772553
 30
0.0
 11
2.884011
 21
2.672120
 31
0.0
  0
LINE
  5
349
100
AcDbEntity
  8
Layer_1
 62
7
100
AcDbLine
 10
2.884011
 20
2.672120
 30
0.0
 11
2.846511
 21
2.659639
 31
0.0
  0
LINE
  5
34a
100
AcDbEntity
  8
Layer_1
 62
7
100
AcDbLine
 10
2.846511
 20
2.659639
 30
0.0
 11
2.810381
 21
2.643576
 31
0.0
  0
LINE
  5
34b
100
AcDbEntity
  8
Layer_1
 62
7
100
AcDbLine
 10
2.810381
 20
2.643576
 30
0.0
 11
2.775960
 21
2.624167
 31
0.0
  0
LINE
  5
34c
100
AcDbEntity
  8
Layer_1
 62
7
100
AcDbLine
 10
2.775960
 20
2.624167
 30
0.0
 11
2.743559
 21
2.601529
 31
0.0
  0
LINE
  5
34d
100
AcDbEntity
  8
Layer_1
 62
7
100
AcDbLine
 10
2.743559
 20
2.601529
 30
0.0
 11
2.713484
 21
2.575899
 31
0.0
  0
LINE
  5
34e
100
AcDbEntity
  8
Layer_1
 62
7
100
AcDbLine
 10
2.713484
 20
2.575899
 30
0.0
 11
2.686011
 21
2.547474
 31
0.0
  0
LINE
  5
34f
100
AcDbEntity
  8
Layer_1
 62
7
100
AcDbLine
 10
2.686011
 20
2.547474
 30
0.0
 11
2.661389
 21
2.516529
 31
0.0
  0
LINE
  5
350
100
AcDbEntity
  8
Layer_1
 62
7
100
AcDbLine
 10
2.661389
 20
2.516529
 30
0.0
 11
2.639854
 21
2.483379
 31
0.0
  0
LINE
  5
351
100
AcDbEntity
  8
Layer_1
 62
7
100
AcDbLine
 10
2.639854
 20
2.483379
 30
0.0
 11
2.621602
 21
2.448340
 31
0.0
  0
LINE
  5
352
100
AcDbEntity
  8
Layer_1
 62
7
100
AcDbLine
 10
2.621602
 20
2.448340
 30
0.0
 11
2.606799
 21
2.411687
 31
0.0
  0
LINE
  5
353
100
AcDbEntity
  8
Layer_1
 62
7
100
AcDbLine
 10
2.606799
 20
2.411687
 30
0.0
 11
2.595582
 21
2.373773
 31
0.0
  0
LINE
  5
354
100
AcDbEntity
  8
Layer_1
 62
7
100
AcDbLine
 10
2.595582
 20
2.373773
 30
0.0
 11
2.588059
 21
2.334994
 31
0.0
  0
LINE
  5
355
100
AcDbEntity
  8
Layer_1
 62
7
100
AcDbLine
 10
2.588059
 20
2.334994
 30
0.0
 11
2.584295
 21
2.295624
 31
0.0
  0
LINE
  5
356
100
AcDbEntity
  8
Layer_1
 62
7
100
AcDbLine
 10
2.584295
 20
2.295624
 30
0.0
 11
2.584328
 21
2.256096
 31
0.0
  0
LINE
  5
357
100
AcDbEntity
  8
Layer_1
 62
7
100
AcDbLine
 10
2.584328
 20
2.256096
 30
0.0
 11
2.588155
 21
2.216765
 31
0.0
  0
LINE
  5
358
100
AcDbEntity
  8
Layer_1
 62
7
100
AcDbLine
 10
2.588155
 20
2.216765
 30
0.0
 11
2.595741
 21
2.177986
 31
0.0
  0
LINE
  5
359
100
AcDbEntity
  8
Layer_1
 62
7
100
AcDbLine
 10
2.595741
 20
2.177986
 30
0.0
 11
2.607017
 21
2.140072
 31
0.0
  0
LINE
  5
35a
100
AcDbEntity
  8
Layer_1
 62
7
100
AcDbLine
 10
2.607017
 20
2.140072
 30
0.0
 11
2.621879
 21
2.103458
 31
0.0
  0
LINE
  5
35b
100
AcDbEntity
  8
Layer_1
 62
7
100
AcDbLine
 10
2.621879
 20
2.103458
 30
0.0
 11
2.640190
 21
2.068419
 31
0.0
  0
LINE
  5
35c
100
AcDbEntity
  8
Layer_1
 62
7
100
AcDbLine
 10
2.640190
 20
2.068419
 30
0.0
 11
2.661777
 21
2.035309
 31
0.0
  0
LINE
  5
35d
100
AcDbEntity
  8
Layer_1
 62
7
100
AcDbLine
 10
2.661777
 20
2.035309
 30
0.0
 11
2.686446
 21
2.004442
 31
0.0
  0
LINE
  5
35e
100
AcDbEntity
  8
Layer_1
 62
7
100
AcDbLine
 10
2.686446
 20
2.004442
 30
0.0
 11
2.713966
 21
1.976057
 31
0.0
  0
LINE
  5
35f
100
AcDbEntity
  8
Layer_1
 62
7
100
AcDbLine
 10
2.713966
 20
1.976057
 30
0.0
 11
2.744080
 21
1.950466
 31
0.0
  0
LINE
  5
360
100
AcDbEntity
  8
Layer_1
 62
7
100
AcDbLine
 10
2.744080
 20
1.950466
 30
0.0
 11
2.776517
 21
1.927868
 31
0.0
  0
LINE
  5
361
100
AcDbEntity
  8
Layer_1
 62
7
100
AcDbLine
 10
2.776517
 20
1.927868
 30
0.0
 11
2.810970
 21
1.908498
 31
0.0
  0
LINE
  5
362
100
AcDbEntity
  8
Layer_1
 62
7
100
AcDbLine
 10
2.810970
 20
1.908498
 30
0.0
 11
2.847127
 21
1.892513
 31
0.0
  0
LINE
  5
363
100
AcDbEntity
  8
Layer_1
 62
7
100
AcDbLine
 10
2.847127
 20
1.892513
 30
0.0
 11
2.884647
 21
1.880112
 31
0.0
  0
LINE
  5
364
100
AcDbEntity
  8
Layer_1
 62
7
100
AcDbLine
 10
2.884647
 20
1.880112
 30
0.0
 11
2.923190
 21
1.871332
 31
0.0
  0
LINE
  5
365
100
AcDbEntity
  8
Layer_1
 62
7
100
AcDbLine
 10
2.923190
 20
1.871332
 30
0.0
 11
2.962395
 21
1.866293
 31
0.0
  0
LINE
  5
366
100
AcDbEntity
  8
Layer_1
 62
7
100
AcDbLine
 10
2.962395
 20
1.866293
 30
0.0
 11
3.001903
 21
1.865072
 31
0.0
  0
LINE
  5
367
100
AcDbEntity
  8
Layer_1
 62
7
100
AcDbLine
 10
3.001903
 20
1.865072
 30
0.0
 11
3.041348
 21
1.867631
 31
0.0
  0
LINE
  5
368
100
AcDbEntity
  8
Layer_1
 62
7
100
AcDbLine
 10
3.041348
 20
1.867631
 30
0.0
 11
3.080364
 21
1.873970
 31
0.0
  0
LINE
  5
369
100
AcDbEntity
  8
Layer_1
 62
7
100
AcDbLine
 10
3.080364
 20
1.873970
 30
0.0
 11
3.118588
 21
1.884009
 31
0.0
  0
LINE
  5
36a
100
AcDbEntity
  8
Layer_1
 62
7
100
AcDbLine
 10
3.118588
 20
1.884009
 30
0.0
 11
3.155675
 21
1.897710
 31
0.0
  0
LINE
  5
36b
100
AcDbEntity
  8
Layer_1
 62
7
100
AcDbLine
 10
3.155675
 20
1.897710
 30
0.0
 11
3.191273
 21
1.914876
 31
0.0
  0
LINE
  5
36c
100
AcDbEntity
  8
Layer_1
 62
7
100
AcDbLine
 10
3.191273
 20
1.914876
 30
0.0
 11
3.225060
 21
1.935387
 31
0.0
  0
LINE
  5
36d
100
AcDbEntity
  8
Layer_1
 62
7
100
AcDbLine
 10
3.225060
 20
1.935387
 30
0.0
 11
3.256722
 21
1.959049
 31
0.0
  0
LINE
  5
36e
100
AcDbEntity
  8
Layer_1
 62
7
100
AcDbLine
 10
3.256722
 20
1.959049
 30
0.0
 11
3.285966
 21
1.985624
 31
0.0
  0
LINE
  5
36f
100
AcDbEntity
  8
Layer_1
 62
7
100
AcDbLine
 10
3.285966
 20
1.985624
 30
0.0
 11
3.312521
 21
2.014915
 31
0.0
  0
LINE
  5
370
100
AcDbEntity
  8
Layer_1
 62
7
100
AcDbLine
 10
3.312521
 20
2.014915
 30
0.0
 11
3.336139
 21
2.046608
 31
0.0
  0
LINE
  5
371
100
AcDbEntity
  8
Layer_1
 62
7
100
AcDbLine
 10
3.336139
 20
2.046608
 30
0.0
 11
3.356608
 21
2.080427
 31
0.0
  0
LINE
  5
372
100
AcDbEntity
  8
Layer_1
 62
7
100
AcDbLine
 10
3.356608
 20
2.080427
 30
0.0
 11
3.373738
 21
2.116057
 31
0.0
  0
LINE
  5
373
100
AcDbEntity
  8
Layer_1
 62
7
100
AcDbLine
 10
3.373738
 20
2.116057
 30
0.0
 11
3.387364
 21
2.153143
 31
0.0
  0
LINE
  5
374
100
AcDbEntity
  8
Layer_1
 62
7
100
AcDbLine
 10
3.387364
 20
2.153143
 30
0.0
 11
3.397364
 21
2.191411
 31
0.0
  0
LINE
  5
375
100
AcDbEntity
  8
Layer_1
 62
7
100
AcDbLine
 10
3.397364
 20
2.191411
 30
0.0
 11
3.403647
 21
2.230427
 31
0.0
  0
LINE
  5
376
100
AcDbEntity
  8
Layer_1
 62
7
100
AcDbLine
 10
3.403647
 20
2.230427
 30
0.0
 11
3.406159
 21
2.269876
 31
0.0
  0
LINE
  5
377
100
AcDbEntity
  8
Layer_1
 62
7
100
AcDbLine
 10
3.406159
 20
2.269876
 30
0.0
 11
3.404864
 21
2.309364
 31
0.0
  0
LINE
  5
378
100
AcDbEntity
  8
Layer_1
 62
7
100
AcDbLine
 10
3.404864
 20
2.309364
 30
0.0
 11
3.399789
 21
2.348576
 31
0.0
  0
LINE
  5
379
100
AcDbEntity
  8
Layer_1
 62
7
100
AcDbLine
 10
3.399789
 20
2.348576
 30
0.0
 11
3.390970
 21
2.387080
 31
0.0
  0
LINE
  5
37a
100
AcDbEntity
  8
Layer_1
 62
7
100
AcDbLine
 10
3.390970
 20
2.387080
 30
0.0
 11
3.378490
 21
2.424600
 31
0.0
  0
LINE
  5
37b
100
AcDbEntity
  8
Layer_1
 62
7
100
AcDbLine
 10
3.378490
 20
2.424600
 30
0.0
 11
3.362470
 21
2.460742
 31
0.0
  0
LINE
  5
37c
100
AcDbEntity
  8
Layer_1
 62
7
100
AcDbLine
 10
3.362470
 20
2.460742
 30
0.0
 11
3.343053
 21
2.495151
 31
0.0
  0
LINE
  5
37d
100
AcDbEntity
  8
Layer_1
 62
7
100
AcDbLine
 10
3.343053
 20
2.495151
 30
0.0
 11
3.320419
 21
2.527553
 31
0.0
  0
LINE
  5
37e
100
AcDbEntity
  8
Layer_1
 62
7
100
AcDbLine
 10
3.320419
 20
2.527553
 30
0.0
 11
3.283033
 21
2.569679
 31
0.0
  0
LINE
  5
37f
100
AcDbEntity
  8
Layer_1
 62
7
100
AcDbLine
 10
3.283033
 20
2.569679
 30
0.0
 11
3.202978
 21
2.661175
 31
0.0
  0
LINE
  5
380
100
AcDbEntity
  8
Layer_1
 62
7
100
AcDbLine
 10
3.202978
 20
2.661175
 30
0.0
 11
3.124517
 21
2.752828
 31
0.0
  0
LINE
  5
381
100
AcDbEntity
  8
Layer_1
 62
7
100
AcDbLine
 10
3.124517
 20
2.752828
 30
0.0
 11
3.047667
 21
2.844561
 31
0.0
  0
LINE
  5
382
100
AcDbEntity
  8
Layer_1
 62
7
100
AcDbLine
 10
3.047667
 20
2.844561
 30
0.0
 11
2.972462
 21
2.936450
 31
0.0
  0
LINE
  5
383
100
AcDbEntity
  8
Layer_1
 62
7
100
AcDbLine
 10
2.972462
 20
2.936450
 30
0.0
 11
2.898927
 21
3.028458
 31
0.0
  0
LINE
  5
384
100
AcDbEntity
  8
Layer_1
 62
7
100
AcDbLine
 10
2.898927
 20
3.028458
 30
0.0
 11
2.827084
 21
3.120545
 31
0.0
  0
LINE
  5
385
100
AcDbEntity
  8
Layer_1
 62
7
100
AcDbLine
 10
2.827084
 20
3.120545
 30
0.0
 11
2.756958
 21
3.212750
 31
0.0
  0
LINE
  5
386
100
AcDbEntity
  8
Layer_1
 62
7
100
AcDbLine
 10
2.756958
 20
3.212750
 30
0.0
 11
2.688580
 21
3.305072
 31
0.0
  0
LINE
  5
387
100
AcDbEntity
  8
Layer_1
 62
7
100
AcDbLine
 10
2.688580
 20
3.305072
 30
0.0
 11
2.621974
 21
3.397474
 31
0.0
  0
LINE
  5
388
100
AcDbEntity
  8
Layer_1
 62
7
100
AcDbLine
 10
2.621974
 20
3.397474
 30
0.0
 11
2.557163
 21
3.489954
 31
0.0
  0
LINE
  5
389
100
AcDbEntity
  8
Layer_1
 62
7
100
AcDbLine
 10
2.557163
 20
3.489954
 30
0.0
 11
2.494171
 21
3.582553
 31
0.0
  0
LINE
  5
38a
100
AcDbEntity
  8
Layer_1
 62
7
100
AcDbLine
 10
2.494171
 20
3.582553
 30
0.0
 11
2.433029
 21
3.675250
 31
0.0
  0
LINE
  5
38b
100
AcDbEntity
  8
Layer_1
 62
7
100
AcDbLine
 10
2.433029
 20
3.675250
 30
0.0
 11
2.373761
 21
3.768017
 31
0.0
  0
LINE
  5
38c
100
AcDbEntity
  8
Layer_1
 62
7
100
AcDbLine
 10
2.373761
 20
3.768017
 30
0.0
 11
2.316391
 21
3.860868
 31
0.0
  0
LINE
  5
38d
100
AcDbEntity
  8
Layer_1
 62
7
100
AcDbLine
 10
2.316391
 20
3.860868
 30
0.0
 11
2.260950
 21
3.953797
 31
0.0
  0
LINE
  5
38e
100
AcDbEntity
  8
Layer_1
 62
7
100
AcDbLine
 10
2.260950
 20
3.953797
 30
0.0
 11
2.207454
 21
4.046801
 31
0.0
  0
LINE
  5
38f
100
AcDbEntity
  8
Layer_1
 62
7
100
AcDbLine
 10
2.207454
 20
4.046801
 30
0.0
 11
2.167379
 21
4.118919
 31
0.0
  0
LINE
  5
390
100
AcDbEntity
  8
Layer_1
 62
7
100
AcDbLine
 10
2.167379
 20
4.118919
 30
0.0
 11
2.128552
 21
4.191084
 31
0.0
  0
LINE
  5
391
100
AcDbEntity
  8
Layer_1
 62
7
100
AcDbLine
 10
2.128552
 20
4.191084
 30
0.0
 11
2.090970
 21
4.263289
 31
0.0
  0
LINE
  5
392
100
AcDbEntity
  8
Layer_1
 62
7
100
AcDbLine
 10
2.090970
 20
4.263289
 30
0.0
 11
2.054635
 21
4.335549
 31
0.0
  0
LINE
  5
393
100
AcDbEntity
  8
Layer_1
 62
7
100
AcDbLine
 10
2.054635
 20
4.335549
 30
0.0
 11
2.019552
 21
4.407868
 31
0.0
  0
LINE
  5
394
100
AcDbEntity
  8
Layer_1
 62
7
100
AcDbLine
 10
2.019552
 20
4.407868
 30
0.0
 11
1.985722
 21
4.480254
 31
0.0
  0
LINE
  5
395
100
AcDbEntity
  8
Layer_1
 62
7
100
AcDbLine
 10
1.985722
 20
4.480254
 30
0.0
 11
1.953143
 21
4.552706
 31
0.0
  0
LINE
  5
396
100
AcDbEntity
  8
Layer_1
 62
7
100
AcDbLine
 10
1.953143
 20
4.552706
 30
0.0
 11
1.921820
 21
4.625238
 31
0.0
  0
LINE
  5
397
100
AcDbEntity
  8
Layer_1
 62
7
100
AcDbLine
 10
1.921820
 20
4.625238
 30
0.0
 11
1.891757
 21
4.697852
 31
0.0
  0
LINE
  5
398
100
AcDbEntity
  8
Layer_1
 62
7
100
AcDbLine
 10
1.891757
 20
4.697852
 30
0.0
 11
1.862950
 21
4.770557
 31
0.0
  0
LINE
  5
399
100
AcDbEntity
  8
Layer_1
 62
7
100
AcDbLine
 10
1.862950
 20
4.770557
 30
0.0
 11
1.835407
 21
4.843356
 31
0.0
  0
LINE
  5
39a
100
AcDbEntity
  8
Layer_1
 62
7
100
AcDbLine
 10
1.835407
 20
4.843356
 30
0.0
 11
1.809127
 21
4.916254
 31
0.0
  0
LINE
  5
39b
100
AcDbEntity
  8
Layer_1
 62
7
100
AcDbLine
 10
1.809127
 20
4.916254
 30
0.0
 11
1.784111
 21
4.989261
 31
0.0
  0
LINE
  5
39c
100
AcDbEntity
  8
Layer_1
 62
7
100
AcDbLine
 10
1.784111
 20
4.989261
 30
0.0
 11
1.760363
 21
5.062384
 31
0.0
  0
LINE
  5
39d
100
AcDbEntity
  8
Layer_1
 62
7
100
AcDbLine
 10
1.760363
 20
5.062384
 30
0.0
 11
1.737883
 21
5.135628
 31
0.0
  0
LINE
  5
39e
100
AcDbEntity
  8
Layer_1
 62
7
100
AcDbLine
 10
1.737883
 20
5.135628
 30
0.0
 11
1.716674
 21
5.208994
 31
0.0
  0
LINE
  5
39f
100
AcDbEntity
  8
Layer_1
 62
7
100
AcDbLine
 10
1.716674
 20
5.208994
 30
0.0
 11
1.691426
 21
5.302769
 31
0.0
  0
LINE
  5
3a0
100
AcDbEntity
  8
Layer_1
 62
7
100
AcDbLine
 10
1.691426
 20
5.302769
 30
0.0
 11
1.668143
 21
5.396797
 31
0.0
  0
LINE
  5
3a1
100
AcDbEntity
  8
Layer_1
 62
7
100
AcDbLine
 10
1.668143
 20
5.396797
 30
0.0
 11
1.646800
 21
5.491084
 31
0.0
  0
LINE
  5
3a2
100
AcDbEntity
  8
Layer_1
 62
7
100
AcDbLine
 10
1.646800
 20
5.491084
 30
0.0
 11
1.627375
 21
5.585628
 31
0.0
  0
LINE
  5
3a3
100
AcDbEntity
  8
Layer_1
 62
7
100
AcDbLine
 10
1.627375
 20
5.585628
 30
0.0
 11
1.609840
 21
5.680427
 31
0.0
  0
LINE
  5
3a4
100
AcDbEntity
  8
Layer_1
 62
7
100
AcDbLine
 10
1.609840
 20
5.680427
 30
0.0
 11
1.594174
 21
5.775486
 31
0.0
  0
LINE
  5
3a5
100
AcDbEntity
  8
Layer_1
 62
7
100
AcDbLine
 10
1.594174
 20
5.775486
 30
0.0
 11
1.580356
 21
5.870797
 31
0.0
  0
LINE
  5
3a6
100
AcDbEntity
  8
Layer_1
 62
7
100
AcDbLine
 10
1.580356
 20
5.870797
 30
0.0
 11
1.568359
 21
5.966364
 31
0.0
  0
LINE
  5
3a7
100
AcDbEntity
  8
Layer_1
 62
7
100
AcDbLine
 10
1.568359
 20
5.966364
 30
0.0
 11
1.558163
 21
6.062187
 31
0.0
  0
LINE
  5
3a8
100
AcDbEntity
  8
Layer_1
 62
7
100
AcDbLine
 10
1.558163
 20
6.062187
 30
0.0
 11
1.549737
 21
6.158262
 31
0.0
  0
LINE
  5
3a9
100
AcDbEntity
  8
Layer_1
 62
7
100
AcDbLine
 10
1.549737
 20
6.158262
 30
0.0
 11
1.543064
 21
6.254592
 31
0.0
  0
LINE
  5
3aa
100
AcDbEntity
  8
Layer_1
 62
7
100
AcDbLine
 10
1.543064
 20
6.254592
 30
0.0
 11
1.538123
 21
6.351179
 31
0.0
  0
LINE
  5
3ab
100
AcDbEntity
  8
Layer_1
 62
7
100
AcDbLine
 10
1.538123
 20
6.351179
 30
0.0
 11
1.534883
 21
6.448021
 31
0.0
  0
LINE
  5
3ac
100
AcDbEntity
  8
Layer_1
 62
7
100
AcDbLine
 10
1.534883
 20
6.448021
 30
0.0
 11
1.533324
 21
6.545116
 31
0.0
  0
LINE
  5
3ad
100
AcDbEntity
  8
Layer_1
 62
7
100
AcDbLine
 10
1.533324
 20
6.545116
 30
0.0
 11
1.533424
 21
6.642462
 31
0.0
  0
LINE
  5
3ae
100
AcDbEntity
  8
Layer_1
 62
7
100
AcDbLine
 10
1.533424
 20
6.642462
 30
0.0
 11
1.535156
 21
6.740065
 31
0.0
  0
LINE
  5
3af
100
AcDbEntity
  8
Layer_1
 62
7
100
AcDbLine
 10
1.535156
 20
6.740065
 30
0.0
 11
1.539274
 21
6.854955
 31
0.0
  0
LINE
  5
3b0
100
AcDbEntity
  8
Layer_1
 62
7
100
AcDbLine
 10
1.539274
 20
6.854955
 30
0.0
 11
1.545652
 21
6.970155
 31
0.0
  0
LINE
  5
3b1
100
AcDbEntity
  8
Layer_1
 62
7
100
AcDbLine
 10
1.545652
 20
6.970155
 30
0.0
 11
1.546471
 21
6.982766
 31
0.0
  0
LINE
  5
3b2
100
AcDbEntity
  8
Layer_1
 62
7
100
AcDbLine
 10
1.546471
 20
6.982766
 30
0.0
 11
1.545943
 21
6.995388
 31
0.0
  0
LINE
  5
3b3
100
AcDbEntity
  8
Layer_1
 62
7
100
AcDbLine
 10
1.545943
 20
6.995388
 30
0.0
 11
1.543912
 21
7.052203
 31
0.0
  0
LINE
  5
3b4
100
AcDbEntity
  8
Layer_1
 62
7
100
AcDbLine
 10
1.543912
 20
7.052203
 30
0.0
 11
1.542656
 21
7.107187
 31
0.0
  0
LINE
  5
3b5
100
AcDbEntity
  8
Layer_1
 62
7
100
AcDbLine
 10
1.542656
 20
7.107187
 30
0.0
 11
1.542184
 21
7.160163
 31
0.0
  0
LINE
  5
3b6
100
AcDbEntity
  8
Layer_1
 62
7
100
AcDbLine
 10
1.542184
 20
7.160163
 30
0.0
 11
1.542503
 21
7.210949
 31
0.0
  0
LINE
  5
3b7
100
AcDbEntity
  8
Layer_1
 62
7
100
AcDbLine
 10
1.542503
 20
7.210949
 30
0.0
 11
1.543621
 21
7.259371
 31
0.0
  0
LINE
  5
3b8
100
AcDbEntity
  8
Layer_1
 62
7
100
AcDbLine
 10
1.543621
 20
7.259371
 30
0.0
 11
1.545538
 21
7.305246
 31
0.0
  0
LINE
  5
3b9
100
AcDbEntity
  8
Layer_1
 62
7
100
AcDbLine
 10
1.545538
 20
7.305246
 30
0.0
 11
1.548274
 21
7.348397
 31
0.0
  0
LINE
  5
3ba
100
AcDbEntity
  8
Layer_1
 62
7
100
AcDbLine
 10
1.548274
 20
7.348397
 30
0.0
 11
1.551826
 21
7.388644
 31
0.0
  0
LINE
  5
3bb
100
AcDbEntity
  8
Layer_1
 62
7
100
AcDbLine
 10
1.551826
 20
7.388644
 30
0.0
 11
1.554833
 21
7.415014
 31
0.0
  0
LINE
  5
3bc
100
AcDbEntity
  8
Layer_1
 62
7
100
AcDbLine
 10
1.554833
 20
7.415014
 30
0.0
 11
1.558235
 21
7.439623
 31
0.0
  0
LINE
  5
3bd
100
AcDbEntity
  8
Layer_1
 62
7
100
AcDbLine
 10
1.558235
 20
7.439623
 30
0.0
 11
1.561963
 21
7.462419
 31
0.0
  0
LINE
  5
3be
100
AcDbEntity
  8
Layer_1
 62
7
100
AcDbLine
 10
1.561963
 20
7.462419
 30
0.0
 11
1.565956
 21
7.483345
 31
0.0
  0
LINE
  5
3bf
100
AcDbEntity
  8
Layer_1
 62
7
100
AcDbLine
 10
1.565956
 20
7.483345
 30
0.0
 11
1.570148
 21
7.502345
 31
0.0
  0
LINE
  5
3c0
100
AcDbEntity
  8
Layer_1
 62
7
100
AcDbLine
 10
1.570148
 20
7.502345
 30
0.0
 11
1.574475
 21
7.519366
 31
0.0
  0
LINE
  5
3c1
100
AcDbEntity
  8
Layer_1
 62
7
100
AcDbLine
 10
1.574475
 20
7.519366
 30
0.0
 11
1.578873
 21
7.534351
 31
0.0
  0
LINE
  5
3c2
100
AcDbEntity
  8
Layer_1
 62
7
100
AcDbLine
 10
1.578873
 20
7.534351
 30
0.0
 11
1.583270
 21
7.547245
 31
0.0
  0
LINE
  5
3c3
100
AcDbEntity
  8
Layer_1
 62
7
100
AcDbLine
 10
1.583270
 20
7.547245
 30
0.0
 11
1.587617
 21
7.558244
 31
0.0
  0
LINE
  5
3c4
100
AcDbEntity
  8
Layer_1
 62
7
100
AcDbLine
 10
1.587617
 20
7.558244
 30
0.0
 11
1.591676
 21
7.567233
 31
0.0
  0
LINE
  5
3c5
100
AcDbEntity
  8
Layer_1
 62
7
100
AcDbLine
 10
1.591676
 20
7.567233
 30
0.0
 11
1.595373
 21
7.574395
 31
0.0
  0
LINE
  5
3c6
100
AcDbEntity
  8
Layer_1
 62
7
100
AcDbLine
 10
1.595373
 20
7.574395
 30
0.0
 11
1.598637
 21
7.579914
 31
0.0
  0
LINE
  5
3c7
100
AcDbEntity
  8
Layer_1
 62
7
100
AcDbLine
 10
1.598637
 20
7.579914
 30
0.0
 11
1.601396
 21
7.583972
 31
0.0
  0
LINE
  5
3c8
100
AcDbEntity
  8
Layer_1
 62
7
100
AcDbLine
 10
1.601396
 20
7.583972
 30
0.0
 11
1.603578
 21
7.586753
 31
0.0
  0
LINE
  5
3c9
100
AcDbEntity
  8
Layer_1
 62
7
100
AcDbLine
 10
1.603578
 20
7.586753
 30
0.0
 11
1.605109
 21
7.588440
 31
0.0
  0
LINE
  5
3ca
100
AcDbEntity
  8
Layer_1
 62
7
100
AcDbLine
 10
1.605109
 20
7.588440
 30
0.0
 11
1.605920
 21
7.589217
 31
0.0
  0
LINE
  5
3cb
100
AcDbEntity
  8
Layer_1
 62
7
100
AcDbLine
 10
1.605920
 20
7.589217
 30
0.0
 11
1.615790
 21
7.596452
 31
0.0
  0
LINE
  5
3cc
100
AcDbEntity
  8
Layer_1
 62
7
100
AcDbLine
 10
1.615790
 20
7.596452
 30
0.0
 11
1.625274
 21
7.604190
 31
0.0
  0
LINE
  5
3cd
100
AcDbEntity
  8
Layer_1
 62
7
100
AcDbLine
 10
1.625274
 20
7.604190
 30
0.0
 11
1.634341
 21
7.612408
 31
0.0
  0
LINE
  5
3ce
100
AcDbEntity
  8
Layer_1
 62
7
100
AcDbLine
 10
1.634341
 20
7.612408
 30
0.0
 11
1.641684
 21
7.613753
 31
0.0
  0
LINE
  5
3cf
100
AcDbEntity
  8
Layer_1
 62
7
100
AcDbLine
 10
1.641684
 20
7.613753
 30
0.0
 11
1.650715
 21
7.615233
 31
0.0
  0
LINE
  5
3d0
100
AcDbEntity
  8
Layer_1
 62
7
100
AcDbLine
 10
1.650715
 20
7.615233
 30
0.0
 11
1.661389
 21
7.616850
 31
0.0
  0
LINE
  5
3d1
100
AcDbEntity
  8
Layer_1
 62
7
100
AcDbLine
 10
1.661389
 20
7.616850
 30
0.0
 11
1.673660
 21
7.618605
 31
0.0
  0
LINE
  5
3d2
100
AcDbEntity
  8
Layer_1
 62
7
100
AcDbLine
 10
1.673660
 20
7.618605
 30
0.0
 11
1.689688
 21
7.620784
 31
0.0
  0
LINE
  5
3d3
100
AcDbEntity
  8
Layer_1
 62
7
100
AcDbLine
 10
1.689688
 20
7.620784
 30
0.0
 11
1.707684
 21
7.623256
 31
0.0
  0
LINE
  5
3d4
100
AcDbEntity
  8
Layer_1
 62
7
100
AcDbLine
 10
1.707684
 20
7.623256
 30
0.0
 11
1.727503
 21
7.626218
 31
0.0
  0
LINE
  5
3d5
100
AcDbEntity
  8
Layer_1
 62
7
100
AcDbLine
 10
1.727503
 20
7.626218
 30
0.0
 11
1.749015
 21
7.629866
 31
0.0
  0
LINE
  5
3d6
100
AcDbEntity
  8
Layer_1
 62
7
100
AcDbLine
 10
1.749015
 20
7.629866
 30
0.0
 11
1.772074
 21
7.634396
 31
0.0
  0
LINE
  5
3d7
100
AcDbEntity
  8
Layer_1
 62
7
100
AcDbLine
 10
1.772074
 20
7.634396
 30
0.0
 11
1.796542
 21
7.640002
 31
0.0
  0
LINE
  5
3d8
100
AcDbEntity
  8
Layer_1
 62
7
100
AcDbLine
 10
1.796542
 20
7.640002
 30
0.0
 11
1.822278
 21
7.646883
 31
0.0
  0
LINE
  5
3d9
100
AcDbEntity
  8
Layer_1
 62
7
100
AcDbLine
 10
1.822278
 20
7.646883
 30
0.0
 11
1.849145
 21
7.655231
 31
0.0
  0
LINE
  5
3da
100
AcDbEntity
  8
Layer_1
 62
7
100
AcDbLine
 10
1.849145
 20
7.655231
 30
0.0
 11
1.872719
 21
7.663735
 31
0.0
  0
LINE
  5
3db
100
AcDbEntity
  8
Layer_1
 62
7
100
AcDbLine
 10
1.872719
 20
7.663735
 30
0.0
 11
1.896668
 21
7.673651
 31
0.0
  0
LINE
  5
3dc
100
AcDbEntity
  8
Layer_1
 62
7
100
AcDbLine
 10
1.896668
 20
7.673651
 30
0.0
 11
1.920790
 21
7.684958
 31
0.0
  0
LINE
  5
3dd
100
AcDbEntity
  8
Layer_1
 62
7
100
AcDbLine
 10
1.920790
 20
7.684958
 30
0.0
 11
1.944893
 21
7.697640
 31
0.0
  0
LINE
  5
3de
100
AcDbEntity
  8
Layer_1
 62
7
100
AcDbLine
 10
1.944893
 20
7.697640
 30
0.0
 11
1.968771
 21
7.711676
 31
0.0
  0
LINE
  5
3df
100
AcDbEntity
  8
Layer_1
 62
7
100
AcDbLine
 10
1.968771
 20
7.711676
 30
0.0
 11
1.992235
 21
7.727049
 31
0.0
  0
LINE
  5
3e0
100
AcDbEntity
  8
Layer_1
 62
7
100
AcDbLine
 10
1.992235
 20
7.727049
 30
0.0
 11
2.015082
 21
7.743739
 31
0.0
  0
LINE
  5
3e1
100
AcDbEntity
  8
Layer_1
 62
7
100
AcDbLine
 10
2.015082
 20
7.743739
 30
0.0
 11
2.037117
 21
7.761727
 31
0.0
  0
LINE
  5
3e2
100
AcDbEntity
  8
Layer_1
 62
7
100
AcDbLine
 10
2.037117
 20
7.761727
 30
0.0
 11
2.061247
 21
7.783827
 31
0.0
  0
LINE
  5
3e3
100
AcDbEntity
  8
Layer_1
 62
7
100
AcDbLine
 10
2.061247
 20
7.783827
 30
0.0
 11
2.084062
 21
7.807216
 31
0.0
  0
LINE
  5
3e4
100
AcDbEntity
  8
Layer_1
 62
7
100
AcDbLine
 10
2.084062
 20
7.807216
 30
0.0
 11
2.105601
 21
7.831795
 31
0.0
  0
LINE
  5
3e5
100
AcDbEntity
  8
Layer_1
 62
7
100
AcDbLine
 10
2.105601
 20
7.831795
 30
0.0
 11
2.125889
 21
7.857467
 31
0.0
  0
LINE
  5
3e6
100
AcDbEntity
  8
Layer_1
 62
7
100
AcDbLine
 10
2.125889
 20
7.857467
 30
0.0
 11
2.144963
 21
7.884131
 31
0.0
  0
LINE
  5
3e7
100
AcDbEntity
  8
Layer_1
 62
7
100
AcDbLine
 10
2.144963
 20
7.884131
 30
0.0
 11
2.162849
 21
7.911689
 31
0.0
  0
LINE
  5
3e8
100
AcDbEntity
  8
Layer_1
 62
7
100
AcDbLine
 10
2.162849
 20
7.911689
 30
0.0
 11
2.179586
 21
7.940042
 31
0.0
  0
LINE
  5
3e9
100
AcDbEntity
  8
Layer_1
 62
7
100
AcDbLine
 10
2.179586
 20
7.940042
 30
0.0
 11
2.195204
 21
7.969092
 31
0.0
  0
LINE
  5
3ea
100
AcDbEntity
  8
Layer_1
 62
7
100
AcDbLine
 10
2.195204
 20
7.969092
 30
0.0
 11
2.214243
 21
8.008435
 31
0.0
  0
LINE
  5
3eb
100
AcDbEntity
  8
Layer_1
 62
7
100
AcDbLine
 10
2.214243
 20
8.008435
 30
0.0
 11
2.231712
 21
8.049021
 31
0.0
  0
LINE
  5
3ec
100
AcDbEntity
  8
Layer_1
 62
7
100
AcDbLine
 10
2.231712
 20
8.049021
 30
0.0
 11
2.247743
 21
8.090880
 31
0.0
  0
LINE
  5
3ed
100
AcDbEntity
  8
Layer_1
 62
7
100
AcDbLine
 10
2.247743
 20
8.090880
 30
0.0
 11
2.262479
 21
8.134041
 31
0.0
  0
LINE
  5
3ee
100
AcDbEntity
  8
Layer_1
 62
7
100
AcDbLine
 10
2.262479
 20
8.134041
 30
0.0
 11
2.275074
 21
8.173100
 31
0.0
  0
LINE
  5
3ef
100
AcDbEntity
  8
Layer_1
 62
7
100
AcDbLine
 10
2.275074
 20
8.173100
 30
0.0
 11
2.242231
 21
7.901295
 31
0.0
  0
LINE
  5
3f0
100
AcDbEntity
  8
Layer_1
 62
7
100
AcDbLine
 10
2.242231
 20
7.901295
 30
0.0
 11
2.340672
 21
7.901295
 31
0.0
  0
LINE
  5
3f1
100
AcDbEntity
  8
Layer_1
 62
7
100
AcDbLine
 10
2.340672
 20
7.901295
 30
0.0
 11
2.460975
 21
7.967368
 31
0.0
  0
LINE
  5
3f2
100
AcDbEntity
  8
Layer_1
 62
7
100
AcDbLine
 10
2.460975
 20
7.967368
 30
0.0
 11
2.581156
 21
8.029706
 31
0.0
  0
LINE
  5
3f3
100
AcDbEntity
  8
Layer_1
 62
7
100
AcDbLine
 10
2.581156
 20
8.029706
 30
0.0
 11
2.701216
 21
8.088285
 31
0.0
  0
LINE
  5
3f4
100
AcDbEntity
  8
Layer_1
 62
7
100
AcDbLine
 10
2.701216
 20
8.088285
 30
0.0
 11
2.821156
 21
8.143061
 31
0.0
  0
LINE
  5
3f5
100
AcDbEntity
  8
Layer_1
 62
7
100
AcDbLine
 10
2.821156
 20
8.143061
 30
0.0
 11
2.881082
 21
8.169002
 31
0.0
  0
LINE
  5
3f6
100
AcDbEntity
  8
Layer_1
 62
7
100
AcDbLine
 10
2.881082
 20
8.169002
 30
0.0
 11
2.940975
 21
8.193970
 31
0.0
  0
LINE
  5
3f7
100
AcDbEntity
  8
Layer_1
 62
7
100
AcDbLine
 10
2.940975
 20
8.193970
 30
0.0
 11
3.000838
 21
8.217951
 31
0.0
  0
LINE
  5
3f8
100
AcDbEntity
  8
Layer_1
 62
7
100
AcDbLine
 10
3.000838
 20
8.217951
 30
0.0
 11
3.060668
 21
8.240939
 31
0.0
  0
LINE
  5
3f9
100
AcDbEntity
  8
Layer_1
 62
7
100
AcDbLine
 10
3.060668
 20
8.240939
 30
0.0
 11
3.120468
 21
8.262919
 31
0.0
  0
LINE
  5
3fa
100
AcDbEntity
  8
Layer_1
 62
7
100
AcDbLine
 10
3.120468
 20
8.262919
 30
0.0
 11
3.180235
 21
8.283880
 31
0.0
  0
LINE
  5
3fb
100
AcDbEntity
  8
Layer_1
 62
7
100
AcDbLine
 10
3.180235
 20
8.283880
 30
0.0
 11
3.239968
 21
8.303809
 31
0.0
  0
LINE
  5
3fc
100
AcDbEntity
  8
Layer_1
 62
7
100
AcDbLine
 10
3.239968
 20
8.303809
 30
0.0
 11
3.299668
 21
8.322691
 31
0.0
  0
LINE
  5
3fd
100
AcDbEntity
  8
Layer_1
 62
7
100
AcDbLine
 10
3.299668
 20
8.322691
 30
0.0
 11
3.359338
 21
8.340517
 31
0.0
  0
LINE
  5
3fe
100
AcDbEntity
  8
Layer_1
 62
7
100
AcDbLine
 10
3.359338
 20
8.340517
 30
0.0
 11
3.418968
 21
8.357269
 31
0.0
  0
LINE
  5
3ff
100
AcDbEntity
  8
Layer_1
 62
7
100
AcDbLine
 10
3.418968
 20
8.357269
 30
0.0
 11
3.478566
 21
8.372931
 31
0.0
  0
LINE
  5
400
100
AcDbEntity
  8
Layer_1
 62
7
100
AcDbLine
 10
3.478566
 20
8.372931
 30
0.0
 11
3.538129
 21
8.387498
 31
0.0
  0
LINE
  5
401
100
AcDbEntity
  8
Layer_1
 62
7
100
AcDbLine
 10
3.538129
 20
8.387498
 30
0.0
 11
3.597657
 21
8.400943
 31
0.0
  0
LINE
  5
402
100
AcDbEntity
  8
Layer_1
 62
7
100
AcDbLine
 10
3.597657
 20
8.400943
 30
0.0
 11
3.657149
 21
8.413262
 31
0.0
  0
LINE
  5
403
100
AcDbEntity
  8
Layer_1
 62
7
100
AcDbLine
 10
3.657149
 20
8.413262
 30
0.0
 11
3.716605
 21
8.424431
 31
0.0
  0
LINE
  5
404
100
AcDbEntity
  8
Layer_1
 62
7
100
AcDbLine
 10
3.716605
 20
8.424431
 30
0.0
 11
3.776023
 21
8.434447
 31
0.0
  0
LINE
  5
405
100
AcDbEntity
  8
Layer_1
 62
7
100
AcDbLine
 10
3.776023
 20
8.434447
 30
0.0
 11
3.835405
 21
8.443293
 31
0.0
  0
LINE
  5
406
100
AcDbEntity
  8
Layer_1
 62
7
100
AcDbLine
 10
3.835405
 20
8.443293
 30
0.0
 11
3.894749
 21
8.450954
 31
0.0
  0
LINE
  5
407
100
AcDbEntity
  8
Layer_1
 62
7
100
AcDbLine
 10
3.894749
 20
8.450954
 30
0.0
 11
3.954055
 21
8.457423
 31
0.0
  0
LINE
  5
408
100
AcDbEntity
  8
Layer_1
 62
7
100
AcDbLine
 10
3.954055
 20
8.457423
 30
0.0
 11
4.013323
 21
8.462683
 31
0.0
  0
LINE
  5
409
100
AcDbEntity
  8
Layer_1
 62
7
100
AcDbLine
 10
4.013323
 20
8.462683
 30
0.0
 11
4.072552
 21
8.466734
 31
0.0
  0
LINE
  5
40a
100
AcDbEntity
  8
Layer_1
 62
7
100
AcDbLine
 10
4.072552
 20
8.466734
 30
0.0
 11
4.131743
 21
8.469561
 31
0.0
  0
LINE
  5
40b
100
AcDbEntity
  8
Layer_1
 62
7
100
AcDbLine
 10
4.131743
 20
8.469561
 30
0.0
 11
4.190894
 21
8.471163
 31
0.0
  0
LINE
  5
40c
100
AcDbEntity
  8
Layer_1
 62
7
100
AcDbLine
 10
4.190894
 20
8.471163
 30
0.0
 11
4.250006
 21
8.471538
 31
0.0
  0
LINE
  5
40d
100
AcDbEntity
  8
Layer_1
 62
7
100
AcDbLine
 10
4.250006
 20
8.471538
 30
0.0
 11
4.309118
 21
8.471163
 31
0.0
  0
LINE
  5
40e
100
AcDbEntity
  8
Layer_1
 62
7
100
AcDbLine
 10
4.309118
 20
8.471163
 30
0.0
 11
4.368270
 21
8.469561
 31
0.0
  0
LINE
  5
40f
100
AcDbEntity
  8
Layer_1
 62
7
100
AcDbLine
 10
4.368270
 20
8.469561
 30
0.0
 11
4.427461
 21
8.466734
 31
0.0
  0
LINE
  5
410
100
AcDbEntity
  8
Layer_1
 62
7
100
AcDbLine
 10
4.427461
 20
8.466734
 30
0.0
 11
4.486690
 21
8.462683
 31
0.0
  0
LINE
  5
411
100
AcDbEntity
  8
Layer_1
 62
7
100
AcDbLine
 10
4.486690
 20
8.462683
 30
0.0
 11
4.545957
 21
8.457423
 31
0.0
  0
LINE
  5
412
100
AcDbEntity
  8
Layer_1
 62
7
100
AcDbLine
 10
4.545957
 20
8.457423
 30
0.0
 11
4.605264
 21
8.450954
 31
0.0
  0
LINE
  5
413
100
AcDbEntity
  8
Layer_1
 62
7
100
AcDbLine
 10
4.605264
 20
8.450954
 30
0.0
 11
4.664605
 21
8.443293
 31
0.0
  0
LINE
  5
414
100
AcDbEntity
  8
Layer_1
 62
7
100
AcDbLine
 10
4.664605
 20
8.443293
 30
0.0
 11
4.723987
 21
8.434447
 31
0.0
  0
LINE
  5
415
100
AcDbEntity
  8
Layer_1
 62
7
100
AcDbLine
 10
4.723987
 20
8.434447
 30
0.0
 11
4.783409
 21
8.424431
 31
0.0
  0
LINE
  5
416
100
AcDbEntity
  8
Layer_1
 62
7
100
AcDbLine
 10
4.783409
 20
8.424431
 30
0.0
 11
4.842861
 21
8.413262
 31
0.0
  0
LINE
  5
417
100
AcDbEntity
  8
Layer_1
 62
7
100
AcDbLine
 10
4.842861
 20
8.413262
 30
0.0
 11
4.902353
 21
8.400943
 31
0.0
  0
LINE
  5
418
100
AcDbEntity
  8
Layer_1
 62
7
100
AcDbLine
 10
4.902353
 20
8.400943
 30
0.0
 11
4.961881
 21
8.387498
 31
0.0
  0
LINE
  5
419
100
AcDbEntity
  8
Layer_1
 62
7
100
AcDbLine
 10
4.961881
 20
8.387498
 30
0.0
 11
5.021448
 21
8.372931
 31
0.0
  0
LINE
  5
41a
100
AcDbEntity
  8
Layer_1
 62
7
100
AcDbLine
 10
5.021448
 20
8.372931
 30
0.0
 11
5.081042
 21
8.357269
 31
0.0
  0
LINE
  5
41b
100
AcDbEntity
  8
Layer_1
 62
7
100
AcDbLine
 10
5.081042
 20
8.357269
 30
0.0
 11
5.140676
 21
8.340517
 31
0.0
  0
LINE
  5
41c
100
AcDbEntity
  8
Layer_1
 62
7
100
AcDbLine
 10
5.140676
 20
8.340517
 30
0.0
 11
5.200346
 21
8.322691
 31
0.0
  0
LINE
  5
41d
100
AcDbEntity
  8
Layer_1
 62
7
100
AcDbLine
 10
5.200346
 20
8.322691
 30
0.0
 11
5.260042
 21
8.303809
 31
0.0
  0
LINE
  5
41e
100
AcDbEntity
  8
Layer_1
 62
7
100
AcDbLine
 10
5.260042
 20
8.303809
 30
0.0
 11
5.319779
 21
8.283880
 31
0.0
  0
LINE
  5
41f
100
AcDbEntity
  8
Layer_1
 62
7
100
AcDbLine
 10
5.319779
 20
8.283880
 30
0.0
 11
5.379542
 21
8.262919
 31
0.0
  0
LINE
  5
420
100
AcDbEntity
  8
Layer_1
 62
7
100
AcDbLine
 10
5.379542
 20
8.262919
 30
0.0
 11
5.439342
 21
8.240939
 31
0.0
  0
LINE
  5
421
100
AcDbEntity
  8
Layer_1
 62
7
100
AcDbLine
 10
5.439342
 20
8.240939
 30
0.0
 11
5.499172
 21
8.217951
 31
0.0
  0
LINE
  5
422
100
AcDbEntity
  8
Layer_1
 62
7
100
AcDbLine
 10
5.499172
 20
8.217951
 30
0.0
 11
5.559035
 21
8.193970
 31
0.0
  0
LINE
  5
423
100
AcDbEntity
  8
Layer_1
 62
7
100
AcDbLine
 10
5.559035
 20
8.193970
 30
0.0
 11
5.618928
 21
8.169002
 31
0.0
  0
LINE
  5
424
100
AcDbEntity
  8
Layer_1
 62
7
100
AcDbLine
 10
5.618928
 20
8.169002
 30
0.0
 11
5.678854
 21
8.143061
 31
0.0
  0
LINE
  5
425
100
AcDbEntity
  8
Layer_1
 62
7
100
AcDbLine
 10
5.678854
 20
8.143061
 30
0.0
 11
5.798794
 21
8.088285
 31
0.0
  0
LINE
  5
426
100
AcDbEntity
  8
Layer_1
 62
7
100
AcDbLine
 10
5.798794
 20
8.088285
 30
0.0
 11
5.918857
 21
8.029706
 31
0.0
  0
LINE
  5
427
100
AcDbEntity
  8
Layer_1
 62
7
100
AcDbLine
 10
5.918857
 20
8.029706
 30
0.0
 11
6.039039
 21
7.967368
 31
0.0
  0
LINE
  5
428
100
AcDbEntity
  8
Layer_1
 62
7
100
AcDbLine
 10
6.039039
 20
7.967368
 30
0.0
 11
6.159338
 21
7.901295
 31
0.0
  0
LINE
  5
429
100
AcDbEntity
  8
Layer_1
 62
7
100
AcDbLine
 10
6.159338
 20
7.901295
 30
0.0
 11
6.257779
 21
7.901295
 31
0.0
  0
LINE
  5
42a
100
AcDbEntity
  8
Layer_1
 62
7
100
AcDbLine
 10
6.257779
 20
7.901295
 30
0.0
 11
6.224936
 21
8.173100
 31
0.0
  0
LINE
  5
42b
100
AcDbEntity
  8
Layer_1
 62
7
100
AcDbLine
 10
6.224936
 20
8.173100
 30
0.0
 11
6.237535
 21
8.134041
 31
0.0
  0
LINE
  5
42c
100
AcDbEntity
  8
Layer_1
 62
7
100
AcDbLine
 10
6.237535
 20
8.134041
 30
0.0
 11
6.252267
 21
8.090880
 31
0.0
  0
LINE
  5
42d
100
AcDbEntity
  8
Layer_1
 62
7
100
AcDbLine
 10
6.252267
 20
8.090880
 30
0.0
 11
6.268302
 21
8.049021
 31
0.0
  0
LINE
  5
42e
100
AcDbEntity
  8
Layer_1
 62
7
100
AcDbLine
 10
6.268302
 20
8.049021
 30
0.0
 11
6.285771
 21
8.008435
 31
0.0
  0
LINE
  5
42f
100
AcDbEntity
  8
Layer_1
 62
7
100
AcDbLine
 10
6.285771
 20
8.008435
 30
0.0
 11
6.304810
 21
7.969092
 31
0.0
  0
LINE
  5
430
100
AcDbEntity
  8
Layer_1
 62
7
100
AcDbLine
 10
6.304810
 20
7.969092
 30
0.0
 11
6.320424
 21
7.940042
 31
0.0
  0
LINE
  5
431
100
AcDbEntity
  8
Layer_1
 62
7
100
AcDbLine
 10
6.320424
 20
7.940042
 30
0.0
 11
6.337161
 21
7.911689
 31
0.0
  0
LINE
  5
432
100
AcDbEntity
  8
Layer_1
 62
7
100
AcDbLine
 10
6.337161
 20
7.911689
 30
0.0
 11
6.355050
 21
7.884131
 31
0.0
  0
LINE
  5
433
100
AcDbEntity
  8
Layer_1
 62
7
100
AcDbLine
 10
6.355050
 20
7.884131
 30
0.0
 11
6.374125
 21
7.857467
 31
0.0
  0
LINE
  5
434
100
AcDbEntity
  8
Layer_1
 62
7
100
AcDbLine
 10
6.374125
 20
7.857467
 30
0.0
 11
6.394413
 21
7.831795
 31
0.0
  0
LINE
  5
435
100
AcDbEntity
  8
Layer_1
 62
7
100
AcDbLine
 10
6.394413
 20
7.831795
 30
0.0
 11
6.415948
 21
7.807216
 31
0.0
  0
LINE
  5
436
100
AcDbEntity
  8
Layer_1
 62
7
100
AcDbLine
 10
6.415948
 20
7.807216
 30
0.0
 11
6.438767
 21
7.783827
 31
0.0
  0
LINE
  5
437
100
AcDbEntity
  8
Layer_1
 62
7
100
AcDbLine
 10
6.438767
 20
7.783827
 30
0.0
 11
6.462893
 21
7.761727
 31
0.0
  0
LINE
  5
438
100
AcDbEntity
  8
Layer_1
 62
7
100
AcDbLine
 10
6.462893
 20
7.761727
 30
0.0
 11
6.484928
 21
7.743739
 31
0.0
  0
LINE
  5
439
100
AcDbEntity
  8
Layer_1
 62
7
100
AcDbLine
 10
6.484928
 20
7.743739
 30
0.0
 11
6.507779
 21
7.727049
 31
0.0
  0
LINE
  5
43a
100
AcDbEntity
  8
Layer_1
 62
7
100
AcDbLine
 10
6.507779
 20
7.727049
 30
0.0
 11
6.531243
 21
7.711676
 31
0.0
  0
LINE
  5
43b
100
AcDbEntity
  8
Layer_1
 62
7
100
AcDbLine
 10
6.531243
 20
7.711676
 30
0.0
 11
6.555121
 21
7.697640
 31
0.0
  0
LINE
  5
43c
100
AcDbEntity
  8
Layer_1
 62
7
100
AcDbLine
 10
6.555121
 20
7.697640
 30
0.0
 11
6.579224
 21
7.684958
 31
0.0
  0
LINE
  5
43d
100
AcDbEntity
  8
Layer_1
 62
7
100
AcDbLine
 10
6.579224
 20
7.684958
 30
0.0
 11
6.603346
 21
7.673651
 31
0.0
  0
LINE
  5
43e
100
AcDbEntity
  8
Layer_1
 62
7
100
AcDbLine
 10
6.603346
 20
7.673651
 30
0.0
 11
6.627295
 21
7.663735
 31
0.0
  0
LINE
  5
43f
100
AcDbEntity
  8
Layer_1
 62
7
100
AcDbLine
 10
6.627295
 20
7.663735
 30
0.0
 11
6.650869
 21
7.655231
 31
0.0
  0
LINE
  5
440
100
AcDbEntity
  8
Layer_1
 62
7
100
AcDbLine
 10
6.650869
 20
7.655231
 30
0.0
 11
6.677735
 21
7.646883
 31
0.0
  0
LINE
  5
441
100
AcDbEntity
  8
Layer_1
 62
7
100
AcDbLine
 10
6.677735
 20
7.646883
 30
0.0
 11
6.703472
 21
7.640002
 31
0.0
  0
LINE
  5
442
100
AcDbEntity
  8
Layer_1
 62
7
100
AcDbLine
 10
6.703472
 20
7.640002
 30
0.0
 11
6.727940
 21
7.634396
 31
0.0
  0
LINE
  5
443
100
AcDbEntity
  8
Layer_1
 62
7
100
AcDbLine
 10
6.727940
 20
7.634396
 30
0.0
 11
6.750999
 21
7.629866
 31
0.0
  0
LINE
  5
444
100
AcDbEntity
  8
Layer_1
 62
7
100
AcDbLine
 10
6.750999
 20
7.629866
 30
0.0
 11
6.772511
 21
7.626218
 31
0.0
  0
LINE
  5
445
100
AcDbEntity
  8
Layer_1
 62
7
100
AcDbLine
 10
6.772511
 20
7.626218
 30
0.0
 11
6.792330
 21
7.623256
 31
0.0
  0
LINE
  5
446
100
AcDbEntity
  8
Layer_1
 62
7
100
AcDbLine
 10
6.792330
 20
7.623256
 30
0.0
 11
6.810326
 21
7.620784
 31
0.0
  0
LINE
  5
447
100
AcDbEntity
  8
Layer_1
 62
7
100
AcDbLine
 10
6.810326
 20
7.620784
 30
0.0
 11
6.826350
 21
7.618605
 31
0.0
  0
LINE
  5
448
100
AcDbEntity
  8
Layer_1
 62
7
100
AcDbLine
 10
6.826350
 20
7.618605
 30
0.0
 11
6.838625
 21
7.616850
 31
0.0
  0
LINE
  5
449
100
AcDbEntity
  8
Layer_1
 62
7
100
AcDbLine
 10
6.838625
 20
7.616850
 30
0.0
 11
6.849298
 21
7.615233
 31
0.0
  0
LINE
  5
44a
100
AcDbEntity
  8
Layer_1
 62
7
100
AcDbLine
 10
6.849298
 20
7.615233
 30
0.0
 11
6.858330
 21
7.613753
 31
0.0
  0
LINE
  5
44b
100
AcDbEntity
  8
Layer_1
 62
7
100
AcDbLine
 10
6.858330
 20
7.613753
 30
0.0
 11
6.865672
 21
7.612408
 31
0.0
  0
LINE
  5
44c
100
AcDbEntity
  8
Layer_1
 62
7
100
AcDbLine
 10
6.865672
 20
7.612408
 30
0.0
 11
6.874739
 21
7.604190
 31
0.0
  0
LINE
  5
44d
100
AcDbEntity
  8
Layer_1
 62
7
100
AcDbLine
 10
6.874739
 20
7.604190
 30
0.0
 11
6.884224
 21
7.596452
 31
0.0
  0
LINE
  5
44e
100
AcDbEntity
  8
Layer_1
 62
7
100
AcDbLine
 10
6.884224
 20
7.596452
 30
0.0
 11
6.894094
 21
7.589217
 31
0.0
  0
LINE
  5
44f
100
AcDbEntity
  8
Layer_1
 62
7
100
AcDbLine
 10
6.894094
 20
7.589217
 30
0.0
 11
6.894905
 21
7.588440
 31
0.0
  0
LINE
  5
450
100
AcDbEntity
  8
Layer_1
 62
7
100
AcDbLine
 10
6.894905
 20
7.588440
 30
0.0
 11
6.896436
 21
7.586753
 31
0.0
  0
LINE
  5
451
100
AcDbEntity
  8
Layer_1
 62
7
100
AcDbLine
 10
6.896436
 20
7.586753
 30
0.0
 11
6.898617
 21
7.583972
 31
0.0
  0
LINE
  5
452
100
AcDbEntity
  8
Layer_1
 62
7
100
AcDbLine
 10
6.898617
 20
7.583972
 30
0.0
 11
6.901377
 21
7.579914
 31
0.0
  0
LINE
  5
453
100
AcDbEntity
  8
Layer_1
 62
7
100
AcDbLine
 10
6.901377
 20
7.579914
 30
0.0
 11
6.904641
 21
7.574395
 31
0.0
  0
LINE
  5
454
100
AcDbEntity
  8
Layer_1
 62
7
100
AcDbLine
 10
6.904641
 20
7.574395
 30
0.0
 11
6.908338
 21
7.567233
 31
0.0
  0
LINE
  5
455
100
AcDbEntity
  8
Layer_1
 62
7
100
AcDbLine
 10
6.908338
 20
7.567233
 30
0.0
 11
6.912393
 21
7.558244
 31
0.0
  0
LINE
  5
456
100
AcDbEntity
  8
Layer_1
 62
7
100
AcDbLine
 10
6.912393
 20
7.558244
 30
0.0
 11
6.916740
 21
7.547245
 31
0.0
  0
LINE
  5
457
100
AcDbEntity
  8
Layer_1
 62
7
100
AcDbLine
 10
6.916740
 20
7.547245
 30
0.0
 11
6.921141
 21
7.534351
 31
0.0
  0
LINE
  5
458
100
AcDbEntity
  8
Layer_1
 62
7
100
AcDbLine
 10
6.921141
 20
7.534351
 30
0.0
 11
6.925535
 21
7.519366
 31
0.0
  0
LINE
  5
459
100
AcDbEntity
  8
Layer_1
 62
7
100
AcDbLine
 10
6.925535
 20
7.519366
 30
0.0
 11
6.929862
 21
7.502345
 31
0.0
  0
LINE
  5
45a
100
AcDbEntity
  8
Layer_1
 62
7
100
AcDbLine
 10
6.929862
 20
7.502345
 30
0.0
 11
6.934054
 21
7.483345
 31
0.0
  0
LINE
  5
45b
100
AcDbEntity
  8
Layer_1
 62
7
100
AcDbLine
 10
6.934054
 20
7.483345
 30
0.0
 11
6.938051
 21
7.462419
 31
0.0
  0
LINE
  5
45c
100
AcDbEntity
  8
Layer_1
 62
7
100
AcDbLine
 10
6.938051
 20
7.462419
 30
0.0
 11
6.941779
 21
7.439623
 31
0.0
  0
LINE
  5
45d
100
AcDbEntity
  8
Layer_1
 62
7
100
AcDbLine
 10
6.941779
 20
7.439623
 30
0.0
 11
6.945180
 21
7.415014
 31
0.0
  0
LINE
  5
45e
100
AcDbEntity
  8
Layer_1
 62
7
100
AcDbLine
 10
6.945180
 20
7.415014
 30
0.0
 11
6.948184
 21
7.388644
 31
0.0
  0
LINE
  5
45f
100
AcDbEntity
  8
Layer_1
 62
7
100
AcDbLine
 10
6.948184
 20
7.388644
 30
0.0
 11
6.951740
 21
7.348397
 31
0.0
  0
LINE
  5
460
100
AcDbEntity
  8
Layer_1
 62
7
100
AcDbLine
 10
6.951740
 20
7.348397
 30
0.0
 11
6.954472
 21
7.305246
 31
0.0
  0
LINE
  5
461
100
AcDbEntity
  8
Layer_1
 62
7
100
AcDbLine
 10
6.954472
 20
7.305246
 30
0.0
 11
6.956393
 21
7.259371
 31
0.0
  0
LINE
  5
462
100
AcDbEntity
  8
Layer_1
 62
7
100
AcDbLine
 10
6.956393
 20
7.259371
 30
0.0
 11
6.957511
 21
7.210949
 31
0.0
  0
LINE
  5
463
100
AcDbEntity
  8
Layer_1
 62
7
100
AcDbLine
 10
6.957511
 20
7.210949
 30
0.0
 11
6.957826
 21
7.160163
 31
0.0
  0
LINE
  5
464
100
AcDbEntity
  8
Layer_1
 62
7
100
AcDbLine
 10
6.957826
 20
7.160163
 30
0.0
 11
6.957353
 21
7.107187
 31
0.0
  0
LINE
  5
465
100
AcDbEntity
  8
Layer_1
 62
7
100
AcDbLine
 10
6.957353
 20
7.107187
 30
0.0
 11
6.956101
 21
7.052203
 31
0.0
  0
LINE
  5
466
100
AcDbEntity
  8
Layer_1
 62
7
100
AcDbLine
 10
6.956101
 20
7.052203
 30
0.0
 11
6.954070
 21
6.995388
 31
0.0
  0
LINE
  5
467
100
AcDbEntity
  8
Layer_1
 62
7
100
AcDbLine
 10
6.954070
 20
6.995388
 30
0.0
 11
6.953539
 21
6.982766
 31
0.0
  0
LINE
  5
468
100
AcDbEntity
  8
Layer_1
 62
7
100
AcDbLine
 10
6.953539
 20
6.982766
 30
0.0
 11
6.954361
 21
6.970155
 31
0.0
  0
LINE
  5
469
100
AcDbEntity
  8
Layer_1
 62
7
100
AcDbLine
 10
6.954361
 20
6.970155
 30
0.0
 11
6.960739
 21
6.854955
 31
0.0
  0
LINE
  5
46a
100
AcDbEntity
  8
Layer_1
 62
7
100
AcDbLine
 10
6.960739
 20
6.854955
 30
0.0
 11
6.964853
 21
6.740065
 31
0.0
  0
LINE
  5
46b
100
AcDbEntity
  8
Layer_1
 62
7
100
AcDbLine
 10
6.964853
 20
6.740065
 30
0.0
 11
6.966586
 21
6.642462
 31
0.0
  0
LINE
  5
46c
100
AcDbEntity
  8
Layer_1
 62
7
100
AcDbLine
 10
6.966586
 20
6.642462
 30
0.0
 11
6.966686
 21
6.545116
 31
0.0
  0
LINE
  5
46d
100
AcDbEntity
  8
Layer_1
 62
7
100
AcDbLine
 10
6.966686
 20
6.545116
 30
0.0
 11
6.965126
 21
6.448021
 31
0.0
  0
LINE
  5
46e
100
AcDbEntity
  8
Layer_1
 62
7
100
AcDbLine
 10
6.965126
 20
6.448021
 30
0.0
 11
6.961886
 21
6.351179
 31
0.0
  0
LINE
  5
46f
100
AcDbEntity
  8
Layer_1
 62
7
100
AcDbLine
 10
6.961886
 20
6.351179
 30
0.0
 11
6.956941
 21
6.254592
 31
0.0
  0
LINE
  5
470
100
AcDbEntity
  8
Layer_1
 62
7
100
AcDbLine
 10
6.956941
 20
6.254592
 30
0.0
 11
6.950268
 21
6.158262
 31
0.0
  0
LINE
  5
471
100
AcDbEntity
  8
Layer_1
 62
7
100
AcDbLine
 10
6.950268
 20
6.158262
 30
0.0
 11
6.941847
 21
6.062187
 31
0.0
  0
LINE
  5
472
100
AcDbEntity
  8
Layer_1
 62
7
100
AcDbLine
 10
6.941847
 20
6.062187
 30
0.0
 11
6.931646
 21
5.966364
 31
0.0
  0
LINE
  5
473
100
AcDbEntity
  8
Layer_1
 62
7
100
AcDbLine
 10
6.931646
 20
5.966364
 30
0.0
 11
6.919650
 21
5.870797
 31
0.0
  0
LINE
  5
474
100
AcDbEntity
  8
Layer_1
 62
7
100
AcDbLine
 10
6.919650
 20
5.870797
 30
0.0
 11
6.905831
 21
5.775486
 31
0.0
  0
LINE
  5
475
100
AcDbEntity
  8
Layer_1
 62
7
100
AcDbLine
 10
6.905831
 20
5.775486
 30
0.0
 11
6.890166
 21
5.680427
 31
0.0
  0
LINE
  5
476
100
AcDbEntity
  8
Layer_1
 62
7
100
AcDbLine
 10
6.890166
 20
5.680427
 30
0.0
 11
6.872634
 21
5.585628
 31
0.0
  0
LINE
  5
477
100
AcDbEntity
  8
Layer_1
 62
7
100
AcDbLine
 10
6.872634
 20
5.585628
 30
0.0
 11
6.853205
 21
5.491084
 31
0.0
  0
LINE
  5
478
100
AcDbEntity
  8
Layer_1
 62
7
100
AcDbLine
 10
6.853205
 20
5.491084
 30
0.0
 11
6.831863
 21
5.396797
 31
0.0
  0
LINE
  5
479
100
AcDbEntity
  8
Layer_1
 62
7
100
AcDbLine
 10
6.831863
 20
5.396797
 30
0.0
 11
6.808583
 21
5.302769
 31
0.0
  0
LINE
  5
47a
100
AcDbEntity
  8
Layer_1
 62
7
100
AcDbLine
 10
6.808583
 20
5.302769
 30
0.0
 11
6.783335
 21
5.208994
 31
0.0
  0
LINE
  5
47b
100
AcDbEntity
  8
Layer_1
 62
7
100
AcDbLine
 10
6.783335
 20
5.208994
 30
0.0
 11
6.762126
 21
5.135628
 31
0.0
  0
LINE
  5
47c
100
AcDbEntity
  8
Layer_1
 62
7
100
AcDbLine
 10
6.762126
 20
5.135628
 30
0.0
 11
6.739646
 21
5.062384
 31
0.0
  0
LINE
  5
47d
100
AcDbEntity
  8
Layer_1
 62
7
100
AcDbLine
 10
6.739646
 20
5.062384
 30
0.0
 11
6.715898
 21
4.989261
 31
0.0
  0
LINE
  5
47e
100
AcDbEntity
  8
Layer_1
 62
7
100
AcDbLine
 10
6.715898
 20
4.989261
 30
0.0
 11
6.690882
 21
4.916254
 31
0.0
  0
LINE
  5
47f
100
AcDbEntity
  8
Layer_1
 62
7
100
AcDbLine
 10
6.690882
 20
4.916254
 30
0.0
 11
6.664603
 21
4.843356
 31
0.0
  0
LINE
  5
480
100
AcDbEntity
  8
Layer_1
 62
7
100
AcDbLine
 10
6.664603
 20
4.843356
 30
0.0
 11
6.637060
 21
4.770557
 31
0.0
  0
LINE
  5
481
100
AcDbEntity
  8
Layer_1
 62
7
100
AcDbLine
 10
6.637060
 20
4.770557
 30
0.0
 11
6.608252
 21
4.697852
 31
0.0
  0
LINE
  5
482
100
AcDbEntity
  8
Layer_1
 62
7
100
AcDbLine
 10
6.608252
 20
4.697852
 30
0.0
 11
6.578189
 21
4.625238
 31
0.0
  0
LINE
  5
483
100
AcDbEntity
  8
Layer_1
 62
7
100
AcDbLine
 10
6.578189
 20
4.625238
 30
0.0
 11
6.546867
 21
4.552706
 31
0.0
  0
LINE
  5
484
100
AcDbEntity
  8
Layer_1
 62
7
100
AcDbLine
 10
6.546867
 20
4.552706
 30
0.0
 11
6.514288
 21
4.480254
 31
0.0
  0
LINE
  5
485
100
AcDbEntity
  8
Layer_1
 62
7
100
AcDbLine
 10
6.514288
 20
4.480254
 30
0.0
 11
6.480457
 21
4.407868
 31
0.0
  0
LINE
  5
486
100
AcDbEntity
  8
Layer_1
 62
7
100
AcDbLine
 10
6.480457
 20
4.407868
 30
0.0
 11
6.445371
 21
4.335549
 31
0.0
  0
LINE
  5
487
100
AcDbEntity
  8
Layer_1
 62
7
100
AcDbLine
 10
6.445371
 20
4.335549
 30
0.0
 11
6.409036
 21
4.263289
 31
0.0
  0
LINE
  5
488
100
AcDbEntity
  8
Layer_1
 62
7
100
AcDbLine
 10
6.409036
 20
4.263289
 30
0.0
 11
6.371457
 21
4.191084
 31
0.0
  0
LINE
  5
489
100
AcDbEntity
  8
Layer_1
 62
7
100
AcDbLine
 10
6.371457
 20
4.191084
 30
0.0
 11
6.332626
 21
4.118919
 31
0.0
  0
LINE
  5
48a
100
AcDbEntity
  8
Layer_1
 62
7
100
AcDbLine
 10
6.332626
 20
4.118919
 30
0.0
 11
6.292556
 21
4.046801
 31
0.0
  0
LINE
  5
48b
100
AcDbEntity
  8
Layer_1
 62
7
100
AcDbLine
 10
6.292556
 20
4.046801
 30
0.0
 11
6.239059
 21
3.953797
 31
0.0
  0
LINE
  5
48c
100
AcDbEntity
  8
Layer_1
 62
7
100
AcDbLine
 10
6.239059
 20
3.953797
 30
0.0
 11
6.183615
 21
3.860868
 31
0.0
  0
LINE
  5
48d
100
AcDbEntity
  8
Layer_1
 62
7
100
AcDbLine
 10
6.183615
 20
3.860868
 30
0.0
 11
6.126245
 21
3.768017
 31
0.0
  0
LINE
  5
48e
100
AcDbEntity
  8
Layer_1
 62
7
100
AcDbLine
 10
6.126245
 20
3.768017
 30
0.0
 11
6.066977
 21
3.675250
 31
0.0
  0
LINE
  5
48f
100
AcDbEntity
  8
Layer_1
 62
7
100
AcDbLine
 10
6.066977
 20
3.675250
 30
0.0
 11
6.005835
 21
3.582553
 31
0.0
  0
LINE
  5
490
100
AcDbEntity
  8
Layer_1
 62
7
100
AcDbLine
 10
6.005835
 20
3.582553
 30
0.0
 11
5.942847
 21
3.489954
 31
0.0
  0
LINE
  5
491
100
AcDbEntity
  8
Layer_1
 62
7
100
AcDbLine
 10
5.942847
 20
3.489954
 30
0.0
 11
5.878036
 21
3.397474
 31
0.0
  0
LINE
  5
492
100
AcDbEntity
  8
Layer_1
 62
7
100
AcDbLine
 10
5.878036
 20
3.397474
 30
0.0
 11
5.811426
 21
3.305072
 31
0.0
  0
LINE
  5
493
100
AcDbEntity
  8
Layer_1
 62
7
100
AcDbLine
 10
5.811426
 20
3.305072
 30
0.0
 11
5.743048
 21
3.212750
 31
0.0
  0
LINE
  5
494
100
AcDbEntity
  8
Layer_1
 62
7
100
AcDbLine
 10
5.743048
 20
3.212750
 30
0.0
 11
5.672926
 21
3.120545
 31
0.0
  0
LINE
  5
495
100
AcDbEntity
  8
Layer_1
 62
7
100
AcDbLine
 10
5.672926
 20
3.120545
 30
0.0
 11
5.601083
 21
3.028458
 31
0.0
  0
LINE
  5
496
100
AcDbEntity
  8
Layer_1
 62
7
100
AcDbLine
 10
5.601083
 20
3.028458
 30
0.0
 11
5.527544
 21
2.936450
 31
0.0
  0
LINE
  5
497
100
AcDbEntity
  8
Layer_1
 62
7
100
AcDbLine
 10
5.527544
 20
2.936450
 30
0.0
 11
5.452339
 21
2.844561
 31
0.0
  0
LINE
  5
498
100
AcDbEntity
  8
Layer_1
 62
7
100
AcDbLine
 10
5.452339
 20
2.844561
 30
0.0
 11
5.375493
 21
2.752828
 31
0.0
  0
LINE
  5
499
100
AcDbEntity
  8
Layer_1
 62
7
100
AcDbLine
 10
5.375493
 20
2.752828
 30
0.0
 11
5.297028
 21
2.661175
 31
0.0
  0
LINE
  5
49a
100
AcDbEntity
  8
Layer_1
 62
7
100
AcDbLine
 10
5.297028
 20
2.661175
 30
0.0
 11
5.216977
 21
2.569679
 31
0.0
  0
LINE
  5
49b
100
AcDbEntity
  8
Layer_1
 62
7
100
AcDbLine
 10
5.216977
 20
2.569679
 30
0.0
 11
5.179587
 21
2.527553
 31
0.0
  0
LINE
  5
49c
100
AcDbEntity
  8
Layer_1
 62
7
100
AcDbLine
 10
5.179587
 20
2.527553
 30
0.0
 11
5.156957
 21
2.495151
 31
0.0
  0
LINE
  5
49d
100
AcDbEntity
  8
Layer_1
 62
7
100
AcDbLine
 10
5.156957
 20
2.495151
 30
0.0
 11
5.137540
 21
2.460742
 31
0.0
  0
LINE
  5
49e
100
AcDbEntity
  8
Layer_1
 62
7
100
AcDbLine
 10
5.137540
 20
2.460742
 30
0.0
 11
5.121516
 21
2.424600
 31
0.0
  0
LINE
  5
49f
100
AcDbEntity
  8
Layer_1
 62
7
100
AcDbLine
 10
5.121516
 20
2.424600
 30
0.0
 11
5.109040
 21
2.387080
 31
0.0
  0
LINE
  5
4a0
100
AcDbEntity
  8
Layer_1
 62
7
100
AcDbLine
 10
5.109040
 20
2.387080
 30
0.0
 11
5.100221
 21
2.348576
 31
0.0
  0
LINE
  5
4a1
100
AcDbEntity
  8
Layer_1
 62
7
100
AcDbLine
 10
5.100221
 20
2.348576
 30
0.0
 11
5.095142
 21
2.309364
 31
0.0
  0
LINE
  5
4a2
100
AcDbEntity
  8
Layer_1
 62
7
100
AcDbLine
 10
5.095142
 20
2.309364
 30
0.0
 11
5.093851
 21
2.269876
 31
0.0
  0
LINE
  5
4a3
100
AcDbEntity
  8
Layer_1
 62
7
100
AcDbLine
 10
5.093851
 20
2.269876
 30
0.0
 11
5.096359
 21
2.230427
 31
0.0
  0
LINE
  5
4a4
100
AcDbEntity
  8
Layer_1
 62
7
100
AcDbLine
 10
5.096359
 20
2.230427
 30
0.0
 11
5.102642
 21
2.191411
 31
0.0
  0
LINE
  5
4a5
100
AcDbEntity
  8
Layer_1
 62
7
100
AcDbLine
 10
5.102642
 20
2.191411
 30
0.0
 11
5.112646
 21
2.153143
 31
0.0
  0
LINE
  5
4a6
100
AcDbEntity
  8
Layer_1
 62
7
100
AcDbLine
 10
5.112646
 20
2.153143
 30
0.0
 11
5.126272
 21
2.116057
 31
0.0
  0
LINE
  5
4a7
100
AcDbEntity
  8
Layer_1
 62
7
100
AcDbLine
 10
5.126272
 20
2.116057
 30
0.0
 11
5.143398
 21
2.080427
 31
0.0
  0
LINE
  5
4a8
100
AcDbEntity
  8
Layer_1
 62
7
100
AcDbLine
 10
5.143398
 20
2.080427
 30
0.0
 11
5.163867
 21
2.046608
 31
0.0
  0
LINE
  5
4a9
100
AcDbEntity
  8
Layer_1
 62
7
100
AcDbLine
 10
5.163867
 20
2.046608
 30
0.0
 11
5.187489
 21
2.014915
 31
0.0
  0
LINE
  5
4aa
100
AcDbEntity
  8
Layer_1
 62
7
100
AcDbLine
 10
5.187489
 20
2.014915
 30
0.0
 11
5.214044
 21
1.985624
 31
0.0
  0
LINE
  5
4ab
100
AcDbEntity
  8
Layer_1
 62
7
100
AcDbLine
 10
5.214044
 20
1.985624
 30
0.0
 11
5.243284
 21
1.959049
 31
0.0
  0
LINE
  5
4ac
100
AcDbEntity
  8
Layer_1
 62
7
100
AcDbLine
 10
5.243284
 20
1.959049
 30
0.0
 11
5.274945
 21
1.935387
 31
0.0
  0
LINE
  5
4ad
100
AcDbEntity
  8
Layer_1
 62
7
100
AcDbLine
 10
5.274945
 20
1.935387
 30
0.0
 11
5.308733
 21
1.914876
 31
0.0
  0
LINE
  5
4ae
100
AcDbEntity
  8
Layer_1
 62
7
100
AcDbLine
 10
5.308733
 20
1.914876
 30
0.0
 11
5.344335
 21
1.897710
 31
0.0
  0
LINE
  5
4af
100
AcDbEntity
  8
Layer_1
 62
7
100
AcDbLine
 10
5.344335
 20
1.897710
 30
0.0
 11
5.381418
 21
1.884009
 31
0.0
  0
LINE
  5
4b0
100
AcDbEntity
  8
Layer_1
 62
7
100
AcDbLine
 10
5.381418
 20
1.884009
 30
0.0
 11
5.419646
 21
1.873970
 31
0.0
  0
LINE
  5
4b1
100
AcDbEntity
  8
Layer_1
 62
7
100
AcDbLine
 10
5.419646
 20
1.873970
 30
0.0
 11
5.458662
 21
1.867631
 31
0.0
  0
LINE
  5
4b2
100
AcDbEntity
  8
Layer_1
 62
7
100
AcDbLine
 10
5.458662
 20
1.867631
 30
0.0
 11
5.498107
 21
1.865072
 31
0.0
  0
LINE
  5
4b3
100
AcDbEntity
  8
Layer_1
 62
7
100
AcDbLine
 10
5.498107
 20
1.865072
 30
0.0
 11
5.537612
 21
1.866293
 31
0.0
  0
LINE
  5
4b4
100
AcDbEntity
  8
Layer_1
 62
7
100
AcDbLine
 10
4.239327
 20
8.639348
 30
0.0
 11
4.228970
 21
8.642120
 31
0.0
  0
LINE
  5
4b5
100
AcDbEntity
  8
Layer_1
 62
7
100
AcDbLine
 10
4.228970
 20
8.642120
 30
0.0
 11
4.219252
 21
8.646652
 31
0.0
  0
LINE
  5
4b6
100
AcDbEntity
  8
Layer_1
 62
7
100
AcDbLine
 10
4.219252
 20
8.646652
 30
0.0
 11
4.210468
 21
8.652805
 31
0.0
  0
LINE
  5
4b7
100
AcDbEntity
  8
Layer_1
 62
7
100
AcDbLine
 10
4.210468
 20
8.652805
 30
0.0
 11
4.202886
 21
8.660388
 31
0.0
  0
LINE
  5
4b8
100
AcDbEntity
  8
Layer_1
 62
7
100
AcDbLine
 10
4.202886
 20
8.660388
 30
0.0
 11
4.196735
 21
8.669171
 31
0.0
  0
LINE
  5
4b9
100
AcDbEntity
  8
Layer_1
 62
7
100
AcDbLine
 10
4.196735
 20
8.669171
 30
0.0
 11
4.192203
 21
8.678888
 31
0.0
  0
LINE
  5
4ba
100
AcDbEntity
  8
Layer_1
 62
7
100
AcDbLine
 10
4.192203
 20
8.678888
 30
0.0
 11
4.189429
 21
8.689246
 31
0.0
  0
LINE
  5
4bb
100
AcDbEntity
  8
Layer_1
 62
7
100
AcDbLine
 10
4.189429
 20
8.689246
 30
0.0
 11
4.188493
 21
8.699927
 31
0.0
  0
LINE
  5
4bc
100
AcDbEntity
  8
Layer_1
 62
7
100
AcDbLine
 10
4.188493
 20
8.699927
 30
0.0
 11
4.189429
 21
8.710608
 31
0.0
  0
LINE
  5
4bd
100
AcDbEntity
  8
Layer_1
 62
7
100
AcDbLine
 10
4.189429
 20
8.710608
 30
0.0
 11
4.192203
 21
8.720966
 31
0.0
  0
LINE
  5
4be
100
AcDbEntity
  8
Layer_1
 62
7
100
AcDbLine
 10
4.192203
 20
8.720966
 30
0.0
 11
4.196735
 21
8.730687
 31
0.0
  0
LINE
  5
4bf
100
AcDbEntity
  8
Layer_1
 62
7
100
AcDbLine
 10
4.196735
 20
8.730687
 30
0.0
 11
4.202886
 21
8.739470
 31
0.0
  0
LINE
  5
4c0
100
AcDbEntity
  8
Layer_1
 62
7
100
AcDbLine
 10
4.202886
 20
8.739470
 30
0.0
 11
4.210468
 21
8.747053
 31
0.0
  0
LINE
  5
4c1
100
AcDbEntity
  8
Layer_1
 62
7
100
AcDbLine
 10
4.210468
 20
8.747053
 30
0.0
 11
4.219252
 21
8.753203
 31
0.0
  0
LINE
  5
4c2
100
AcDbEntity
  8
Layer_1
 62
7
100
AcDbLine
 10
4.219252
 20
8.753203
 30
0.0
 11
4.228970
 21
8.757734
 31
0.0
  0
LINE
  5
4c3
100
AcDbEntity
  8
Layer_1
 62
7
100
AcDbLine
 10
4.228970
 20
8.757734
 30
0.0
 11
4.239327
 21
8.760510
 31
0.0
  0
LINE
  5
4c4
100
AcDbEntity
  8
Layer_1
 62
7
100
AcDbLine
 10
4.239327
 20
8.760510
 30
0.0
 11
4.250009
 21
8.761443
 31
0.0
  0
LINE
  5
4c5
100
AcDbEntity
  8
Layer_1
 62
7
100
AcDbLine
 10
4.250009
 20
8.761443
 30
0.0
 11
4.260691
 21
8.760510
 31
0.0
  0
LINE
  5
4c6
100
AcDbEntity
  8
Layer_1
 62
7
100
AcDbLine
 10
4.260691
 20
8.760510
 30
0.0
 11
4.271049
 21
8.757734
 31
0.0
  0
LINE
  5
4c7
100
AcDbEntity
  8
Layer_1
 62
7
100
AcDbLine
 10
4.271049
 20
8.757734
 30
0.0
 11
4.280767
 21
8.753203
 31
0.0
  0
LINE
  5
4c8
100
AcDbEntity
  8
Layer_1
 62
7
100
AcDbLine
 10
4.280767
 20
8.753203
 30
0.0
 11
4.289550
 21
8.747053
 31
0.0
  0
LINE
  5
4c9
100
AcDbEntity
  8
Layer_1
 62
7
100
AcDbLine
 10
4.289550
 20
8.747053
 30
0.0
 11
4.297133
 21
8.739470
 31
0.0
  0
LINE
  5
4ca
100
AcDbEntity
  8
Layer_1
 62
7
100
AcDbLine
 10
4.297133
 20
8.739470
 30
0.0
 11
4.303283
 21
8.730687
 31
0.0
  0
LINE
  5
4cb
100
AcDbEntity
  8
Layer_1
 62
7
100
AcDbLine
 10
4.303283
 20
8.730687
 30
0.0
 11
4.307815
 21
8.720966
 31
0.0
  0
LINE
  5
4cc
100
AcDbEntity
  8
Layer_1
 62
7
100
AcDbLine
 10
4.307815
 20
8.720966
 30
0.0
 11
4.310590
 21
8.710608
 31
0.0
  0
LINE
  5
4cd
100
AcDbEntity
  8
Layer_1
 62
7
100
AcDbLine
 10
4.310590
 20
8.710608
 30
0.0
 11
4.311525
 21
8.699927
 31
0.0
  0
LINE
  5
4ce
100
AcDbEntity
  8
Layer_1
 62
7
100
AcDbLine
 10
4.311525
 20
8.699927
 30
0.0
 11
4.310590
 21
8.689246
 31
0.0
  0
LINE
  5
4cf
100
AcDbEntity
  8
Layer_1
 62
7
100
AcDbLine
 10
4.310590
 20
8.689246
 30
0.0
 11
4.307815
 21
8.678888
 31
0.0
  0
LINE
  5
4d0
100
AcDbEntity
  8
Layer_1
 62
7
100
AcDbLine
 10
4.307815
 20
8.678888
 30
0.0
 11
4.303283
 21
8.669171
 31
0.0
  0
LINE
  5
4d1
100
AcDbEntity
  8
Layer_1
 62
7
100
AcDbLine
 10
4.303283
 20
8.669171
 30
0.0
 11
4.297133
 21
8.660388
 31
0.0
  0
LINE
  5
4d2
100
AcDbEntity
  8
Layer_1
 62
7
100
AcDbLine
 10
4.297133
 20
8.660388
 30
0.0
 11
4.289550
 21
8.652805
 31
0.0
  0
LINE
  5
4d3
100
AcDbEntity
  8
Layer_1
 62
7
100
AcDbLine
 10
4.289550
 20
8.652805
 30
0.0
 11
4.280767
 21
8.646652
 31
0.0
  0
LINE
  5
4d4
100
AcDbEntity
  8
Layer_1
 62
7
100
AcDbLine
 10
4.280767
 20
8.646652
 30
0.0
 11
4.271049
 21
8.642120
 31
0.0
  0
LINE
  5
4d5
100
AcDbEntity
  8
Layer_1
 62
7
100
AcDbLine
 10
4.271049
 20
8.642120
 30
0.0
 11
4.260691
 21
8.639348
 31
0.0
  0
LINE
  5
4d6
100
AcDbEntity
  8
Layer_1
 62
7
100
AcDbLine
 10
4.260691
 20
8.639348
 30
0.0
 11
4.250009
 21
8.638412
 31
0.0
  0
LINE
  5
4d7
100
AcDbEntity
  8
Layer_1
 62
7
100
AcDbLine
 10
4.250009
 20
8.638412
 30
0.0
 11
4.239327
 21
8.639348
 31
0.0
  0
LINE
  5
4d8
100
AcDbEntity
  8
Layer_1
 62
7
100
AcDbLine
 10
2.984348
 20
2.215624
 30
0.0
 11
2.973990
 21
2.218379
 31
0.0
  0
LINE
  5
4d9
100
AcDbEntity
  8
Layer_1
 62
7
100
AcDbLine
 10
2.973990
 20
2.218379
 30
0.0
 11
2.964273
 21
2.222907
 31
0.0
  0
LINE
  5
4da
100
AcDbEntity
  8
Layer_1
 62
7
100
AcDbLine
 10
2.964273
 20
2.222907
 30
0.0
 11
2.955490
 21
2.229088
 31
0.0
  0
LINE
  5
4db
100
AcDbEntity
  8
Layer_1
 62
7
100
AcDbLine
 10
2.955490
 20
2.229088
 30
0.0
 11
2.947907
 21
2.236647
 31
0.0
  0
LINE
  5
4dc
100
AcDbEntity
  8
Layer_1
 62
7
100
AcDbLine
 10
2.947907
 20
2.236647
 30
0.0
 11
2.941754
 21
2.245427
 31
0.0
  0
LINE
  5
4dd
100
AcDbEntity
  8
Layer_1
 62
7
100
AcDbLine
 10
2.941754
 20
2.245427
 30
0.0
 11
2.937226
 21
2.255151
 31
0.0
  0
LINE
  5
4de
100
AcDbEntity
  8
Layer_1
 62
7
100
AcDbLine
 10
2.937226
 20
2.255151
 30
0.0
 11
2.934451
 21
2.265505
 31
0.0
  0
LINE
  5
4df
100
AcDbEntity
  8
Layer_1
 62
7
100
AcDbLine
 10
2.934451
 20
2.265505
 30
0.0
 11
2.933514
 21
2.276214
 31
0.0
  0
LINE
  5
4e0
100
AcDbEntity
  8
Layer_1
 62
7
100
AcDbLine
 10
2.933514
 20
2.276214
 30
0.0
 11
2.934451
 21
2.286883
 31
0.0
  0
LINE
  5
4e1
100
AcDbEntity
  8
Layer_1
 62
7
100
AcDbLine
 10
2.934451
 20
2.286883
 30
0.0
 11
2.937226
 21
2.297238
 31
0.0
  0
LINE
  5
4e2
100
AcDbEntity
  8
Layer_1
 62
7
100
AcDbLine
 10
2.937226
 20
2.297238
 30
0.0
 11
2.941754
 21
2.306962
 31
0.0
  0
LINE
  5
4e3
100
AcDbEntity
  8
Layer_1
 62
7
100
AcDbLine
 10
2.941754
 20
2.306962
 30
0.0
 11
2.947907
 21
2.315742
 31
0.0
  0
LINE
  5
4e4
100
AcDbEntity
  8
Layer_1
 62
7
100
AcDbLine
 10
2.947907
 20
2.315742
 30
0.0
 11
2.955490
 21
2.323340
 31
0.0
  0
LINE
  5
4e5
100
AcDbEntity
  8
Layer_1
 62
7
100
AcDbLine
 10
2.955490
 20
2.323340
 30
0.0
 11
2.964273
 21
2.329482
 31
0.0
  0
LINE
  5
4e6
100
AcDbEntity
  8
Layer_1
 62
7
100
AcDbLine
 10
2.964273
 20
2.329482
 30
0.0
 11
2.973990
 21
2.334009
 31
0.0
  0
LINE
  5
4e7
100
AcDbEntity
  8
Layer_1
 62
7
100
AcDbLine
 10
2.973990
 20
2.334009
 30
0.0
 11
2.984348
 21
2.336765
 31
0.0
  0
LINE
  5
4e8
100
AcDbEntity
  8
Layer_1
 62
7
100
AcDbLine
 10
2.984348
 20
2.336765
 30
0.0
 11
2.995029
 21
2.337710
 31
0.0
  0
LINE
  5
4e9
100
AcDbEntity
  8
Layer_1
 62
7
100
AcDbLine
 10
2.995029
 20
2.337710
 30
0.0
 11
3.005710
 21
2.336765
 31
0.0
  0
LINE
  5
4ea
100
AcDbEntity
  8
Layer_1
 62
7
100
AcDbLine
 10
3.005710
 20
2.336765
 30
0.0
 11
3.016069
 21
2.334009
 31
0.0
  0
LINE
  5
4eb
100
AcDbEntity
  8
Layer_1
 62
7
100
AcDbLine
 10
3.016069
 20
2.334009
 30
0.0
 11
3.025789
 21
2.329482
 31
0.0
  0
LINE
  5
4ec
100
AcDbEntity
  8
Layer_1
 62
7
100
AcDbLine
 10
3.025789
 20
2.329482
 30
0.0
 11
3.034573
 21
2.323340
 31
0.0
  0
LINE
  5
4ed
100
AcDbEntity
  8
Layer_1
 62
7
100
AcDbLine
 10
3.034573
 20
2.323340
 30
0.0
 11
3.042155
 21
2.315742
 31
0.0
  0
LINE
  5
4ee
100
AcDbEntity
  8
Layer_1
 62
7
100
AcDbLine
 10
3.042155
 20
2.315742
 30
0.0
 11
3.048305
 21
2.306962
 31
0.0
  0
LINE
  5
4ef
100
AcDbEntity
  8
Layer_1
 62
7
100
AcDbLine
 10
3.048305
 20
2.306962
 30
0.0
 11
3.052836
 21
2.297238
 31
0.0
  0
LINE
  5
4f0
100
AcDbEntity
  8
Layer_1
 62
7
100
AcDbLine
 10
3.052836
 20
2.297238
 30
0.0
 11
3.055612
 21
2.286883
 31
0.0
  0
LINE
  5
4f1
100
AcDbEntity
  8
Layer_1
 62
7
100
AcDbLine
 10
3.055612
 20
2.286883
 30
0.0
 11
3.056545
 21
2.276214
 31
0.0
  0
LINE
  5
4f2
100
AcDbEntity
  8
Layer_1
 62
7
100
AcDbLine
 10
3.056545
 20
2.276214
 30
0.0
 11
3.055612
 21
2.265505
 31
0.0
  0
LINE
  5
4f3
100
AcDbEntity
  8
Layer_1
 62
7
100
AcDbLine
 10
3.055612
 20
2.265505
 30
0.0
 11
3.052836
 21
2.255151
 31
0.0
  0
LINE
  5
4f4
100
AcDbEntity
  8
Layer_1
 62
7
100
AcDbLine
 10
3.052836
 20
2.255151
 30
0.0
 11
3.048305
 21
2.245427
 31
0.0
  0
LINE
  5
4f5
100
AcDbEntity
  8
Layer_1
 62
7
100
AcDbLine
 10
3.048305
 20
2.245427
 30
0.0
 11
3.042155
 21
2.236647
 31
0.0
  0
LINE
  5
4f6
100
AcDbEntity
  8
Layer_1
 62
7
100
AcDbLine
 10
3.042155
 20
2.236647
 30
0.0
 11
3.034573
 21
2.229088
 31
0.0
  0
LINE
  5
4f7
100
AcDbEntity
  8
Layer_1
 62
7
100
AcDbLine
 10
3.034573
 20
2.229088
 30
0.0
 11
3.025789
 21
2.222907
 31
0.0
  0
LINE
  5
4f8
100
AcDbEntity
  8
Layer_1
 62
7
100
AcDbLine
 10
3.025789
 20
2.222907
 30
0.0
 11
3.016069
 21
2.218379
 31
0.0
  0
LINE
  5
4f9
100
AcDbEntity
  8
Layer_1
 62
7
100
AcDbLine
 10
3.016069
 20
2.218379
 30
0.0
 11
3.005710
 21
2.215624
 31
0.0
  0
LINE
  5
4fa
100
AcDbEntity
  8
Layer_1
 62
7
100
AcDbLine
 10
3.005710
 20
2.215624
 30
0.0
 11
2.995029
 21
2.214679
 31
0.0
  0
LINE
  5
4fb
100
AcDbEntity
  8
Layer_1
 62
7
100
AcDbLine
 10
2.995029
 20
2.214679
 30
0.0
 11
2.984348
 21
2.215624
 31
0.0
  0
LINE
  5
4fc
100
AcDbEntity
  8
Layer_1
 62
7
100
AcDbLine
 10
5.494305
 20
2.215624
 30
0.0
 11
5.483951
 21
2.218379
 31
0.0
  0
LINE
  5
4fd
100
AcDbEntity
  8
Layer_1
 62
7
100
AcDbLine
 10
5.483951
 20
2.218379
 30
0.0
 11
5.474230
 21
2.222907
 31
0.0
  0
LINE
  5
4fe
100
AcDbEntity
  8
Layer_1
 62
7
100
AcDbLine
 10
5.474230
 20
2.222907
 30
0.0
 11
5.465447
 21
2.229088
 31
0.0
  0
LINE
  5
4ff
100
AcDbEntity
  8
Layer_1
 62
7
100
AcDbLine
 10
5.465447
 20
2.229088
 30
0.0
 11
5.457864
 21
2.236647
 31
0.0
  0
LINE
  5
500
100
AcDbEntity
  8
Layer_1
 62
7
100
AcDbLine
 10
5.457864
 20
2.236647
 30
0.0
 11
5.451715
 21
2.245427
 31
0.0
  0
LINE
  5
501
100
AcDbEntity
  8
Layer_1
 62
7
100
AcDbLine
 10
5.451715
 20
2.245427
 30
0.0
 11
5.447183
 21
2.255151
 31
0.0
  0
LINE
  5
502
100
AcDbEntity
  8
Layer_1
 62
7
100
AcDbLine
 10
5.447183
 20
2.255151
 30
0.0
 11
5.444407
 21
2.265505
 31
0.0
  0
LINE
  5
503
100
AcDbEntity
  8
Layer_1
 62
7
100
AcDbLine
 10
5.444407
 20
2.265505
 30
0.0
 11
5.443471
 21
2.276214
 31
0.0
  0
LINE
  5
504
100
AcDbEntity
  8
Layer_1
 62
7
100
AcDbLine
 10
5.443471
 20
2.276214
 30
0.0
 11
5.444407
 21
2.286883
 31
0.0
  0
LINE
  5
505
100
AcDbEntity
  8
Layer_1
 62
7
100
AcDbLine
 10
5.444407
 20
2.286883
 30
0.0
 11
5.447183
 21
2.297238
 31
0.0
  0
LINE
  5
506
100
AcDbEntity
  8
Layer_1
 62
7
100
AcDbLine
 10
5.447183
 20
2.297238
 30
0.0
 11
5.451715
 21
2.306962
 31
0.0
  0
LINE
  5
507
100
AcDbEntity
  8
Layer_1
 62
7
100
AcDbLine
 10
5.451715
 20
2.306962
 30
0.0
 11
5.457864
 21
2.315742
 31
0.0
  0
LINE
  5
508
100
AcDbEntity
  8
Layer_1
 62
7
100
AcDbLine
 10
5.457864
 20
2.315742
 30
0.0
 11
5.465447
 21
2.323340
 31
0.0
  0
LINE
  5
509
100
AcDbEntity
  8
Layer_1
 62
7
100
AcDbLine
 10
5.465447
 20
2.323340
 30
0.0
 11
5.474230
 21
2.329482
 31
0.0
  0
LINE
  5
50a
100
AcDbEntity
  8
Layer_1
 62
7
100
AcDbLine
 10
5.474230
 20
2.329482
 30
0.0
 11
5.483951
 21
2.334009
 31
0.0
  0
LINE
  5
50b
100
AcDbEntity
  8
Layer_1
 62
7
100
AcDbLine
 10
5.483951
 20
2.334009
 30
0.0
 11
5.494305
 21
2.336765
 31
0.0
  0
LINE
  5
50c
100
AcDbEntity
  8
Layer_1
 62
7
100
AcDbLine
 10
5.494305
 20
2.336765
 30
0.0
 11
5.504986
 21
2.337710
 31
0.0
  0
LINE
  5
50d
100
AcDbEntity
  8
Layer_1
 62
7
100
AcDbLine
 10
5.504986
 20
2.337710
 30
0.0
 11
5.515671
 21
2.336765
 31
0.0
  0
LINE
  5
50e
100
AcDbEntity
  8
Layer_1
 62
7
100
AcDbLine
 10
5.515671
 20
2.336765
 30
0.0
 11
5.526029
 21
2.334009
 31
0.0
  0
LINE
  5
50f
100
AcDbEntity
  8
Layer_1
 62
7
100
AcDbLine
 10
5.526029
 20
2.334009
 30
0.0
 11
5.535746
 21
2.329482
 31
0.0
  0
LINE
  5
510
100
AcDbEntity
  8
Layer_1
 62
7
100
AcDbLine
 10
5.535746
 20
2.329482
 30
0.0
 11
5.544530
 21
2.323340
 31
0.0
  0
LINE
  5
511
100
AcDbEntity
  8
Layer_1
 62
7
100
AcDbLine
 10
5.544530
 20
2.323340
 30
0.0
 11
5.552112
 21
2.315742
 31
0.0
  0
LINE
  5
512
100
AcDbEntity
  8
Layer_1
 62
7
100
AcDbLine
 10
5.552112
 20
2.315742
 30
0.0
 11
5.558262
 21
2.306962
 31
0.0
  0
LINE
  5
513
100
AcDbEntity
  8
Layer_1
 62
7
100
AcDbLine
 10
5.558262
 20
2.306962
 30
0.0
 11
5.562793
 21
2.297238
 31
0.0
  0
LINE
  5
514
100
AcDbEntity
  8
Layer_1
 62
7
100
AcDbLine
 10
5.562793
 20
2.297238
 30
0.0
 11
5.565569
 21
2.286883
 31
0.0
  0
LINE
  5
515
100
AcDbEntity
  8
Layer_1
 62
7
100
AcDbLine
 10
5.565569
 20
2.286883
 30
0.0
 11
5.566506
 21
2.276214
 31
0.0
  0
LINE
  5
516
100
AcDbEntity
  8
Layer_1
 62
7
100
AcDbLine
 10
5.566506
 20
2.276214
 30
0.0
 11
5.565569
 21
2.265505
 31
0.0
  0
LINE
  5
517
100
AcDbEntity
  8
Layer_1
 62
7
100
AcDbLine
 10
5.565569
 20
2.265505
 30
0.0
 11
5.562793
 21
2.255151
 31
0.0
  0
LINE
  5
518
100
AcDbEntity
  8
Layer_1
 62
7
100
AcDbLine
 10
5.562793
 20
2.255151
 30
0.0
 11
5.558262
 21
2.245427
 31
0.0
  0
LINE
  5
519
100
AcDbEntity
  8
Layer_1
 62
7
100
AcDbLine
 10
5.558262
 20
2.245427
 30
0.0
 11
5.552112
 21
2.236647
 31
0.0
  0
LINE
  5
51a
100
AcDbEntity
  8
Layer_1
 62
7
100
AcDbLine
 10
5.552112
 20
2.236647
 30
0.0
 11
5.544530
 21
2.229088
 31
0.0
  0
LINE
  5
51b
100
AcDbEntity
  8
Layer_1
 62
7
100
AcDbLine
 10
5.544530
 20
2.229088
 30
0.0
 11
5.535746
 21
2.222907
 31
0.0
  0
LINE
  5
51c
100
AcDbEntity
  8
Layer_1
 62
7
100
AcDbLine
 10
5.535746
 20
2.222907
 30
0.0
 11
5.526029
 21
2.218379
 31
0.0
  0
LINE
  5
51d
100
AcDbEntity
  8
Layer_1
 62
7
100
AcDbLine
 10
5.526029
 20
2.218379
 30
0.0
 11
5.515671
 21
2.215624
 31
0.0
  0
LINE
  5
51e
100
AcDbEntity
  8
Layer_1
 62
7
100
AcDbLine
 10
5.515671
 20
2.215624
 30
0.0
 11
5.504986
 21
2.214679
 31
0.0
  0
LINE
  5
51f
100
AcDbEntity
  8
Layer_1
 62
7
100
AcDbLine
 10
5.504986
 20
2.214679
 30
0.0
 11
5.494305
 21
2.215624
 31
0.0
  0
ENDSEC
  0
SECTION
  2
OBJECTS
  0
DICTIONARY
  5
C
330
0
100
AcDbDictionary
  3
ACAD_GROUP
350
D
  3
ACAD_MLINESTYLE
350
17
  0
DICTIONARY
  5
D
330
C
100
AcDbDictionary
  0
DICTIONARY
  5
1A
330
C
100
AcDbDictionary
  0
DICTIONARY
  5
17
330
C
100
AcDbDictionary
  3
STANDARD
350
18
  0
DICTIONARY
  5
19
330
C
100
AcDbDictionary
  0
ENDSEC
  0
EOF
